<svg width="1842" height="620" viewBox="0 0 1842 620" fill="none" xmlns="http://www.w3.org/2000/svg">
<path d="M1518.61 45.4388C1539.04 21.4382 1553.82 1.60539 1587.42 0.0818788C1636.12 -2.12409 1658.94 40.6491 1680.22 79.4549C1690.48 5.90257 1784.26 -21.9006 1825.94 38.5266C1837.16 54.7823 1842.28 78.6055 1841.99 98.6595C1841.46 132.202 1839.89 165.871 1838.81 199.426L1835.87 296.266C1834.45 349.127 1838.72 419.77 1794.07 453.565C1782.64 462.406 1769.24 467.884 1755.21 469.456C1742.47 471.288 1733.73 469.929 1721.29 467.905C1718.87 467.099 1716.5 466.221 1714.12 465.271C1679.4 451.537 1669.12 426.129 1654.89 393.171L1653.78 396.678C1635.54 454.298 1597.02 483.242 1539.27 462.391C1511.43 452.336 1500.63 430.149 1489.01 403.469C1484.99 407.97 1480.93 412.414 1476.8 416.803C1407.61 490.021 1305.3 489.733 1236.97 415.271C1231.32 408.565 1228.78 404.521 1224.14 397.112C1212.02 380.412 1204.26 347.424 1199.52 327.03C1193.73 330.86 1186.15 334.694 1179.98 338.037C1168.14 340.932 1157.93 343.019 1145.65 342.708C1147.47 382.534 1152.22 429.247 1124.95 461.252C1094.22 497.307 1034.37 498.096 1001.25 465.369C975.869 440.296 972.676 399.268 971.691 364.377L970.569 346.807C969.319 334.581 969.222 323.889 969.031 311.574C968.496 284.551 967.062 255.404 968.797 228.651C958.221 231.222 949.046 233.288 938.158 234.01L941.629 328.618C941.988 338.563 941.997 364.037 943.265 372.456L944.408 392.307C944.595 402.448 944.439 417.13 942.307 427.041C934.721 465.639 920.935 485.628 887.052 501.308C869.025 506.481 859.019 506.748 840.009 505.509C754.981 485.085 760.694 411.946 758.729 335.069C758.007 306.721 759.004 278.013 757.662 249.665C741.589 253.06 733.97 253.563 717.517 251.019C735.354 311.407 767.811 423.107 740.313 481.095C730.44 501.955 713.081 517.613 692.224 524.477C670.891 531.653 647.767 529.399 627.99 518.214C609.218 507.404 598.918 491.814 590.119 471.772C584.558 472.052 577.887 472.181 572.482 473.118C556.494 554.551 491.174 568.86 431.192 530.688C418.298 550.321 403.284 562.25 380.578 566.445C357.883 570.617 334.574 564.913 315.813 550.596C302.295 540.222 294.642 528.551 287.368 512.801C261.501 558.805 223.105 566.631 181.258 538.642C179.823 537.68 178.404 536.693 177 535.683C171.828 569.352 165.356 594.263 134.414 610.777C109.643 623.093 88.4295 621.755 62.8288 614.467C61.8747 614.083 60.9323 613.67 59.9997 613.234C32.7206 600.422 22.5314 584.418 12.3558 556.137C9.16639 545.502 8.05459 537.845 6.66241 526.852C4.45827 513.011 2.88698 482.193 2.18796 467.824C-0.954679 410.022 -0.711318 352.068 2.91421 294.3C4.07663 273.943 4.83798 247.125 9.96278 227.981C21.3476 185.441 50.9067 142.743 95.7487 141.216C127.323 140.141 152.824 155.343 174.079 179.168C184.769 191.151 193.727 204.149 205.083 215.256C229.735 187.616 241.235 131.144 283.162 109.099C299.518 96.5495 314.822 96.7854 333.91 98.1169C418.929 110.098 413.163 205.22 425.052 271.514C431.394 254.356 436.48 229.323 441.741 211.08C454.954 165.256 476.421 105.734 514.914 77.5077C534.554 63.0781 558.764 57.6791 582.142 62.5126C614.401 69.191 640.498 96.7624 658.359 124.887C663.691 113.771 686.813 81.1913 694.597 70.9962C717.308 41.2585 765.869 41.9034 799.802 40.0292C803.143 38.5558 820.951 37.7482 825.529 37.5186C854.118 36.0431 882.603 32.5161 911.163 30.5188C941.516 28.3963 966.202 28.1793 991.333 49.2559C997.872 43.3267 1012.14 29.9991 1020.92 27.3612C1065.9 13.8457 1125.49 15.4861 1172.57 14.7118C1193.45 14.3675 1211.04 28.8972 1225.12 42.0995C1238.73 27.5594 1249.64 14.6513 1268.81 8.32137C1301.31 -2.40375 1333.11 10.3437 1352.58 39.6912C1356.62 45.7831 1360.08 51.5182 1363.65 58.0902C1387.07 29.9115 1404.2 2.81796 1443.96 0.776868C1477.52 -0.944911 1500 18.1616 1518.61 45.4388Z" fill="#1A274E"/>
<path d="M905.87 58.3807C916.85 57.3184 935.823 56.6485 946.473 58.1825C956.916 59.6872 968.16 69.8634 973.801 78.8355C983.587 94.3962 987.341 118.881 983.521 136.143C971.772 189.217 941.909 164.35 910.849 179.44C907.566 181.771 905.34 187.195 905.451 191.127C907.408 260.24 916.129 329.746 910.956 398.928C908.376 433.422 880.042 451.961 849.458 446.165C831.019 442.669 818.719 430.675 808.246 414.762C789.308 374.483 797.394 253.931 793.518 203.271C793.23 199.489 792.953 192.982 791.012 189.664C786.273 181.564 733.738 198.675 712.097 178.525C702.73 169.802 698.516 153.588 697.741 140.774C696.672 123.092 702.553 101.703 713.797 88.4774C719.603 81.6466 726.671 78.0403 734.869 75.5317C753.74 69.7591 775.303 68.9681 794.799 67.0188C831.763 63.3039 868.793 60.4238 905.87 58.3807Z" fill="white"/>
<path d="M216.779 267.901C223.623 235.062 241.376 185.726 259.017 158.006C274.409 133.139 296.731 114.077 324.454 107.943C344.096 103.596 378.375 129.07 385.771 148.351C398.308 181.044 398.627 218.448 402.697 252.961C407.646 294.932 409.206 339.233 415.567 380.817L415.429 384.989C416.59 398.922 420.18 414.905 422.29 426.254C422.79 428.944 422.411 427.199 423.29 433.254C424.169 439.309 424.347 437.83 423.911 443.254C422.302 463.254 428.383 475.688 412.403 493.718C395.81 519.895 357.831 527.297 334.912 509.368C299.459 481.632 310.151 408.735 294.996 371.613L293.098 371.254C272.195 396.204 277.791 475.11 251.554 500.544C247.962 504.029 240.206 507.093 235.492 508.865C193.668 511.05 188.941 486.993 177.118 450.842C171.417 433.411 164.902 419.351 160.786 400.927C159.358 395.603 159.181 394.495 156.036 389.975L153.753 389.34C148.78 395.872 151.145 411.515 150.859 419.856C149.148 470.022 172.686 566.028 102.349 572.78C49.1847 577.884 35.4245 522.946 32.0852 477.495C31.577 471.092 31.4193 464.662 31.614 458.24C29.6143 445.679 30.0524 423.916 29.3748 410.442C26.5982 355.22 28.6485 298.599 34.6145 243.732C37.4203 217.926 42.2978 186.118 62.9625 169.864C75.1806 160.256 93.6996 150.507 109.148 153.438C141.986 159.665 172.517 194.942 190.23 223.139C199.71 238.235 206.525 253.486 216.779 267.901Z" fill="#FEFEFE"/>
<path d="M1535.38 125.893C1529.22 102.335 1528.4 67.4216 1539.97 45.8107C1548.69 29.5153 1565.19 18.2392 1581.95 13.7188C1595.27 10.1291 1608.39 12.7608 1620.06 20.4306C1662.97 48.6636 1689.47 161.998 1701.91 167.784L1704.91 166.385C1714.61 128.517 1689.24 53.3426 1733.53 28.8934C1776.99 4.89906 1821.43 31.6462 1823.04 84.5183C1824.04 111.482 1822.13 137.194 1821.35 163.952C1820.45 205.381 1818.89 246.789 1816.66 288.158C1813.7 349.771 1816.34 440.046 1730.26 419.867C1696.5 411.953 1678.94 361.222 1669.22 330.716C1663.24 311.946 1654.54 295.233 1652.36 275.373L1650.57 275.703C1645.89 282.579 1645.78 280.282 1639.33 283.731C1640.73 310.439 1636.7 357.605 1630.86 382.968C1617.19 442.235 1522.47 434.198 1522.72 367.109C1522.84 342.145 1525.93 329.877 1529.83 305.695C1533.19 247.278 1534.32 184.436 1535.38 125.893Z" fill="#F43F5E"/>
<path d="M561.366 87.7675C652.01 83.5705 714.869 316.069 717.443 396.133C717.998 413.39 715.975 437.66 703.597 450.491C685.232 469.529 644.788 476.691 629.599 449.318C612.902 412.384 622.49 407.505 578.039 410.264C570.335 410.467 561.44 410.126 553.996 412.061C551.132 412.804 547.532 414.181 545.737 416.849C540.838 424.13 539.152 454.724 529.578 471.263C524.223 480.515 516.783 487.972 506.602 490.263C492.37 493.465 473.152 487.556 461.421 478.799C449 469.531 442.292 456.756 439.734 440.97C428.53 371.869 473.185 177.181 511.148 120.602C523.947 101.527 539.999 91.5262 561.366 87.7675Z" fill="#FEFEFE"/>
<path d="M1404.99 36.1307C1409.41 29.5837 1415.87 24.5707 1421.94 21.0395C1461.45 -1.95301 1505.97 31.03 1508.37 77.1779C1508.97 88.6084 1510.9 122.531 1508.43 130.883C1508.43 133.754 1507.93 134.254 1508.43 137.254V143.254C1509.96 181.07 1509.54 192.437 1506.68 230.254C1506.68 234.754 1506.44 244.725 1506.68 248.517C1508.6 277.633 1501.38 308.022 1491.26 335.046C1448.07 450.278 1295.37 457.961 1251.79 337.754C1247.08 324.754 1235.76 284.754 1235.76 268.429C1236.5 254.573 1232.74 227.428 1233.23 209.642L1231.31 211.233L1229.38 210.577C1223.61 198.955 1223.07 156.908 1233.99 152.247C1235.26 125.212 1236.67 100.55 1238.68 73.5966C1238.88 60.7406 1238.43 54.4191 1245.72 43.3392C1254.22 30.4373 1270.1 21.3693 1284.38 18.844C1298.31 16.4022 1312.58 20.0544 1323.98 28.9826C1348.09 47.7344 1346.26 69.6271 1346.34 97.6848C1347.01 128.583 1344.08 159.333 1342.95 190.045C1341.94 217.504 1333.29 273.066 1356.91 291.077C1362.24 295.072 1368.82 296.652 1375.23 295.479C1408.69 289.289 1394.48 176.43 1393.2 150.933C1391.44 115.938 1385.43 67.0518 1404.99 36.1307Z" fill="#F43F5E"/>
<path d="M1009.78 359.682L1004.95 185.07C1004.25 154.043 1002.08 122.74 1004.98 92.1587C1009.14 49.5483 1051.28 47.574 1082.35 46.7079C1113.67 45.8334 1145.93 38.1449 1177.21 43.544C1185.59 44.9882 1189.68 48.3629 1196.19 53.8851C1214.14 71.539 1221.11 101.091 1204.24 123.044C1191.4 139.749 1161.03 140.454 1141.85 141.166L1115.92 142.113C1111.15 151.513 1112.86 171.845 1113.15 183.294C1142.23 175.474 1184.23 167.27 1203.87 197.642C1212.41 213.798 1217.04 232.529 1212.22 250.909C1211.71 252.904 1211.04 254.849 1210.21 256.721C1206.57 270.074 1204.03 271.967 1194.92 281.496C1174.06 295.69 1147.26 292.29 1124.35 298.599C1123.91 300.039 1123.49 301.389 1123.09 302.654C1124.17 333.972 1131.09 397.989 1109.05 421.023C1082.54 448.744 1034.63 446.943 1012.94 411.527C1009.08 406.522 1003.43 391.164 1004.45 384.632L1006.01 384.212L1009.7 389.999C1009.51 380.113 1009.07 369.488 1009.78 359.682Z" fill="#F43F5E"/>
<path d="M568 206.91C571.051 206.718 579.04 206.276 580.853 208.891C594.446 228.492 597.214 256.218 605.026 278.902C606.784 284.004 608.068 289.22 605.453 292.962C599.243 296.073 590.913 296.478 583.955 297.294C577.231 298.572 553.8 303.631 551.329 300.584C539.286 285.739 562.143 219.042 568 206.91Z" fill="#383B69"/>
<path d="M572.205 216.26C581.662 223.22 594.213 271.564 597.977 284.292L578.391 288.208C571.046 289.268 563.698 290.286 556.344 291.265C558.696 266.774 562.648 238.504 572.205 216.26Z" fill="#080B4F"/>
</svg>
