<svg width="2500" height="800" viewBox="0 0 2500 800" fill="none" xmlns="http://www.w3.org/2000/svg">
<path fill-rule="evenodd" clip-rule="evenodd" d="M669.996 585.713C665.127 584.131 659.415 575.526 655.755 571.586C649.103 564.434 646.661 562.854 652.255 553.594C657.825 544.378 670.141 515.878 677.79 512.134C683.417 514.927 696.917 531.583 698.835 537.471C696.011 547.768 689.524 552.764 683.593 561.204C678.187 568.902 676.949 579.282 669.996 585.713ZM705.99 544.736C715.156 542.611 847.963 565.612 867.237 569.353C894.226 574.594 921.452 578.936 948.7 582.699C958.569 584.061 1023.12 590.882 1026.16 592.781C1028.12 602.05 1013.14 627.129 1006.99 634.682L928.139 631.245C891.923 627.572 685.863 594.137 680.004 590.988C684.017 578.555 697.822 555.789 705.985 544.736L705.99 544.737L705.99 544.736ZM742.88 516.842C770.979 513.217 779.932 550.216 795.457 545.881C795.469 539.428 775.395 527.972 771.461 521C786.682 519.616 791.877 525.529 801.922 534.467C808.553 540.367 821.88 553.987 831.369 551.403C832.197 544.591 809.614 537.684 798.899 525.276C817.549 519.445 851.072 553.164 854.395 558.083L713.065 537.873C709.918 536.443 687.129 512.056 685.333 508.653C710.132 502.632 720.413 542.443 733.422 535.131C733.764 530.02 717.301 517.447 713.148 512.145C716.83 511.762 724.973 513.172 728.845 514.032C741.751 516.909 748.031 538.725 763.104 540.473C767.205 532.416 748.005 525.39 742.88 516.842ZM895.071 539.24C897.649 543.424 895.695 543.311 900.496 548.452C902.867 550.992 905.553 553.88 907.993 556.308C911.363 559.661 922.478 567.869 923.953 570.581C903.869 572.123 875.844 549.301 872.639 543.307L895.077 539.237L895.071 539.241L895.071 539.24ZM902.005 540.333C907.551 539.295 914.801 541.413 920.438 542.473C928.72 544.028 928.974 546.843 934.259 552.407C940.034 558.49 953.091 569.945 957.093 575.274C943.499 577.569 935.454 570.207 926.006 562.641C920.176 557.974 904.762 546.247 902.006 540.328L902.005 540.333ZM935.644 545.243C940.773 545.186 949.274 546.82 954.69 547.62C962.682 548.801 964.003 552.283 969.212 557.837C977.542 566.718 991.126 574.32 996.785 580.307C991.613 580.779 982.294 579.299 976.804 578.501C969.635 577.461 937.238 549.62 935.644 545.243ZM878.159 433.735C951.832 445.302 934.063 547.866 856.251 533.44C810.434 524.944 787.668 466.774 838.122 435.218C842.693 432.36 870.718 432.563 878.159 433.735ZM788.987 434.134C790.539 429.39 793.126 425.081 797.049 422.095C801.981 423.568 815.833 436.99 817.546 441.79C810.955 452.718 806.457 454.692 802.656 468.899C800.013 478.77 802.755 488.398 801.453 493.94C788.946 482.637 776.671 456.159 786.515 440.161C791.523 442.766 796.672 453.219 803.233 452.198C803.312 445.877 792.006 443.683 788.999 434.136L788.989 434.134L788.987 434.134ZM801.126 418.138C803.634 413.779 806.655 411.928 811.592 411.099C817.319 414.828 829.178 423.824 832.465 429.751L822.55 436.781L801.127 418.138L801.126 418.138ZM818.454 408.467C821.751 404.807 817.989 407.663 822.544 407.796C826.341 407.904 829.638 405.886 833.335 408.021C836.061 409.593 847.177 420.243 848.596 423.074L838.642 426.526L818.452 408.469L818.454 408.467ZM808.391 518.158C798.47 518.876 748.817 510.071 735.295 508.023C723.207 506.19 710.788 503.736 698.715 502.245C683.165 500.325 677.316 498.199 666.988 510.476C659.702 519.142 653.578 533.951 648.646 544.36C640.706 561.121 634.904 566.498 661.861 588.979C669.759 595.561 667.178 595.682 678.473 598.033C691.199 600.687 704.075 602.486 716.742 604.985C781.183 617.708 876.515 636.557 941.851 641.446L1013.89 645.166C1016.13 644.075 1038.7 600.021 1034.85 586.344C1031.72 581.161 1016.32 569.14 1010.64 562.537C998.899 548.879 1000.92 548.136 982.273 544.466C959.038 539.894 931.177 536.218 907.553 533.409C913.889 526.54 929.301 520.878 933.482 495.473C935.834 481.179 933.685 465.085 925.826 452.977C909.762 428.229 883.035 401.533 851.086 397.179C832.015 394.577 824.429 393.045 807.184 403.366C778.964 420.248 764.871 453.411 783.158 483.86C790.182 495.555 802.964 508.376 808.399 518.159L808.394 518.158L808.391 518.158Z" fill="#1D2D58"/>
<path fill-rule="evenodd" clip-rule="evenodd" d="M841.99 657.671C869.975 662.632 897.242 683.294 891.893 712.983C886.085 745.217 857.379 750.096 828.591 746.207C750.222 735.618 772.631 645.375 841.989 657.67L841.99 657.671ZM768.585 707.024C757.472 702.342 748.998 676.426 756.317 665.253C763.764 666.808 763.399 674.341 770.32 675.66C773.174 669.938 762.103 663.825 759.003 659.595C767.441 639.497 783.235 665.543 783.083 666.687C778.569 674.668 774.556 676.023 771.157 686.643C768.793 694.031 769.861 703.243 768.581 707.018L768.585 707.024ZM769.346 648.023C771.101 644.689 776.411 641.576 780.327 640.729C785.075 643.067 794.245 652.283 797.291 657.151L787.92 662.192C784.582 659.923 782.905 656.922 779.608 654.241C775.975 651.285 773.028 650.428 769.341 648.022L769.346 648.023ZM785.894 638.178C787.707 636.84 807.14 632.958 813.725 650.604C808.19 654.916 803.572 654.912 798.509 650.531C794.578 647.131 788.181 642.43 785.893 638.18L785.894 638.178ZM827.191 631.239C809.607 627.495 795.044 624.298 774.684 635.149C756.916 644.615 743.985 658.949 744.718 679.503C745.323 696.556 758.47 709.948 768.977 722.961C783.97 741.532 795.869 748.879 820.142 754.619C859.539 763.937 903.455 751.078 903.625 705.339C903.754 670.118 860.548 638.349 827.192 631.245L827.193 631.24L827.191 631.239Z" fill="#1D2D58"/>
<path fill-rule="evenodd" clip-rule="evenodd" d="M669.996 585.713C665.127 584.131 659.415 575.526 655.755 571.586C649.103 564.434 646.661 562.854 652.255 553.594C657.825 544.378 670.141 515.878 677.79 512.134C683.417 514.927 696.917 531.583 698.835 537.471C696.011 547.768 689.524 552.764 683.593 561.204C678.187 568.902 676.949 579.282 669.996 585.713ZM705.99 544.736C715.156 542.611 847.963 565.612 867.237 569.353C894.226 574.594 921.452 578.936 948.7 582.699C958.569 584.061 1023.12 590.882 1026.16 592.781C1028.12 602.05 1013.14 627.129 1006.99 634.682L928.139 631.245C891.923 627.572 685.863 594.137 680.004 590.988C684.017 578.555 697.822 555.789 705.985 544.736L705.99 544.737L705.99 544.736ZM742.88 516.842C770.979 513.217 779.932 550.216 795.457 545.881C795.469 539.428 775.395 527.972 771.461 521C786.682 519.616 791.877 525.529 801.922 534.467C808.553 540.367 821.88 553.987 831.369 551.403C832.197 544.591 809.614 537.684 798.899 525.276C817.549 519.445 851.072 553.164 854.395 558.083L713.065 537.873C709.918 536.443 687.129 512.056 685.333 508.653C710.132 502.632 720.413 542.443 733.422 535.131C733.764 530.02 717.301 517.447 713.148 512.145C716.83 511.762 724.973 513.172 728.845 514.032C741.751 516.909 748.031 538.725 763.104 540.473C767.205 532.416 748.005 525.39 742.88 516.842ZM895.071 539.24C897.649 543.424 895.695 543.311 900.496 548.452C902.867 550.992 905.553 553.88 907.993 556.308C911.363 559.661 922.478 567.869 923.953 570.581C903.869 572.123 875.844 549.301 872.639 543.307L895.077 539.237L895.071 539.241L895.071 539.24ZM902.005 540.333C907.551 539.295 914.801 541.413 920.438 542.473C928.72 544.028 928.974 546.843 934.259 552.407C940.034 558.49 953.091 569.945 957.093 575.274C943.499 577.569 935.454 570.207 926.006 562.641C920.176 557.974 904.762 546.247 902.006 540.328L902.005 540.333ZM935.644 545.243C940.773 545.186 949.274 546.82 954.69 547.62C962.682 548.801 964.003 552.283 969.212 557.837C977.542 566.718 991.126 574.32 996.785 580.307C991.613 580.779 982.294 579.299 976.804 578.501C969.635 577.461 937.238 549.62 935.644 545.243ZM878.159 433.735C951.832 445.302 934.063 547.866 856.251 533.44C810.434 524.944 787.668 466.774 838.122 435.218C842.693 432.36 870.718 432.563 878.159 433.735ZM788.987 434.134C790.539 429.39 793.126 425.081 797.049 422.095C801.981 423.568 815.833 436.99 817.546 441.79C810.955 452.718 806.457 454.692 802.656 468.899C800.013 478.77 802.755 488.398 801.453 493.94C788.946 482.637 776.671 456.159 786.515 440.161C791.523 442.766 796.672 453.219 803.233 452.198C803.312 445.877 792.006 443.683 788.999 434.136L788.989 434.134L788.987 434.134ZM801.126 418.138C803.634 413.779 806.655 411.928 811.592 411.099C817.319 414.828 829.178 423.824 832.465 429.751L822.55 436.781L801.127 418.138L801.126 418.138ZM818.454 408.467C821.751 404.807 817.989 407.663 822.544 407.796C826.341 407.904 829.638 405.886 833.335 408.021C836.061 409.593 847.177 420.243 848.596 423.074L838.642 426.526L818.452 408.469L818.454 408.467ZM808.391 518.158C798.47 518.876 748.817 510.071 735.295 508.023C723.207 506.19 710.788 503.736 698.715 502.245C683.165 500.325 677.316 498.199 666.988 510.476C659.702 519.142 653.578 533.951 648.646 544.36C640.706 561.121 634.904 566.498 661.861 588.979C669.759 595.561 667.178 595.682 678.473 598.033C691.199 600.687 704.075 602.486 716.742 604.985C781.183 617.708 876.515 636.557 941.851 641.446L1013.89 645.166C1016.13 644.075 1038.7 600.021 1034.85 586.344C1031.72 581.161 1016.32 569.14 1010.64 562.537C998.899 548.879 1000.92 548.136 982.273 544.466C959.038 539.894 931.177 536.218 907.553 533.409C913.889 526.54 929.301 520.878 933.482 495.473C935.834 481.179 933.685 465.085 925.826 452.977C909.762 428.229 883.035 401.533 851.086 397.179C832.015 394.577 824.429 393.045 807.184 403.366C778.964 420.248 764.871 453.411 783.158 483.86C790.182 495.555 802.964 508.376 808.399 518.159L808.394 518.158L808.391 518.158Z" fill="#1D2D58"/>
<path fill-rule="evenodd" clip-rule="evenodd" d="M841.99 657.671C869.975 662.632 897.242 683.294 891.893 712.983C886.085 745.217 857.379 750.096 828.591 746.207C750.222 735.618 772.631 645.375 841.989 657.67L841.99 657.671ZM768.585 707.024C757.472 702.342 748.998 676.426 756.317 665.253C763.764 666.808 763.399 674.341 770.32 675.66C773.174 669.938 762.103 663.825 759.003 659.595C767.441 639.497 783.235 665.543 783.083 666.687C778.569 674.668 774.556 676.023 771.157 686.643C768.793 694.031 769.861 703.243 768.581 707.018L768.585 707.024ZM769.346 648.023C771.101 644.689 776.411 641.576 780.327 640.729C785.075 643.067 794.245 652.283 797.291 657.151L787.92 662.192C784.582 659.923 782.905 656.922 779.608 654.241C775.975 651.285 773.028 650.428 769.341 648.022L769.346 648.023ZM785.894 638.178C787.707 636.84 807.14 632.958 813.725 650.604C808.19 654.916 803.572 654.912 798.509 650.531C794.578 647.131 788.181 642.43 785.893 638.18L785.894 638.178ZM827.191 631.239C809.607 627.495 795.044 624.298 774.684 635.149C756.916 644.615 743.985 658.949 744.718 679.503C745.323 696.556 758.47 709.948 768.977 722.961C783.97 741.532 795.869 748.879 820.142 754.619C859.539 763.937 903.455 751.078 903.625 705.339C903.754 670.118 860.548 638.349 827.192 631.245L827.193 631.24L827.191 631.239Z" fill="#1D2D58"/>
<path fill-rule="evenodd" clip-rule="evenodd" d="M2233.92 349.43C2228.57 347.854 2221.68 343.677 2216.51 341.185C2210.17 338.128 2205.44 333.839 2200.41 331.501C2192.15 327.664 2180.33 307.642 2179.5 301.901C2181.95 301.993 2191.27 309.631 2195.22 311.521C2202.48 314.997 2206.27 314.675 2210.61 321.752C2223.13 342.133 2230.67 342.145 2233.92 349.43ZM2340.76 290.127C2345.36 287.52 2356.46 286.247 2362.28 286.56L2367.45 295.433C2356.52 298.655 2347.5 300.356 2340.76 290.128V290.127ZM2193.07 287.202C2197.6 289.63 2209.2 294.05 2212.18 296.61L2203.18 306.239C2197.21 305.129 2176.6 291.664 2174.32 286.638C2178.73 279.268 2186.83 283.863 2193.07 287.202V287.202ZM2184.29 277.959C2190.72 269.996 2194.27 265.286 2204.54 269.003C2208.91 270.587 2223.73 278.321 2227 281.021C2225.58 284.063 2219.67 290.925 2216.13 292.262C2211.32 290.179 2205.8 287.077 2200.52 284.705C2197 283.129 2186.04 279.123 2184.29 277.959H2184.29ZM2213.75 251.729C2221.49 251.39 2237.65 259.503 2243.86 264.173C2242.76 267.43 2235.61 273.892 2232.16 275.547L2201.28 262.093L2213.75 251.73V251.729ZM2219.4 246.767C2222.87 242.59 2228.58 238.451 2233.76 236.121L2259.75 248.625L2249.51 258.693C2246.01 258.499 2222.99 248.773 2219.4 246.767H2219.4H2219.4ZM2250 220.537L2273.56 235.471L2265.8 243.306C2259.58 242.975 2242.63 236.477 2237.99 232.378L2250 220.537H2250ZM2258.67 210.426L2284.2 225.582L2277.94 231.086L2252.64 216.301L2258.67 210.427L2258.67 210.426ZM2342.81 136.295C2348.76 140.03 2357.25 143.182 2362.05 146.572L2352.57 158.631C2347.03 149.81 2320.39 130.276 2318.82 125.942L2324.51 123.106C2330.69 126.61 2336.32 132.225 2342.8 136.295H2342.81ZM2379.02 216.641C2382.27 220.375 2399.78 233.699 2405.16 238.222C2414.65 246.202 2421.8 253.068 2430.75 261.623C2439.07 269.583 2474.6 302.882 2476.48 311.368C2476.27 311.696 2444.01 345.6 2443.28 346.138C2437.64 344.187 2440.41 341.42 2435.03 341.356L2434.14 352.661C2426.98 353.07 2410.62 350.67 2405.57 345.503C2414.79 341.793 2418.56 345.121 2424.64 334.646C2422.89 332.072 2409.25 321.676 2405.61 318.035C2400.3 312.716 2391.34 307.403 2386.01 302.14C2376.39 292.632 2362.52 269.081 2351.91 264.121C2342.27 264.786 2332.9 278.543 2327.49 285.573C2321.59 293.247 2261.46 355.81 2257.35 355.675C2245.9 351.04 2219.56 322.671 2213.64 311.594C2213.22 307.763 2259.44 264.073 2265.21 256.981C2268.18 253.331 2267.38 254.196 2271.1 251.804C2274.59 249.562 2275.83 245.064 2286.51 235.488C2296.62 226.412 2290.56 231.986 2300.34 229.606C2304.09 220.975 2300.95 214.129 2293.88 208.445C2288.14 203.836 2282.94 197.14 2277.21 191.979C2266.04 181.905 2254.75 171.082 2243.38 161.248C2245.24 157.477 2245 160.587 2244.25 156.614C2231.22 149.993 2242.23 161.109 2219.72 140.476C2214.23 135.437 2203.26 125.33 2199.09 119.873C2202.48 110.585 2226.2 77.2102 2233.9 71.5476C2242.32 74.5852 2283.62 108.459 2291.39 116.104C2298.27 122.88 2311.34 133.326 2319.27 139.676C2328.82 147.316 2336.63 157.292 2346.29 164.217L2356.59 163.868C2363.68 155.604 2372.11 147.951 2380.28 140.854C2388.18 134 2395.53 122.973 2403.14 117.231C2418.19 105.888 2446.6 70.6562 2449.87 70.4809C2457.09 72.3822 2478.99 101.762 2481.84 109.147C2476.19 121.448 2443.88 154.909 2432.99 165.063C2424.35 173.111 2412.73 181.214 2404.49 189.246C2397.85 195.716 2378.33 207.222 2379.02 216.642V216.641H2379.02ZM2388 114.99C2385.55 108.988 2360.08 104.226 2353.86 98.1993L2364.56 88.8157C2372.97 91.5413 2394 104.265 2401.15 99.4026C2399.24 92.3003 2375.44 89.5463 2369.02 83.8347C2370.51 80.1636 2372.81 79.6642 2375.9 77.3039L2416.18 91.4115C2413.26 95.2356 2394.92 113.785 2390.78 117.428C2382.01 125.156 2376.35 135.611 2365.57 144.008C2357.67 139.602 2334.25 125.923 2328.6 120.363C2337.68 111.069 2339.55 116.659 2350.32 121.938C2356.33 124.884 2370 133.886 2376.05 130.254C2375.21 123.039 2346.18 117.247 2339.52 111.545C2341.86 107.608 2345.46 103.864 2349.89 102.484C2358.67 104.514 2380.74 120.696 2388 114.989H2388V114.99ZM2158.34 109.518C2158.4 103.627 2172.02 91.3376 2176.41 86.654C2183.21 79.3977 2185.94 67.2808 2193.76 61.2297L2226.21 66.001C2226.1 70.4293 2221.89 74.042 2218.94 77.1836C2218.9 77.2205 2198.27 109.45 2194.02 112.905L2158.34 109.519V109.518ZM2379.56 72.9056C2379.95 70.0864 2384.16 66.4436 2386.51 64.2974C2399.2 64.6936 2427.44 79.7991 2430.59 72.359C2424.21 65.5789 2400.04 64.4727 2390.99 59.3275L2396.48 52.7503C2406.63 58.2325 2427.75 60.1518 2438.9 67.1562C2434.55 73.3775 2428.11 81.7606 2421.53 86.3308L2379.56 72.9048V72.9056H2379.56ZM2312.38 120.927C2299.73 113.494 2292.89 104.563 2286.92 100.027C2277.44 92.8349 2240.3 62.9591 2231.52 60.8076C2224.2 59.0146 2196.24 53.4104 2190.17 54.1694C2184.09 58.1688 2178.87 68.5701 2175.33 74.9419C2170.4 83.8218 2165.58 87.113 2159.48 94.4835C2142.42 115.114 2157.69 124.628 2173.95 137.648L2192.65 154.494C2202.09 163.4 2232.88 185.66 2240.93 196.834C2244.46 201.739 2247.33 201.514 2250.45 205.368C2246.55 217.314 2211.83 240.225 2207.13 245.564C2199.54 254.187 2165.64 280.979 2164.11 288.077C2163.23 292.177 2174.73 309.618 2177.41 315.228C2181.05 322.857 2181.73 321.113 2186.84 326.608C2192.61 332.819 2188.38 332.409 2197.41 338.122C2205.23 343.067 2248.59 367.211 2256.01 365.953C2273.9 356.245 2282.19 344.565 2296.24 331.103C2302.7 324.911 2309.73 319.39 2316.06 312.97C2320.44 308.53 2330.2 296.687 2333.93 293.704C2335.87 294.825 2354.29 310.584 2357.09 313.136C2361.05 316.758 2364.99 318.901 2369.06 323.165C2373.76 328.084 2375.03 330.316 2380.84 334.626C2390.28 341.623 2392.92 348.846 2404.59 355.067C2410.77 358.362 2438.09 360.574 2444.74 358.499C2449.71 353.562 2455.15 346.122 2460.88 340.385C2471.68 329.573 2485.7 320.245 2483.86 312.807C2482.76 308.344 2482.37 303.796 2479.65 299.828C2472.77 289.804 2419.41 236.264 2410.42 229.597C2407.06 227.105 2393.69 216.446 2392.1 213.748C2395.18 209.008 2412.94 194.924 2418.44 190.705C2425.48 185.296 2438.56 172.435 2445.06 165.852C2465.41 145.261 2475.79 133.581 2490 107.995C2488.77 102.078 2478.29 90.1755 2474.12 84.6212C2468.56 77.2128 2459.63 71.3593 2454.34 65.2489C2447.53 57.3652 2449.31 61.3646 2439.88 59.9326C2435.6 59.282 2429.93 55.8739 2425.81 54.1514C2413.19 48.8832 2404.27 50.39 2394.81 47C2385.7 51.9905 2339.21 110.36 2312.38 120.926V120.927Z" fill="#1D2D58"/>
<path fill-rule="evenodd" clip-rule="evenodd" d="M2233.92 349.43C2228.57 347.854 2221.68 343.677 2216.51 341.185C2210.17 338.128 2205.44 333.839 2200.41 331.501C2192.15 327.664 2180.33 307.642 2179.5 301.901C2181.95 301.993 2191.27 309.631 2195.22 311.521C2202.48 314.997 2206.27 314.675 2210.61 321.752C2223.13 342.133 2230.67 342.145 2233.92 349.43ZM2340.76 290.127C2345.36 287.52 2356.46 286.247 2362.28 286.56L2367.45 295.433C2356.52 298.655 2347.5 300.356 2340.76 290.128V290.127ZM2193.07 287.202C2197.6 289.63 2209.2 294.05 2212.18 296.61L2203.18 306.239C2197.21 305.129 2176.6 291.664 2174.32 286.638C2178.73 279.268 2186.83 283.863 2193.07 287.202V287.202ZM2184.29 277.959C2190.72 269.996 2194.27 265.286 2204.54 269.003C2208.91 270.587 2223.73 278.321 2227 281.021C2225.58 284.063 2219.67 290.925 2216.13 292.262C2211.32 290.179 2205.8 287.077 2200.52 284.705C2197 283.129 2186.04 279.123 2184.29 277.959H2184.29ZM2213.75 251.729C2221.49 251.39 2237.65 259.503 2243.86 264.173C2242.76 267.43 2235.61 273.892 2232.16 275.547L2201.28 262.093L2213.75 251.73V251.729ZM2219.4 246.767C2222.87 242.59 2228.58 238.451 2233.76 236.121L2259.75 248.625L2249.51 258.693C2246.01 258.499 2222.99 248.773 2219.4 246.767H2219.4H2219.4ZM2250 220.537L2273.56 235.471L2265.8 243.306C2259.58 242.975 2242.63 236.477 2237.99 232.378L2250 220.537H2250ZM2258.67 210.426L2284.2 225.582L2277.94 231.086L2252.64 216.301L2258.67 210.427L2258.67 210.426ZM2342.81 136.295C2348.76 140.03 2357.25 143.182 2362.05 146.572L2352.57 158.631C2347.03 149.81 2320.39 130.276 2318.82 125.942L2324.51 123.106C2330.69 126.61 2336.32 132.225 2342.8 136.295H2342.81ZM2379.02 216.641C2382.27 220.375 2399.78 233.699 2405.16 238.222C2414.65 246.202 2421.8 253.068 2430.75 261.623C2439.07 269.583 2474.6 302.882 2476.48 311.368C2476.27 311.696 2444.01 345.6 2443.28 346.138C2437.64 344.187 2440.41 341.42 2435.03 341.356L2434.14 352.661C2426.98 353.07 2410.62 350.67 2405.57 345.503C2414.79 341.793 2418.56 345.121 2424.64 334.646C2422.89 332.072 2409.25 321.676 2405.61 318.035C2400.3 312.716 2391.34 307.403 2386.01 302.14C2376.39 292.632 2362.52 269.081 2351.91 264.121C2342.27 264.786 2332.9 278.543 2327.49 285.573C2321.59 293.247 2261.46 355.81 2257.35 355.675C2245.9 351.04 2219.56 322.671 2213.64 311.594C2213.22 307.763 2259.44 264.073 2265.21 256.981C2268.18 253.331 2267.38 254.196 2271.1 251.804C2274.59 249.562 2275.83 245.064 2286.51 235.488C2296.62 226.412 2290.56 231.986 2300.34 229.606C2304.09 220.975 2300.95 214.129 2293.88 208.445C2288.14 203.836 2282.94 197.14 2277.21 191.979C2266.04 181.905 2254.75 171.082 2243.38 161.248C2245.24 157.477 2245 160.587 2244.25 156.614C2231.22 149.993 2242.23 161.109 2219.72 140.476C2214.23 135.437 2203.26 125.33 2199.09 119.873C2202.48 110.585 2226.2 77.2102 2233.9 71.5476C2242.32 74.5852 2283.62 108.459 2291.39 116.104C2298.27 122.88 2311.34 133.326 2319.27 139.676C2328.82 147.316 2336.63 157.292 2346.29 164.217L2356.59 163.868C2363.68 155.604 2372.11 147.951 2380.28 140.854C2388.18 134 2395.53 122.973 2403.14 117.231C2418.19 105.888 2446.6 70.6562 2449.87 70.4809C2457.09 72.3822 2478.99 101.762 2481.84 109.147C2476.19 121.448 2443.88 154.909 2432.99 165.063C2424.35 173.111 2412.73 181.214 2404.49 189.246C2397.85 195.716 2378.33 207.222 2379.02 216.642V216.641H2379.02ZM2388 114.99C2385.55 108.988 2360.08 104.226 2353.86 98.1993L2364.56 88.8157C2372.97 91.5413 2394 104.265 2401.15 99.4026C2399.24 92.3003 2375.44 89.5463 2369.02 83.8347C2370.51 80.1636 2372.81 79.6642 2375.9 77.3039L2416.18 91.4115C2413.26 95.2356 2394.92 113.785 2390.78 117.428C2382.01 125.156 2376.35 135.611 2365.57 144.008C2357.67 139.602 2334.25 125.923 2328.6 120.363C2337.68 111.069 2339.55 116.659 2350.32 121.938C2356.33 124.884 2370 133.886 2376.05 130.254C2375.21 123.039 2346.18 117.247 2339.52 111.545C2341.86 107.608 2345.46 103.864 2349.89 102.484C2358.67 104.514 2380.74 120.696 2388 114.989H2388V114.99ZM2158.34 109.518C2158.4 103.627 2172.02 91.3376 2176.41 86.654C2183.21 79.3977 2185.94 67.2808 2193.76 61.2297L2226.21 66.001C2226.1 70.4293 2221.89 74.042 2218.94 77.1836C2218.9 77.2205 2198.27 109.45 2194.02 112.905L2158.34 109.519V109.518ZM2379.56 72.9056C2379.95 70.0864 2384.16 66.4436 2386.51 64.2974C2399.2 64.6936 2427.44 79.7991 2430.59 72.359C2424.21 65.5789 2400.04 64.4727 2390.99 59.3275L2396.48 52.7503C2406.63 58.2325 2427.75 60.1518 2438.9 67.1562C2434.55 73.3775 2428.11 81.7606 2421.53 86.3308L2379.56 72.9048V72.9056H2379.56ZM2312.38 120.927C2299.73 113.494 2292.89 104.563 2286.92 100.027C2277.44 92.8349 2240.3 62.9591 2231.52 60.8076C2224.2 59.0146 2196.24 53.4104 2190.17 54.1694C2184.09 58.1688 2178.87 68.5701 2175.33 74.9419C2170.4 83.8218 2165.58 87.113 2159.48 94.4835C2142.42 115.114 2157.69 124.628 2173.95 137.648L2192.65 154.494C2202.09 163.4 2232.88 185.66 2240.93 196.834C2244.46 201.739 2247.33 201.514 2250.45 205.368C2246.55 217.314 2211.83 240.225 2207.13 245.564C2199.54 254.187 2165.64 280.979 2164.11 288.077C2163.23 292.177 2174.73 309.618 2177.41 315.228C2181.05 322.857 2181.73 321.113 2186.84 326.608C2192.61 332.819 2188.38 332.409 2197.41 338.122C2205.23 343.067 2248.59 367.211 2256.01 365.953C2273.9 356.245 2282.19 344.565 2296.24 331.103C2302.7 324.911 2309.73 319.39 2316.06 312.97C2320.44 308.53 2330.2 296.687 2333.93 293.704C2335.87 294.825 2354.29 310.584 2357.09 313.136C2361.05 316.758 2364.99 318.901 2369.06 323.165C2373.76 328.084 2375.03 330.316 2380.84 334.626C2390.28 341.623 2392.92 348.846 2404.59 355.067C2410.77 358.362 2438.09 360.574 2444.74 358.499C2449.71 353.562 2455.15 346.122 2460.88 340.385C2471.68 329.573 2485.7 320.245 2483.86 312.807C2482.76 308.344 2482.37 303.796 2479.65 299.828C2472.77 289.804 2419.41 236.264 2410.42 229.597C2407.06 227.105 2393.69 216.446 2392.1 213.748C2395.18 209.008 2412.94 194.924 2418.44 190.705C2425.48 185.296 2438.56 172.435 2445.06 165.852C2465.41 145.261 2475.79 133.581 2490 107.995C2488.77 102.078 2478.29 90.1755 2474.12 84.6212C2468.56 77.2128 2459.63 71.3593 2454.34 65.2489C2447.53 57.3652 2449.31 61.3646 2439.88 59.9326C2435.6 59.282 2429.93 55.8739 2425.81 54.1514C2413.19 48.8832 2404.27 50.39 2394.81 47C2385.7 51.9905 2339.21 110.36 2312.38 120.926V120.927Z" fill="#1D2D58"/>
<path fill-rule="evenodd" clip-rule="evenodd" d="M130.506 642.397L180.346 671.561C181.854 676.517 181.961 684.493 180.407 689.522L132.655 665.991C131.261 659.64 129.174 648.054 130.504 642.391V642.397H130.506ZM129.288 632.628C141.979 628.904 153.614 633.241 164.637 639.12C176.951 645.691 183.063 648.923 180.275 664.09L140.08 641.757C135.224 638.659 128.227 637.347 129.288 632.631V632.626V632.628ZM18.6608 552.634L65.8113 578.43L66.2273 590.684C61.6436 590.346 22.9803 570.503 19.1241 566.982L18.6608 552.636V552.634ZM18.1265 544.225C17.5666 537.541 16.1057 529.541 17.884 523.156C22.0202 523.745 25.4565 528.485 28.3566 531.583C35.1012 538.799 63.0591 553.666 64.0567 555.699L64.9932 569.976C60.1827 569.259 21.5096 548.077 18.1304 544.225H18.1245H18.1265ZM15.4925 499.747C22.4421 500.003 59.124 528.852 66.2944 534.829C62.2725 542.072 65.2337 541.611 63.1557 548.203C55.2953 547.098 27.986 525.635 19.8831 518.936C16.1845 515.877 14.4516 503.975 15.4945 499.741L15.4886 499.747H15.4925ZM182.308 408.57C186.988 406.507 265.348 407.514 273.835 409.031C284.822 424.998 274.452 518.017 284.493 530.723C287.348 532.796 368.172 529.652 381.787 533.183C383.618 536.941 387.416 617.719 385.974 622.916C371.653 627.995 302.57 617.465 292.955 621.727C289.081 634.075 297.475 728.821 295.131 739.692C288.351 742.084 249.966 740.527 240.785 739.673C234.947 739.127 218.98 739.074 212.9 739.358C206.855 739.639 193.547 743.238 189.145 742.344C186.754 736.057 188.784 704.467 188.877 695.341C188.96 687.173 189.021 679.134 188.66 670.966C187.678 648.59 186.468 659.459 191.252 651.557C187.714 644.94 186.576 647.397 184.36 638.6C182.832 632.535 181.064 629.42 176.86 624.838C170.4 621.258 75.7694 627.432 74.9887 627.21C73.1414 620.305 74.4682 592.147 73.7999 581.975C73.1927 572.755 68.6148 545.905 70.6829 539.171C104.437 534.913 149.49 542.181 181.531 533.464C186.412 528.208 182.442 514.22 182.01 506.849C180.744 485.313 179.788 425.107 182.304 408.57H182.31H182.308ZM288.558 494.903C292.653 495.223 303.281 505.757 308.764 508.769C314.393 511.864 328.481 517.483 329.824 523.199C318.08 527.152 310.667 523.229 302.323 516.142C294.767 509.723 284.757 505.597 288.558 494.9V494.905V494.903ZM22.9054 494.885C54.4022 493.902 87.9987 492.168 119.314 492.291C126.839 492.321 174.952 525.66 176.151 529.823C167.437 531.139 96.4446 530.226 81.4237 530.157C69.1038 530.102 60.7249 520.893 50.8634 513.699C41.9226 507.176 31.373 501.313 22.9113 494.879L22.9054 494.885ZM289.162 489.486L306.702 489.678C314.279 497.158 341.044 519.348 351.301 520.016C351.692 510.552 312.603 499.899 310.381 489.143C316.759 489.262 365.268 517.949 367.85 523.22C362.222 524.846 345.576 524.694 339.553 523.544C327.912 513.249 329.081 514.025 314.811 506.619C308.993 503.598 293.86 493.672 289.164 489.482V489.488L289.162 489.486ZM126.378 473.538L127.228 459.904C131.143 459.889 152.552 474.826 160.268 478.749C164.552 480.925 170.146 481.603 173.746 483.974L177.032 518.806C172.866 518.132 143.534 496.336 135.041 491.828C127.865 488.021 124.943 487.78 126.569 478.273C130.217 478.617 143.071 486.574 146.852 489.102C151.878 492.466 161.838 502.049 167.372 500.771C168.801 490.192 134.276 479.376 126.384 473.537H126.378V473.538ZM128.421 437.926L173.544 470.636L173.88 476.398C167.557 477.036 134.142 458.014 128.426 453.354L128.421 437.922V437.928V437.926ZM128.57 430.882L129.008 414.727C131.019 415.13 171.102 442.379 173.649 445.081L174.061 461.789C169.966 460.827 133.239 434.997 128.572 430.886V430.88L128.57 430.882ZM130.536 392.666C142.98 394.458 162.64 422.744 172.908 421.752C174.045 416.084 167.387 413.737 162.336 409.724C157.979 406.262 153.894 402.145 149.259 398.987C138.394 391.576 126.889 389.592 128.354 375.51C135.977 374.292 145.021 387.307 150.695 391.61C178.432 412.655 174.542 395.043 173.657 435.155C168.74 435.161 134.613 412.233 129.582 407.316L130.534 392.666H130.536ZM137.537 373.919C154.08 370.22 197.208 374.667 218.278 372.869C240.83 370.943 233.484 370.384 248.032 382.8C251.155 385.462 267.461 398.625 268.171 400.643C254.713 402.484 212.162 400.088 186.215 403.074C178.073 404.011 179.611 401.571 172.501 397.583C161.467 391.39 146.308 382.941 137.537 373.925V373.919ZM275.264 398.221C273.084 395.638 271.844 394.031 269.277 391.704C244.688 369.411 246.411 364.466 219.307 365.77C201.771 366.619 184.524 365.752 166.977 365.584C153.135 365.452 131.664 362.651 120.552 370.604C120.402 375.964 122.234 376.999 123.222 382.249C125.207 392.837 118.9 480.356 117.768 485.145C108.751 487.752 14.4358 484.236 10.5776 488.848C9.27638 492.742 10.5362 535.698 10.8496 543.008C11.2144 551.499 5.78287 591.573 20.6126 588.469C22.4283 582.231 18.2507 581.425 19.4651 574.402C23.2977 574.912 27.3098 578.419 30.8644 580.375C37.2481 583.887 39.5213 582.825 44.1918 584.919C47.2003 586.27 48.9904 589.928 54.8754 592.86C58.7336 594.786 63.2405 596.215 66.0834 599.264C66.7675 605.054 67.1441 612.486 65.352 617.937C52.1725 618.12 19.5026 576.971 12.7186 594.131C14.9721 595.84 27.5799 597.461 37.2403 607.185C48.0895 618.103 67.8065 634.965 85.2701 633.015C93.6904 632.072 112.441 631.468 120.404 632.72C126.727 643.22 123.166 686.27 127.281 698.554C127.498 699.198 128.316 699.793 127.991 700.224C125.584 703.441 126.514 702.983 128.361 703.145C129.739 703.264 131.514 704.653 133.367 703.17C134.489 702.27 134.16 698.323 135.23 697.355C144.268 700.847 168.712 719.81 179.973 720.783C180.981 720.871 179.222 719.162 180.046 718.967C180.257 717.572 181.497 717.022 180.175 715.622C175.482 710.646 160.745 704.802 150.57 700.007C148.051 698.818 137.572 693.436 136.105 691.873C133.452 689.05 133.452 677.733 134.546 673.789L180.843 698.24L179.433 734.771C174.901 734.035 158.261 721.839 152.895 718.5C136.182 708.098 132.468 699.994 126.13 704.139C126.613 705.415 137.884 716.894 139.962 718.701C143.008 721.353 152.566 726.839 156.712 729.53C164.988 734.908 182.016 748.814 191.428 747.645C228.774 743.008 212.334 745.749 243.598 746.912C253.383 747.276 292.622 748.893 299.38 747.334C301.454 741.636 299.549 740.763 302.189 733.862C306.978 721.327 296.963 642.297 299.616 629.188C305.399 627.523 338.12 630.107 346.952 630.318C358.29 630.589 385.131 632.317 394.375 627.376C396.345 621.162 393.103 578.04 392.281 568.634C390.671 550.242 393.886 529.936 377.532 518.699C368.812 512.707 323.582 485.364 314.689 483.504C310.022 482.527 294.025 484.929 288.13 483.641C286.289 475.169 286.366 451.225 285.713 440.67C285.291 433.867 285.142 427.036 284.14 420.273C283.754 417.654 282.356 413.317 282.232 411.192C281.979 406.816 283.677 407.981 283.683 403.555C279.32 399.99 279.121 402.789 275.278 398.236L275.262 398.221H275.264Z" fill="#1D2D58"/>
<path fill-rule="evenodd" clip-rule="evenodd" d="M1425.51 662.397L1475.35 691.561C1476.85 696.517 1476.96 704.493 1475.41 709.522L1427.66 685.991C1426.26 679.64 1424.17 668.054 1425.5 662.391V662.397H1425.51ZM1424.29 652.628C1436.98 648.904 1448.61 653.241 1459.64 659.12C1471.95 665.691 1478.06 668.923 1475.28 684.09L1435.08 661.757C1430.22 658.659 1423.23 657.347 1424.29 652.631V652.626V652.628ZM1313.66 572.634L1360.81 598.43L1361.23 610.684C1356.64 610.346 1317.98 590.503 1314.12 586.982L1313.66 572.636V572.634ZM1313.13 564.225C1312.57 557.541 1311.11 549.541 1312.88 543.156C1317.02 543.745 1320.46 548.485 1323.36 551.583C1330.1 558.799 1358.06 573.666 1359.06 575.699L1359.99 589.976C1355.18 589.259 1316.51 568.077 1313.13 564.225H1313.12H1313.13ZM1310.49 519.747C1317.44 520.003 1354.12 548.852 1361.29 554.829C1357.27 562.072 1360.23 561.611 1358.16 568.203C1350.3 567.098 1322.99 545.635 1314.88 538.936C1311.18 535.877 1309.45 523.975 1310.49 519.741L1310.49 519.747H1310.49ZM1477.31 428.57C1481.99 426.507 1560.35 427.514 1568.84 429.031C1579.82 444.998 1569.45 538.017 1579.49 550.723C1582.35 552.796 1663.17 549.652 1676.79 553.183C1678.62 556.941 1682.42 637.719 1680.97 642.916C1666.65 647.995 1597.57 637.465 1587.95 641.727C1584.08 654.075 1592.48 748.821 1590.13 759.692C1583.35 762.084 1544.97 760.527 1535.78 759.673C1529.95 759.127 1513.98 759.074 1507.9 759.358C1501.86 759.639 1488.55 763.238 1484.14 762.344C1481.75 756.057 1483.78 724.467 1483.88 715.341C1483.96 707.173 1484.02 699.134 1483.66 690.966C1482.68 668.59 1481.47 679.459 1486.25 671.557C1482.71 664.94 1481.58 667.397 1479.36 658.6C1477.83 652.535 1476.06 649.42 1471.86 644.838C1465.4 641.258 1370.77 647.432 1369.99 647.21C1368.14 640.305 1369.47 612.147 1368.8 601.975C1368.19 592.755 1363.61 565.905 1365.68 559.171C1399.44 554.913 1444.49 562.181 1476.53 553.464C1481.41 548.208 1477.44 534.22 1477.01 526.849C1475.74 505.313 1474.79 445.107 1477.3 428.57H1477.31H1477.31ZM1583.56 514.903C1587.65 515.223 1598.28 525.757 1603.76 528.769C1609.39 531.864 1623.48 537.483 1624.82 543.199C1613.08 547.152 1605.67 543.229 1597.32 536.142C1589.77 529.723 1579.76 525.597 1583.56 514.9V514.905V514.903ZM1317.91 514.885C1349.4 513.902 1383 512.168 1414.31 512.291C1421.84 512.321 1469.95 545.66 1471.15 549.823C1462.44 551.139 1391.44 550.226 1376.42 550.157C1364.1 550.102 1355.72 540.893 1345.86 533.699C1336.92 527.176 1326.37 521.313 1317.91 514.879L1317.91 514.885ZM1584.16 509.486L1601.7 509.678C1609.28 517.158 1636.04 539.348 1646.3 540.016C1646.69 530.552 1607.6 519.899 1605.38 509.143C1611.76 509.262 1660.27 537.949 1662.85 543.22C1657.22 544.846 1640.58 544.694 1634.55 543.544C1622.91 533.249 1624.08 534.025 1609.81 526.619C1603.99 523.598 1588.86 513.672 1584.16 509.482V509.488L1584.16 509.486ZM1421.38 493.538L1422.23 479.904C1426.14 479.889 1447.55 494.826 1455.27 498.749C1459.55 500.925 1465.15 501.603 1468.75 503.974L1472.03 538.806C1467.87 538.132 1438.53 516.336 1430.04 511.828C1422.86 508.021 1419.94 507.78 1421.57 498.273C1425.22 498.617 1438.07 506.574 1441.85 509.102C1446.88 512.466 1456.84 522.049 1462.37 520.771C1463.8 510.192 1429.28 499.376 1421.38 493.537H1421.38V493.538ZM1423.42 457.926L1468.54 490.636L1468.88 496.398C1462.56 497.036 1429.14 478.014 1423.43 473.354L1423.42 457.922V457.928V457.926ZM1423.57 450.882L1424.01 434.727C1426.02 435.13 1466.1 462.379 1468.65 465.081L1469.06 481.789C1464.97 480.827 1428.24 454.997 1423.57 450.886V450.88L1423.57 450.882ZM1425.54 412.666C1437.98 414.458 1457.64 442.744 1467.91 441.752C1469.05 436.084 1462.39 433.737 1457.34 429.724C1452.98 426.262 1448.89 422.145 1444.26 418.987C1433.39 411.576 1421.89 409.592 1423.35 395.51C1430.98 394.292 1440.02 407.307 1445.69 411.61C1473.43 432.655 1469.54 415.043 1468.66 455.155C1463.74 455.161 1429.61 432.233 1424.58 427.316L1425.53 412.666H1425.54ZM1432.54 393.919C1449.08 390.22 1492.21 394.667 1513.28 392.869C1535.83 390.943 1528.48 390.384 1543.03 402.8C1546.15 405.462 1562.46 418.625 1563.17 420.643C1549.71 422.484 1507.16 420.088 1481.22 423.074C1473.07 424.011 1474.61 421.571 1467.5 417.583C1456.47 411.39 1441.31 402.941 1432.54 393.925V393.919ZM1570.26 418.221C1568.08 415.638 1566.84 414.031 1564.28 411.704C1539.69 389.411 1541.41 384.466 1514.31 385.77C1496.77 386.619 1479.52 385.752 1461.98 385.584C1448.14 385.452 1426.66 382.651 1415.55 390.604C1415.4 395.964 1417.23 396.999 1418.22 402.249C1420.21 412.837 1413.9 500.356 1412.77 505.145C1403.75 507.752 1309.44 504.236 1305.58 508.848C1304.28 512.742 1305.54 555.698 1305.85 563.008C1306.21 571.499 1300.78 611.573 1315.61 608.469C1317.43 602.231 1313.25 601.425 1314.47 594.402C1318.3 594.912 1322.31 598.419 1325.86 600.375C1332.25 603.887 1334.52 602.825 1339.19 604.919C1342.2 606.27 1343.99 609.928 1349.88 612.86C1353.73 614.786 1358.24 616.215 1361.08 619.264C1361.77 625.054 1362.14 632.486 1360.35 637.937C1347.17 638.12 1314.5 596.971 1307.72 614.131C1309.97 615.84 1322.58 617.461 1332.24 627.185C1343.09 638.103 1362.81 654.965 1380.27 653.015C1388.69 652.072 1407.44 651.468 1415.4 652.72C1421.73 663.22 1418.17 706.27 1422.28 718.554C1422.5 719.198 1423.32 719.793 1422.99 720.224C1420.58 723.441 1421.51 722.983 1423.36 723.145C1424.74 723.264 1426.51 724.653 1428.37 723.17C1429.49 722.27 1429.16 718.323 1430.23 717.355C1439.27 720.847 1463.71 739.81 1474.97 740.783C1475.98 740.871 1474.22 739.162 1475.05 738.967C1475.26 737.572 1476.5 737.022 1475.17 735.622C1470.48 730.646 1455.75 724.802 1445.57 720.007C1443.05 718.818 1432.57 713.436 1431.11 711.873C1428.45 709.05 1428.45 697.733 1429.55 693.789L1475.84 718.24L1474.43 754.771C1469.9 754.035 1453.26 741.839 1447.89 738.5C1431.18 728.098 1427.47 719.994 1421.13 724.139C1421.61 725.415 1432.88 736.894 1434.96 738.701C1438.01 741.353 1447.57 746.839 1451.71 749.53C1459.99 754.908 1477.02 768.814 1486.43 767.645C1523.77 763.008 1507.33 765.749 1538.6 766.912C1548.38 767.276 1587.62 768.893 1594.38 767.334C1596.45 761.636 1594.55 760.763 1597.19 753.862C1601.98 741.327 1591.96 662.297 1594.62 649.188C1600.4 647.523 1633.12 650.107 1641.95 650.318C1653.29 650.589 1680.13 652.317 1689.38 647.376C1691.34 641.162 1688.1 598.04 1687.28 588.634C1685.67 570.242 1688.89 549.936 1672.53 538.699C1663.81 532.707 1618.58 505.364 1609.69 503.504C1605.02 502.527 1589.03 504.929 1583.13 503.641C1581.29 495.169 1581.37 471.225 1580.71 460.67C1580.29 453.867 1580.14 447.036 1579.14 440.273C1578.75 437.654 1577.36 433.317 1577.23 431.192C1576.98 426.816 1578.68 427.981 1578.68 423.555C1574.32 419.99 1574.12 422.789 1570.28 418.236L1570.26 418.221H1570.26Z" fill="#1D2D58"/>
<path fill-rule="evenodd" clip-rule="evenodd" d="M1330.97 110.082C1342.46 110.551 1363.32 116.3 1375.93 118.327C1448.34 129.955 1534.3 147.031 1606.16 162.051C1621.21 165.198 1636.09 168.655 1651.24 171.51C1660.11 173.18 1694.44 176.227 1698.94 178.842C1699.4 181.156 1691.04 249.757 1690.11 252.49C1685.05 253.023 1594.57 233.929 1579.93 231.448C1541.91 224.995 1504.15 217.66 1466.24 210.825C1429.49 204.19 1390.71 194.027 1354.22 188.675C1345.18 187.349 1334.59 186.463 1325.87 184.286C1312.73 181.01 1315.79 173.449 1317.3 161.934C1318.13 155.578 1328.73 113.49 1330.99 110.08L1330.97 110.08L1330.97 110.082ZM1619.75 129.439C1646.85 130.428 1645.91 142.478 1655.98 154.404C1658.89 157.853 1663.21 160.949 1665.19 164.609C1642.91 161.204 1651.79 161.36 1645.62 156.335C1634.99 147.68 1634.11 150.664 1619.75 129.447L1619.75 129.439L1619.75 129.439ZM1584.8 121.991C1596.55 123.309 1613.24 124.412 1619.35 134.819C1627.31 148.367 1631.37 149.325 1640.54 159.539C1616.75 158.166 1595.84 141.518 1584.8 121.984L1584.8 121.991ZM1548.26 113.369C1556.67 114.69 1578.34 117.488 1583.29 123.6C1584.77 125.429 1601.54 150.09 1601.59 150.232C1585.67 151.65 1567.85 135.909 1560.24 125.596C1555.58 119.284 1553.07 118.639 1548.26 113.367L1548.26 113.369ZM1511.37 104.604C1517.89 105.744 1524.36 107.195 1530.78 108.751C1543.85 111.92 1538.71 109.348 1546.65 117.42C1551.81 122.676 1568.99 137.815 1569.65 143.585C1547.47 145.659 1522.43 121.12 1511.37 104.613L1511.37 104.606L1511.37 104.604ZM1307.53 168.904C1304.37 166.803 1296.24 153.734 1293.64 149.732C1288.04 141.102 1281.08 137.277 1281.83 127.015C1282.25 121.238 1294.53 76.8295 1296.92 73.9213C1297.3 74.2743 1320.51 106.76 1320.74 107.243C1318.29 117.178 1315.4 126.305 1313.2 136.723C1311.14 146.512 1309.79 160.456 1307.54 168.905L1307.53 168.905L1307.53 168.904ZM1473.85 97.7024C1480.31 98.112 1486.81 99.6177 1493.18 100.799C1503.2 102.656 1503 101.604 1508.63 109.671C1512.56 115.29 1529.96 133.7 1530.74 135.541C1505.9 137.714 1486.54 116.416 1473.85 97.7096L1473.85 97.7024ZM1459.09 121.33C1451.03 122.321 1426.57 117.055 1420.87 111.257C1417.86 108.197 1396.79 86.5251 1396.75 86.4258C1401.97 85.859 1446.11 93.3738 1455.13 94.7575C1465.89 96.4097 1470.02 99.7949 1475.93 108.404C1478.04 111.477 1489.88 126.943 1490.08 127.544C1464.11 129.768 1454.7 93.6066 1438.78 93.9701C1434.05 101.389 1456.6 110.622 1459.09 121.337L1459.09 121.33ZM1412.58 112.369C1401.07 113.955 1384.39 109.068 1376.25 101.594C1370.21 96.0636 1354.03 83.7537 1352.01 78.0674C1356.08 77.1633 1389.08 83.4818 1391.91 85.9349C1394.96 88.5746 1411.78 109.059 1412.59 112.368L1412.58 112.369ZM1369.25 104.336C1363.97 105.31 1357.87 103.425 1352.45 102.446C1344.42 100.993 1345.22 100.339 1340.3 94.6003L1324.03 74.6206C1322.51 72.5337 1323.62 74.3373 1323.36 72.8021C1345.77 67.1659 1369.24 104.322 1369.24 104.329L1369.25 104.336ZM1324.18 98.3208C1319.63 94.9006 1300.54 71.8171 1299.45 68.2643C1311.06 67.823 1313.93 71.7244 1320.42 79.7327C1322.91 82.8027 1333.55 96.3439 1334.19 98.7526L1324.18 98.3191L1324.18 98.3208ZM1272.8 138.756L1302.62 177.432C1309.86 187.179 1306.77 190.661 1320.71 194.27C1330.3 196.749 1340.27 197.608 1350.05 199.08C1386.93 204.628 1427.9 213.979 1464.83 221.447C1502.77 229.123 1541.85 235.37 1580.09 241.65C1601.57 245.175 1683.65 262.626 1698.92 257.959C1698.94 257.909 1709.76 182.432 1709.68 181.724C1708.7 172.772 1676.06 147.322 1663.34 134.793C1651.68 123.317 1583.54 114.677 1553.89 106.788C1541.74 103.558 1529.1 100.929 1516.84 98.0599C1467.52 86.5158 1413.03 81.696 1362.04 71.6855C1349.02 69.1305 1336.3 67.096 1323.25 64.8435C1279.83 57.3502 1292.13 59.4796 1278.7 101.374C1274.46 114.616 1273.38 125.03 1272.79 138.762L1272.8 138.762L1272.8 138.756Z" fill="#1D2D58"/>
<path fill-rule="evenodd" clip-rule="evenodd" d="M489.769 203.755C499.816 202.627 518.731 205.082 529.966 205.239C594.466 206.112 671.505 210.154 736.01 214.22C749.515 215.069 762.918 216.232 776.471 216.803C784.41 217.136 814.648 215.281 818.922 217.076C819.647 219.137 821.996 283.293 821.576 285.929C817.251 287.105 736.01 281.821 722.943 281.523C689.025 280.748 655.214 279.124 621.332 277.978C588.486 276.862 553.389 272.777 520.956 272.802C512.916 272.808 503.599 273.427 495.719 272.614C483.856 271.385 485.449 264.027 485.144 253.245C484.977 247.288 488.291 207.192 489.764 203.761L489.77 203.755H489.769ZM743.242 182.422C766.909 179.664 767.785 190.851 778.203 200.445C781.212 203.215 785.399 205.475 787.629 208.572C767.803 208.457 775.537 207.403 769.474 203.621C759.037 197.112 758.689 199.967 743.244 182.422H743.242ZM711.847 180.312C722.236 179.937 736.879 178.682 743.644 187.416C752.451 198.779 756.113 199.119 765.501 207.258C744.65 209.216 724.159 196.755 711.84 180.314H711.847V180.312ZM678.905 177.342C686.4 177.415 705.603 177.051 710.762 181.997C712.302 183.475 730.32 203.863 730.39 203.984C716.759 207.444 699.085 195.397 691.032 186.955C686.101 181.786 683.824 181.532 678.911 177.344H678.905V177.342ZM645.646 174.293C651.47 174.456 657.288 174.911 663.087 175.475C674.872 176.615 670.056 174.948 678.079 181.286C683.298 185.414 700.344 196.996 701.716 202.207C682.747 207.116 657.564 187.971 645.652 174.298L645.646 174.292V174.293ZM477.648 260.976C474.61 259.473 465.719 248.57 462.902 245.25C456.833 238.08 450.248 235.51 449.463 225.984C449.02 220.621 453.459 178.155 455.131 175.162C455.502 175.435 480.206 202.137 480.482 202.544C479.744 212.004 478.516 220.779 478.06 230.646C477.636 239.919 478.421 252.907 477.646 260.979L477.648 260.976ZM612.105 173.039C617.774 172.542 623.622 173.039 629.319 173.264C638.283 173.609 637.953 172.676 643.981 179.318C648.181 183.948 665.867 198.505 666.796 200.087C645.533 205.45 625.742 188.506 612.099 173.032L612.105 173.039ZM602.602 196.741C595.735 198.742 573.765 197.221 568.001 192.669C564.957 190.269 543.621 173.209 543.574 173.124C548.025 171.9 587.42 172.822 595.432 172.87C605.012 172.924 609.069 175.475 615.414 182.591C617.679 185.123 630.117 197.729 630.374 198.257C608.14 203.814 594.898 171.869 581.129 174.36C578.067 181.814 598.937 187.239 602.597 196.748L602.603 196.741H602.602ZM560.954 194.809C551.182 197.821 536.016 195.591 527.893 189.834C521.884 185.567 506.108 176.452 503.555 171.5C506.959 170.118 536.496 171.452 539.294 173.318C542.314 175.329 559.779 191.868 560.948 194.803L560.954 194.809ZM522.207 193.3C517.762 194.907 512.195 194.003 507.36 193.84C500.183 193.598 500.776 192.883 495.713 188.283L478.781 172.131C477.176 170.416 478.398 171.925 477.948 170.549C496.624 162.331 522.209 193.288 522.215 193.3H522.209H522.207ZM482.225 193.882C477.797 191.355 457.983 172.736 456.539 169.616C466.562 167.64 469.601 170.833 476.358 177.313C478.947 179.798 490.085 190.791 490.972 192.918L482.225 193.875V193.882ZM443.274 237.99L474.586 269.48C482.237 277.455 480.045 281.073 492.656 282.492C501.331 283.468 510.11 282.905 518.803 282.934C551.607 283.037 588.497 286.073 621.613 287.935C655.628 289.85 690.445 290.292 724.53 290.88C743.673 291.207 817.387 296.122 830 289.765C830.012 289.717 828.832 218.912 828.671 218.27C826.567 210.179 794.656 191.216 781.859 181.434C770.127 172.465 709.75 173.768 682.896 170.531C671.896 169.203 660.553 168.507 649.499 167.531C605.059 163.611 557.061 166.556 511.387 164.271C499.721 163.69 488.392 163.544 476.749 163.241C437.984 162.235 448.966 162.533 443.173 202.835C441.345 215.574 441.867 225.289 443.28 237.985L443.274 237.99Z" fill="#1D2D58"/>
<path fill-rule="evenodd" clip-rule="evenodd" d="M477.781 71.4413C487.829 70.3224 506.744 72.7587 517.978 72.9141C582.478 73.7806 659.517 77.7912 724.022 81.8264C737.527 82.6683 750.93 83.8225 764.483 84.3889C772.422 84.7198 802.661 82.8791 806.934 84.6597C807.659 86.7051 810.008 150.367 809.588 152.984C805.263 154.15 724.022 148.907 710.955 148.611C677.037 147.842 643.226 146.23 609.345 145.093C576.498 143.987 541.401 139.933 508.968 139.957C500.928 139.964 491.611 140.578 483.732 139.771C471.869 138.551 473.462 131.25 473.157 120.551C472.989 114.639 476.303 74.8517 477.776 71.4474L477.783 71.4413H477.781ZM731.255 50.2724C754.921 47.536 755.797 58.6368 766.216 68.1571C769.224 70.9057 773.411 73.148 775.641 76.2214C755.815 76.1075 763.549 75.061 757.486 71.3089C747.049 64.8498 746.701 67.683 731.256 50.2724H731.255ZM699.859 48.1793C710.248 47.8069 724.891 46.5618 731.656 55.2279C740.464 66.5103 744.125 66.8412 753.514 74.9179C732.662 76.8601 712.171 64.4958 699.853 48.1809H699.859V48.1793ZM666.917 45.2321C674.412 45.3045 693.615 44.9428 698.769 49.8507C700.308 51.3173 718.326 71.549 718.396 71.6691C704.765 75.1026 687.091 63.1476 679.038 54.7709C674.107 49.6414 671.83 49.389 666.917 45.2337V45.2321ZM633.652 42.2019C639.476 42.3634 645.295 42.8144 651.094 43.3746C662.878 44.5057 658.062 42.8513 666.085 49.1412C671.304 53.2365 688.35 64.7297 689.722 69.9007C670.754 74.7717 645.571 55.7743 633.652 42.2065V42.2003V42.2019ZM465.654 128.218C462.617 126.727 453.725 115.908 450.908 112.613C444.839 105.498 438.254 102.948 437.469 93.4951C437.026 88.1733 441.465 46.034 443.138 43.0637C443.509 43.3346 468.212 69.8315 468.488 70.2347C467.75 79.6226 466.522 88.3303 466.073 98.1214C465.648 107.323 466.433 120.217 465.659 128.221H465.653L465.654 128.218ZM600.111 40.9568C605.78 40.4643 611.632 40.963 617.332 41.18C626.295 41.5232 625.966 40.5967 631.993 47.1882C636.193 51.7821 653.88 66.2272 654.809 67.7969C633.545 73.1188 613.754 56.3052 600.111 40.9506V40.9568ZM590.609 64.4773C583.743 66.4626 561.772 64.9529 556.009 60.4359C552.965 58.0551 531.629 41.1261 531.582 41.0414C536.033 39.8272 575.422 40.7413 583.44 40.7891C593.02 40.8429 597.077 43.3746 603.422 50.4355C605.686 52.9487 618.124 65.4577 618.382 65.9809C596.148 71.4951 582.912 39.7964 569.137 42.268C566.075 49.6706 586.945 55.0479 590.605 64.4835L590.611 64.4773H590.609ZM548.962 62.5582C539.19 65.5469 524.024 63.3338 515.9 57.6211C509.891 53.3873 494.115 44.3426 491.562 39.4286C494.966 38.0573 524.504 39.3809 527.308 41.2323C530.327 43.2284 547.793 59.6402 548.962 62.552V62.5582ZM510.213 61.0607C505.768 62.6551 500.201 61.7579 495.366 61.5963C488.189 61.3501 488.782 60.6467 483.719 56.0759L466.787 40.0488C465.182 38.3467 466.404 39.8441 465.955 38.479C484.63 30.3239 510.215 61.0423 510.221 61.0546L510.215 61.0607H510.213ZM470.231 61.6379C465.803 59.1308 445.989 40.6552 444.545 37.5587C454.568 35.598 457.607 38.7622 464.365 45.1967C466.953 47.6622 478.091 58.5706 478.979 60.6821L470.231 61.6317V61.6379ZM431.28 105.407L462.592 136.655C470.243 144.568 468.051 148.159 480.656 149.573C489.331 150.541 498.11 149.983 506.803 150.012C539.607 150.113 576.497 153.127 609.613 154.974C643.622 156.874 678.445 157.313 712.53 157.896C731.673 158.221 805.387 163.098 818 156.79C818.012 156.742 816.832 86.4819 816.671 85.8448C814.567 77.8158 782.656 58.9985 769.859 49.292C758.127 40.392 697.75 41.6847 670.896 38.4729C659.896 37.1616 648.553 36.4645 637.499 35.4964C593.059 31.6058 545.061 34.5284 499.387 32.2615C487.721 31.6843 476.392 31.5397 464.749 31.2396C425.984 30.2408 436.966 30.5362 431.173 70.5287C429.345 83.17 429.867 92.8103 431.28 105.409V105.407Z" fill="#1D2D58"/>
<path fill-rule="evenodd" clip-rule="evenodd" d="M2010.89 660.128C2020.97 659.018 2039.93 661.435 2051.19 661.589C2115.86 662.449 2193.1 666.428 2257.77 670.432C2271.31 671.268 2284.74 672.413 2298.33 672.975C2306.29 673.303 2336.61 671.477 2340.89 673.244C2341.62 675.273 2343.98 738.442 2343.55 741.038C2339.22 742.195 2257.77 736.993 2244.67 736.7C2210.66 735.936 2176.76 734.337 2142.79 733.209C2109.86 732.111 2074.68 728.088 2042.16 728.113C2034.1 728.119 2024.76 728.728 2016.86 727.928C2004.96 726.717 2006.56 719.473 2006.26 708.857C2006.09 702.991 2009.41 663.512 2010.89 660.134L2010.89 660.128H2010.89ZM2265.02 639.123C2288.75 636.408 2289.62 647.423 2300.07 656.869C2303.09 659.596 2307.28 661.821 2309.52 664.871C2289.64 664.758 2297.4 663.719 2291.32 659.996C2280.85 653.587 2280.51 656.399 2265.02 639.123H2265.02ZM2233.54 637.046C2243.96 636.677 2258.64 635.441 2265.42 644.04C2274.25 655.229 2277.92 655.563 2287.34 663.577C2266.43 665.505 2245.89 653.236 2233.54 637.048H2233.54V637.046ZM2200.52 634.122C2208.03 634.194 2227.28 633.835 2232.46 638.705C2234 640.16 2252.06 660.235 2252.13 660.354C2238.47 663.761 2220.75 651.898 2212.67 643.587C2207.73 638.497 2205.45 638.246 2200.52 634.123H2200.52V634.122ZM2167.17 631.12C2173.01 631.28 2178.84 631.727 2184.66 632.283C2196.47 633.406 2191.64 631.764 2199.69 638.005C2204.92 642.069 2222.01 653.473 2223.39 658.604C2204.37 663.437 2179.12 644.587 2167.18 631.124L2167.17 631.118V631.12ZM1998.74 716.469C1995.69 714.989 1986.78 704.254 1983.96 700.984C1977.87 693.925 1971.27 691.395 1970.48 682.015C1970.04 676.735 1974.49 634.922 1976.17 631.975C1976.54 632.244 2001.3 658.535 2001.58 658.935C2000.84 668.25 1999.61 676.89 1999.15 686.606C1998.73 695.736 1999.51 708.524 1998.74 716.472L1998.74 716.469ZM2133.54 629.884C2139.23 629.396 2145.09 629.884 2150.8 630.106C2159.79 630.446 2159.46 629.527 2165.5 636.067C2169.71 640.626 2187.44 654.959 2188.38 656.516C2167.06 661.797 2147.22 645.114 2133.54 629.878L2133.54 629.884ZM2124.02 653.222C2117.13 655.192 2095.1 653.694 2089.33 649.212C2086.27 646.85 2064.88 630.052 2064.84 629.968C2069.3 628.763 2108.8 629.67 2116.83 629.718C2126.43 629.771 2130.5 632.283 2136.86 639.289C2139.13 641.783 2151.6 654.195 2151.86 654.714C2129.57 660.186 2116.29 628.733 2102.49 631.185C2099.42 638.524 2120.34 643.866 2124.01 653.228L2124.02 653.222H2124.02ZM2082.26 651.32C2072.46 654.285 2057.26 652.089 2049.11 646.421C2043.09 642.22 2027.27 633.245 2024.71 628.369C2028.13 627.009 2057.74 628.322 2060.55 630.159C2063.57 632.14 2081.08 648.424 2082.25 651.314L2082.26 651.32ZM2043.41 649.834C2038.96 651.416 2033.38 650.526 2028.53 650.365C2021.33 650.127 2021.93 649.423 2016.85 644.894L1999.88 628.991C1998.27 627.302 1999.49 628.788 1999.04 627.433C2017.76 619.341 2043.42 649.822 2043.42 649.834H2043.42H2043.41ZM2003.33 650.406C1998.89 647.919 1979.02 629.586 1977.58 626.514C1987.63 624.568 1990.67 627.713 1997.45 634.093C2000.04 636.539 2011.21 647.363 2012.1 649.458L2003.33 650.4V650.406ZM1964.28 693.836L1995.67 724.842C2003.34 732.694 2001.14 736.257 2013.79 737.654C2022.48 738.615 2031.29 738.06 2040 738.089C2072.89 738.19 2109.87 741.18 2143.08 743.012C2177.18 744.898 2212.08 745.334 2246.26 745.912C2265.45 746.235 2339.35 751.074 2352 744.814C2352.01 744.767 2350.83 675.052 2350.67 674.42C2348.56 666.453 2316.56 647.781 2303.73 638.15C2291.97 629.319 2231.44 630.602 2204.52 627.415C2193.49 626.108 2182.12 625.422 2171.03 624.462C2126.48 620.601 2078.36 623.501 2032.57 621.252C2020.87 620.679 2009.51 620.535 1997.84 620.238C1958.97 619.247 1969.98 619.54 1964.18 659.222C1962.34 671.766 1962.87 681.331 1964.28 693.832L1964.28 693.836Z" fill="#1D2D58"/>
<path fill-rule="evenodd" clip-rule="evenodd" d="M1998.9 526.441C2008.98 525.322 2027.94 527.759 2039.2 527.914C2103.87 528.781 2181.11 532.791 2245.78 536.826C2259.32 537.668 2272.76 538.823 2286.35 539.389C2294.3 539.72 2324.62 537.879 2328.91 539.66C2329.63 541.705 2331.99 605.367 2331.57 607.984C2327.23 609.15 2245.78 603.907 2232.68 603.611C2198.67 602.842 2164.78 601.23 2130.81 600.093C2097.88 598.987 2062.69 594.933 2030.17 594.957C2022.11 594.964 2012.77 595.578 2004.87 594.771C1992.98 593.551 1994.57 586.25 1994.27 575.551C1994.1 569.639 1997.42 529.852 1998.9 526.447L1998.91 526.441H1998.9ZM2253.03 505.272C2276.76 502.536 2277.64 513.637 2288.08 523.157C2291.1 525.906 2295.3 528.148 2297.53 531.221C2277.65 531.108 2285.41 530.061 2279.33 526.309C2268.87 519.85 2268.52 522.683 2253.03 505.272H2253.03ZM2221.55 503.179C2231.97 502.807 2246.65 501.562 2253.43 510.228C2262.26 521.51 2265.93 521.841 2275.35 529.918C2254.44 531.86 2233.9 519.496 2221.55 503.181H2221.55V503.179ZM2188.53 500.232C2196.04 500.304 2215.29 499.943 2220.46 504.851C2222 506.317 2240.07 526.549 2240.14 526.669C2226.47 530.103 2208.75 518.148 2200.68 509.771C2195.74 504.641 2193.45 504.389 2188.53 500.234V500.232ZM2155.18 497.202C2161.02 497.363 2166.85 497.814 2172.66 498.375C2184.48 499.506 2179.65 497.851 2187.69 504.141C2192.93 508.236 2210.02 519.73 2211.39 524.901C2192.37 529.772 2167.13 510.774 2155.18 497.206V497.2V497.202ZM1986.75 583.218C1983.7 581.727 1974.79 570.908 1971.96 567.613C1965.88 560.498 1959.28 557.948 1958.49 548.495C1958.04 543.173 1962.49 501.034 1964.17 498.064C1964.54 498.335 1989.31 524.831 1989.59 525.235C1988.85 534.623 1987.62 543.33 1987.17 553.121C1986.74 562.323 1987.53 575.217 1986.75 583.221H1986.74L1986.75 583.218ZM2121.55 495.957C2127.23 495.464 2133.1 495.963 2138.81 496.18C2147.8 496.523 2147.47 495.597 2153.51 502.188C2157.72 506.782 2175.46 521.227 2176.39 522.797C2155.07 528.119 2135.23 511.305 2121.55 495.951V495.957ZM2112.02 519.477C2105.14 521.463 2083.11 519.953 2077.33 515.436C2074.28 513.055 2052.89 496.126 2052.84 496.041C2057.31 494.827 2096.8 495.741 2104.83 495.789C2114.44 495.843 2118.51 498.375 2124.87 505.435C2127.14 507.949 2139.61 520.458 2139.87 520.981C2117.58 526.495 2104.31 494.796 2090.5 497.268C2087.43 504.671 2108.35 510.048 2112.02 519.483L2112.02 519.477H2112.02ZM2070.27 517.558C2060.47 520.547 2045.27 518.334 2037.12 512.621C2031.1 508.387 2015.28 499.343 2012.72 494.429C2016.13 493.057 2045.75 494.381 2048.56 496.232C2051.59 498.228 2069.1 514.64 2070.27 517.552V517.558ZM2031.42 516.061C2026.96 517.655 2021.38 516.758 2016.53 516.596C2009.34 516.35 2009.93 515.647 2004.86 511.076L1987.88 495.049C1986.27 493.347 1987.5 494.844 1987.05 493.479C2005.77 485.324 2031.42 516.042 2031.43 516.055L2031.42 516.061H2031.42ZM1991.33 516.638C1986.9 514.131 1967.03 495.655 1965.58 492.559C1975.63 490.598 1978.68 493.762 1985.45 500.197C1988.05 502.662 1999.21 513.571 2000.1 515.682L1991.33 516.632V516.638ZM1952.28 560.407L1983.68 591.655C1991.35 599.568 1989.15 603.159 2001.79 604.573C2010.48 605.541 2019.29 604.983 2028 605.012C2060.89 605.113 2097.87 608.127 2131.08 609.974C2165.17 611.874 2200.08 612.313 2234.26 612.896C2253.45 613.221 2327.35 618.098 2340 611.79C2340.01 611.742 2338.83 541.482 2338.67 540.845C2336.56 532.816 2304.56 513.998 2291.73 504.292C2279.97 495.392 2219.44 496.685 2192.52 493.473C2181.49 492.162 2170.12 491.464 2159.03 490.496C2114.48 486.606 2066.36 489.528 2020.57 487.261C2008.87 486.684 1997.51 486.54 1985.84 486.24C1946.97 485.241 1957.98 485.536 1952.18 525.529C1950.34 538.17 1950.87 547.81 1952.28 560.409V560.407Z" fill="#1D2D58"/>
</svg>
