<svg width="2518" height="813" viewBox="0 0 2518 813" fill="none" xmlns="http://www.w3.org/2000/svg">
<path d="M2419.25 582.583H2353.42V516.75C2353.42 508.02 2349.95 499.647 2343.78 493.474C2337.6 487.301 2329.23 483.833 2320.5 483.833C2311.77 483.833 2303.4 487.301 2297.22 493.474C2291.05 499.647 2287.58 508.02 2287.58 516.75L2288.75 582.583H2221.75C2213.02 582.583 2204.65 586.051 2198.47 592.224C2192.3 598.397 2188.83 606.77 2188.83 615.5C2188.83 624.23 2192.3 632.602 2198.47 638.776C2204.65 644.949 2213.02 648.417 2221.75 648.417L2288.75 647.248L2287.58 714.25C2287.58 722.98 2291.05 731.352 2297.22 737.526C2303.4 743.699 2311.77 747.167 2320.5 747.167C2329.23 747.167 2337.6 743.699 2343.78 737.526C2349.95 731.352 2353.42 722.98 2353.42 714.25V647.248L2419.25 648.417C2427.98 648.417 2436.35 644.949 2442.53 638.776C2448.7 632.602 2452.17 624.23 2452.17 615.5C2452.17 606.77 2448.7 598.397 2442.53 592.224C2436.35 586.051 2427.98 582.583 2419.25 582.583Z" fill="#1D2D58" fill-opacity="0.5"/>
<path d="M2050.75 216.792H1814.25C1803.8 216.792 1793.77 220.945 1786.38 228.337C1778.99 235.729 1774.83 245.754 1774.83 256.208C1774.83 266.662 1778.99 276.688 1786.38 284.08C1793.77 291.472 1803.8 295.625 1814.25 295.625H2050.75C2061.2 295.625 2071.23 291.472 2078.62 284.08C2086.01 276.688 2090.17 266.662 2090.17 256.208C2090.17 245.754 2086.01 235.729 2078.62 228.337C2071.23 220.945 2061.2 216.792 2050.75 216.792Z" fill="#1D2D58" fill-opacity="0.5"/>
<path d="M394.352 253.088L472.043 175.396C474.263 173.213 476.028 170.612 477.237 167.744C478.446 164.875 479.076 161.795 479.089 158.682C479.102 155.569 478.498 152.484 477.313 149.605C476.128 146.727 474.385 144.111 472.183 141.909C469.982 139.708 467.367 137.964 464.489 136.778C461.61 135.592 458.525 134.988 455.412 135C452.299 135.012 449.219 135.641 446.35 136.85C443.481 138.058 440.88 139.823 438.696 142.042L361.005 219.733L283.314 142.05C281.123 139.86 278.523 138.122 275.662 136.937C272.8 135.752 269.734 135.142 266.636 135.142C263.539 135.142 260.472 135.752 257.611 136.937C254.749 138.122 252.149 139.86 249.959 142.05C245.536 146.473 243.051 152.472 243.051 158.727C243.051 164.982 245.536 170.981 249.959 175.404L327.65 253.088L249.77 330.968C245.407 335.403 242.974 341.383 243 347.604C243.026 353.826 245.51 359.785 249.909 364.183C254.309 368.582 260.269 371.064 266.49 371.089C272.711 371.113 278.691 368.678 283.125 364.315L360.997 286.443L438.681 364.126C443.287 368.733 449.325 371.036 455.354 371.036C461.383 371.036 467.421 368.733 472.027 364.126C476.449 359.703 478.932 353.706 478.932 347.453C478.932 341.199 476.449 335.202 472.027 330.779L394.352 253.088Z" fill="#1D2D58" fill-opacity="0.5"/>
<path d="M1100 204.667C1118.41 204.667 1133.33 189.743 1133.33 171.333C1133.33 152.924 1118.41 138 1100 138C1081.59 138 1066.67 152.924 1066.67 171.333C1066.67 189.743 1081.59 204.667 1100 204.667Z" fill="#1D2D58" fill-opacity="0.5" stroke="#1D2D58" stroke-opacity="0.5" stroke-width="3.33333" stroke-linecap="round" stroke-linejoin="round"/>
<path d="M1100 378C1118.41 378 1133.33 363.076 1133.33 344.667C1133.33 326.257 1118.41 311.333 1100 311.333C1081.59 311.333 1066.67 326.257 1066.67 344.667C1066.67 363.076 1081.59 378 1100 378Z" fill="#1D2D58" fill-opacity="0.5" stroke="#1D2D58" stroke-opacity="0.5" stroke-width="3.33333" stroke-linecap="round" stroke-linejoin="round"/>
<path d="M1197 258H1003" stroke="#1D2D58" stroke-opacity="0.5" stroke-width="68" stroke-linecap="round" stroke-linejoin="round"/>
<path d="M790.625 518.375H693.5L638 712.625L596.375 629.375H568.625M721.25 629.375L804.5 712.625M721.25 712.625L804.5 629.375" stroke="#1D2D58" stroke-opacity="0.5" stroke-width="50" stroke-linecap="round" stroke-linejoin="round"/>
<path d="M1517.14 544.5C1517.14 530.278 1511.5 516.638 1501.45 506.581C1491.41 496.525 1477.78 490.875 1463.57 490.875C1449.36 490.875 1435.74 496.525 1425.69 506.581C1415.64 516.638 1410 530.278 1410 544.5C1410 558.722 1415.64 572.362 1425.69 582.419C1435.74 592.475 1449.36 598.125 1463.57 598.125C1477.78 598.125 1491.41 592.475 1501.45 582.419C1511.5 572.362 1517.14 558.722 1517.14 544.5ZM1660 687.5C1660 680.458 1658.61 673.485 1655.92 666.979C1653.23 660.472 1649.28 654.561 1644.31 649.581C1639.33 644.602 1633.43 640.652 1626.93 637.957C1620.43 635.262 1613.46 633.875 1606.43 633.875C1599.39 633.875 1592.43 635.262 1585.93 637.957C1579.43 640.652 1573.52 644.602 1568.55 649.581C1563.57 654.561 1559.63 660.472 1556.93 666.979C1554.24 673.485 1552.86 680.458 1552.86 687.5C1552.86 694.542 1554.24 701.515 1556.93 708.021C1559.63 714.527 1563.57 720.439 1568.55 725.419C1573.52 730.398 1579.43 734.348 1585.93 737.043C1592.43 739.738 1599.39 741.125 1606.43 741.125C1613.46 741.125 1620.43 739.738 1626.93 737.043C1633.43 734.348 1639.33 730.398 1644.31 725.419C1649.28 720.439 1653.23 714.527 1655.92 708.021C1658.61 701.515 1660 694.542 1660 687.5ZM1654.75 521.374C1661.73 514.392 1661.73 503.052 1654.75 496.07C1647.78 489.087 1636.45 489.087 1629.48 496.07L1415.19 710.57C1408.21 717.552 1408.21 728.892 1415.19 735.874C1422.17 742.857 1433.49 742.857 1440.47 735.874L1547.61 628.624L1654.75 521.374Z" fill="#1D2D58" fill-opacity="0.5"/>
</svg>
