<svg width="425" height="178" viewBox="0 0 425 178" fill="none" xmlns="http://www.w3.org/2000/svg">
<path d="M270.728 72.024C267.698 72.024 264.925 71.2773 262.408 69.784L263.048 60.888C263.944 61.4 264.818 61.656 265.672 61.656C267.592 61.656 268.552 60.696 268.552 58.776V38.936H302.92V70.936H289.416V50.776H282.12V60.248C282.12 64.2587 281.096 67.224 279.048 69.144C277.042 71.064 274.269 72.024 270.728 72.024ZM318.223 71L327.951 54.36L318.863 38.936H332.367L335.951 46.488L339.663 38.936H352.783L343.823 54.36L353.423 71H340.303L335.951 62.808L331.727 71H318.223ZM368.419 71V38.936H381.731V46.936C382.584 44.0347 383.907 41.9013 385.699 40.536C387.533 39.1707 389.709 38.488 392.227 38.488L393.827 49.816C392.803 49.688 391.8 49.624 390.819 49.624C384.888 49.624 381.923 52.056 381.923 56.92V71H368.419ZM406.805 50.52V45.592C409.536 43.16 411.669 41.0267 413.205 39.192C414.741 37.3573 415.509 35.8213 415.509 34.584C415.509 33.7733 415.275 33.176 414.805 32.792C414.336 32.408 413.696 32.216 412.885 32.216C411.221 32.216 409.643 32.6853 408.149 33.624L406.357 28.184C407.467 27.544 408.704 27.0533 410.069 26.712C411.435 26.3707 412.779 26.2 414.101 26.2C416.875 26.2 419.029 26.9253 420.565 28.376C422.101 29.8267 422.869 31.6613 422.869 33.88C422.869 36.0987 422.123 38.1467 420.629 40.024C419.136 41.9013 416.917 43.6933 413.973 45.4H422.741V50.52H406.805Z" fill="black"/>
<line x1="186" y1="48" x2="246" y2="48" stroke="black" stroke-width="8"/>
<line x1="186" y1="70" x2="246" y2="70" stroke="black" stroke-width="8"/>
<circle cx="84" cy="84" r="80" stroke="black" stroke-width="8"/>
<path d="M293.593 113.384C292.457 113.384 291.417 113.104 290.473 112.544L290.713 109.208C291.049 109.4 291.377 109.496 291.697 109.496C292.417 109.496 292.777 109.136 292.777 108.416V100.976H305.665V112.976H300.601V105.416H297.865V108.968C297.865 110.472 297.481 111.584 296.713 112.304C295.961 113.024 294.921 113.384 293.593 113.384ZM312.772 106.352V103.136H324.292V106.352H312.772ZM312.772 110.84V107.624H324.292V110.84H312.772ZM335.767 113.264C334.935 113.264 334.095 113.176 333.247 113C332.415 112.84 331.647 112.608 330.943 112.304L331.735 108.632C333.031 109.16 334.207 109.424 335.263 109.424C336.575 109.424 337.231 108.928 337.231 107.936C337.231 107.296 336.895 106.84 336.223 106.568C335.551 106.28 334.431 106.136 332.863 106.136V102.848C335.711 102.848 337.135 102.28 337.135 101.144C337.135 100.792 336.967 100.52 336.631 100.328C336.311 100.12 335.863 100.016 335.287 100.016C333.943 100.016 332.735 100.296 331.663 100.856L330.727 97.472C332.295 96.576 334.063 96.128 336.031 96.128C337.647 96.128 338.919 96.496 339.847 97.232C340.775 97.952 341.239 98.944 341.239 100.208C341.239 101.008 341.039 101.752 340.639 102.44C340.255 103.112 339.703 103.68 338.983 104.144C340.023 104.512 340.775 105.064 341.239 105.8C341.719 106.52 341.959 107.264 341.959 108.032C341.959 109.104 341.703 110.032 341.191 110.816C340.679 111.6 339.959 112.208 339.031 112.64C338.103 113.056 337.015 113.264 335.767 113.264Z" fill="black"/>
<path d="M78.1453 113V100.976H83.1373V103.976C83.4573 102.888 83.9533 102.088 84.6253 101.576C85.3133 101.064 86.1293 100.808 87.0733 100.808L87.6733 105.056C87.2893 105.008 86.9133 104.984 86.5453 104.984C84.3213 104.984 83.2093 105.896 83.2093 107.72V113H78.1453ZM93.8321 113.192C92.7281 113.192 91.7281 112.928 90.8321 112.4C89.9361 111.856 89.2241 111.112 88.6961 110.168C88.1841 109.224 87.9281 108.144 87.9281 106.928C87.9281 105.712 88.1841 104.648 88.6961 103.736C89.2241 102.824 89.9361 102.112 90.8321 101.6C91.7281 101.072 92.7281 100.808 93.8321 100.808C94.6161 100.808 95.3761 101.024 96.1121 101.456C96.8481 101.888 97.4161 102.6 97.8161 103.592V100.976H102.808V113H97.7681V110.768C97.3841 111.552 96.8721 112.152 96.2321 112.568C95.5921 112.984 94.7921 113.192 93.8321 113.192ZM95.3921 109.4C96.0481 109.4 96.6081 109.168 97.0721 108.704C97.5361 108.224 97.7681 107.64 97.7681 106.952C97.7681 106.264 97.5361 105.704 97.0721 105.272C96.6081 104.824 96.0481 104.6 95.3921 104.6C94.7041 104.6 94.1281 104.832 93.6641 105.296C93.2001 105.76 92.9681 106.328 92.9681 107C92.9681 107.672 93.2001 108.24 93.6641 108.704C94.1281 109.168 94.7041 109.4 95.3921 109.4ZM109.656 113.192C108.584 113.192 107.712 113 107.04 112.616C106.384 112.232 105.904 111.712 105.6 111.056C105.296 110.4 105.144 109.664 105.144 108.848V100.976H110.208V108.152C110.208 108.52 110.312 108.808 110.52 109.016C110.744 109.208 111.008 109.304 111.312 109.304C111.632 109.304 111.96 109.208 112.296 109.016L112.56 112.352C112.208 112.624 111.752 112.832 111.192 112.976C110.632 113.12 110.12 113.192 109.656 113.192ZM107.688 99.656C106.952 99.656 106.32 99.424 105.792 98.96C105.264 98.48 105 97.896 105 97.208C105 96.728 105.128 96.312 105.384 95.96C105.64 95.592 105.976 95.304 106.392 95.096C106.808 94.888 107.24 94.784 107.688 94.784C108.184 94.784 108.632 94.896 109.032 95.12C109.448 95.344 109.776 95.64 110.016 96.008C110.272 96.376 110.4 96.776 110.4 97.208C110.4 97.688 110.264 98.112 109.992 98.48C109.736 98.848 109.4 99.136 108.984 99.344C108.584 99.552 108.152 99.656 107.688 99.656ZM119.989 113.192C118.629 113.192 117.429 112.928 116.389 112.4C115.349 111.872 114.533 111.144 113.941 110.216C113.365 109.272 113.077 108.192 113.077 106.976C113.077 105.728 113.373 104.648 113.965 103.736C114.573 102.808 115.397 102.088 116.437 101.576C117.477 101.064 118.669 100.808 120.013 100.808C121.389 100.808 122.597 101.072 123.637 101.6C124.677 102.112 125.485 102.832 126.061 103.76C126.637 104.672 126.925 105.744 126.925 106.976C126.925 108.208 126.629 109.296 126.037 110.24C125.461 111.168 124.653 111.896 123.613 112.424C122.573 112.936 121.365 113.192 119.989 113.192ZM120.037 109.592C120.693 109.592 121.229 109.352 121.645 108.872C122.077 108.376 122.293 107.744 122.293 106.976C122.293 106.208 122.085 105.584 121.669 105.104C121.253 104.608 120.725 104.36 120.085 104.36C119.397 104.36 118.837 104.608 118.405 105.104C117.989 105.584 117.781 106.208 117.781 106.976C117.781 107.744 117.989 108.376 118.405 108.872C118.837 109.352 119.381 109.592 120.037 109.592ZM137.003 117.656C135.067 117.48 133.427 116.904 132.083 115.928C130.739 114.968 129.723 113.696 129.035 112.112C128.347 110.528 128.003 108.736 128.003 106.736C128.003 104.624 128.371 102.808 129.107 101.288C129.843 99.752 130.883 98.536 132.227 97.64C133.571 96.744 135.163 96.208 137.003 96.032V99.056C135.883 99.248 134.995 99.992 134.339 101.288C133.683 102.584 133.355 104.4 133.355 106.736C133.355 108.144 133.475 109.416 133.715 110.552C133.955 111.672 134.339 112.584 134.867 113.288C135.411 114.008 136.123 114.448 137.003 114.608V117.656ZM138.427 113V100.976H143.419V103.976C143.739 102.888 144.235 102.088 144.907 101.576C145.595 101.064 146.411 100.808 147.355 100.808L147.955 105.056C147.571 105.008 147.195 104.984 146.827 104.984C144.603 104.984 143.491 105.896 143.491 107.72V113H138.427ZM147.575 117.656V114.608C148.711 114.416 149.607 113.664 150.263 112.352C150.919 111.024 151.247 109.152 151.247 106.736C151.247 104.512 150.927 102.728 150.287 101.384C149.663 100.024 148.759 99.248 147.575 99.056V96.032C149.575 96.224 151.239 96.808 152.567 97.784C153.895 98.744 154.895 99.992 155.567 101.528C156.239 103.064 156.575 104.8 156.575 106.736C156.575 108.8 156.215 110.624 155.495 112.208C154.791 113.776 153.767 115.032 152.423 115.976C151.095 116.92 149.479 117.48 147.575 117.656Z" fill="black"/>
<line x1="86" y1="71" x2="86" y2="96.1915" stroke="#A71616" stroke-width="4"/>
<line x1="167.865" y1="71" x2="167.865" y2="96.1915" stroke="#A71616" stroke-width="4"/>
<line x1="84.5845" y1="83.1702" x2="166.157" y2="83.1702" stroke="#A71616" stroke-width="4"/>
</svg>
