<svg width="381" height="266" viewBox="0 0 381 266" fill="none" xmlns="http://www.w3.org/2000/svg">
<path d="M233.54 72.024C230.511 72.024 227.738 71.2773 225.22 69.784L225.86 60.888C226.756 61.4 227.631 61.656 228.484 61.656C230.404 61.656 231.364 60.696 231.364 58.776V38.936H265.732V70.936H252.228V50.776H244.932V60.248C244.932 64.2587 243.908 67.224 241.86 69.144C239.855 71.064 237.082 72.024 233.54 72.024ZM280.94 71L285.804 62.68L281.26 54.968H288.012L289.804 58.744L291.66 54.968H298.22L293.74 62.68L298.54 71H291.98L289.804 66.904L287.692 71H280.94ZM313.606 71V38.936H326.918V46.936C327.772 44.0347 329.094 41.9013 330.886 40.536C332.721 39.1707 334.897 38.488 337.414 38.488L339.014 49.816C337.99 49.688 336.988 49.624 336.006 49.624C330.076 49.624 327.11 52.056 327.11 56.92V71H313.606ZM351.993 50.52V45.592C354.723 43.16 356.857 41.0267 358.393 39.192C359.929 37.3573 360.697 35.8213 360.697 34.584C360.697 33.7733 360.462 33.176 359.993 32.792C359.523 32.408 358.883 32.216 358.073 32.216C356.409 32.216 354.83 32.6853 353.337 33.624L351.545 28.184C352.654 27.544 353.891 27.0533 355.257 26.712C356.622 26.3707 357.966 26.2 359.289 26.2C362.062 26.2 364.217 26.9253 365.753 28.376C367.289 29.8267 368.057 31.6613 368.057 33.88C368.057 36.0987 367.31 38.1467 365.817 40.024C364.323 41.9013 362.105 43.6933 359.161 45.4H367.929V50.52H351.993Z" fill="black"/>
<line x1="131" y1="48" x2="191" y2="48" stroke="black" stroke-width="8"/>
<line x1="131" y1="70" x2="191" y2="70" stroke="black" stroke-width="8"/>
<circle cx="58.5" cy="61.5" r="54.5" stroke="black" stroke-width="8"/>
<path d="M23.1453 52V39.976H28.1373V42.976C28.4573 41.888 28.9533 41.088 29.6253 40.576C30.3133 40.064 31.1293 39.808 32.0733 39.808L32.6733 44.056C32.2893 44.008 31.9133 43.984 31.5453 43.984C29.3213 43.984 28.2093 44.896 28.2093 46.72V52H23.1453ZM38.8321 52.192C37.7281 52.192 36.7281 51.928 35.8321 51.4C34.9361 50.856 34.2241 50.112 33.6961 49.168C33.1841 48.224 32.9281 47.144 32.9281 45.928C32.9281 44.712 33.1841 43.648 33.6961 42.736C34.2241 41.824 34.9361 41.112 35.8321 40.6C36.7281 40.072 37.7281 39.808 38.8321 39.808C39.6161 39.808 40.3761 40.024 41.1121 40.456C41.8481 40.888 42.4161 41.6 42.8161 42.592V39.976H47.8081V52H42.7681V49.768C42.3841 50.552 41.8721 51.152 41.2321 51.568C40.5921 51.984 39.7921 52.192 38.8321 52.192ZM40.3921 48.4C41.0481 48.4 41.6081 48.168 42.0721 47.704C42.5361 47.224 42.7681 46.64 42.7681 45.952C42.7681 45.264 42.5361 44.704 42.0721 44.272C41.6081 43.824 41.0481 43.6 40.3921 43.6C39.7041 43.6 39.1281 43.832 38.6641 44.296C38.2001 44.76 37.9681 45.328 37.9681 46C37.9681 46.672 38.2001 47.24 38.6641 47.704C39.1281 48.168 39.7041 48.4 40.3921 48.4ZM54.6556 52.192C53.5836 52.192 52.7116 52 52.0396 51.616C51.3836 51.232 50.9036 50.712 50.5996 50.056C50.2956 49.4 50.1436 48.664 50.1436 47.848V39.976H55.2076V47.152C55.2076 47.52 55.3116 47.808 55.5196 48.016C55.7436 48.208 56.0076 48.304 56.3116 48.304C56.6316 48.304 56.9596 48.208 57.2956 48.016L57.5596 51.352C57.2076 51.624 56.7516 51.832 56.1916 51.976C55.6316 52.12 55.1196 52.192 54.6556 52.192ZM52.6876 38.656C51.9516 38.656 51.3196 38.424 50.7916 37.96C50.2636 37.48 49.9996 36.896 49.9996 36.208C49.9996 35.728 50.1276 35.312 50.3836 34.96C50.6396 34.592 50.9756 34.304 51.3916 34.096C51.8076 33.888 52.2396 33.784 52.6876 33.784C53.1836 33.784 53.6316 33.896 54.0316 34.12C54.4476 34.344 54.7756 34.64 55.0156 35.008C55.2716 35.376 55.3996 35.776 55.3996 36.208C55.3996 36.688 55.2636 37.112 54.9916 37.48C54.7356 37.848 54.3996 38.136 53.9836 38.344C53.5836 38.552 53.1516 38.656 52.6876 38.656ZM64.9886 52.192C63.6286 52.192 62.4286 51.928 61.3886 51.4C60.3486 50.872 59.5326 50.144 58.9406 49.216C58.3646 48.272 58.0766 47.192 58.0766 45.976C58.0766 44.728 58.3726 43.648 58.9646 42.736C59.5726 41.808 60.3966 41.088 61.4366 40.576C62.4766 40.064 63.6686 39.808 65.0126 39.808C66.3886 39.808 67.5966 40.072 68.6366 40.6C69.6766 41.112 70.4846 41.832 71.0606 42.76C71.6366 43.672 71.9246 44.744 71.9246 45.976C71.9246 47.208 71.6286 48.296 71.0366 49.24C70.4606 50.168 69.6526 50.896 68.6126 51.424C67.5726 51.936 66.3646 52.192 64.9886 52.192ZM65.0366 48.592C65.6926 48.592 66.2286 48.352 66.6446 47.872C67.0766 47.376 67.2926 46.744 67.2926 45.976C67.2926 45.208 67.0846 44.584 66.6686 44.104C66.2526 43.608 65.7246 43.36 65.0846 43.36C64.3966 43.36 63.8366 43.608 63.4046 44.104C62.9886 44.584 62.7806 45.208 62.7806 45.976C62.7806 46.744 62.9886 47.376 63.4046 47.872C63.8366 48.352 64.3806 48.592 65.0366 48.592ZM82.0034 56.656C80.0674 56.48 78.4274 55.904 77.0834 54.928C75.7394 53.968 74.7234 52.696 74.0354 51.112C73.3474 49.528 73.0034 47.736 73.0034 45.736C73.0034 43.624 73.3714 41.808 74.1074 40.288C74.8434 38.752 75.8834 37.536 77.2274 36.64C78.5714 35.744 80.1634 35.208 82.0034 35.032V38.056C80.8834 38.248 79.9954 38.992 79.3394 40.288C78.6834 41.584 78.3554 43.4 78.3554 45.736C78.3554 47.144 78.4754 48.416 78.7154 49.552C78.9554 50.672 79.3394 51.584 79.8674 52.288C80.4114 53.008 81.1234 53.448 82.0034 53.608V56.656ZM83.4266 52V39.976H88.4186V42.976C88.7386 41.888 89.2346 41.088 89.9066 40.576C90.5946 40.064 91.4106 39.808 92.3546 39.808L92.9546 44.056C92.5706 44.008 92.1946 43.984 91.8266 43.984C89.6026 43.984 88.4906 44.896 88.4906 46.72V52H83.4266ZM92.5749 56.656V53.608C93.7109 53.416 94.6069 52.664 95.2629 51.352C95.9189 50.024 96.2469 48.152 96.2469 45.736C96.2469 43.512 95.9269 41.728 95.2869 40.384C94.6629 39.024 93.7589 38.248 92.5749 38.056V35.032C94.5749 35.224 96.2389 35.808 97.5669 36.784C98.8949 37.744 99.8949 38.992 100.567 40.528C101.239 42.064 101.575 43.8 101.575 45.736C101.575 47.8 101.215 49.624 100.495 51.208C99.7909 52.776 98.7669 54.032 97.4229 54.976C96.0949 55.92 94.4789 56.48 92.5749 56.656Z" fill="#621C28"/>
<line x1="60.5" y1="52.4464" x2="60.5" y2="69.9905" stroke="#F43F5E" stroke-width="4"/>
<line x1="117.513" y1="52.4464" x2="117.513" y2="69.9905" stroke="#F43F5E" stroke-width="4"/>
<line x1="58.907" y1="60.3149" x2="115.716" y2="60.3149" stroke="#F43F5E" stroke-width="4"/>
<path d="M325.593 259.384C324.457 259.384 323.417 259.104 322.473 258.544L322.713 255.208C323.049 255.4 323.377 255.496 323.697 255.496C324.417 255.496 324.777 255.136 324.777 254.416V246.976H337.665V258.976H332.601V251.416H329.865V254.968C329.865 256.472 329.481 257.584 328.713 258.304C327.961 259.024 326.921 259.384 325.593 259.384ZM344.772 252.352V249.136H356.292V252.352H344.772ZM344.772 256.84V253.624H356.292V256.84H344.772ZM367.767 259.264C366.935 259.264 366.095 259.176 365.247 259C364.415 258.84 363.647 258.608 362.943 258.304L363.735 254.632C365.031 255.16 366.207 255.424 367.263 255.424C368.575 255.424 369.231 254.928 369.231 253.936C369.231 253.296 368.895 252.84 368.223 252.568C367.551 252.28 366.431 252.136 364.863 252.136V248.848C367.711 248.848 369.135 248.28 369.135 247.144C369.135 246.792 368.967 246.52 368.631 246.328C368.311 246.12 367.863 246.016 367.287 246.016C365.943 246.016 364.735 246.296 363.663 246.856L362.727 243.472C364.295 242.576 366.063 242.128 368.031 242.128C369.647 242.128 370.919 242.496 371.847 243.232C372.775 243.952 373.239 244.944 373.239 246.208C373.239 247.008 373.039 247.752 372.639 248.44C372.255 249.112 371.703 249.68 370.983 250.144C372.023 250.512 372.775 251.064 373.239 251.8C373.719 252.52 373.959 253.264 373.959 254.032C373.959 255.104 373.703 256.032 373.191 256.816C372.679 257.6 371.959 258.208 371.031 258.64C370.103 259.056 369.015 259.264 367.767 259.264Z" fill="black"/>
<path d="M215.233 195V185.976C220.012 181.453 223.745 177.507 226.433 174.136C229.121 170.723 230.465 167.885 230.465 165.624C230.465 164.131 230.039 163.021 229.185 162.296C228.332 161.528 227.223 161.144 225.857 161.144C222.999 161.144 220.247 162.019 217.601 163.768L214.465 153.784C216.428 152.547 218.583 151.608 220.929 150.968C223.319 150.328 225.665 150.008 227.969 150.008C231.468 150.008 234.348 150.627 236.609 151.864C238.871 153.101 240.556 154.787 241.665 156.92C242.817 159.053 243.393 161.485 243.393 164.216C243.393 168.355 242.071 172.173 239.425 175.672C236.823 179.171 232.919 182.499 227.713 185.656H243.137V195H215.233ZM245.893 195L250.757 186.68L246.213 178.968H252.965L254.757 182.744L256.613 178.968H263.173L258.693 186.68L263.493 195H256.933L254.757 190.904L252.645 195H245.893ZM277.775 196.024C274.745 196.024 271.972 195.277 269.455 193.784L270.095 184.888C270.991 185.4 271.865 185.656 272.719 185.656C274.639 185.656 275.599 184.696 275.599 182.776V162.936H309.967V194.936H296.463V174.776H289.167V184.248C289.167 188.259 288.143 191.224 286.095 193.144C284.089 195.064 281.316 196.024 277.775 196.024ZM325.174 195L330.038 186.68L325.494 178.968H332.246L334.038 182.744L335.894 178.968H342.454L337.974 186.68L342.774 195H336.214L334.038 190.904L331.926 195H325.174ZM345.903 195V162.936H359.215V170.936C360.068 168.035 361.391 165.901 363.183 164.536C365.018 163.171 367.194 162.488 369.711 162.488L371.311 173.816C370.287 173.688 369.284 173.624 368.303 173.624C362.372 173.624 359.407 176.056 359.407 180.92V195H345.903Z" fill="black"/>
<line x1="130" y1="169" x2="190" y2="169" stroke="black" stroke-width="8"/>
<line x1="130" y1="191" x2="190" y2="191" stroke="black" stroke-width="8"/>
<circle cx="56" cy="190" r="54" stroke="#F43F5E" stroke-width="4" stroke-dasharray="8 8"/>
<path d="M23.8884 264.212L20.9344 264.646V254.986H23.8464V256.512C24.089 255.933 24.4204 255.518 24.8404 255.266C25.2697 255.014 25.713 254.888 26.1704 254.888C26.8237 254.888 27.407 255.042 27.9204 255.35C28.443 255.649 28.8537 256.064 29.1524 256.596C29.4604 257.128 29.6144 257.749 29.6144 258.458C29.6144 259.167 29.4604 259.797 29.1524 260.348C28.8537 260.899 28.443 261.333 27.9204 261.65C27.407 261.958 26.8237 262.112 26.1704 262.112C25.6104 262.112 25.1437 261.991 24.7704 261.748C24.397 261.505 24.103 261.155 23.8884 260.698V264.212ZM25.2604 259.9C25.6617 259.9 25.9977 259.765 26.2684 259.494C26.539 259.223 26.6744 258.892 26.6744 258.5C26.6744 258.108 26.539 257.777 26.2684 257.506C25.9977 257.235 25.6617 257.1 25.2604 257.1C24.8777 257.1 24.551 257.231 24.2804 257.492C24.0097 257.744 23.8744 258.071 23.8744 258.472C23.8744 258.873 24.0097 259.214 24.2804 259.494C24.551 259.765 24.8777 259.9 25.2604 259.9ZM35.0228 260.152C35.2934 260.152 35.5781 260.124 35.8768 260.068C36.1848 260.012 36.4974 259.909 36.8148 259.76L37.1508 261.566C36.8054 261.743 36.4274 261.879 36.0168 261.972C35.6154 262.065 35.1534 262.112 34.6308 262.112C33.6881 262.112 32.8948 261.958 32.2508 261.65C31.6161 261.342 31.1354 260.917 30.8088 260.376C30.4821 259.835 30.3188 259.209 30.3188 258.5C30.3188 257.772 30.4914 257.137 30.8368 256.596C31.1914 256.055 31.6628 255.635 32.2508 255.336C32.8388 255.037 33.4874 254.888 34.1968 254.888C35.2514 254.888 36.0588 255.219 36.6188 255.882C37.1788 256.535 37.4588 257.469 37.4588 258.682L33.2868 259.214C33.5948 259.839 34.1734 260.152 35.0228 260.152ZM33.0628 257.926L35.2608 257.464C35.2234 257.165 35.1208 256.946 34.9528 256.806C34.7848 256.657 34.5748 256.582 34.3228 256.582C33.9494 256.582 33.6508 256.713 33.4268 256.974C33.2121 257.226 33.0908 257.543 33.0628 257.926ZM38.4344 262V254.986H41.3464V256.736C41.533 256.101 41.8224 255.635 42.2144 255.336C42.6157 255.037 43.0917 254.888 43.6424 254.888L43.9924 257.366C43.7684 257.338 43.549 257.324 43.3344 257.324C42.037 257.324 41.3884 257.856 41.3884 258.92V262H38.4344ZM47.2861 262.112C46.6608 262.112 46.1521 262 45.7601 261.776C45.3774 261.552 45.0974 261.249 44.9201 260.866C44.7428 260.483 44.6541 260.054 44.6541 259.578V254.986H47.6081V259.172C47.6081 259.387 47.6688 259.555 47.7901 259.676C47.9208 259.788 48.0748 259.844 48.2521 259.844C48.4388 259.844 48.6301 259.788 48.8261 259.676L48.9801 261.622C48.7748 261.781 48.5088 261.902 48.1821 261.986C47.8554 262.07 47.5568 262.112 47.2861 262.112ZM44.5841 254.216L43.7301 252.718L47.8321 249.848L49.2461 252.354L44.5841 254.216ZM49.7 262V254.986H52.612V256.512C52.8173 255.989 53.1113 255.588 53.494 255.308C53.886 255.028 54.376 254.888 54.964 254.888C55.5427 254.888 56.0327 255.033 56.434 255.322C56.8447 255.602 57.134 255.966 57.302 256.414C57.6193 255.938 57.9927 255.565 58.422 255.294C58.8607 255.023 59.388 254.888 60.004 254.888C60.872 254.888 61.544 255.205 62.02 255.84C62.496 256.465 62.734 257.352 62.734 258.5V262H59.78V258.346C59.78 257.515 59.486 257.1 58.898 257.1C58.534 257.1 58.24 257.249 58.016 257.548C57.8013 257.837 57.694 258.229 57.694 258.724V262H54.74V258.346C54.74 257.907 54.6653 257.59 54.516 257.394C54.3667 257.198 54.1473 257.1 53.858 257.1C53.494 257.1 53.2 257.245 52.976 257.534C52.7613 257.814 52.654 258.211 52.654 258.724V262H49.7ZM68.4231 260.152C68.6938 260.152 68.9785 260.124 69.2771 260.068C69.5851 260.012 69.8978 259.909 70.2151 259.76L70.5511 261.566C70.2058 261.743 69.8278 261.879 69.4171 261.972C69.0158 262.065 68.5538 262.112 68.0311 262.112C67.0885 262.112 66.2951 261.958 65.6511 261.65C65.0165 261.342 64.5358 260.917 64.2091 260.376C63.8825 259.835 63.7191 259.209 63.7191 258.5C63.7191 257.772 63.8918 257.137 64.2371 256.596C64.5918 256.055 65.0631 255.635 65.6511 255.336C66.2391 255.037 66.8878 254.888 67.5971 254.888C68.6518 254.888 69.4591 255.219 70.0191 255.882C70.5791 256.535 70.8591 257.469 70.8591 258.682L66.6871 259.214C66.9951 259.839 67.5738 260.152 68.4231 260.152ZM66.4631 257.926L68.6611 257.464C68.6238 257.165 68.5211 256.946 68.3531 256.806C68.1851 256.657 67.9751 256.582 67.7231 256.582C67.3498 256.582 67.0511 256.713 66.8271 256.974C66.6125 257.226 66.4911 257.543 66.4631 257.926ZM74.8308 262.112C74.1681 262.112 73.6268 262 73.2068 261.776C72.7961 261.552 72.4974 261.249 72.3108 260.866C72.1241 260.483 72.0308 260.054 72.0308 259.578V256.722H71.1348V254.986H72.2408L73.5428 252.774H74.9848V254.986H76.6088V256.722H74.9848V259.172C74.9848 259.387 75.0548 259.555 75.1948 259.676C75.3348 259.788 75.5168 259.844 75.7408 259.844C75.9648 259.844 76.1888 259.788 76.4128 259.676L76.6228 261.622C76.3988 261.781 76.1141 261.902 75.7688 261.986C75.4234 262.07 75.1108 262.112 74.8308 262.112ZM77.6316 262V254.986H80.5436V256.736C80.7303 256.101 81.0196 255.635 81.4116 255.336C81.813 255.037 82.289 254.888 82.8396 254.888L83.1896 257.366C82.9656 257.338 82.7463 257.324 82.5316 257.324C81.2343 257.324 80.5856 257.856 80.5856 258.92V262H77.6316ZM87.3703 262.112C86.5769 262.112 85.8769 261.958 85.2703 261.65C84.6636 261.342 84.1876 260.917 83.8423 260.376C83.5063 259.825 83.3383 259.195 83.3383 258.486C83.3383 257.758 83.5109 257.128 83.8563 256.596C84.2109 256.055 84.6916 255.635 85.2983 255.336C85.9049 255.037 86.6003 254.888 87.3843 254.888C88.1869 254.888 88.8916 255.042 89.4983 255.35C90.1049 255.649 90.5763 256.069 90.9123 256.61C91.2483 257.142 91.4163 257.767 91.4163 258.486C91.4163 259.205 91.2436 259.839 90.8983 260.39C90.5623 260.931 90.0909 261.356 89.4843 261.664C88.8776 261.963 88.1729 262.112 87.3703 262.112ZM87.3983 260.012C87.7809 260.012 88.0936 259.872 88.3363 259.592C88.5883 259.303 88.7143 258.934 88.7143 258.486C88.7143 258.038 88.5929 257.674 88.3503 257.394C88.1076 257.105 87.7996 256.96 87.4263 256.96C87.0249 256.96 86.6983 257.105 86.4463 257.394C86.2036 257.674 86.0823 258.038 86.0823 258.486C86.0823 258.934 86.2036 259.303 86.4463 259.592C86.6983 259.872 87.0156 260.012 87.3983 260.012Z" fill="#F43F5E"/>
</svg>
