<svg width="556" height="200" viewBox="0 0 556 200" fill="none" xmlns="http://www.w3.org/2000/svg">
<path d="M28.455 50.3291C31.704 44.1407 37.9627 39.6876 46.8732 37.0976C55.7912 34.5056 67.1962 33.8379 80.3695 35.1173C106.706 37.6749 139.694 47.9722 173.03 65.4732C206.367 82.9744 233.577 104.28 250.638 124.505C259.172 134.622 265.099 144.388 268.03 153.201C270.958 162.006 270.847 169.686 267.598 175.875C264.349 182.063 258.091 186.516 249.18 189.106C240.262 191.699 228.857 192.366 215.684 191.087C189.347 188.529 156.358 178.232 123.022 160.731C89.6849 143.23 62.4764 121.924 45.4153 101.699C36.8812 91.5822 30.9542 81.8158 28.0234 73.0032C25.095 64.1979 25.2061 56.5177 28.455 50.3291Z" stroke="#F43F5E" stroke-width="4"/>
<path d="M355.25 109L555.25 109" stroke="black" stroke-width="6"/>
<path d="M350.796 100V93.232C354.38 89.84 357.18 86.88 359.196 84.352C361.212 81.792 362.22 79.664 362.22 77.968C362.22 76.848 361.9 76.016 361.26 75.472C360.62 74.896 359.788 74.608 358.764 74.608C356.62 74.608 354.556 75.264 352.572 76.576L350.22 69.088C351.692 68.16 353.308 67.456 355.068 66.976C356.86 66.496 358.62 66.256 360.348 66.256C362.972 66.256 365.132 66.72 366.828 67.648C368.524 68.576 369.788 69.84 370.62 71.44C371.484 73.04 371.916 74.864 371.916 76.912C371.916 80.016 370.924 82.88 368.94 85.504C366.988 88.128 364.06 90.624 360.156 92.992H371.724V100H350.796ZM382.816 100L390.112 87.52L383.296 75.952H393.424L396.112 81.616L398.896 75.952H408.736L402.016 87.52L409.216 100H399.376L396.112 93.856L392.944 100H382.816ZM429.247 100.816L420.511 97.12L431.215 73.984H419.311V66.976H441.775V72.832L429.247 100.816Z" fill="#F43F5E"/>
<line x1="14.75" y1="106.896" x2="121.783" y2="106.896" stroke="black" stroke-width="6"/>
<path d="M54.2967 91V81.976C59.0754 77.4533 62.8087 73.5067 65.4967 70.136C68.1847 66.7227 69.5287 63.8853 69.5287 61.624C69.5287 60.1307 69.102 59.0213 68.2487 58.296C67.3954 57.528 66.286 57.144 64.9207 57.144C62.062 57.144 59.31 58.0187 56.6647 59.768L53.5287 49.784C55.4914 48.5467 57.646 47.608 59.9927 46.968C62.382 46.328 64.7287 46.008 67.0327 46.008C70.5314 46.008 73.4114 46.6267 75.6727 47.864C77.934 49.1013 79.6194 50.7867 80.7287 52.92C81.8807 55.0533 82.4567 57.4853 82.4567 60.216C82.4567 64.3547 81.134 68.1733 78.4887 71.672C75.886 75.1707 71.982 78.4987 66.7767 81.656H82.2007V91H54.2967Z" fill="#F43F5E"/>
<path d="M66.6457 180.704C64.427 180.704 62.187 180.469 59.9257 180C57.707 179.573 55.659 178.955 53.7817 178.144L55.8937 168.352C59.3497 169.76 62.4857 170.464 65.3017 170.464C68.8004 170.464 70.5497 169.141 70.5497 166.496C70.5497 164.789 69.6537 163.573 67.8617 162.848C66.0697 162.08 63.083 161.696 58.9017 161.696V152.928C66.4964 152.928 70.2937 151.413 70.2937 148.384C70.2937 147.445 69.8457 146.72 68.9497 146.208C68.0964 145.653 66.9017 145.376 65.3657 145.376C61.7817 145.376 58.5604 146.123 55.7017 147.616L53.2057 138.592C57.387 136.203 62.1017 135.008 67.3497 135.008C71.659 135.008 75.051 135.989 77.5257 137.952C80.0004 139.872 81.2377 142.517 81.2377 145.888C81.2377 148.021 80.7044 150.005 79.6377 151.84C78.6137 153.632 77.1417 155.147 75.2217 156.384C77.995 157.365 80.0004 158.837 81.2377 160.8C82.5177 162.72 83.1577 164.704 83.1577 166.752C83.1577 169.611 82.475 172.085 81.1097 174.176C79.7444 176.267 77.8244 177.888 75.3497 179.04C72.875 180.149 69.9737 180.704 66.6457 180.704Z" fill="black"/>
<line x1="160.75" y1="106.896" x2="267.783" y2="106.896" stroke="black" stroke-width="6"/>
<path d="M213.755 91V80.632H196.027V71.16L213.051 46.968H227.387V71.288H233.531V80.632H227.387V91H213.755ZM205.435 71.288H213.755V57.848L205.435 71.288Z" fill="black"/>
<path d="M212.772 181.088L201.124 176.16L215.396 145.312H199.524V135.968H229.476V143.776L212.772 181.088Z" fill="#F43F5E"/>
<path d="M158.142 83.9947H143.879V96.5939H139.125V83.9947H124.862V79.795H139.125V67.1958H143.879V79.795H158.142V83.9947Z" fill="black"/>
<path d="M312.739 105.704V99.272H335.779V105.704H312.739ZM312.739 114.68V108.248H335.779V114.68H312.739Z" fill="black"/>
</svg>
