<svg width="587" height="227" viewBox="0 0 587 227" fill="none" xmlns="http://www.w3.org/2000/svg">
<line x1="15.9998" y1="105.896" x2="123.033" y2="105.896" stroke="black" stroke-width="6"/>
<path d="M55.5464 90V80.976C60.3251 76.4533 64.0584 72.5067 66.7464 69.136C69.4344 65.7227 70.7784 62.8853 70.7784 60.624C70.7784 59.1307 70.3518 58.0213 69.4984 57.296C68.6451 56.528 67.5358 56.144 66.1704 56.144C63.3118 56.144 60.5598 57.0187 57.9144 58.768L54.7784 48.784C56.7411 47.5467 58.8958 46.608 61.2424 45.968C63.6318 45.328 65.9784 45.008 68.2824 45.008C71.7811 45.008 74.6611 45.6267 76.9224 46.864C79.1838 48.1013 80.8691 49.7867 81.9784 51.92C83.1304 54.0533 83.7064 56.4853 83.7064 59.216C83.7064 63.3547 82.3838 67.1733 79.7384 70.672C77.1358 74.1707 73.2318 77.4987 68.0264 80.656H83.4504V90H55.5464Z" fill="black"/>
<path d="M67.8954 179.704C65.6768 179.704 63.4368 179.469 61.1754 179C58.9568 178.573 56.9088 177.955 55.0314 177.144L57.1434 167.352C60.5994 168.76 63.7354 169.464 66.5514 169.464C70.0501 169.464 71.7994 168.141 71.7994 165.496C71.7994 163.789 70.9034 162.573 69.1114 161.848C67.3194 161.08 64.3328 160.696 60.1514 160.696V151.928C67.7461 151.928 71.5434 150.413 71.5434 147.384C71.5434 146.445 71.0954 145.72 70.1994 145.208C69.3461 144.653 68.1514 144.376 66.6154 144.376C63.0314 144.376 59.8101 145.123 56.9514 146.616L54.4554 137.592C58.6368 135.203 63.3514 134.008 68.5994 134.008C72.9088 134.008 76.3008 134.989 78.7754 136.952C81.2501 138.872 82.4874 141.517 82.4874 144.888C82.4874 147.021 81.9541 149.005 80.8874 150.84C79.8634 152.632 78.3914 154.147 76.4714 155.384C79.2448 156.365 81.2501 157.837 82.4874 159.8C83.7674 161.72 84.4074 163.704 84.4074 165.752C84.4074 168.611 83.7248 171.085 82.3594 173.176C80.9941 175.267 79.0741 176.888 76.5994 178.04C74.1248 179.149 71.2234 179.704 67.8954 179.704Z" fill="#F43F5E"/>
<line x1="162" y1="105.896" x2="269.033" y2="105.896" stroke="black" stroke-width="6"/>
<path d="M215.005 90V79.632H197.277V70.16L214.301 45.968H228.637V70.288H234.781V79.632H228.637V90H215.005ZM206.685 70.288H215.005V56.848L206.685 70.288Z" fill="#F43F5E"/>
<path d="M214.022 180.088L202.374 175.16L216.646 144.312H200.774V134.968H230.726V142.776L214.022 180.088Z" fill="black"/>
<path d="M330.5 105.5L570.5 105.5" stroke="black" stroke-width="6"/>
<path d="M332.656 99V92.232C336.24 88.84 339.04 85.88 341.056 83.352C343.072 80.792 344.08 78.664 344.08 76.968C344.08 75.848 343.76 75.016 343.12 74.472C342.48 73.896 341.648 73.608 340.624 73.608C338.48 73.608 336.416 74.264 334.432 75.576L332.08 68.088C333.552 67.16 335.168 66.456 336.928 65.976C338.72 65.496 340.48 65.256 342.208 65.256C344.832 65.256 346.992 65.72 348.688 66.648C350.384 67.576 351.648 68.84 352.48 70.44C353.344 72.04 353.776 73.864 353.776 75.912C353.776 79.016 352.784 81.88 350.8 84.504C348.848 87.128 345.92 89.624 342.016 91.992H353.584V99H332.656ZM364.675 99L371.971 86.52L365.155 74.952H375.283L377.971 80.616L380.755 74.952H390.595L383.875 86.52L391.075 99H381.235L377.971 92.856L374.803 99H364.675ZM411.106 99.816L402.37 96.12L413.074 72.984H401.17V65.976H423.634V71.832L411.106 99.816ZM443.996 99V90.696H436.364V83.256H443.996V74.952H451.772V83.256H459.404V90.696H451.772V99H443.996Z" fill="black"/>
<path d="M482.355 99.528C480.691 99.528 479.011 99.352 477.315 99C475.651 98.68 474.115 98.216 472.707 97.608L474.291 90.264C476.883 91.32 479.235 91.848 481.347 91.848C483.971 91.848 485.283 90.856 485.283 88.872C485.283 87.592 484.611 86.68 483.267 86.136C481.923 85.56 479.683 85.272 476.547 85.272V78.696C482.243 78.696 485.091 77.56 485.091 75.288C485.091 74.584 484.755 74.04 484.083 73.656C483.443 73.24 482.547 73.032 481.395 73.032C478.707 73.032 476.291 73.592 474.147 74.712L472.275 67.944C475.411 66.152 478.947 65.256 482.883 65.256C486.115 65.256 488.659 65.992 490.515 67.464C492.371 68.904 493.299 70.888 493.299 73.416C493.299 75.016 492.899 76.504 492.099 77.88C491.331 79.224 490.227 80.36 488.787 81.288C490.867 82.024 492.371 83.128 493.299 84.6C494.259 86.04 494.739 87.528 494.739 89.064C494.739 91.208 494.227 93.064 493.203 94.632C492.179 96.2 490.739 97.416 488.883 98.28C487.027 99.112 484.851 99.528 482.355 99.528ZM505.019 99L512.315 86.52L505.499 74.952H515.627L518.315 80.616L521.099 74.952H530.939L524.219 86.52L531.419 99H521.579L518.315 92.856L515.147 99H505.019ZM554.906 99V91.224H541.61V84.12L554.378 65.976H565.13V84.216H569.738V91.224H565.13V99H554.906ZM548.666 84.216H554.906V74.136L548.666 84.216Z" fill="#F43F5E"/>
<path d="M292.989 95.704V89.272H316.029V95.704H292.989ZM292.989 104.68V98.248H316.029V104.68H292.989Z" fill="black"/>
<path d="M266.848 50.3291C263.599 44.1407 257.34 39.6876 248.43 37.0976C239.512 34.5056 228.107 33.8379 214.933 35.1173C188.597 37.6749 155.609 47.9722 122.272 65.4732C88.9357 82.9744 61.7261 104.28 44.6649 124.505C36.1309 134.622 30.2038 144.388 27.273 153.201C24.3447 162.006 24.4559 169.686 27.7046 175.875C30.9535 182.063 37.2121 186.516 46.1228 189.106C55.0408 191.699 66.4456 192.366 79.6191 191.087C105.955 188.529 138.944 178.232 172.281 160.731C205.618 143.23 232.826 121.924 249.887 101.699C258.422 91.5822 264.349 81.8158 267.279 73.0032C270.208 64.1979 270.097 56.5177 266.848 50.3291Z" stroke="#F43F5E" stroke-width="4"/>
<path d="M159.25 94H145V108.25H140.25V94H126V89.25H140.25V75H145V89.25H159.25V94Z" fill="black"/>
</svg>
