<svg width="571" height="163" viewBox="0 0 571 163" fill="none" xmlns="http://www.w3.org/2000/svg">
<path d="M390.308 104.528C388.644 104.528 386.964 104.352 385.268 104C383.604 103.68 382.068 103.216 380.66 102.608L382.244 95.264C384.836 96.32 387.188 96.848 389.3 96.848C391.924 96.848 393.236 95.856 393.236 93.872C393.236 92.592 392.564 91.68 391.22 91.136C389.876 90.56 387.636 90.272 384.5 90.272V83.696C390.196 83.696 393.044 82.56 393.044 80.288C393.044 79.584 392.708 79.04 392.036 78.656C391.396 78.24 390.5 78.032 389.348 78.032C386.66 78.032 384.244 78.592 382.1 79.712L380.228 72.944C383.364 71.152 386.9 70.256 390.836 70.256C394.068 70.256 396.612 70.992 398.468 72.464C400.324 73.904 401.252 75.888 401.252 78.416C401.252 80.016 400.852 81.504 400.052 82.88C399.284 84.224 398.18 85.36 396.74 86.288C398.82 87.024 400.324 88.128 401.252 89.6C402.212 91.04 402.692 92.528 402.692 94.064C402.692 96.208 402.18 98.064 401.156 99.632C400.132 101.2 398.692 102.416 396.836 103.28C394.98 104.112 392.804 104.528 390.308 104.528ZM412.972 104L420.268 91.52L413.452 79.952H423.58L426.268 85.616L429.052 79.952H438.892L432.172 91.52L439.372 104H429.532L426.268 97.856L423.1 104H412.972ZM459.403 104.816L450.667 101.12L461.371 77.984H449.467V70.976H471.931V76.832L459.403 104.816Z" fill="#F43F5E"/>
<line x1="-2.62268e-07" y1="63.8955" x2="107.033" y2="63.8955" stroke="black" stroke-width="6"/>
<path d="M39.5467 48V38.976C44.3254 34.4533 48.0587 30.5067 50.7467 27.136C53.4347 23.7227 54.7787 20.8853 54.7787 18.624C54.7787 17.1307 54.352 16.0213 53.4987 15.296C52.6454 14.528 51.536 14.144 50.1707 14.144C47.312 14.144 44.56 15.0187 41.9147 16.768L38.7787 6.784C40.7414 5.54666 42.896 4.608 45.2427 3.968C47.632 3.328 49.9787 3.008 52.2827 3.008C55.7814 3.008 58.6614 3.62667 60.9227 4.864C63.184 6.10133 64.8694 7.78666 65.9787 9.92C67.1307 12.0533 67.7067 14.4853 67.7067 17.216C67.7067 21.3547 66.384 25.1733 63.7387 28.672C61.136 32.1707 57.232 35.4987 52.0267 38.656H67.4507V48H39.5467Z" fill="black"/>
<path d="M51.8957 137.704C49.677 137.704 47.437 137.469 45.1757 137C42.957 136.573 40.909 135.955 39.0317 135.144L41.1437 125.352C44.5997 126.76 47.7357 127.464 50.5517 127.464C54.0504 127.464 55.7997 126.141 55.7997 123.496C55.7997 121.789 54.9037 120.573 53.1117 119.848C51.3197 119.08 48.333 118.696 44.1517 118.696V109.928C51.7464 109.928 55.5437 108.413 55.5437 105.384C55.5437 104.445 55.0957 103.72 54.1997 103.208C53.3464 102.653 52.1517 102.376 50.6157 102.376C47.0317 102.376 43.8104 103.123 40.9517 104.616L38.4557 95.592C42.637 93.2027 47.3517 92.008 52.5997 92.008C56.909 92.008 60.301 92.9893 62.7757 94.952C65.2504 96.872 66.4877 99.5173 66.4877 102.888C66.4877 105.021 65.9544 107.005 64.8877 108.84C63.8637 110.632 62.3917 112.147 60.4717 113.384C63.245 114.365 65.2504 115.837 66.4877 117.8C67.7677 119.72 68.4077 121.704 68.4077 123.752C68.4077 126.611 67.725 129.085 66.3597 131.176C64.9944 133.267 63.0744 134.888 60.5997 136.04C58.125 137.149 55.2237 137.704 51.8957 137.704Z" fill="#F43F5E"/>
<line x1="146" y1="63.8955" x2="253.033" y2="63.8955" stroke="black" stroke-width="6"/>
<path d="M199.005 48V37.632H181.277V28.16L198.301 3.968H212.637V28.288H218.781V37.632H212.637V48H199.005ZM190.685 28.288H199.005V14.848L190.685 28.288Z" fill="black"/>
<path d="M198.022 138.088L186.374 133.16L200.646 102.312H184.774V92.968H214.726V100.776L198.022 138.088Z" fill="#F43F5E"/>
<path d="M314.5 63.5L554.5 63.5" stroke="black" stroke-width="6"/>
<path d="M316.656 57V50.232C320.24 46.84 323.04 43.88 325.056 41.352C327.072 38.792 328.08 36.664 328.08 34.968C328.08 33.848 327.76 33.016 327.12 32.472C326.48 31.896 325.648 31.608 324.624 31.608C322.48 31.608 320.416 32.264 318.432 33.576L316.08 26.088C317.552 25.16 319.168 24.456 320.928 23.976C322.72 23.496 324.48 23.256 326.208 23.256C328.832 23.256 330.992 23.72 332.688 24.648C334.384 25.576 335.648 26.84 336.48 28.44C337.344 30.04 337.776 31.864 337.776 33.912C337.776 37.016 336.784 39.88 334.8 42.504C332.848 45.128 329.92 47.624 326.016 49.992H337.584V57H316.656ZM348.675 57L355.971 44.52L349.155 32.952H359.283L361.971 38.616L364.755 32.952H374.595L367.875 44.52L375.075 57H365.235L361.971 50.856L358.803 57H348.675ZM395.106 57.816L386.37 54.12L397.074 30.984H385.17V23.976H407.634V29.832L395.106 57.816ZM427.996 57V48.696H420.364V41.256H427.996V32.952H435.772V41.256H443.404V48.696H435.772V57H427.996ZM466.355 57.528C464.691 57.528 463.011 57.352 461.315 57C459.651 56.68 458.115 56.216 456.707 55.608L458.291 48.264C460.883 49.32 463.235 49.848 465.347 49.848C467.971 49.848 469.283 48.856 469.283 46.872C469.283 45.592 468.611 44.68 467.267 44.136C465.923 43.56 463.683 43.272 460.547 43.272V36.696C466.243 36.696 469.091 35.56 469.091 33.288C469.091 32.584 468.755 32.04 468.083 31.656C467.443 31.24 466.547 31.032 465.395 31.032C462.707 31.032 460.291 31.592 458.147 32.712L456.275 25.944C459.411 24.152 462.947 23.256 466.883 23.256C470.115 23.256 472.659 23.992 474.515 25.464C476.371 26.904 477.299 28.888 477.299 31.416C477.299 33.016 476.899 34.504 476.099 35.88C475.331 37.224 474.227 38.36 472.787 39.288C474.867 40.024 476.371 41.128 477.299 42.6C478.259 44.04 478.739 45.528 478.739 47.064C478.739 49.208 478.227 51.064 477.203 52.632C476.179 54.2 474.739 55.416 472.883 56.28C471.027 57.112 468.851 57.528 466.355 57.528ZM489.019 57L496.315 44.52L489.499 32.952H499.627L502.315 38.616L505.099 32.952H514.939L508.219 44.52L515.419 57H505.579L502.315 50.856L499.147 57H489.019ZM538.906 57V49.224H525.61V42.12L538.378 23.976H549.13V42.216H553.738V49.224H549.13V57H538.906ZM532.666 42.216H538.906V32.136L532.666 42.216Z" fill="black"/>
<path d="M276.989 53.704V47.272H300.029V53.704H276.989ZM276.989 62.68V56.248H300.029V62.68H276.989Z" fill="black"/>
<path d="M143.25 52H129V66.25H124.25V52H110V47.25H124.25V33H129V47.25H143.25V52Z" fill="black"/>
<path d="M242 115C242 109.084 239.073 103.257 233.377 97.7549C227.675 92.2475 219.318 87.1952 208.829 82.9102C187.86 74.344 158.753 69 126.5 69C94.247 69 65.1401 74.344 44.1709 82.9102C33.6815 87.1952 25.3253 92.2475 19.623 97.7549C13.9266 103.257 11 109.084 11 115C11 120.916 13.9266 126.743 19.623 132.245C25.3253 137.753 33.6815 142.805 44.1709 147.09C65.1401 155.656 94.247 161 126.5 161C158.753 161 187.86 155.656 208.829 147.09C219.318 142.805 227.675 137.753 233.377 132.245C239.073 126.743 242 120.916 242 115Z" stroke="#F43F5E" stroke-width="4"/>
</svg>
