<svg width="419" height="125" viewBox="0 0 419 125" fill="none" xmlns="http://www.w3.org/2000/svg">
<path d="M355.359 111V104.232C358.943 100.84 361.743 97.88 363.759 95.352C365.775 92.792 366.783 90.664 366.783 88.968C366.783 87.848 366.463 87.016 365.823 86.472C365.183 85.896 364.351 85.608 363.327 85.608C361.183 85.608 359.119 86.264 357.135 87.576L354.783 80.088C356.255 79.16 357.871 78.456 359.631 77.976C361.423 77.496 363.183 77.256 364.911 77.256C367.535 77.256 369.695 77.72 371.391 78.648C373.087 79.576 374.351 80.84 375.183 82.44C376.047 84.04 376.479 85.864 376.479 87.912C376.479 91.016 375.487 93.88 373.503 96.504C371.551 99.128 368.623 101.624 364.719 103.992H376.287V111H355.359ZM380.585 111V103.992H384.617V87.384H380.585V81.096C381.961 81.096 383.465 80.84 385.097 80.328C386.729 79.816 388.329 79.032 389.897 77.976H394.937V103.992H398.969V111H380.585Z" fill="#F43F5E"/>
<path d="M284.989 59.704V53.272H308.029V59.704H284.989ZM284.989 68.68V62.248H308.029V68.68H284.989Z" fill="black"/>
<path d="M352.296 53V46.232C355.88 42.84 358.68 39.88 360.696 37.352C362.712 34.792 363.72 32.664 363.72 30.968C363.72 29.848 363.4 29.016 362.76 28.472C362.12 27.896 361.288 27.608 360.264 27.608C358.12 27.608 356.056 28.264 354.072 29.576L351.72 22.088C353.192 21.16 354.808 20.456 356.568 19.976C358.36 19.496 360.12 19.256 361.848 19.256C364.472 19.256 366.632 19.72 368.328 20.648C370.024 21.576 371.288 22.84 372.12 24.44C372.984 26.04 373.416 27.864 373.416 29.912C373.416 33.016 372.424 35.88 370.44 38.504C368.488 41.128 365.56 43.624 361.656 45.992H373.224V53H352.296ZM376.467 37.784C376.467 34.104 377.171 30.888 378.579 28.136C379.987 25.352 381.939 23.176 384.435 21.608C386.931 20.04 389.827 19.256 393.123 19.256C396.611 19.256 399.507 20.04 401.811 21.608L399.843 28.52C398.851 28.008 397.859 27.624 396.867 27.368C395.875 27.08 394.915 26.936 393.987 26.936C391.683 26.936 389.843 27.736 388.467 29.336C387.123 30.904 386.323 33.144 386.067 36.056C386.771 34.776 387.763 33.752 389.043 32.984C390.323 32.216 391.699 31.832 393.171 31.832C395.219 31.832 396.995 32.248 398.499 33.08C400.003 33.88 401.171 35.032 402.003 36.536C402.835 38.04 403.251 39.8 403.251 41.816C403.251 44.088 402.707 46.104 401.619 47.864C400.563 49.592 399.075 50.936 397.155 51.896C395.235 52.856 392.995 53.336 390.435 53.336C386.051 53.336 382.627 51.976 380.163 49.256C377.699 46.504 376.467 42.68 376.467 37.784ZM386.067 40.088C386.419 44.312 387.891 46.424 390.483 46.424C391.699 46.424 392.675 46.056 393.411 45.32C394.179 44.584 394.563 43.624 394.563 42.44C394.563 41.352 394.195 40.488 393.459 39.848C392.723 39.176 391.731 38.84 390.483 38.84C388.819 38.84 387.347 39.256 386.067 40.088Z" fill="#F43F5E"/>
<path d="M16.3223 70.5L253.735 70.5" stroke="black" stroke-width="6"/>
<path d="M339.5 69.5C373.628 69.5 418.143 69.5 418.143 69.5" stroke="black" stroke-width="6"/>
<path d="M17.1842 64V57.232C20.7682 53.84 23.5682 50.88 25.5842 48.352C27.6002 45.792 28.6082 43.664 28.6082 41.968C28.6082 40.848 28.2882 40.016 27.6482 39.472C27.0082 38.896 26.1762 38.608 25.1522 38.608C23.0082 38.608 20.9442 39.264 18.9602 40.576L16.6082 33.088C18.0802 32.16 19.6962 31.456 21.4562 30.976C23.2482 30.496 25.0082 30.256 26.7362 30.256C29.3602 30.256 31.5202 30.72 33.2162 31.648C34.9122 32.576 36.1762 33.84 37.0082 35.44C37.8722 37.04 38.3042 38.864 38.3042 40.912C38.3042 44.016 37.3122 46.88 35.3282 49.504C33.3762 52.128 30.4482 54.624 26.5442 56.992H38.1122V64H17.1842ZM49.204 64L56.5 51.52L49.684 39.952H59.812L62.5 45.616L65.284 39.952H75.124L68.404 51.52L75.604 64H65.764L62.5 57.856L59.332 64H49.204ZM95.6346 64.816L86.8986 61.12L97.6026 37.984H85.6986V30.976H108.163V36.832L95.6346 64.816ZM128.525 64V55.696H120.893V48.256H128.525V39.952H136.301V48.256H143.933V55.696H136.301V64H128.525ZM166.883 64.528C165.219 64.528 163.539 64.352 161.843 64C160.179 63.68 158.643 63.216 157.235 62.608L158.819 55.264C161.411 56.32 163.763 56.848 165.875 56.848C168.499 56.848 169.811 55.856 169.811 53.872C169.811 52.592 169.139 51.68 167.795 51.136C166.451 50.56 164.211 50.272 161.075 50.272V43.696C166.771 43.696 169.619 42.56 169.619 40.288C169.619 39.584 169.283 39.04 168.611 38.656C167.971 38.24 167.075 38.032 165.923 38.032C163.235 38.032 160.819 38.592 158.675 39.712L156.803 32.944C159.939 31.152 163.475 30.256 167.411 30.256C170.643 30.256 173.187 30.992 175.043 32.464C176.899 33.904 177.827 35.888 177.827 38.416C177.827 40.016 177.427 41.504 176.627 42.88C175.859 44.224 174.755 45.36 173.315 46.288C175.395 47.024 176.899 48.128 177.827 49.6C178.787 51.04 179.267 52.528 179.267 54.064C179.267 56.208 178.755 58.064 177.731 59.632C176.707 61.2 175.267 62.416 173.411 63.28C171.555 64.112 169.379 64.528 166.883 64.528ZM189.548 64L196.844 51.52L190.028 39.952H200.156L202.844 45.616L205.628 39.952H215.468L208.748 51.52L215.948 64H206.108L202.844 57.856L199.676 64H189.548ZM239.434 64V56.224H226.138V49.12L238.906 30.976H249.658V49.216H254.266V56.224H249.658V64H239.434ZM233.194 49.216H239.434V39.136L233.194 49.216Z" fill="black"/>
<path d="M95.3079 111.528C93.6439 111.528 91.9639 111.352 90.2679 111C88.6039 110.68 87.0679 110.216 85.6599 109.608L87.2439 102.264C89.8359 103.32 92.1879 103.848 94.2999 103.848C96.9239 103.848 98.2359 102.856 98.2359 100.872C98.2359 99.592 97.5639 98.68 96.2199 98.136C94.8759 97.56 92.6359 97.272 89.4999 97.272V90.696C95.1959 90.696 98.0439 89.56 98.0439 87.288C98.0439 86.584 97.7079 86.04 97.0359 85.656C96.3959 85.24 95.4999 85.032 94.3479 85.032C91.6599 85.032 89.2439 85.592 87.0999 86.712L85.2279 79.944C88.3639 78.152 91.8999 77.256 95.8359 77.256C99.0679 77.256 101.612 77.992 103.468 79.464C105.324 80.904 106.252 82.888 106.252 85.416C106.252 87.016 105.852 88.504 105.052 89.88C104.284 91.224 103.18 92.36 101.74 93.288C103.82 94.024 105.324 95.128 106.252 96.6C107.212 98.04 107.692 99.528 107.692 101.064C107.692 103.208 107.18 105.064 106.156 106.632C105.132 108.2 103.692 109.416 101.836 110.28C99.9799 111.112 97.8039 111.528 95.3079 111.528ZM117.972 111L125.268 98.52L118.452 86.952H128.58L131.268 92.616L134.052 86.952H143.892L137.172 98.52L144.372 111H134.532L131.268 104.856L128.1 111H117.972ZM164.403 111.816L155.667 108.12L166.371 84.984H154.467V77.976H176.931V83.832L164.403 111.816Z" fill="black"/>
</svg>
