<svg width="2069" height="1038" viewBox="0 0 2069 1038" fill="none" xmlns="http://www.w3.org/2000/svg">
<path d="M190.906 913C202.432 916.898 199.372 929.38 199.211 940.206C207.498 940.188 220.542 938.275 225.968 945.594L225.238 948.218C216.067 954.941 209.895 953.395 198.307 953.319C198.568 961.216 199.577 969.621 196.317 976.716C192.503 979.829 194.281 979.213 189.679 979.303C184.199 971.111 185.223 961.951 186.162 952.635C177.067 953.085 157.878 953.87 152 945.861L152.999 944.04C162.375 938.057 174.666 939.317 185.794 939.284C186.18 927.514 183.18 921.617 190.906 913Z" fill="#F43F5E"/>
<path d="M482.88 848.549C497.358 844.302 519.229 843.032 532.625 850.39C534.533 864.787 535.192 879.32 534.596 893.83C546.408 893.89 568.612 893.399 579.641 894.237C588.198 902.817 591.24 934.376 585.209 942.964C576.116 956.901 575.975 958.327 558.849 958.711L558.196 958.72L544.03 958.646C538.623 960.316 539.605 967.54 539.424 972.675C539.948 989.534 539.445 993.855 529.959 1008.49C514.191 1008.97 499.746 1009.39 483.911 1008.41C487.634 1003.61 492.341 998.094 494.762 992.643L493.327 992.671C490.91 994.163 480.666 1005.13 478.011 1007.88C474.329 993.851 473.3 974.611 472.165 959.821C459.751 957.959 437.683 957.39 424.923 957.047C424.232 951.508 423.417 945.948 423.258 940.342C423.098 934.671 425.848 935.651 428.216 930.872C425.975 930.607 424.459 930.367 422.243 929.937L420.5 923.019C422.839 909.187 424.72 906.888 435.058 897.485L436.285 895.747L443.553 893.571C453.624 893.711 459.889 893.701 469.869 892.645C469.843 883.078 470.463 873.312 470.93 863.743C474.741 857.725 478.255 853.87 482.88 848.549Z" fill="#FACC15"/>
<path d="M420.5 923.019C427.973 920.868 427.367 916.463 433.297 916.528L435.062 922.214L435.771 939.681C453.877 939.815 470.174 939.773 488.236 941.992C488.692 954.393 488.7 982.378 493.327 992.67C490.91 994.163 480.666 1005.12 478.011 1007.88C474.329 993.851 473.3 974.611 472.165 959.821C459.751 957.959 437.683 957.39 424.923 957.047C424.232 951.508 423.417 945.948 423.258 940.342C423.098 934.671 425.848 935.65 428.216 930.872C425.975 930.607 424.459 930.367 422.243 929.937L420.5 923.019Z" fill="#1A274E"/>
<path d="M532.626 850.39C534.534 864.787 535.192 879.32 534.597 893.83C546.408 893.89 568.613 893.399 579.642 894.237C588.199 902.817 591.241 934.376 585.21 942.964L581.92 942.818L574.607 941.793C575.708 938.292 575.676 940.018 574.617 936.436C570.196 926.307 570.211 920.597 570.309 909.908C569.598 907.767 568.813 905.785 567.995 903.691L570.118 901.338C563.06 900.206 538.268 900.239 531.225 901.009C529.806 899.659 529.739 898.655 528.997 896.676C528.937 887.259 528.191 877.898 527.56 868.5C527.62 863.83 527.058 858.282 526.695 853.55L532.626 850.39Z" fill="#F1BD26"/>
<path d="M532.626 850.39C534.534 864.787 535.192 879.32 534.597 893.83C546.408 893.89 568.613 893.399 579.642 894.237C569.008 897.311 542.361 895.938 528.997 896.676C528.937 887.259 528.191 877.898 527.56 868.5C527.62 863.83 527.058 858.282 526.695 853.55L532.626 850.39Z" fill="#1A274E"/>
<path d="M570.119 901.338C583.125 905.022 580.421 928.216 574.618 936.436C570.197 926.307 570.212 920.597 570.31 909.908C569.599 907.767 568.814 905.785 567.996 903.691L570.119 901.338Z" fill="#EBF3D3"/>
<path d="M574.607 941.793L581.92 942.818L585.209 942.964C576.116 956.901 575.976 958.327 558.849 958.711L558.197 958.72L544.03 958.647C538.624 960.316 539.605 967.54 539.424 972.675C538.552 978.436 538.419 982.959 534.838 987.512C532.731 971.539 533.099 958.648 533.997 942.644L563.188 941.663L574.607 941.793Z" fill="#1A274E"/>
<path d="M574.607 941.793L581.92 942.818L585.209 942.964C576.116 956.901 575.976 958.327 558.849 958.711L558.197 958.72L544.03 958.647C550.893 945.493 559.143 945.204 572.367 944.199C568.379 943.868 566.795 943.396 563.188 941.663L574.607 941.793Z" fill="#1A274E"/>
<path d="M581.919 942.817L585.208 942.963C576.115 956.9 575.975 958.326 558.848 958.71L558.195 958.72C570.878 943.419 568.461 951.479 580.978 943.429L581.919 942.817Z" fill="#1A274E"/>
<path d="M534.838 987.512C538.419 982.959 538.552 978.435 539.424 972.675C539.948 989.534 539.446 993.855 529.959 1008.49C514.192 1008.97 499.747 1009.39 483.911 1008.41C487.635 1003.61 492.342 998.094 494.763 992.643C507.819 988.351 524.268 996.499 534.838 987.512Z" fill="#1A274E"/>
<path d="M470.93 863.743C474.742 857.725 478.255 853.87 482.881 848.549L484.962 861.516C486.145 872.747 489.044 885.089 483.79 894.598C476.611 901.132 446.771 897.344 436.285 895.747L443.553 893.571C453.624 893.711 459.89 893.701 469.869 892.645C469.844 883.078 470.463 873.312 470.93 863.743Z" fill="#1A274E"/>
<path d="M490.476 853.936L526.694 853.55C527.057 858.282 527.619 863.831 527.559 868.5C522.236 867.869 521.056 862.138 519.015 861.446C504.907 856.654 503.499 864.966 490.476 853.936Z" fill="#EBF3D3"/>
<path d="M531.225 901.009C538.267 900.239 563.059 900.206 570.117 901.338L567.995 903.691C568.812 905.786 569.597 907.767 570.308 909.908C557.526 907.856 543.335 905.478 531.225 901.009Z" fill="#FCF6A2"/>
<path d="M1105.42 832.171C1115.32 830.821 1124 827.749 1133.25 826.636C1137.74 834.542 1148.86 854.966 1151.16 863.195C1153.32 867.43 1153.25 868.046 1152.63 872.791C1143.82 887.346 1142.97 891.568 1126.8 896.555C1118.32 900.328 1109.76 903.925 1101.13 907.342L1099.78 907.712L1091.96 911.207C1078.92 915.892 1061.99 923.071 1049.44 927.106L1048.1 927.608C1042.51 929.907 1036.82 932.328 1031.2 934.524C1022.8 938.095 1013.09 942.765 1004.18 944.169C999.858 936.599 996.06 928.935 992.132 921.16C990.106 917.772 988.367 914.074 986.603 910.531C985.904 909.13 983.496 904.285 983.477 903.032C983.345 894.533 988.868 883.282 997.285 881.539L1000.85 877.675C1004.02 873.378 1024.71 866.18 1031.03 863.84L1035.4 861.385C1041.54 860.407 1039.26 858.241 1043.99 857.563L1047.08 855.519C1053.96 853.25 1062.79 849.044 1069.58 846.04C1081.66 840.067 1092.37 834.244 1105.47 830.982L1105.42 832.171Z" fill="#22D3EE"/>
<path d="M1105.42 832.171C1115.32 830.821 1124 827.749 1133.25 826.636C1137.74 834.542 1148.86 854.966 1151.16 863.195C1146.06 858.498 1138.99 842.229 1136.13 835.728C1116.45 843.503 1097.75 850.863 1077.75 857.721C1063.04 856.772 1045.16 863.639 1031.03 863.84L1035.4 861.385C1041.54 860.407 1039.27 858.241 1043.99 857.563L1047.08 855.519C1053.96 853.25 1062.79 849.044 1069.58 846.04C1081.66 840.067 1092.38 834.244 1105.47 830.982L1105.42 832.171Z" fill="#22D3EE"/>
<path d="M986.603 910.531C985.904 909.13 983.496 904.285 983.477 903.032C983.345 894.533 988.868 883.282 997.285 881.539L1004.96 900.204C1008.72 907.973 1012.52 915.719 1016.38 923.437C1011.1 930.205 1006.01 935.635 1004.18 944.169C999.858 936.599 996.06 928.935 992.132 921.16C990.106 917.772 988.367 914.074 986.603 910.531Z" fill="#313161"/>
<path d="M986.603 910.531C985.904 909.13 983.496 904.285 983.477 903.032C983.345 894.533 988.868 883.282 997.285 881.539L1004.96 900.204L1000.79 901.225C993.729 913.26 1003.66 908.785 992.132 921.16C990.106 917.772 988.367 914.074 986.603 910.531Z" fill="#1A274E"/>
<path d="M986.604 910.531C989.603 903.539 990.296 902.009 995.035 896.147L995.893 896.779L995.064 902.913L997.091 903.484L999.22 900.435L1000.8 901.224C993.73 913.26 1003.66 908.785 992.133 921.16C990.107 917.772 988.368 914.074 986.604 910.531Z" fill="#1A274E"/>
<path d="M1005.85 918.789L1007.5 921.242C1006.58 925.535 1003.22 928.136 1000.02 931.442L999.051 929.506C999.83 925.068 1002.84 922.364 1005.85 918.789Z" fill="#A8A7C0"/>
<path d="M1031.03 863.84C1045.17 863.639 1063.04 856.772 1077.75 857.721C1064.71 865.338 1021.76 884.513 1005.19 881.659C1004.04 881.459 1001.94 878.823 1000.85 877.676C1004.02 873.378 1024.72 866.18 1031.03 863.84Z" fill="#22D3EE"/>
<path d="M1056.3 909.017C1062.61 907.911 1084.91 898.209 1092.01 895.54C1092.68 902.438 1092.83 904.392 1091.96 911.207C1078.92 915.892 1062 923.071 1049.44 927.106L1048.1 927.608C1047.17 922.072 1051.2 915.67 1053.6 910.527L1056.3 909.017Z" fill="#1A274E"/>
<path d="M1053.6 910.527L1056.3 909.017C1055.12 916.194 1052.58 920.638 1049.44 927.106L1048.1 927.608C1047.17 922.072 1051.2 915.67 1053.6 910.527Z" fill="#1A274E"/>
<path d="M1053.6 910.527C1051.2 915.67 1047.17 922.072 1048.1 927.608C1042.51 929.907 1036.82 932.328 1031.2 934.524C1022.81 938.095 1013.09 942.765 1004.18 944.169C1006.01 935.635 1011.11 930.205 1016.38 923.437C1024.29 922.157 1030.79 919.27 1038.23 916.364L1053.6 910.527Z" fill="#1A274E"/>
<path d="M1053.6 910.527C1051.19 915.67 1047.17 922.072 1048.1 927.608C1042.51 929.907 1036.82 932.328 1031.2 934.524C1031.63 928.795 1036.62 927.03 1038.23 916.364L1053.6 910.527Z" fill="#1A274E"/>
<path d="M1106.37 890.839C1114.32 887.186 1122.67 884.332 1130.91 881.35C1127.96 887.965 1126.93 889.473 1126.8 896.555C1118.32 900.328 1109.76 903.925 1101.14 907.342L1099.78 907.712L1091.96 911.207C1092.83 904.392 1092.68 902.438 1092.01 895.54C1097.86 892.768 1099.99 892.298 1106.37 890.839Z" fill="#1A274E"/>
<path d="M1092.01 895.54C1097.86 892.767 1099.99 892.298 1106.37 890.839C1108.07 895.14 1103.23 903.325 1101.14 907.342L1099.78 907.712L1091.96 911.207C1092.83 904.392 1092.68 902.438 1092.01 895.54Z" fill="#1A274E"/>
<path d="M1106.37 890.839C1108.07 895.14 1103.23 903.325 1101.14 907.342L1099.78 907.712L1097.23 906.86C1097.74 903.27 1103.97 894.455 1106.37 890.839Z" fill="#1A274E"/>
<path d="M1130.91 881.35C1137.48 878.48 1145.83 875.449 1152.63 872.792C1143.82 887.346 1142.97 891.568 1126.8 896.555C1126.93 889.473 1127.96 887.966 1130.91 881.35Z" fill="#1A274E"/>
<path d="M1078.57 773.21C1085.81 771.054 1097.23 766.964 1104.16 768.371C1108.83 778.821 1119.27 798.896 1118.51 809.553C1115.45 815.777 1110.74 827.105 1105.47 830.982C1092.37 834.243 1081.66 840.066 1069.58 846.039C1062.79 849.043 1053.96 853.249 1047.08 855.519L1043.99 857.563C1039.26 858.241 1041.54 860.407 1035.4 861.385C1028.96 861.973 1022.55 864.36 1016.36 866.357C1006.31 870.557 984.147 881.344 974.175 880.603L970.497 876.321C966.785 870.921 964.535 865.242 961.908 859.265L960.922 858.231C959.701 855.133 957.929 850.559 957.502 847.29C956.708 841.208 960.075 821.871 967.569 821.111C968.699 820.644 970.631 819.441 971.77 818.789C974.555 814.367 990.395 807.607 995.914 804.795C1022.8 795.637 1049.91 782.896 1078.57 773.21Z" fill="#22D3EE"/>
<path d="M1118.51 809.553C1115.45 815.777 1110.75 827.105 1105.47 830.982C1092.38 834.243 1081.66 840.066 1069.58 846.039C1062.79 849.043 1053.96 853.25 1047.08 855.519L1043.99 857.563C1040.83 854.405 1040.53 853.968 1039.34 849.669C1039.56 844.707 1041.45 842.488 1044.12 838.29L1046.55 836.866C1051.77 834.08 1061.12 830.748 1066.89 828.496C1080.74 822.381 1103.67 814.889 1118.51 809.553Z" fill="#1A274E"/>
<path d="M1046.55 836.866C1051.08 838.793 1051.3 837.967 1053.27 841.672L1053.17 845.937C1049.27 849.693 1049.02 850.589 1047.08 855.52L1043.99 857.563C1040.83 854.405 1040.53 853.969 1039.34 849.669C1039.56 844.708 1041.45 842.489 1044.12 838.29L1046.55 836.866Z" fill="#1A274E"/>
<path d="M960.922 858.231C959.701 855.134 957.929 850.559 957.502 847.29C956.708 841.208 960.075 821.871 967.569 821.111C973.373 832.635 980.756 846.472 983.477 859.098L970.497 876.322C966.785 870.921 964.535 865.242 961.908 859.266L960.922 858.231Z" fill="#313161"/>
<path d="M960.924 858.231C963.364 854.28 965.09 850.285 969.08 848.418C970.434 852.21 964.548 856.881 961.909 859.266L960.924 858.231Z" fill="#383B69"/>
<path d="M987.436 859.431C996.247 856.815 1012.28 850.141 1022.21 846.716C1023.64 851.668 1018.79 861.087 1016.36 866.357C1006.31 870.557 984.148 881.344 974.177 880.604L970.498 876.322L983.478 859.098L987.436 859.431Z" fill="#1A274E"/>
<path d="M983.478 859.098L987.436 859.431C982.98 866.466 978.559 873.524 974.177 880.604L970.498 876.322L983.478 859.098Z" fill="#FEFEFE"/>
<path d="M1022.21 846.716L1044.12 838.29C1041.45 842.488 1039.56 844.707 1039.34 849.669C1040.52 853.969 1040.83 854.405 1043.99 857.563C1039.26 858.241 1041.54 860.407 1035.4 861.385C1028.96 861.974 1022.55 864.36 1016.36 866.357C1018.79 861.087 1023.64 851.668 1022.21 846.716Z" fill="#1A274E"/>
<path d="M469.869 892.645C465.88 892.579 462.421 892.982 459.062 891.073C468.714 875.58 463.481 860.544 472.077 850.515C482.201 838.703 519.748 836.817 532.917 844.986C537.749 847.982 537.519 857.37 538.329 863.16L538.36 861.732C539.439 867.645 542.004 886.049 540.018 891.087C552.422 895.599 590.789 873.635 590.504 907.506L590.487 908.788C591.464 909.715 592.362 910.556 593.383 911.445L594.156 912.109C596.762 925.921 595.809 945.101 585.207 955.669C574.626 966.219 558.792 964.124 545.076 963.782C545.136 974.198 545.763 1010.12 531.151 1013.14C518.367 1015.79 490.332 1015.17 478.173 1010.41C457.938 1002.5 472.465 983.978 467.181 969.675C461.942 955.987 436.499 967.226 424.491 960.725C417.002 956.669 416.067 953.447 413 945.822C413.222 945.305 413.438 944.785 413.649 944.263C419.559 928.762 412.762 923.697 417.446 908.914C419.162 903.5 429.139 891.93 434.542 889.651C438.994 890.198 440.093 890.989 443.553 893.571L436.285 895.747L435.058 897.484C424.72 906.888 422.839 909.187 420.5 923.019L422.243 929.937C424.459 930.367 425.975 930.607 428.216 930.872C425.848 935.65 423.098 934.671 423.258 940.342C423.417 945.948 424.232 951.508 424.923 957.047C437.683 957.39 459.751 957.958 472.165 959.821C473.3 974.611 474.329 993.851 478.011 1007.88C480.666 1005.12 490.91 994.163 493.327 992.67L494.762 992.643C492.342 998.094 487.634 1003.61 483.911 1008.41C499.746 1009.39 514.191 1008.97 529.959 1008.49C539.445 993.855 539.948 989.534 539.424 972.675C539.605 967.539 538.623 960.316 544.03 958.646L558.196 958.72L558.849 958.71C575.976 958.327 576.116 956.901 585.209 942.964C591.24 934.376 588.198 902.816 579.641 894.237C568.612 893.399 546.408 893.89 534.596 893.83C535.192 879.32 534.533 864.787 532.625 850.39C519.23 843.032 497.358 844.302 482.88 848.549C478.255 853.869 474.741 857.725 470.93 863.743C470.463 873.312 469.843 883.078 469.869 892.645Z" fill="#FEFEFE" fill-opacity="0.0117647"/>
<path d="M1078.57 773.211L1076.88 771.399C1080.33 768.997 1105.68 764.017 1109.18 765.171L1109.93 767.949L1108.9 769.39C1114.75 772.4 1125.7 804.854 1124.71 811.739C1120.88 816.339 1117.29 819.302 1117.55 824.811C1123.15 825.419 1131.7 824.063 1137.53 823.373C1144.84 834.187 1150.79 854.286 1159.35 864.688C1161.12 866.84 1160.93 867.752 1161.32 870.039C1161.77 872.716 1144.78 895.1 1144.04 895.456C1103.39 915.103 1059.54 929.081 1017.57 945.818C1013.29 947.522 1006.61 948.463 1002.56 948.615C991.983 941.678 969.201 900.459 982.232 888.011L981.601 886.361C975.427 886.312 971.867 887.227 967.35 882.412C951.741 865.473 943.333 836.891 960.524 818.002C967.002 810.884 969.555 813.547 975.844 810.722C981.84 808.028 985.393 802.028 995.915 804.796C990.396 807.607 974.556 814.367 971.771 818.789C970.632 819.442 968.7 820.644 967.57 821.112C960.076 821.871 956.709 841.209 957.504 847.291C957.93 850.56 959.702 855.134 960.923 858.231L961.909 859.266C964.536 865.243 966.786 870.922 970.498 876.322L974.177 880.604C984.148 881.344 1006.31 870.557 1016.36 866.357C1022.55 864.36 1028.96 861.974 1035.4 861.385L1031.03 863.84C1024.72 866.18 1004.02 873.378 1000.85 877.676L997.286 881.539C988.869 883.282 983.346 894.533 983.478 903.033C983.498 904.285 985.905 909.13 986.604 910.531C988.368 914.075 990.108 917.772 992.133 921.16C996.061 928.935 999.859 936.599 1004.18 944.17C1013.09 942.765 1022.81 938.095 1031.2 934.524C1036.82 932.329 1042.51 929.907 1048.1 927.608L1049.44 927.106C1062 923.071 1078.92 915.892 1091.96 911.207L1099.78 907.712L1101.14 907.342C1109.76 903.925 1118.32 900.329 1126.8 896.555C1142.97 891.568 1143.82 887.346 1152.63 872.792C1153.25 868.046 1153.32 867.431 1151.16 863.195C1148.86 854.966 1137.74 834.542 1133.25 826.637C1124 827.749 1115.32 830.821 1105.42 832.171L1105.47 830.983C1110.75 827.106 1115.45 815.777 1118.51 809.553C1119.27 798.897 1108.83 778.821 1104.16 768.372C1097.23 766.965 1085.81 771.054 1078.57 773.211Z" fill="#FDF0FA" fill-opacity="0.0156863"/>
<path d="M1279.14 802C1290.95 806.903 1287.84 823.798 1287.54 834.584C1297.89 834.97 1317.47 833.451 1321.93 844.386L1320.28 847.475C1309.15 855.391 1296.61 852.86 1283.96 851.194C1283.88 854.424 1283.73 857.652 1283.5 860.875C1282.69 872.612 1281.47 878.349 1272.58 886.103C1261.31 877.087 1265.07 861.718 1266.83 849.26C1256.43 849.125 1237.84 848.712 1232 839.129L1233.13 836.053C1242.97 828.417 1258.48 830.975 1270.28 832.048C1270.73 819.467 1271.66 811.854 1279.14 802Z" fill="#FACC15"/>
<path d="M699.905 810C705.536 812.858 706.587 818.122 708.381 823.695L730.092 814.796C726.906 820.871 721.893 827.687 717.93 833.428C718.97 834.044 720 834.675 721.019 835.328C724.744 837.72 727.999 839.84 728.984 844.285L727.048 846.53C721.804 848.431 715.945 846.722 710.367 845.674C710.381 850.736 710.122 856.196 709.97 861.291C708.698 862.522 707.859 862.878 706.346 863.788L703.524 862.968C699.946 859.611 698.425 854.186 696.661 849.483C691.334 851.464 684.434 855.721 681.059 850.231C682.19 845.203 686.196 842.018 689.895 838.258C684.525 834.572 680.217 830.939 677 825.264L677.705 823.15C682.362 822.02 689.873 824.151 694.873 825.197C696.499 818.771 697.262 816.028 699.905 810Z" fill="#EE307E"/>
<path d="M813.843 886.366C812.638 879.697 810.807 874.823 815.475 869.238L818.344 869C822.498 871.414 823.696 875.026 825.827 879.383L826.668 879.004C833.699 875.766 832.984 873.798 840.597 872.881L843.021 873.907C844.724 878.974 841.89 883.915 839.726 888.838C843.877 891.735 849.172 894.651 850.913 899.233C848.506 905.228 838.363 902.923 832.781 902.083C830.45 907.46 827.336 916.973 820.451 914.452C817.329 910.486 817.99 905.165 817.962 899.933C810.418 900.02 801.638 901.787 800 892.752C804.166 887.365 806.943 887.427 813.843 886.366Z" fill="#3896CF"/>
<path d="M817.963 899.933C823.387 899.376 828.195 898.526 832.782 902.083C830.45 907.46 827.336 916.973 820.452 914.452C817.33 910.486 817.99 905.165 817.963 899.933Z" fill="#4695BC"/>
<path d="M813.844 886.366C812.639 879.697 810.808 874.823 815.476 869.238L818.345 869C822.499 871.414 823.697 875.026 825.828 879.383C822.26 881.501 817.426 884.571 813.844 886.366Z" fill="#4695BC"/>
<path d="M1784.86 803.775C1787.21 804.532 1821.86 801.626 1828.23 801.698C1838.59 812.38 1839.87 819.977 1841.59 834.551C1839.25 838.422 1836.35 843.538 1833.6 846.951C1820.42 849.562 1808.01 850.972 1794.71 852.575C1796.93 864.272 1800.71 883.21 1796.95 894.466C1790.31 900.059 1762.95 905.824 1755.49 900.513C1746.56 894.176 1746.23 869.247 1744.1 858.071C1732.29 859.289 1709.21 865.283 1700.05 859.861C1697.04 856.446 1696.95 855.19 1695.97 850.912C1690.39 833.784 1683.51 806.631 1712.44 811.789C1720.81 807.817 1727.66 807.484 1736.8 807.626L1742.63 811.018L1740.51 759.222C1784.86 745.196 1779.13 759.221 1784.86 803.775Z" fill="#FEFEFE"/>
<path d="M1695.97 850.911C1698.25 854.197 1700.71 858.84 1704.04 860.032C1711.29 854.967 1716.61 850.303 1725.3 849.335C1733.19 848.377 1741.12 847.794 1749.08 847.589C1752 865.44 1754.71 882.257 1758.64 899.928C1772.94 899.848 1783.04 898.068 1796.95 894.465C1790.31 900.059 1762.95 905.823 1755.49 900.513C1746.56 894.175 1746.23 869.247 1744.1 858.07C1732.29 859.288 1709.21 865.282 1700.05 859.861C1697.04 856.446 1696.95 855.189 1695.97 850.911Z" fill="#1A274E"/>
<path d="M1841.59 834.551C1839.25 838.422 1836.35 843.538 1833.6 846.951C1820.42 849.561 1808.01 850.972 1794.71 852.575C1796.93 864.272 1800.71 883.209 1796.95 894.466C1794.61 877.497 1791.98 860.568 1789.1 843.684C1806.4 839.347 1825.91 838.726 1841.59 834.551Z" fill="#1A274E"/>
<path d="M1712.44 811.789C1720.81 807.817 1727.66 807.483 1736.8 807.626L1742.63 811.017C1733.84 811.984 1720.72 814.164 1712.44 811.789Z" fill="#1A274E"/>
<path d="M1739.95 759.781C1742.52 775.676 1745.25 791.727 1746.34 807.795L1742.63 811.017L1736.8 807.626C1733.29 787.959 1729.7 777.562 1739.95 759.781Z" fill="#1A274E"/>
<path d="M1784.86 803.774C1783.88 796.866 1778.45 767.769 1780.67 763.652C1787.09 772.768 1786.9 789.471 1788.26 801.413C1798.76 799.755 1820.34 793.963 1828.23 801.698C1821.86 801.625 1787.21 804.532 1784.86 803.774Z" fill="#141518" fill-opacity="0.988235"/>
<path d="M1666.82 293.185C1687.25 269.184 1702.03 249.351 1735.63 247.828C1784.33 245.622 1807.15 288.395 1828.43 327.201C1838.69 253.649 1932.47 225.846 1974.15 286.273C1985.37 302.528 1990.49 326.352 1990.2 346.406C1989.67 379.948 1988.1 413.618 1987.02 447.172L1984.08 544.012C1982.66 596.873 1986.93 667.516 1942.28 701.311C1930.85 710.152 1917.45 715.63 1903.42 717.202C1890.68 719.034 1881.94 717.675 1869.5 715.651C1867.08 714.846 1864.71 713.967 1862.33 713.017C1827.61 699.283 1817.33 673.876 1803.1 640.918L1801.99 644.424C1783.75 702.044 1745.23 730.989 1687.48 710.137C1659.64 700.082 1648.84 677.895 1637.22 651.215C1633.2 655.716 1629.14 660.16 1625.01 664.549C1555.82 737.767 1453.51 737.479 1385.18 663.017C1379.53 656.311 1376.99 652.267 1372.35 644.858C1360.23 628.158 1352.47 595.17 1347.73 574.776C1341.94 578.606 1334.36 582.44 1328.19 585.783C1316.35 588.678 1306.14 590.765 1293.86 590.454C1295.68 630.28 1300.43 676.994 1273.16 708.998C1242.43 745.053 1182.58 745.842 1149.46 713.115C1124.08 688.042 1120.89 647.014 1119.9 612.123L1118.78 594.553C1117.53 582.327 1117.43 571.635 1117.24 559.32C1116.71 532.297 1115.27 503.15 1117.01 476.397C1106.43 478.968 1097.26 481.034 1086.37 481.756L1089.84 576.364C1090.2 586.309 1090.21 611.783 1091.47 620.202L1092.62 640.054C1092.8 650.194 1092.65 664.876 1090.52 674.788C1082.93 713.385 1069.15 733.374 1035.26 749.054C1017.24 754.227 1007.23 754.494 988.219 753.255C903.191 732.831 908.904 659.692 906.939 582.815C906.217 554.468 907.214 525.759 905.872 497.411C889.799 500.806 882.18 501.309 865.727 498.765C883.564 559.153 916.02 670.854 888.523 728.841C878.65 749.701 861.291 765.359 840.434 772.224C819.101 779.399 795.977 777.145 776.2 765.96C757.428 755.15 747.128 739.56 738.329 719.518C732.768 719.798 726.097 719.927 720.692 720.864C704.704 802.297 639.384 816.606 579.402 778.434C566.508 798.067 551.494 809.996 528.788 814.191C506.093 818.363 482.784 812.659 464.023 798.342C450.505 787.968 442.852 776.297 435.578 760.547C409.711 806.551 371.315 814.377 329.468 786.388C328.033 785.426 326.614 784.439 325.21 783.429C320.038 817.098 313.566 842.009 282.624 858.523C257.853 870.839 236.639 869.501 211.039 862.213C210.085 861.829 209.142 861.416 208.21 860.98C180.931 848.168 170.741 832.164 160.566 803.883C157.376 793.248 156.265 785.591 154.872 774.599C152.668 760.758 151.097 729.939 150.398 715.57C147.255 657.768 147.499 599.814 151.124 542.046C152.287 521.689 153.048 494.871 158.173 475.727C169.558 433.187 199.117 390.489 243.959 388.962C275.533 387.887 301.034 403.089 322.289 426.914C332.979 438.897 341.937 451.895 353.293 463.002C377.945 435.362 389.445 378.89 431.372 356.845C447.728 344.296 463.032 344.531 482.12 345.863C567.139 357.844 561.373 452.966 573.262 519.26C579.604 502.102 584.69 477.069 589.951 458.826C603.164 413.002 624.631 353.481 663.123 325.254C682.764 310.824 706.974 305.425 730.352 310.259C762.611 316.937 788.708 344.508 806.569 372.633C811.9 361.518 835.022 328.937 842.807 318.742C865.518 289.005 914.079 289.649 948.012 287.775C951.353 286.302 969.161 285.494 973.739 285.265C1002.33 283.789 1030.81 280.262 1059.37 278.265C1089.73 276.142 1114.41 275.925 1139.54 297.002C1146.08 291.073 1160.35 277.745 1169.13 275.107C1214.11 261.592 1273.7 263.232 1320.78 262.458C1341.66 262.114 1359.25 276.643 1373.33 289.846C1386.94 275.305 1397.85 262.397 1417.02 256.067C1449.52 245.342 1481.32 258.09 1500.79 287.437C1504.83 293.529 1508.29 299.264 1511.86 305.836C1535.28 277.658 1552.41 250.564 1592.17 248.523C1625.73 246.801 1648.21 265.908 1666.82 293.185Z" fill="#1A274E"/>
<path d="M1054.08 306.127C1065.06 305.064 1084.03 304.395 1094.68 305.929C1105.12 307.433 1116.37 317.61 1122.01 326.582C1131.8 342.142 1135.55 366.627 1131.73 383.889C1119.98 436.963 1090.12 412.097 1059.06 427.186C1055.78 429.517 1053.55 434.941 1053.66 438.873C1055.62 507.986 1064.34 577.492 1059.16 646.674C1056.59 681.168 1028.25 699.707 997.667 693.911C979.228 690.415 966.928 678.421 956.455 662.508C937.517 622.229 945.603 501.677 941.727 451.017C941.439 447.235 941.162 440.728 939.221 437.41C934.482 429.31 881.946 446.422 860.306 426.272C850.939 417.548 846.725 401.334 845.95 388.52C844.881 370.839 850.761 349.449 862.006 336.224C867.812 329.393 874.88 325.786 883.078 323.278C901.949 317.505 923.512 316.714 943.008 314.765C979.972 311.05 1017 308.17 1054.08 306.127Z" fill="white"/>
<path d="M364.989 515.648C371.833 482.808 389.586 433.472 407.227 405.752C422.619 380.885 444.941 361.823 472.664 355.689C492.306 351.342 526.585 376.816 533.981 396.098C546.518 428.791 546.837 466.194 550.907 500.707C555.856 542.678 557.416 586.979 563.777 628.563L563.639 632.735C564.799 646.668 568.39 662.651 570.5 674C571 676.69 570.621 674.945 571.5 681C572.379 687.055 572.557 685.576 572.121 691C570.512 711 576.593 723.434 560.613 741.464C544.02 767.641 506.041 775.044 483.122 757.114C447.669 729.378 458.36 656.481 443.206 619.359L441.308 619C420.405 643.95 426.001 722.856 399.764 748.29C396.172 751.776 388.416 754.839 383.702 756.611C341.878 758.796 337.151 734.739 325.328 698.588C319.627 681.157 313.112 667.097 308.995 648.673C307.568 643.349 307.391 642.241 304.246 637.721L301.962 637.086C296.99 643.619 299.355 659.261 299.069 667.602C297.358 717.768 320.896 813.774 250.559 820.526C197.395 825.63 183.634 770.692 180.295 725.241C179.787 718.838 179.629 712.408 179.824 705.987C177.824 693.425 178.262 671.662 177.585 658.188C174.808 602.966 176.858 546.345 182.824 491.478C185.63 465.672 190.508 433.864 211.172 417.61C223.391 408.002 241.91 398.253 257.358 401.184C290.196 407.411 320.727 442.688 338.44 470.885C347.92 485.981 354.735 501.233 364.989 515.648Z" fill="#FEFEFE"/>
<path d="M1683.59 373.639C1677.43 350.081 1676.62 315.168 1688.18 293.557C1696.9 277.261 1713.4 265.985 1730.16 261.465C1743.48 257.875 1756.6 260.507 1768.27 268.177C1811.18 296.41 1837.68 409.745 1850.12 415.53L1853.12 414.131C1862.82 376.263 1837.45 301.089 1881.74 276.639C1925.2 252.645 1969.64 279.392 1971.25 332.264C1972.25 359.229 1970.34 384.94 1969.56 411.698C1968.66 453.127 1967.11 494.535 1964.87 535.904C1961.91 597.517 1964.55 687.792 1878.47 667.613C1844.71 659.699 1827.15 608.968 1817.43 578.462C1811.45 559.692 1802.75 542.979 1800.57 523.119L1798.78 523.449C1794.1 530.325 1793.99 528.028 1787.54 531.477C1788.94 558.185 1784.91 605.351 1779.07 630.715C1765.4 689.981 1670.68 681.944 1670.93 614.855C1671.05 589.891 1674.14 577.623 1678.04 553.441C1681.41 495.024 1682.53 432.182 1683.59 373.639Z" fill="#F43F5E"/>
<path d="M1900.81 659.033C1957.64 641.089 1934.43 610.251 1951.2 570.37L1951.74 569.126C1953.98 606.607 1947.62 663.288 1900.81 659.033Z" fill="#FDF0FA"/>
<path d="M1683.59 373.639C1684.81 367.483 1684.91 354.499 1684.95 347.825C1685.22 313.844 1695.89 269.802 1737.15 276.447C1722.37 283.742 1702.47 293.515 1698.21 311.444C1689.23 349.163 1690.56 411.086 1689.52 451.265C1688.71 487.333 1687.52 523.392 1686 559.435C1685.34 575.192 1685.14 605.693 1680.78 619.299C1676.75 603.323 1678.11 571.796 1678.04 553.441C1681.4 495.024 1682.53 432.182 1683.59 373.639Z" fill="#FEFEFE"/>
<path d="M1871.46 297.111C1887.02 283.706 1900.86 277.889 1920.65 282.748C1860.77 297.53 1869.89 327.957 1870.47 383.438C1870.67 402.093 1877.13 434.031 1856.08 440.718C1845.35 444.332 1840.72 433.908 1838.07 425.057C1844.98 427.966 1860.54 432.115 1862.55 420.561C1869.79 378.93 1856.9 338.313 1871.46 297.111Z" fill="#FEFEFE"/>
<path d="M1715.56 656.585C1788.83 647.895 1767.64 590.274 1776.66 532.869C1780.18 510.446 1797.49 510.405 1807.75 527.739L1800.57 523.119L1798.78 523.448C1784.25 521.243 1781.2 527.733 1779.52 542.628C1774.69 585.476 1785.17 666.538 1722.04 657.691C1719.88 657.399 1717.7 657.029 1715.56 656.585Z" fill="#FDF0FA"/>
<path d="M709.576 335.514C800.22 331.317 863.079 563.815 865.653 643.879C866.208 661.137 864.185 685.406 851.807 698.237C833.442 717.275 792.998 724.437 777.809 697.064C761.112 660.131 770.7 655.251 726.249 658.01C718.545 658.213 709.65 657.872 702.206 659.807C699.342 660.55 695.742 661.928 693.947 664.595C689.048 671.876 687.362 702.47 677.788 719.009C672.433 728.261 664.993 735.718 654.812 738.009C640.58 741.211 621.362 735.302 609.631 726.545C597.21 717.277 590.502 704.502 587.944 688.716C576.74 619.616 621.395 424.927 659.358 368.348C672.157 349.273 688.209 339.272 709.576 335.514Z" fill="#FEFEFE"/>
<path d="M1553.2 283.877C1557.62 277.33 1564.09 272.317 1570.15 268.786C1609.67 245.793 1654.18 278.776 1656.58 324.924C1657.19 336.355 1659.11 370.277 1656.64 378.629C1656.64 381.5 1656.14 382 1656.64 385V391C1658.17 428.817 1657.76 440.183 1654.9 478C1654.9 482.5 1654.65 492.471 1654.9 496.263C1656.82 525.379 1649.59 555.768 1639.47 582.792C1596.29 698.024 1443.58 705.707 1400 585.5C1395.29 572.5 1383.97 532.5 1383.97 516.175C1384.72 502.319 1380.95 475.174 1381.44 457.388L1379.52 458.979L1377.59 458.323C1371.82 446.701 1371.28 404.654 1382.2 399.994C1383.47 372.959 1384.88 348.296 1386.89 321.343C1387.1 308.487 1386.64 302.165 1393.94 291.085C1402.43 278.183 1418.31 269.115 1432.59 266.59C1446.53 264.148 1460.79 267.801 1472.2 276.729C1496.3 295.48 1494.47 317.373 1494.55 345.431C1495.22 376.329 1492.3 407.079 1491.16 437.791C1490.15 465.25 1481.5 520.812 1505.12 538.823C1510.45 542.818 1517.03 544.398 1523.44 543.225C1556.9 537.035 1542.69 424.176 1541.41 398.679C1539.66 363.684 1533.64 314.798 1553.2 283.877Z" fill="#F43F5E"/>
<path d="M1386.89 321.343C1399.85 272.371 1464.96 264.217 1480.22 312.256C1467.82 299.755 1455.29 287.494 1436.91 288.172C1418.58 288.909 1402.74 299.92 1397.56 319.319C1390.88 344.018 1391.18 370.529 1390.07 396.104C1388.04 443.349 1386.11 490.622 1392.84 537.546C1394.85 551.571 1403.72 578.773 1403.43 591.525C1391.27 575.467 1386.92 536.509 1383.97 516.175C1384.72 502.32 1380.95 475.174 1381.44 457.389L1379.52 458.979L1377.59 458.324C1371.82 446.701 1371.28 404.654 1382.2 399.994C1383.47 372.959 1384.88 348.297 1386.89 321.343Z" fill="#FDF0FA"/>
<path d="M1591.18 273.903C1609.29 275.211 1624.09 277.941 1634.3 296.123C1596.86 278.818 1570.75 272.578 1553.15 322.142C1552.11 325.08 1550.18 330.972 1548.67 333.587C1546.08 300.172 1562.17 281.481 1591.18 273.903Z" fill="#FEFEFE"/>
<path d="M1157.99 607.428L1153.16 432.816C1152.46 401.789 1150.29 370.486 1153.19 339.905C1157.35 297.294 1199.49 295.32 1230.56 294.454C1261.88 293.58 1294.14 285.891 1325.42 291.29C1333.8 292.734 1337.88 296.109 1344.4 301.631C1362.35 319.285 1369.32 348.837 1352.44 370.79C1339.61 387.495 1309.24 388.2 1290.06 388.912L1264.13 389.859C1259.36 399.259 1261.07 419.591 1261.36 431.04C1290.43 423.22 1332.44 415.016 1352.08 445.388C1360.62 461.544 1365.25 480.275 1360.43 498.655C1359.92 500.65 1359.24 502.595 1358.42 504.467C1354.78 517.82 1352.24 519.713 1343.13 529.242C1322.27 543.436 1295.47 540.036 1272.56 546.345C1272.12 547.785 1271.7 549.135 1271.3 550.4C1272.38 581.718 1279.3 645.735 1257.26 668.769C1230.75 696.491 1182.84 694.689 1161.15 659.273C1157.29 654.268 1151.64 638.91 1152.66 632.378L1154.22 631.958L1157.9 637.745C1157.72 627.859 1157.28 617.234 1157.99 607.428Z" fill="#F43F5E"/>
<path d="M1666.82 293.185C1687.25 269.184 1702.03 249.351 1735.63 247.828C1784.33 245.622 1807.15 288.395 1828.43 327.201C1838.69 253.649 1932.47 225.846 1974.15 286.273C1985.37 302.528 1990.49 326.352 1990.2 346.406C1989.67 379.948 1988.1 413.618 1987.02 447.172L1984.08 544.012C1982.66 596.873 1986.93 667.516 1942.28 701.311C1930.85 710.152 1917.45 715.63 1903.42 717.202C1890.68 719.034 1881.94 717.675 1869.5 715.651C1867.08 714.846 1864.71 713.967 1862.33 713.017C1827.61 699.283 1817.33 673.876 1803.1 640.918L1801.99 644.424C1783.75 702.044 1745.23 730.989 1687.48 710.137C1659.64 700.082 1648.84 677.895 1637.22 651.215C1633.2 655.716 1629.14 660.16 1625.01 664.549C1555.82 737.767 1453.51 737.479 1385.18 663.017C1379.53 656.311 1376.99 652.267 1372.35 644.858C1360.23 628.158 1352.47 595.17 1347.73 574.776C1341.94 578.606 1334.36 582.44 1328.19 585.783C1316.35 588.678 1306.14 590.765 1293.86 590.454C1295.68 630.28 1300.43 676.994 1273.16 708.998C1242.43 745.053 1182.58 745.842 1149.46 713.115C1124.08 688.042 1120.89 647.014 1119.9 612.123L1118.78 594.553C1117.53 582.327 1117.43 571.635 1117.24 559.32C1116.71 532.297 1115.27 503.15 1117.01 476.397C1106.43 478.968 1097.26 481.034 1086.37 481.756L1089.84 576.364C1090.2 586.309 1090.21 611.783 1091.47 620.202L1092.62 640.054C1092.8 650.194 1092.65 664.876 1090.52 674.788C1082.93 713.385 1069.15 733.374 1035.26 749.054C1017.24 754.227 1007.23 754.494 988.219 753.255C903.191 732.831 908.904 659.692 906.939 582.815C906.217 554.468 907.214 525.759 905.872 497.411C889.799 500.806 882.18 501.309 865.727 498.765C883.564 559.153 916.02 670.854 888.523 728.841C878.65 749.701 861.291 765.359 840.434 772.224C819.101 779.399 795.977 777.145 776.2 765.96C757.428 755.15 747.128 739.56 738.329 719.518C732.768 719.798 726.097 719.927 720.692 720.864C704.704 802.297 639.384 816.606 579.402 778.434C566.508 798.067 551.494 809.996 528.788 814.191C506.093 818.363 482.784 812.659 464.023 798.342C450.505 787.968 442.852 776.297 435.578 760.547C409.711 806.551 371.315 814.377 329.468 786.388C328.033 785.426 326.614 784.439 325.21 783.429C320.038 817.098 313.566 842.009 282.624 858.523C257.853 870.839 236.639 869.501 211.039 862.213C210.085 861.829 209.142 861.416 208.21 860.98C180.931 848.168 170.741 832.164 160.566 803.883C157.376 793.248 156.265 785.591 154.872 774.599C152.668 760.758 151.097 729.939 150.398 715.57C147.255 657.768 147.499 599.814 151.124 542.046C152.287 521.689 153.048 494.871 158.173 475.727C169.558 433.187 199.117 390.489 243.959 388.962C275.533 387.887 301.034 403.089 322.289 426.914C332.979 438.897 341.937 451.895 353.293 463.002C377.945 435.362 389.445 378.89 431.372 356.845C447.728 344.296 463.032 344.531 482.12 345.863C567.139 357.844 561.373 452.966 573.262 519.26C579.604 502.102 584.69 477.069 589.951 458.826C603.164 413.002 624.631 353.481 663.123 325.254C682.764 310.824 706.974 305.425 730.352 310.259C762.611 316.937 788.708 344.508 806.569 372.633C811.9 361.518 835.022 328.937 842.807 318.742C865.518 289.005 914.079 289.649 948.012 287.775C951.353 286.302 969.161 285.494 973.739 285.265C1002.33 283.789 1030.81 280.262 1059.37 278.265C1089.73 276.142 1114.41 275.925 1139.54 297.002C1146.08 291.073 1160.35 277.745 1169.13 275.107C1214.11 261.592 1273.7 263.232 1320.78 262.458C1341.66 262.114 1359.25 276.643 1373.33 289.846C1386.94 275.305 1397.85 262.397 1417.02 256.067C1449.52 245.342 1481.32 258.09 1500.79 287.437C1504.83 293.529 1508.29 299.264 1511.86 305.836C1535.28 277.658 1552.41 250.564 1592.17 248.523C1625.73 246.801 1648.21 265.908 1666.82 293.185Z" fill="#1A274E"/>
<path d="M1054.08 306.127C1065.06 305.064 1084.03 304.395 1094.68 305.929C1105.12 307.433 1116.37 317.61 1122.01 326.582C1131.8 342.142 1135.55 366.627 1131.73 383.889C1119.98 436.963 1090.12 412.097 1059.06 427.186C1055.78 429.517 1053.55 434.941 1053.66 438.873C1055.62 507.986 1064.34 577.492 1059.16 646.674C1056.59 681.168 1028.25 699.707 997.667 693.911C979.228 690.415 966.928 678.421 956.455 662.508C937.517 622.229 945.603 501.677 941.727 451.017C941.439 447.235 941.162 440.728 939.221 437.41C934.482 429.31 881.946 446.422 860.306 426.272C850.939 417.548 846.725 401.334 845.95 388.52C844.881 370.839 850.761 349.449 862.006 336.224C867.812 329.393 874.88 325.786 883.078 323.278C901.949 317.505 923.512 316.714 943.008 314.765C979.972 311.05 1017 308.17 1054.08 306.127Z" fill="white"/>
<path d="M364.989 515.648C371.833 482.808 389.586 433.472 407.227 405.752C422.619 380.885 444.941 361.823 472.664 355.689C492.306 351.342 526.585 376.816 533.981 396.098C546.518 428.791 546.837 466.194 550.907 500.707C555.856 542.678 557.416 586.979 563.777 628.563L563.639 632.735C564.799 646.668 568.39 662.651 570.5 674C571 676.69 570.621 674.945 571.5 681C572.379 687.055 572.557 685.576 572.121 691C570.512 711 576.593 723.434 560.613 741.464C544.02 767.641 506.041 775.044 483.122 757.114C447.669 729.378 458.36 656.481 443.206 619.359L441.308 619C420.405 643.95 426.001 722.856 399.764 748.29C396.172 751.776 388.416 754.839 383.702 756.611C341.878 758.796 337.151 734.739 325.328 698.588C319.627 681.157 313.112 667.097 308.995 648.673C307.568 643.349 307.391 642.241 304.246 637.721L301.962 637.086C296.99 643.619 299.355 659.261 299.069 667.602C297.358 717.768 320.896 813.774 250.559 820.526C197.395 825.63 183.634 770.692 180.295 725.241C179.787 718.838 179.629 712.408 179.824 705.987C177.824 693.425 178.262 671.662 177.585 658.188C174.808 602.966 176.858 546.345 182.824 491.478C185.63 465.672 190.508 433.864 211.172 417.61C223.391 408.002 241.91 398.253 257.358 401.184C290.196 407.411 320.727 442.688 338.44 470.885C347.92 485.981 354.735 501.233 364.989 515.648Z" fill="#FEFEFE"/>
<path d="M1683.59 373.639C1677.43 350.081 1676.62 315.168 1688.18 293.557C1696.9 277.261 1713.4 265.985 1730.16 261.465C1743.48 257.875 1756.6 260.507 1768.27 268.177C1811.18 296.41 1837.68 409.745 1850.12 415.53L1853.12 414.131C1862.82 376.263 1837.45 301.089 1881.74 276.639C1925.2 252.645 1969.64 279.392 1971.25 332.264C1972.25 359.229 1970.34 384.94 1969.56 411.698C1968.66 453.127 1967.11 494.535 1964.87 535.904C1961.91 597.517 1964.55 687.792 1878.47 667.613C1844.71 659.699 1827.15 608.968 1817.43 578.462C1811.45 559.692 1802.75 542.979 1800.57 523.119L1798.78 523.449C1794.1 530.325 1793.99 528.028 1787.54 531.477C1788.94 558.185 1784.91 605.351 1779.07 630.715C1765.4 689.981 1670.68 681.944 1670.93 614.855C1671.05 589.891 1674.14 577.623 1678.04 553.441C1681.41 495.024 1682.53 432.182 1683.59 373.639Z" fill="#F43F5E"/>
<path d="M709.576 335.514C800.22 331.317 863.079 563.815 865.653 643.879C866.208 661.137 864.185 685.406 851.807 698.237C833.442 717.275 792.998 724.437 777.809 697.064C761.112 660.131 770.7 655.251 726.249 658.01C718.545 658.213 709.65 657.872 702.206 659.807C699.342 660.55 695.742 661.928 693.947 664.595C689.048 671.876 687.362 702.47 677.788 719.009C672.433 728.261 664.993 735.718 654.812 738.009C640.58 741.211 621.362 735.302 609.631 726.545C597.21 717.277 590.502 704.502 587.944 688.716C576.74 619.616 621.395 424.927 659.358 368.348C672.157 349.273 688.209 339.272 709.576 335.514Z" fill="#FEFEFE"/>
<path d="M1553.2 283.877C1557.62 277.33 1564.09 272.317 1570.15 268.786C1609.67 245.793 1654.18 278.776 1656.58 324.924C1657.19 336.355 1659.11 370.277 1656.64 378.629C1656.64 381.5 1656.14 382 1656.64 385V391C1658.17 428.817 1657.76 440.183 1654.9 478C1654.9 482.5 1654.65 492.471 1654.9 496.263C1656.82 525.379 1649.59 555.768 1639.47 582.792C1596.29 698.024 1443.58 705.707 1400 585.5C1395.29 572.5 1383.97 532.5 1383.97 516.175C1384.72 502.319 1380.95 475.174 1381.44 457.388L1379.52 458.979L1377.59 458.323C1371.82 446.701 1371.28 404.654 1382.2 399.994C1383.47 372.959 1384.88 348.296 1386.89 321.343C1387.1 308.487 1386.64 302.165 1393.94 291.085C1402.43 278.183 1418.31 269.115 1432.59 266.59C1446.53 264.148 1460.79 267.801 1472.2 276.729C1496.3 295.48 1494.47 317.373 1494.55 345.431C1495.22 376.329 1492.3 407.079 1491.16 437.791C1490.15 465.25 1481.5 520.812 1505.12 538.823C1510.45 542.818 1517.03 544.398 1523.44 543.225C1556.9 537.035 1542.69 424.176 1541.41 398.679C1539.66 363.684 1533.64 314.798 1553.2 283.877Z" fill="#F43F5E"/>
<path d="M1157.99 607.428L1153.16 432.816C1152.46 401.789 1150.29 370.486 1153.19 339.905C1157.35 297.294 1199.49 295.32 1230.56 294.454C1261.88 293.58 1294.14 285.891 1325.42 291.29C1333.8 292.734 1337.88 296.109 1344.4 301.631C1362.35 319.285 1369.32 348.837 1352.44 370.79C1339.61 387.495 1309.24 388.2 1290.06 388.912L1264.13 389.859C1259.36 399.259 1261.07 419.591 1261.36 431.04C1290.43 423.22 1332.44 415.016 1352.08 445.388C1360.62 461.544 1365.25 480.275 1360.43 498.655C1359.92 500.65 1359.24 502.595 1358.42 504.467C1354.78 517.82 1352.24 519.713 1343.13 529.242C1322.27 543.436 1295.47 540.036 1272.56 546.345C1272.12 547.785 1271.7 549.135 1271.3 550.4C1272.38 581.718 1279.3 645.735 1257.26 668.769C1230.75 696.491 1182.84 694.689 1161.15 659.273C1157.29 654.268 1151.64 638.91 1152.66 632.378L1154.22 631.958L1157.9 637.745C1157.72 627.859 1157.28 617.234 1157.99 607.428Z" fill="#F43F5E"/>
<path d="M1157.99 607.428L1153.16 432.816C1152.46 401.789 1150.29 370.486 1153.19 339.905C1157.35 297.294 1199.49 295.32 1230.56 294.454C1261.88 293.58 1294.14 285.891 1325.42 291.29C1333.8 292.734 1337.88 296.109 1344.4 301.631C1310.5 296.553 1279.78 299.511 1246.09 303.532C1228.64 305.615 1195.36 303.873 1181.62 314.464C1156.92 333.498 1163.12 397.383 1163.42 425.921C1163.72 476.322 1164.95 526.713 1167.11 577.064C1167.85 593.916 1170.9 639.302 1169.04 652.862C1161.14 639.761 1160.46 623.022 1157.99 607.428Z" fill="#FEFEFE"/>
<path d="M1256.16 440.354C1275.77 438.902 1315.87 433.417 1331.48 444.701C1320.44 447.352 1273.22 450.303 1260.52 447.35C1257.64 446.68 1257.26 443.481 1256.16 440.354Z" fill="#FDF0FA"/>
<path d="M716.211 454.656C719.262 454.464 727.251 454.022 729.064 456.637C742.657 476.238 745.425 503.964 753.237 526.648C754.995 531.75 756.279 536.966 753.664 540.708C747.454 543.82 739.124 544.224 732.165 545.041C725.442 546.318 702.011 551.377 699.54 548.33C687.497 533.485 710.354 466.788 716.211 454.656Z" fill="#383B69"/>
<path d="M720.414 464.006C729.871 470.967 742.422 519.31 746.186 532.039L726.6 535.954C719.255 537.014 711.907 538.032 704.553 539.011C706.905 514.52 710.857 486.25 720.414 464.006Z" fill="#080B4F"/>
<path d="M507.592 188.627C518.121 180.48 677.803 123.717 689.414 124.001C693.65 125.591 694.476 127.759 696.797 131.558C698.768 135.721 710.362 159.196 710.278 161.766L705.696 169.476C703.625 173.944 701.915 178.362 698.669 182.04C703.956 182.887 710.51 183.351 714.614 186.519C715.848 188.508 717.184 190.565 718.304 192.607C719.954 203.109 729.409 213.349 724.963 222.912C721.89 226.874 717.667 227.387 712.785 228.786C709.314 229.89 708.109 229.676 705.824 232.107L716.353 231.673L718.401 232.742C716.068 243.613 694.918 250.083 685.435 253.363C653.746 264.331 622.001 274.658 590.414 285.973C579.137 289.56 567.886 293.232 556.665 296.99L550.491 299.213C544.49 301.122 538.159 303.74 531.977 302.988L527.792 300.399C525.492 299.509 524.52 297.514 523.034 295.418C521.603 292.1 520.208 288.412 518.859 285.028L516.812 281.06C509.937 263.525 507.734 259.26 521.992 245.006L521.163 242.504C517.836 242.337 513.396 241.6 510.007 241.141L506.001 239.27C500.211 228.766 497.823 222.557 494 211.33C497.957 202.616 499.734 199.858 505.087 192.071L507.592 188.627Z" fill="#22C55E"/>
<path d="M718.304 192.606C719.954 203.109 729.409 213.348 724.963 222.912C721.89 226.874 717.667 227.387 712.785 228.785C709.314 229.89 708.109 229.676 705.824 232.107L716.353 231.672L718.402 232.742C716.068 243.613 694.918 250.082 685.435 253.363C653.747 264.331 622.001 274.658 590.414 285.973C579.138 289.559 567.887 293.232 556.665 296.99L550.491 299.212C544.491 301.122 538.159 303.74 531.978 302.988L527.792 300.399C525.492 299.509 524.52 297.514 523.034 295.418C521.603 292.1 520.208 288.412 518.859 285.028L516.812 281.06C509.937 263.525 507.734 259.26 521.992 245.006L525.802 245.999C526.676 249.402 528.328 256.897 529.937 259.624L533.814 255.584C546.027 248.763 590.934 234.601 607.237 229.551C642.622 218.593 683.291 202.32 718.304 192.606Z" fill="#22C55E"/>
<path d="M716.353 231.673L718.402 232.742C716.068 243.613 694.918 250.083 685.435 253.363C653.747 264.331 622.001 274.659 590.414 285.973C579.138 289.56 567.887 293.232 556.665 296.99L550.491 299.213C544.491 301.122 538.159 303.74 531.978 302.988L527.792 300.399C525.492 299.509 524.52 297.514 523.034 295.418C521.603 292.1 520.208 288.412 518.859 285.028L516.812 281.06C509.937 263.525 507.734 259.26 521.992 245.006L525.802 245.999C526.676 249.403 528.328 256.897 529.937 259.625L533.814 255.584L537.783 266.25L545.003 281.728C557.687 279.905 568.738 275.165 580.99 271.483C612.219 262.095 642.819 250.408 673.953 240.732C681.196 238.482 698.92 232.129 705.824 232.107L716.353 231.673Z" fill="#1A274E"/>
<path d="M716.352 231.673L718.401 232.742C716.068 243.613 694.918 250.083 685.435 253.363C653.746 264.331 622.001 274.659 590.414 285.973C586.731 282.262 586.485 280 585.146 274.947L648.297 252.948L639.572 265.588C662.586 244.533 686.403 240.549 716.352 231.673Z" fill="#1A274E"/>
<path d="M516.812 281.06C509.937 263.525 507.734 259.26 521.992 245.006L525.802 245.999C526.676 249.403 528.328 256.897 529.937 259.625L530.766 262.418L535.335 274.269C524.534 278.878 526.302 280.133 518.859 285.028L516.812 281.06Z" fill="#1A274E"/>
<path d="M530.767 262.418L535.336 274.269C524.535 278.878 526.303 280.132 518.859 285.028L516.812 281.06C522.585 273.392 525.134 272.531 530.767 262.418Z" fill="#1A274E"/>
<path d="M566.82 281.867C571.996 279.564 579.666 276.983 585.146 274.947C586.486 280 586.731 282.262 590.414 285.973C579.138 289.56 567.887 293.232 556.665 296.99C559.604 292.112 563.561 286.634 566.82 281.867Z" fill="#1A274E"/>
<path d="M540.845 288.408L561.228 283.339C556.369 289.488 554.351 292.402 550.491 299.213C544.491 301.122 538.159 303.74 531.978 302.988C534.059 297.789 537.643 293.043 540.845 288.408Z" fill="#1A274E"/>
<path d="M535.336 274.269L537.922 281.118L534.231 282.675C529.752 286.17 525.569 289.055 525.099 295.223L523.035 295.418C521.604 292.1 520.209 288.412 518.859 285.028C526.303 280.132 524.535 278.878 535.336 274.269Z" fill="#1A274E"/>
<path d="M537.921 281.118C539.376 290.508 534.096 293.91 527.792 300.399C525.492 299.509 524.52 297.514 523.034 295.418L525.099 295.223C525.568 289.055 529.751 286.17 534.231 282.675L537.921 281.118Z" fill="#1A274E"/>
<path d="M534.231 282.675C533.789 287.763 530.31 293.855 525.099 295.223C525.568 289.055 529.751 286.17 534.231 282.675Z" fill="#1A274E"/>
<path d="M597.437 256.687C611.896 251.672 623.297 250.885 637.348 246.58C641.676 245.253 651.137 234.93 656.611 232.962C660.493 231.565 659.293 232.762 663.206 234.4C663.553 234.546 666.587 235.742 666.678 235.695C678.74 229.65 694.713 224.077 707.075 219.725C710.167 221.332 711.25 225.306 712.785 228.785C709.314 229.89 708.109 229.676 705.824 232.107C698.92 232.128 681.195 238.481 673.952 240.731C642.819 250.408 612.219 262.095 580.99 271.483C568.738 275.165 557.687 279.905 545.003 281.728L537.783 266.25C538.773 265.136 539.879 264.082 540.79 263.016C549.379 252.981 566.258 263.369 576.551 265.486C580.172 266.231 587.023 266.158 591.113 266.145L597.437 256.687Z" fill="#1FB255"/>
<path d="M680.465 175.699L689.868 172.545C692.012 175.995 693.923 179.334 696.684 182.33L698.669 182.04C703.957 182.888 710.51 183.351 714.614 186.519C715.848 188.508 717.184 190.565 718.304 192.607C683.291 202.32 642.622 218.593 607.237 229.551C590.934 234.601 546.027 248.764 533.814 255.584L529.936 259.625C528.328 256.897 526.676 249.403 525.802 245.999C563.662 235.343 606.271 217.923 645.917 206.102C647.253 198.241 651.448 192.741 655.721 186.049L655.022 183.172C661.79 180.067 673.185 177.413 680.465 175.699Z" fill="#22C55E"/>
<path d="M655.024 183.172C661.792 180.066 673.187 177.413 680.467 175.699L678.611 178.921C674.42 185.745 671.557 189.186 665.219 194.243L668.281 198.093L645.919 206.101C647.255 198.241 651.45 192.741 655.723 186.049L655.024 183.172Z" fill="#1A274E"/>
<path d="M665.218 194.243C663.306 194.9 664.069 194.792 662.026 194.453C663.261 188.067 671.702 179.332 678.61 178.921C674.419 185.745 671.556 189.186 665.218 194.243Z" fill="#1A274E"/>
<path d="M680.465 175.699L689.868 172.545C692.012 175.995 693.923 179.334 696.684 182.33C687.694 187.604 677.6 195.042 668.279 198.093L665.218 194.243C671.555 189.186 674.418 185.745 678.609 178.921L680.465 175.699Z" fill="#1A274E"/>
<path d="M580.289 207.077C583.622 206.458 591.301 202.747 595.449 201.629C615.538 196.217 635.062 188.995 655.023 183.172L655.722 186.049C651.449 192.741 647.254 198.241 645.918 206.101C606.272 217.923 563.663 235.343 525.802 245.999L521.993 245.006L521.163 242.504C517.837 242.337 513.397 241.6 510.008 241.141C510.275 240.574 510.555 240.011 510.847 239.456C520.529 221.246 560.802 212.815 580.289 207.077Z" fill="#1A274E"/>
<path d="M510.008 241.141C510.275 240.574 510.555 240.011 510.847 239.456C520.529 221.246 560.802 212.815 580.289 207.078C582.492 210.931 584.747 212.945 587.957 215.934C583.598 222.018 571.502 223.432 564.119 225.053C548.005 228.593 535.39 233.73 521.163 242.505C517.837 242.337 513.397 241.601 510.008 241.141Z" fill="#1A274E"/>
<path d="M622.544 195.761L624.533 195.714L624.92 197.798C620.864 203.039 613.689 208.073 608.314 212.24L607.35 212.587L606.29 211.624C608.682 205.139 616.982 199.61 622.544 195.761Z" fill="#1A274E"/>
<path d="M639.53 191.894L640.648 192.729C639.133 198.225 631.695 203.428 627.225 206.647L626.39 205.774C629.003 201.319 635.578 195.638 639.53 191.894Z" fill="#1A274E"/>
<path d="M507.593 188.627C518.121 180.48 677.803 123.717 689.415 124.001C693.651 125.591 694.477 127.759 696.798 131.558C661.025 144.402 625.106 156.833 589.045 168.847C576.684 172.909 516.055 191.163 512.277 197.052C511.805 195.611 508.545 190.267 507.593 188.627Z" fill="#22C55E"/>
<path d="M689.486 167.947C697.987 164.682 701.277 163.667 710.278 161.766L705.696 169.476C703.625 173.943 701.915 178.362 698.669 182.04L696.684 182.33C693.923 179.334 692.012 175.995 689.868 172.545L680.465 175.699C673.185 177.413 661.79 180.066 655.022 183.172C635.062 188.995 615.537 196.217 595.448 201.628C591.3 202.747 583.621 206.458 580.288 207.077C560.801 212.815 520.528 221.246 510.846 239.455C510.554 240.011 510.274 240.574 510.007 241.141L506.001 239.27C500.211 228.766 497.823 222.557 494 211.33C497.957 202.616 499.734 199.858 505.087 192.071L507.592 188.627C508.544 190.267 511.805 195.611 512.276 197.052C515.205 204.699 518.964 215.441 522.251 222.668L535.448 218.273C555.118 212.256 577.198 205.538 595.937 197.249C600.42 195.558 604.974 194.376 609.588 193.088L623.16 188.8C630.816 186.09 640.038 183.522 647.923 181.14C655.227 179.073 663.714 176.116 671.029 173.749L673.3 173.361C678.436 171.859 684.345 169.687 689.486 167.947Z" fill="#1A274E"/>
<path d="M505.087 192.071L517.772 225.304C513.674 229.756 509.283 234.211 506.001 239.27C500.211 228.766 497.823 222.557 494 211.33C497.957 202.616 499.734 199.858 505.087 192.071Z" fill="#1A274E"/>
<path d="M689.868 172.545C695.138 171.495 700.414 170.472 705.696 169.477C703.626 173.944 701.916 178.362 698.669 182.04L696.685 182.33C693.923 179.334 692.012 175.995 689.868 172.545Z" fill="#1A274E"/>
<path d="M535.448 218.274C534.422 216.269 534.377 214.2 534.101 211.936C537.178 207.541 544.66 209.883 550.039 207.395C567.634 199.264 575.547 189.535 595.937 197.249C577.198 205.539 555.119 212.256 535.448 218.274Z" fill="#22C55E"/>
<path d="M647.924 181.14C647.194 174.633 647.467 172.892 652.682 169.114C660.083 167.517 664.716 170.147 671.03 173.749C663.715 176.116 655.228 179.073 647.924 181.14Z" fill="#22C55E"/>
<path d="M673.299 173.361C669.675 170.142 668.403 169.728 668.298 165.27L670.83 163.558C678.563 162.71 683.179 163.291 689.485 167.947C684.344 169.687 678.435 171.859 673.299 173.361Z" fill="#22C55E"/>
<path d="M609.587 193.088C608.218 189.31 608.031 188.118 609.961 184.878C615.498 182.484 619.265 185.229 623.16 188.8L609.587 193.088Z" fill="#22C55E"/>
<path d="M1370.23 49.3692C1384.08 47.9763 1406.94 50.5479 1419.49 56.6864C1425.53 66.1895 1419.38 89.8184 1419.58 102.438C1434.52 103.966 1447.88 104.324 1461.7 110.463C1466.56 122.578 1463.15 144.639 1458.83 156.79C1454.51 164.302 1451.52 168.591 1444.05 173.314C1431.47 172.772 1418.89 171.975 1406.33 170.923C1402.85 186.247 1400.06 229.058 1374.81 217.813C1371.9 218.54 1369.01 219.374 1366.16 220.313C1361.7 219.81 1356.97 217.531 1352.76 215.805C1348.31 216.975 1347.99 217.799 1343.93 216.658L1342.44 210.728L1340.46 210.258L1334.03 215.086C1333.83 195.088 1335.69 182.731 1338.51 163.065C1331.69 162.498 1323.91 161.15 1317.06 160.133C1307.82 158.648 1298.46 156.955 1289.21 155.373L1288.7 140.98C1288.21 133.878 1288.92 128.395 1289.61 121.376L1289.53 120.369C1291.71 108.575 1297.39 103.411 1305.93 96.0797C1306.64 95.168 1310.33 91.7627 1311.39 90.7418C1316.98 90.4516 1348.33 93.5238 1349.59 92.7952L1350.93 85.5812C1352.74 70.4033 1359.43 59.7197 1370.23 49.3692Z" fill="#FACC15"/>
<path d="M1337.11 144.035C1342.61 144.904 1348.87 145.74 1354.25 146.928C1352.12 164.748 1350.16 184.233 1347.48 201.844C1355.08 202.218 1362.05 202.318 1369.5 204.04L1369.65 206.191C1374.58 213.747 1368.99 213.543 1366.16 220.313C1361.7 219.81 1356.97 217.531 1352.76 215.805C1348.31 216.975 1347.99 217.799 1343.93 216.658L1342.44 210.728L1340.46 210.258L1334.03 215.086C1333.83 195.088 1335.69 182.731 1338.51 163.065C1331.69 162.498 1323.91 161.15 1317.06 160.133L1323.96 159.164C1324.59 158.866 1325.22 158.562 1325.84 158.249C1330.93 155.693 1334.4 153.419 1336.3 147.801L1337.11 144.035Z" fill="#1A274E"/>
<path d="M1352.76 215.805C1357.73 212.209 1364.15 209.082 1369.65 206.191C1374.58 213.748 1368.99 213.543 1366.16 220.313C1361.7 219.81 1356.97 217.531 1352.76 215.805Z" fill="#1A274E"/>
<path d="M1300.74 130.235L1303.61 131.708C1306.44 140.922 1309.03 140.971 1318.61 141.384C1324.32 142.154 1331.58 142.919 1337.11 144.035L1336.3 147.801C1334.4 153.42 1330.93 155.693 1325.84 158.249C1325.22 158.563 1324.59 158.867 1323.96 159.165L1317.06 160.133C1307.82 158.648 1298.46 156.956 1289.22 155.374L1288.7 140.981L1289.59 139.309C1294.89 137.381 1298.34 135.491 1300.74 130.235Z" fill="#1A274E"/>
<path d="M1336.3 147.801C1334.4 153.42 1330.93 155.693 1325.84 158.249C1325.22 158.563 1324.59 158.867 1323.96 159.165C1325.39 152.876 1330.81 150.044 1336.3 147.801Z" fill="#1A274E"/>
<path d="M1317.2 146.387L1317.23 148.372C1315.57 152.264 1311.25 154.261 1307.54 156.537L1307.3 154.489C1309.49 150.46 1313.16 148.867 1317.2 146.387Z" fill="#1A274E"/>
<path d="M1302.12 144.587L1304.79 145.619C1303.93 149.159 1301.68 149.997 1298.36 152.824L1296.51 152.027C1296.92 148.246 1298.68 147.846 1302.12 144.587Z" fill="#1A274E"/>
<path d="M1311.39 90.7422C1312.88 92.8209 1314.75 95.632 1316.38 97.5003C1303.84 112.306 1308.45 127.03 1318.61 141.384C1309.03 140.971 1306.44 140.922 1303.61 131.708L1300.74 130.235C1298.33 135.491 1294.88 137.381 1289.59 139.309L1288.7 140.981C1288.21 133.878 1288.92 128.396 1289.61 121.377L1289.53 120.369C1291.71 108.575 1297.39 103.411 1305.93 96.0801C1306.64 95.1683 1310.33 91.763 1311.39 90.7422Z" fill="#F1BD26"/>
<path d="M1300.72 115.324L1303.87 117.145C1303.8 121.883 1303.82 127.013 1303.61 131.708L1300.74 130.235C1298.33 135.491 1294.88 137.381 1289.59 139.309L1288.7 140.981C1288.21 133.878 1288.92 128.396 1289.61 121.377C1295.42 121.488 1297.46 119.67 1300.72 115.324Z" fill="#1A274E"/>
<path d="M1289.59 139.309C1289.96 134.326 1296.18 130.708 1300.74 130.235C1298.34 135.491 1294.89 137.381 1289.59 139.309Z" fill="#1A274E"/>
<path d="M1289.53 120.369C1291.71 108.575 1297.39 103.411 1305.93 96.0801C1305.62 104.291 1305.52 108.969 1303.87 117.145L1300.72 115.324C1297.46 119.67 1295.42 121.488 1289.61 121.377L1289.53 120.369Z" fill="#1A274E"/>
<path d="M1289.53 120.369C1293.13 117.484 1294.65 116.064 1299 114.186L1300.72 115.324C1297.46 119.67 1295.42 121.488 1289.61 121.377L1289.53 120.369Z" fill="#1A274E"/>
<path d="M1403.93 151.641C1409.67 151.97 1415.94 152.632 1421.71 153.117C1423.49 154.654 1425.8 156.98 1427.92 157.612C1421.67 159.864 1419.11 161.701 1414.87 167.054C1412.69 168.747 1411.14 168.697 1408.41 169.106L1406.33 170.923C1402.85 186.247 1400.06 229.058 1374.81 217.813C1371.9 218.54 1369.01 219.373 1366.16 220.313C1368.99 213.543 1374.58 213.747 1369.65 206.19L1369.5 204.04C1379.17 205.392 1386.59 205.941 1396.35 206.471C1398.63 188.201 1399.41 169.425 1403.93 151.641Z" fill="#1A274E"/>
<path d="M1417 59.5C1417.5 58.5 1417.5 59 1419.49 56.6865C1425.53 66.1895 1419.38 89.8185 1419.58 102.439C1434.52 103.966 1447.88 104.324 1461.7 110.463C1451.11 111.365 1422.89 107.336 1411.11 105.957C1410.78 93.257 1412.78 75.2581 1413.86 62.2114C1416 60.5 1417 60 1417 59.5Z" fill="#1A274E"/>
<path d="M1421.71 153.118C1430.16 153.78 1451.52 155.048 1458.83 156.79C1454.51 164.302 1451.53 168.592 1444.05 173.314C1431.47 172.772 1418.89 171.976 1406.34 170.924L1408.41 169.106C1411.14 168.697 1412.69 168.748 1414.87 167.055C1419.12 161.701 1421.67 159.864 1427.92 157.612C1425.8 156.981 1423.49 154.655 1421.71 153.118Z" fill="url(#paint0_linear_764_846)"/>
<path d="M1414.87 167.054C1419.11 161.701 1421.67 159.864 1427.92 157.612C1423.94 163.75 1422.2 164.98 1414.87 167.054Z" fill="#1A274E"/>
<path d="M1370.23 49.3696C1369.22 61.1909 1366.89 81.6133 1364.36 93.5047C1359.5 89.0454 1358.95 89.7253 1352.29 89.663L1350.93 85.5816C1352.74 70.4037 1359.44 59.7201 1370.23 49.3696Z" fill="#1A274E"/>
<path d="M1350.93 85.5815L1352.29 89.6629C1358.95 89.7252 1359.5 89.0453 1364.36 93.5046C1363.64 96.3022 1363.53 99.2575 1361.14 100.267C1349.62 105.137 1327.27 96.8535 1316.38 97.5002C1314.76 95.632 1312.88 92.8208 1311.39 90.7422C1316.98 90.4519 1348.33 93.5241 1349.59 92.7955L1350.93 85.5815Z" fill="#1A274E"/>
<path d="M1413.87 62.2117C1404.36 69.4568 1374 67.5788 1374.16 57.314L1376.52 55.4302C1383.81 56.5543 1408.14 59.7297 1413.87 62.2117Z" fill="#EBF3D3"/>
<path d="M1441.65 114.356C1446.31 114.404 1450.15 113.822 1453.78 116.395C1458.61 124.521 1453.49 139.997 1453.18 152.718C1452.54 152.892 1450.57 152.802 1449.79 152.794C1445.46 147.404 1448.04 136.634 1448.85 129.13C1446.11 124.274 1443.96 119.413 1441.65 114.356Z" fill="#FCF6A2"/>
<path d="M1621.88 138.59C1626.88 138.122 1631.13 137.125 1635.35 139.669C1643.53 150.513 1631.44 157.294 1641.99 162.422C1649.43 161.578 1653.19 161.677 1660.63 161.923C1664.25 167.257 1665.4 188.053 1659.27 192.931C1651.65 195.92 1644.64 194.028 1638.53 195.922L1639.03 209.506C1636.74 214.865 1634.28 217.106 1630.35 221.444C1605.95 221.84 1603.39 219.794 1605.29 195.813C1598.89 194.802 1587.9 194.733 1581.12 194.49L1581.08 186.027C1581.07 180.194 1580.21 170.52 1584.37 166.361L1588.9 166.672L1608.75 165.533L1608.76 161.8C1607.86 153.628 1608.09 146.985 1612.38 139.887L1621.88 138.59Z" fill="#22D3EE"/>
<path d="M1641.99 162.422C1649.43 161.578 1653.19 161.677 1660.63 161.923C1664.25 167.257 1665.4 188.053 1659.27 192.931C1651.65 195.92 1644.64 194.028 1638.53 195.922C1636.93 195.086 1635.57 191.118 1634.57 189.055C1634.77 187.071 1635.29 186.807 1636.5 184.999C1640.22 182.597 1643.12 182.949 1647.5 182.858C1649.78 172.864 1650.8 168.851 1641.99 162.422Z" fill="#1A274E"/>
<path d="M1641.99 162.422C1649.43 161.578 1653.19 161.677 1660.63 161.923L1660.44 163.051C1654.38 169.723 1661.14 174.49 1656.87 181.942C1653.37 183.639 1651.3 183.16 1647.51 182.858C1649.78 172.864 1650.8 168.851 1641.99 162.422Z" fill="#22D3EE"/>
<path d="M1647.5 182.858C1651.3 183.159 1653.37 183.639 1656.87 181.942C1661.14 174.49 1654.38 169.723 1660.44 163.051C1660.77 170.935 1661.06 178.429 1661.04 186.335C1650.27 186.732 1645.15 187.087 1634.57 189.055C1634.77 187.071 1635.29 186.806 1636.5 184.999C1640.22 182.596 1643.12 182.949 1647.5 182.858Z" fill="#22D3EE"/>
<path d="M1613.3 189.419C1612.61 198.238 1612.34 204.272 1612.5 213.112C1621.43 212.824 1626.28 212.767 1635.12 210.924L1639.03 209.506C1636.74 214.866 1634.28 217.106 1630.35 221.444C1605.95 221.84 1603.39 219.794 1605.29 195.813C1609.48 192.029 1607.8 197.097 1613.3 189.419Z" fill="#1A274E"/>
<path d="M1581.12 194.49L1581.08 186.027C1581.07 180.195 1580.21 170.52 1584.37 166.361C1587.17 171.827 1586.56 179.026 1586.82 185.314C1594.51 185.285 1607.4 184.496 1613.3 189.419C1607.8 197.097 1609.48 192.03 1605.29 195.813C1598.89 194.802 1587.9 194.734 1581.12 194.49Z" fill="url(#paint1_linear_764_846)"/>
<path d="M1584.37 166.361L1588.9 166.673C1589.79 172.02 1590.8 179.466 1592.34 184.49C1600.55 183.3 1608.53 180.987 1615.47 185.682C1619.93 195.988 1609.5 199.105 1619.78 208.846C1625.48 210.044 1631.83 209.138 1635.12 210.925C1626.27 212.767 1621.43 212.824 1612.5 213.112C1612.34 204.272 1612.61 198.238 1613.3 189.419C1607.4 184.496 1594.51 185.285 1586.82 185.314C1586.56 179.026 1587.17 171.827 1584.37 166.361Z" fill="#22D3EE"/>
<path d="M1612.38 139.888L1621.88 138.59C1610.54 152.06 1624.72 161.851 1608.75 165.533L1608.76 161.8C1607.86 153.628 1608.09 146.985 1612.38 139.888Z" fill="#22D3EE"/>
<path d="M1612.38 139.888C1614.58 148.043 1615.42 155.432 1608.76 161.8C1607.86 153.628 1608.09 146.985 1612.38 139.888Z" fill="#1A274E"/>
<path d="M917.6 103C922.969 104.001 921.312 103.051 925.032 106.109C929.587 115.086 926.646 129.267 925.518 139.448C928.775 139.522 932.031 139.623 935.287 139.752C941.952 140.024 960.427 140.576 959.554 149.771C951.635 157.339 933.677 155.816 923.082 155.637C921.791 169.028 922.188 173.651 912.894 182.936C908.604 182.622 907.539 182.718 904.012 180.121C899.4 173.182 902.027 164.226 903.262 155.869C894.032 155.352 877.494 153.965 870.815 147.589C869.6 142.97 869.555 144.959 871.982 139.691C879.252 134.375 898.775 137.852 909.471 138.474C910.018 125.197 910.347 114.282 917.6 103Z" fill="#FACC15"/>
<path d="M1777.11 116.042C1776.82 107.057 1780.55 79.4229 1790.55 76C1798.96 80.1184 1795.53 98.39 1794.91 106.393C1804.22 105.699 1821.2 103.644 1827.71 111.994C1825.8 123.268 1800.97 120.494 1792.44 120.178C1791.6 130.764 1791.32 143.838 1786.73 153.326C1783.98 155.326 1782.89 155.303 1779.48 156.051C1769.41 151.841 1773.99 130.877 1775.53 121.549C1765.13 120.928 1746.53 122.321 1741 112.348C1741.78 108.098 1741.8 106.936 1744.56 103.516L1779.48 106.393C1778.28 109.73 1779.68 112.537 1779.48 116.042L1760.29 117.463L1746.84 113.291C1755.33 116.576 1767.99 116.299 1777.11 116.042Z" fill="#FEFEFE"/>
<path d="M1775.53 121.55C1765.13 120.928 1746.53 122.321 1741 112.348C1741.78 108.098 1741.8 106.937 1744.56 103.516L1746.18 103.81C1744.97 107.147 1744.84 107.426 1744.64 110.93L1746.84 113.291C1755.33 116.576 1767.99 116.299 1777.11 116.042C1783.89 127.244 1765.62 151.241 1786.73 153.326C1783.98 155.326 1782.89 155.303 1779.48 156.051C1769.41 151.841 1773.99 130.877 1775.53 121.55Z" fill="#1A274E"/>
<path d="M1914.91 198.454C1916.76 193.113 1918.18 185.591 1924.75 186.017C1928.15 189.084 1928.48 193.249 1929.48 197.809C1935.65 195.715 1942.6 194.079 1948.97 192.436C1942.35 199.304 1939.02 202.025 1931.48 207.817C1935.94 210.114 1939.53 211.406 1942.08 215.684C1942.47 220.207 1942.99 218.674 1940.5 221.653C1936.61 223.157 1930.8 223.186 1926.98 221.637C1920.91 226.924 1927.28 234.808 1916.97 237.707C1911.99 234.343 1913.16 230.462 1910.63 225.502C1909.2 222.711 1899.04 227.867 1893 223.905L1893.25 221.44C1896.1 216.237 1900.09 213.782 1904.8 210.215C1901.24 205.781 1896.04 200.25 1896.54 194.579L1898.76 192.961C1904.02 192.555 1909.96 196.087 1914.91 198.454Z" fill="#EE307E"/>
<path d="M1087.84 177.705C1095.31 169.09 1100.49 161.466 1109.75 155.162L1099.24 170.475C1106.65 176.043 1116.78 183.81 1122.72 190.995L1107.84 208.614L1108.65 204.544L1110.97 199.925C1106.47 192.68 1094.58 184.685 1087.84 177.705Z" fill="#1A274E"/>
<path d="M1143.14 205.168C1150.97 209.241 1160.59 215.972 1167.72 221.111C1171.09 217.143 1174.75 196.162 1179.75 208.662C1180.25 209.662 1174.32 217.332 1171.14 220.809L1160.61 232.079C1148.52 226.71 1144.01 216.857 1131.37 223.422C1131.04 219.51 1140.24 208.743 1143.14 205.168Z" fill="#1A274E"/>
<path d="M1108.65 204.544L1107.84 208.614C1106.52 210.091 1106.7 210.358 1106.32 212.368C1111.86 219.161 1124.12 221.961 1125.37 229.816C1116.85 239.136 1103.28 226.356 1095.91 220.116C1100.29 214.166 1103.82 210.023 1108.65 204.544Z" fill="#1A274E"/>
<path d="M301.379 267.442C303.739 266.695 330.311 244.262 335.546 240.633C350.175 243.344 355.619 248.795 365.448 259.687C365.781 264.197 366.375 270.049 366.11 274.423C356.868 284.187 347.567 292.521 337.648 301.531C346.225 309.784 360.262 323.039 363.709 334.395C361.529 342.801 342.55 363.348 333.395 363.336C322.448 363.338 307.761 343.198 299.553 335.321C290.633 343.148 275.28 361.402 264.668 362.289C260.238 361.247 259.442 360.272 256.165 357.352C241.704 346.617 220.391 328.455 246.964 315.91C251.489 307.826 256.887 303.585 264.417 298.412L271.133 297.802L239.44 256.791C267.49 219.672 270.933 234.427 301.379 267.442Z" fill="#22D3EE"/>
<path d="M256.164 357.352C259.926 358.711 264.621 361.07 268.024 360.116C271.008 351.785 272.644 344.904 279.173 339.081C285.054 333.729 291.184 328.662 297.552 323.889C310.261 336.754 322.197 348.9 335.629 361.033C347.24 352.69 354.452 345.384 363.708 334.395C361.528 342.801 342.549 363.347 333.394 363.336C322.448 363.338 307.761 343.198 299.553 335.321C290.633 343.148 275.279 361.402 264.667 362.289C260.238 361.246 259.441 360.271 256.164 357.352Z" fill="#1A274E"/>
<path d="M365.448 259.687C365.781 264.197 366.375 270.049 366.11 274.423C356.868 284.187 347.568 292.521 337.648 301.531C346.225 309.783 360.262 323.039 363.709 334.395C351.987 321.911 340.049 309.628 327.93 297.528C339.524 283.977 355.078 272.17 365.448 259.687Z" fill="#1A274E"/>
<path d="M246.963 315.91C251.488 307.826 256.886 303.585 264.416 298.411L271.132 297.802C264.527 303.677 255.087 313.054 246.963 315.91Z" fill="#1A274E"/>
<path d="M239.306 257.572C250.597 269.046 262.112 280.552 272.298 293.023L271.133 297.802L264.417 298.411C250.178 284.406 241.239 278.004 239.306 257.572Z" fill="#1A274E"/>
<path d="M301.379 267.442C296.589 262.372 275.324 241.791 274.753 237.148C285.268 240.86 294.772 254.594 302.793 263.543C310.394 256.112 324.64 238.893 335.546 240.633C330.311 244.262 303.739 266.695 301.379 267.442Z" fill="#141518" fill-opacity="0.988235"/>
<path d="M1154.3 146.511C1159.17 147.926 1171.36 159.244 1175.58 163.024C1172.13 169.571 1165 179.785 1160.7 186.296C1167.04 192 1170.33 194.915 1175.75 201.644C1172.89 201.62 1170.34 198.856 1167.55 196.771C1163.74 193.964 1159.25 190.116 1155.49 187.079C1161.02 178.924 1167.17 170.914 1173.09 163.008C1171.96 162.069 1170.83 161.136 1169.69 160.211C1165.81 157.056 1160.1 151.643 1155.1 152.161C1151.41 155.145 1150.62 156.001 1145.77 156.94L1145.36 155.892L1154.3 146.511Z" fill="#141518" fill-opacity="0.972549"/>
<path d="M1134.07 169.433C1135.3 168.746 1147.75 154.778 1150.25 152.162C1158.67 151.972 1160.6 152.264 1167.25 157.162C1169.25 159.162 1172.42 160.708 1172.75 163.162C1168.7 169.64 1162.48 177.986 1157.97 184.125C1163.64 187.705 1172.89 193.425 1176.06 199.318C1184.25 207.162 1172.84 219.609 1167.75 220.662C1161.68 221.929 1149.18 208.576 1143.75 205.162C1139.67 210.53 1131.05 226.943 1125.25 228.662C1122.68 228.596 1121.05 225.714 1118.91 224.475C1109.7 220.2 1097.25 215.586 1112.75 202.586C1114.37 197.584 1116.68 198.882 1118.41 193.586L1120.64 189.751L1098.52 170.696C1109.99 146.887 1113.53 154.663 1134.07 169.433Z" fill="#F43F5E"/>
<path d="M32.3976 398.132C36.0765 396.601 38.5305 394.694 42.6807 396.472C55.4859 401.962 92.4544 433.362 91.5761 447.44C88.5729 448.54 85.1608 450.453 82.2142 449.32C64.5907 442.538 44.6477 422.807 33.4882 407.565C30.4851 403.46 31.566 401.982 32.3976 398.132Z" fill="#F1BD26"/>
<path d="M91.5761 447.44C88.5729 448.541 85.1608 450.454 82.2142 449.32C64.5907 442.539 44.6477 422.808 33.4882 407.566C30.4851 403.461 31.566 401.982 32.3976 398.133C48.5935 413.359 72.1122 438.835 91.5761 447.44Z" fill="#1A274E"/>
<path d="M0.0197367 459.462C14.7374 450.906 53.1004 464.463 68.1862 472.17C72.9168 474.585 74.1165 478.053 74.4223 483.019C59.9364 486.97 15.8553 476.107 2.14064 467.551C-0.346395 465.998 0.0177892 462.02 0.0197367 459.462Z" fill="#F1BD26"/>
<path d="M74.4223 483.019C59.9364 486.97 15.8553 476.107 2.14064 467.551C-0.346395 465.998 0.0177892 462.02 0.0197367 459.462C23.4995 470.613 49.2228 476.74 74.4223 483.019Z" fill="#1A274E"/>
<path d="M440.281 266C445.191 268.244 447.209 272.803 450.068 277.504C456.285 279.616 459.771 280.492 466.221 281.811L466.727 283.833C463.701 287.706 458.452 290.211 454.086 292.699L452.923 309.607C442.467 305.386 447.374 302.596 441.442 294.425C437.249 293.845 434.24 294.529 430.074 295.127C426.29 293.044 427.207 294.271 426 290.753C428.662 286.654 434.552 284.784 439.538 282.306L440.281 266Z" fill="#F79816"/>
<path d="M165.798 354.769C171.652 358.356 169.216 360.629 172.348 365.125C173.857 367.294 179.85 372.355 181.941 374.293C173.861 380.163 171.799 384.615 167.902 393.708C159.761 388.1 164.781 385.641 159.414 378.99C158.68 378.08 153.287 378.46 149.842 374.689C155.646 364.724 162.082 373.687 165.798 354.769Z" fill="#F79816"/>
<path d="M1429.54 740.362C1444.32 721.817 1447.1 710.684 1469.02 730.411L1469.98 732.955L1468.93 734.486C1465.48 741.449 1458.51 750.841 1456.87 756.071L1458.79 759.711L1464.17 763.692C1471.26 767.454 1474.31 769.94 1480.2 775.302C1473.13 784.46 1466.17 795.182 1459.62 804.847C1450.04 800.218 1443.83 795.841 1435 789.868C1428.61 798.108 1422.18 805.595 1415.39 813.505C1390.51 799.449 1388.52 798.309 1405.34 774.364L1394.93 764.916L1383 754.848C1387.4 746.972 1395.02 731.632 1401.38 726.206C1408.68 720.415 1423.38 735.341 1429.54 740.362Z" fill="#22C55E"/>
<path d="M1450.25 724.823L1462.81 732.676C1459.33 737.798 1453.85 745.107 1453.2 751.203C1457.43 748.92 1464.15 738.741 1468.93 734.486C1465.49 741.449 1458.51 750.841 1456.87 756.071L1458.79 759.711C1458.73 765.6 1472.65 775.993 1465.03 781.619C1456.33 782.097 1446.99 774.357 1439.44 769.424L1422.21 793.31L1407.69 784.086C1415.89 775.299 1418.09 770.803 1422.35 760.011C1415.38 754.986 1400 745.014 1400.82 735.143L1402.85 733.648C1413.96 732.431 1422.6 739.596 1432.06 745.376C1440.16 738.162 1443.71 733.346 1450.25 724.823Z" fill="#22C55E"/>
<path d="M1383 754.848C1387.4 746.972 1395.02 731.632 1401.38 726.207C1398.52 732.497 1396.37 736.701 1392.9 742.678C1398.24 746.763 1404.91 751.581 1409.89 755.906C1403.4 757.574 1399.7 760.013 1394.93 764.916L1383 754.848Z" fill="#1A274E"/>
<path d="M1409.89 755.906L1418.28 762.101C1412.18 770.928 1407.72 777.331 1402.71 786.766C1409.6 790.89 1417.5 795.883 1424.43 799.704C1429.64 790.754 1434.96 781.871 1440.39 773.053C1448.03 778.528 1457.37 785.578 1465.16 790.472L1476.53 775.075C1472.91 772.04 1466.74 767.267 1464.17 763.692C1471.26 767.454 1474.31 769.94 1480.2 775.301C1473.13 784.46 1466.17 795.182 1459.62 804.847C1450.04 800.218 1443.83 795.841 1435 789.868C1428.61 798.108 1422.18 805.595 1415.39 813.504C1390.51 799.449 1388.52 798.309 1405.34 774.364L1394.93 764.916C1399.7 760.012 1403.4 757.573 1409.89 755.906Z" fill="#1A274E"/>
<defs>
<linearGradient id="paint0_linear_764_846" x1="1434.77" y1="155.677" x2="1433.84" y2="170.188" gradientUnits="userSpaceOnUse">
<stop stop-color="#1A274E"/>
<stop offset="1" stop-color="#1A274E"/>
</linearGradient>
<linearGradient id="paint1_linear_764_846" x1="1597.12" y1="170.543" x2="1595.36" y2="191.822" gradientUnits="userSpaceOnUse">
<stop stop-color="#1A274E"/>
</linearGradient>
</defs>
</svg>
