<svg width="415" height="128" viewBox="0 0 415 128" fill="none" xmlns="http://www.w3.org/2000/svg">
<ellipse cx="55.783" cy="55.0818" rx="55.783" ry="55.0818" transform="matrix(0 -1 -1 0 110.164 126.849)" fill="#22C55E"/>
<rect x="46.7817" y="41.2642" width="13.5818" height="61.1321" rx="6.79091" fill="white"/>
<rect x="84.5089" y="64.1887" width="13.7547" height="60.3636" rx="6.87736" transform="rotate(90 84.5089 64.1887)" fill="white"/>
<path d="M208.185 9.14317C205.883 5.10528 200.062 5.10528 197.76 9.14317L135.553 118.26C133.273 122.26 136.162 127.231 140.766 127.231L265.179 127.231C269.783 127.231 272.672 122.259 270.391 118.26L208.185 9.14317Z" fill="#F43F5E"/>
<rect x="173.545" y="83.7878" width="13.7547" height="60.3636" rx="6.87736" transform="rotate(-90 173.545 83.7878)" fill="white"/>
<ellipse cx="203.238" cy="56.5473" rx="6.03636" ry="6.11321" fill="white"/>
<ellipse cx="203.238" cy="99.3398" rx="6.03636" ry="6.11321" fill="white"/>
<path d="M406 126.849C410.97 126.849 415 122.82 415 117.849V24.2829C415 19.3124 410.97 15.2829 406 15.2829H313.836C308.866 15.2829 304.836 19.3124 304.836 24.2829V117.849C304.836 122.82 308.866 126.849 313.836 126.849H406Z" fill="#FACC15"/>
<rect width="13.6685" height="60.7491" rx="6.83427" transform="matrix(0.70262 0.711565 -0.70262 0.711565 376.193 45.0851)" fill="white"/>
<rect width="13.6685" height="60.7491" rx="6.83427" transform="matrix(0.70262 -0.711565 0.70262 0.711565 333.938 54.047)" fill="white"/>
</svg>
