<svg width="455" height="186" viewBox="0 0 455 186" fill="none" xmlns="http://www.w3.org/2000/svg">
<path d="M355 109L455 109" stroke="black" stroke-width="6"/>
<path d="M350.046 100V93.232C353.63 89.84 356.43 86.88 358.446 84.352C360.462 81.792 361.47 79.664 361.47 77.968C361.47 76.848 361.15 76.016 360.51 75.472C359.87 74.896 359.038 74.608 358.014 74.608C355.87 74.608 353.806 75.264 351.822 76.576L349.47 69.088C350.942 68.16 352.558 67.456 354.318 66.976C356.11 66.496 357.87 66.256 359.598 66.256C362.222 66.256 364.382 66.72 366.078 67.648C367.774 68.576 369.038 69.84 369.87 71.44C370.734 73.04 371.166 74.864 371.166 76.912C371.166 80.016 370.174 82.88 368.19 85.504C366.238 88.128 363.31 90.624 359.406 92.992H370.974V100H350.046ZM382.066 100L389.362 87.52L382.546 75.952H392.674L395.362 81.616L398.146 75.952H407.986L401.266 87.52L408.466 100H398.626L395.362 93.856L392.194 100H382.066ZM428.497 100.816L419.761 97.12L430.465 73.984H418.561V66.976H441.025V72.832L428.497 100.816Z" fill="#F43F5E"/>
<path d="M358.488 160.528C356.824 160.528 355.144 160.352 353.448 160C351.784 159.68 350.248 159.216 348.84 158.608L350.424 151.264C353.016 152.32 355.368 152.848 357.48 152.848C360.104 152.848 361.416 151.856 361.416 149.872C361.416 148.592 360.744 147.68 359.4 147.136C358.056 146.56 355.816 146.272 352.68 146.272V139.696C358.376 139.696 361.224 138.56 361.224 136.288C361.224 135.584 360.888 135.04 360.216 134.656C359.576 134.24 358.68 134.032 357.528 134.032C354.84 134.032 352.424 134.592 350.28 135.712L348.408 128.944C351.544 127.152 355.08 126.256 359.016 126.256C362.248 126.256 364.792 126.992 366.648 128.464C368.504 129.904 369.432 131.888 369.432 134.416C369.432 136.016 369.032 137.504 368.232 138.88C367.464 140.224 366.36 141.36 364.92 142.288C367 143.024 368.504 144.128 369.432 145.6C370.392 147.04 370.872 148.528 370.872 150.064C370.872 152.208 370.36 154.064 369.336 155.632C368.312 157.2 366.872 158.416 365.016 159.28C363.16 160.112 360.984 160.528 358.488 160.528ZM381.152 160L388.448 147.52L381.632 135.952H391.76L394.448 141.616L397.232 135.952H407.072L400.352 147.52L407.552 160H397.712L394.448 153.856L391.28 160H381.152ZM427.534 160.624C426.062 160.624 424.574 160.464 423.07 160.144C421.566 159.856 420.014 159.36 418.414 158.656L419.95 151.312C421.006 151.824 422.158 152.224 423.406 152.512C424.654 152.768 425.822 152.896 426.91 152.896C428.638 152.896 429.902 152.576 430.702 151.936C431.502 151.264 431.902 150.352 431.902 149.2C431.902 148.176 431.582 147.376 430.942 146.8C430.302 146.224 429.47 145.936 428.446 145.936C426.75 145.936 425.246 146.592 423.934 147.904L418.75 145.696L420.334 126.976H439.198L438.478 134.176H427.534L426.958 140.128C427.726 139.52 428.558 139.088 429.454 138.832C430.382 138.576 431.262 138.448 432.094 138.448C434.27 138.448 436.03 138.912 437.374 139.84C438.75 140.768 439.758 141.984 440.398 143.488C441.038 144.992 441.358 146.608 441.358 148.336C441.358 151.12 440.782 153.424 439.63 155.248C438.478 157.072 436.862 158.432 434.782 159.328C432.734 160.192 430.318 160.624 427.534 160.624Z" fill="#22C55E"/>
<line x1="14" y1="106.896" x2="121.033" y2="106.896" stroke="black" stroke-width="6"/>
<path d="M53.5467 91V81.976C58.3254 77.4533 62.0587 73.5067 64.7467 70.136C67.4347 66.7227 68.7787 63.8853 68.7787 61.624C68.7787 60.1307 68.352 59.0213 67.4987 58.296C66.6454 57.528 65.536 57.144 64.1707 57.144C61.312 57.144 58.56 58.0187 55.9147 59.768L52.7787 49.784C54.7414 48.5467 56.896 47.608 59.2427 46.968C61.632 46.328 63.9787 46.008 66.2827 46.008C69.7814 46.008 72.6614 46.6267 74.9227 47.864C77.184 49.1013 78.8694 50.7867 79.9787 52.92C81.1307 55.0533 81.7067 57.4853 81.7067 60.216C81.7067 64.3547 80.384 68.1733 77.7387 71.672C75.136 75.1707 71.232 78.4987 66.0267 81.656H81.4507V91H53.5467Z" fill="#F43F5E"/>
<path d="M65.8957 180.704C63.677 180.704 61.437 180.469 59.1757 180C56.957 179.573 54.909 178.955 53.0317 178.144L55.1437 168.352C58.5997 169.76 61.7357 170.464 64.5517 170.464C68.0504 170.464 69.7997 169.141 69.7997 166.496C69.7997 164.789 68.9037 163.573 67.1117 162.848C65.3197 162.08 62.333 161.696 58.1517 161.696V152.928C65.7464 152.928 69.5437 151.413 69.5437 148.384C69.5437 147.445 69.0957 146.72 68.1997 146.208C67.3464 145.653 66.1517 145.376 64.6157 145.376C61.0317 145.376 57.8104 146.123 54.9517 147.616L52.4557 138.592C56.637 136.203 61.3517 135.008 66.5997 135.008C70.909 135.008 74.301 135.989 76.7757 137.952C79.2504 139.872 80.4877 142.517 80.4877 145.888C80.4877 148.021 79.9544 150.005 78.8877 151.84C77.8637 153.632 76.3917 155.147 74.4717 156.384C77.245 157.365 79.2504 158.837 80.4877 160.8C81.7677 162.72 82.4077 164.704 82.4077 166.752C82.4077 169.611 81.725 172.085 80.3597 174.176C78.9944 176.267 77.0744 177.888 74.5997 179.04C72.125 180.149 69.2237 180.704 65.8957 180.704Z" fill="black"/>
<line x1="160" y1="106.896" x2="267.033" y2="106.896" stroke="black" stroke-width="6"/>
<path d="M212.022 92.088L200.374 87.16L214.646 56.312H198.774V46.968H228.726V54.776L212.022 92.088Z" fill="#F43F5E"/>
<path d="M210.864 180.832C208.902 180.832 206.918 180.619 204.912 180.192C202.907 179.808 200.838 179.147 198.704 178.208L200.752 168.416C202.16 169.099 203.696 169.632 205.36 170.016C207.024 170.357 208.582 170.528 210.032 170.528C212.336 170.528 214.022 170.101 215.088 169.248C216.155 168.352 216.688 167.136 216.688 165.6C216.688 164.235 216.262 163.168 215.408 162.4C214.555 161.632 213.446 161.248 212.08 161.248C209.819 161.248 207.814 162.123 206.064 163.872L199.152 160.928L201.264 135.968H226.416L225.456 145.568H210.864L210.096 153.504C211.12 152.693 212.23 152.117 213.424 151.776C214.662 151.435 215.835 151.264 216.944 151.264C219.846 151.264 222.192 151.883 223.984 153.12C225.819 154.357 227.163 155.979 228.016 157.984C228.87 159.989 229.296 162.144 229.296 164.448C229.296 168.16 228.528 171.232 226.992 173.664C225.456 176.096 223.302 177.909 220.528 179.104C217.798 180.256 214.576 180.832 210.864 180.832Z" fill="#22C55E"/>
<path d="M153.031 89.0472L144.763 98.4266L152.066 106.712L149.31 109.838L142.007 101.553L133.738 110.932L131.304 108.171L139.572 98.7912L132.268 90.5059L135.024 87.3794L142.328 95.6648L150.596 86.2854L153.031 89.0472Z" fill="black"/>
<path d="M311.989 105.704V99.272H335.029V105.704H311.989ZM311.989 114.68V108.248H335.029V114.68H311.989Z" fill="black"/>
</svg>
