<svg width="579" height="195" viewBox="0 0 579 195" fill="none" xmlns="http://www.w3.org/2000/svg">
<line x1="162" y1="131" x2="162" y2="156.191" stroke="black" stroke-width="4"/>
<line x1="345.345" y1="131" x2="345.345" y2="156.191" stroke="black" stroke-width="4"/>
<line x1="161.31" y1="143.17" x2="344" y2="143.17" stroke="black" stroke-width="4"/>
<line x1="42.4043" y1="141.596" x2="67.5958" y2="141.596" stroke="black" stroke-width="4"/>
<line x1="42.4043" y1="40.3614" x2="67.5958" y2="40.3614" stroke="black" stroke-width="4"/>
<line x1="54.5745" y1="142.873" x2="54.5745" y2="42" stroke="black" stroke-width="4"/>
<path d="M6.67978 27.192C5.57578 27.192 4.57578 26.928 3.67978 26.4C2.78378 25.856 2.07178 25.112 1.54378 24.168C1.03178 23.224 0.775781 22.144 0.775781 20.928C0.775781 19.712 1.03178 18.648 1.54378 17.736C2.07178 16.824 2.78378 16.112 3.67978 15.6C4.57578 15.072 5.57578 14.808 6.67978 14.808C7.46378 14.808 8.22378 15.024 8.95978 15.456C9.69578 15.888 10.2638 16.6 10.6638 17.592V14.976H15.6558V27H10.6158V24.768C10.2318 25.552 9.71978 26.152 9.07978 26.568C8.43978 26.984 7.63978 27.192 6.67978 27.192ZM8.23978 23.4C8.89578 23.4 9.45578 23.168 9.91978 22.704C10.3838 22.224 10.6158 21.64 10.6158 20.952C10.6158 20.264 10.3838 19.704 9.91978 19.272C9.45578 18.824 8.89578 18.6 8.23978 18.6C7.55178 18.6 6.97578 18.832 6.51178 19.296C6.04778 19.76 5.81578 20.328 5.81578 21C5.81578 21.672 6.04778 22.24 6.51178 22.704C6.97578 23.168 7.55178 23.4 8.23978 23.4ZM22.7913 27.192C21.6553 27.192 20.7273 27 20.0073 26.616C19.3033 26.232 18.7913 25.712 18.4713 25.056C18.1513 24.4 17.9913 23.664 17.9913 22.848V10.704L23.0553 9.96V22.152C23.0553 22.52 23.1753 22.808 23.4153 23.016C23.6553 23.208 23.9673 23.304 24.3513 23.304C24.7353 23.304 25.1193 23.208 25.5033 23.016L25.8633 26.352C25.4793 26.624 24.9913 26.832 24.3993 26.976C23.8073 27.12 23.2713 27.192 22.7913 27.192ZM31.9649 27.192C30.8289 27.192 29.9009 27 29.1809 26.616C28.4769 26.232 27.9649 25.712 27.6449 25.056C27.3249 24.4 27.1649 23.664 27.1649 22.848V17.952H25.6289V14.976H27.5249L29.7569 11.184H32.2289V14.976H35.0129V17.952H32.2289V22.152C32.2289 22.52 32.3489 22.808 32.5889 23.016C32.8289 23.208 33.1409 23.304 33.5249 23.304C33.9089 23.304 34.2929 23.208 34.6769 23.016L35.0369 26.352C34.6529 26.624 34.1649 26.832 33.5729 26.976C32.9809 27.12 32.4449 27.192 31.9649 27.192ZM43.1264 27.192C41.0944 27.192 39.5024 26.68 38.3504 25.656C37.2144 24.616 36.6464 23.184 36.6464 21.36V14.976H41.5904V21.576C41.5904 22.216 41.7264 22.688 41.9984 22.992C42.2864 23.296 42.6704 23.448 43.1504 23.448C43.6144 23.448 43.9744 23.296 44.2304 22.992C44.5024 22.688 44.6384 22.216 44.6384 21.576V14.976H49.4864V21.36C49.4864 23.2 48.9264 24.632 47.8064 25.656C46.7024 26.68 45.1424 27.192 43.1264 27.192ZM51.7664 27V14.976H56.7584V17.976C57.0784 16.888 57.5744 16.088 58.2464 15.576C58.9344 15.064 59.7504 14.808 60.6944 14.808L61.2944 19.056C60.9104 19.008 60.5344 18.984 60.1664 18.984C57.9424 18.984 56.8304 19.896 56.8304 21.72V27H51.7664ZM67.4532 27.192C66.3492 27.192 65.3492 26.928 64.4532 26.4C63.5572 25.856 62.8452 25.112 62.3172 24.168C61.8052 23.224 61.5492 22.144 61.5492 20.928C61.5492 19.712 61.8052 18.648 62.3172 17.736C62.8452 16.824 63.5572 16.112 64.4532 15.6C65.3492 15.072 66.3492 14.808 67.4532 14.808C68.2372 14.808 68.9972 15.024 69.7332 15.456C70.4692 15.888 71.0372 16.6 71.4372 17.592V14.976H76.4292V27H71.3892V24.768C71.0052 25.552 70.4932 26.152 69.8532 26.568C69.2132 26.984 68.4132 27.192 67.4532 27.192ZM69.0132 23.4C69.6692 23.4 70.2292 23.168 70.6932 22.704C71.1572 22.224 71.3892 21.64 71.3892 20.952C71.3892 20.264 71.1572 19.704 70.6932 19.272C70.2292 18.824 69.6692 18.6 69.0132 18.6C68.3252 18.6 67.7492 18.832 67.2852 19.296C66.8212 19.76 66.5892 20.328 66.5892 21C66.5892 21.672 66.8212 22.24 67.2852 22.704C67.7492 23.168 68.3252 23.4 69.0132 23.4ZM87.1167 31.656C85.1807 31.48 83.5407 30.904 82.1967 29.928C80.8527 28.968 79.8367 27.696 79.1487 26.112C78.4607 24.528 78.1167 22.736 78.1167 20.736C78.1167 18.624 78.4847 16.808 79.2207 15.288C79.9567 13.752 80.9967 12.536 82.3407 11.64C83.6847 10.744 85.2767 10.208 87.1167 10.032V13.056C85.9967 13.248 85.1087 13.992 84.4527 15.288C83.7967 16.584 83.4687 18.4 83.4687 20.736C83.4687 22.144 83.5887 23.416 83.8287 24.552C84.0687 25.672 84.4527 26.584 84.9807 27.288C85.5247 28.008 86.2367 28.448 87.1167 28.608V31.656ZM88.8445 27V11.184L93.9085 10.44V17.448C94.2445 16.616 94.7725 15.968 95.4925 15.504C96.2125 15.04 97.0765 14.808 98.0845 14.808C99.6525 14.808 100.869 15.352 101.733 16.44C102.597 17.512 103.029 19.032 103.029 21V27H97.9645V20.736C97.9645 19.312 97.3885 18.6 96.2365 18.6C95.5485 18.6 94.9885 18.856 94.5565 19.368C94.1245 19.864 93.9085 20.536 93.9085 21.384V27H88.8445ZM104.344 31.656V28.608C105.48 28.416 106.376 27.664 107.032 26.352C107.688 25.024 108.016 23.152 108.016 20.736C108.016 18.512 107.696 16.728 107.056 15.384C106.432 14.024 105.528 13.248 104.344 13.056V10.032C106.344 10.224 108.008 10.808 109.336 11.784C110.664 12.744 111.664 13.992 112.336 15.528C113.008 17.064 113.344 18.8 113.344 20.736C113.344 22.8 112.984 24.624 112.264 26.208C111.56 27.776 110.536 29.032 109.192 29.976C107.864 30.92 106.248 31.48 104.344 31.656Z" fill="black"/>
<path d="M458.386 88.512C455.826 88.512 453.693 87.9573 451.986 86.848C450.279 85.7387 448.914 84.1387 447.89 82.048V88H434.45V45.824L448.018 43.84V62.528C449.042 60.096 450.493 58.3253 452.37 57.216C454.29 56.064 456.295 55.488 458.386 55.488C461.373 55.488 464.039 56.192 466.386 57.6C468.775 58.9653 470.653 60.864 472.018 63.296C473.426 65.728 474.13 68.5653 474.13 71.808C474.13 75.0507 473.426 77.9307 472.018 80.448C470.653 82.9653 468.775 84.9493 466.386 86.4C464.039 87.808 461.373 88.512 458.386 88.512ZM454.226 78.4C456.061 78.4 457.597 77.7813 458.834 76.544C460.071 75.3067 460.69 73.792 460.69 72C460.69 70.208 460.071 68.6933 458.834 67.456C457.597 66.2187 456.061 65.6 454.226 65.6C452.477 65.6 450.983 66.1973 449.746 67.392C448.509 68.544 447.89 70.0373 447.89 71.872C447.89 73.7067 448.509 75.264 449.746 76.544C450.983 77.7813 452.477 78.4 454.226 78.4ZM487.88 88L497.608 71.36L488.52 55.936H502.024L505.608 63.488L509.32 55.936H522.44L513.48 71.36L523.08 88H509.96L505.608 79.808L501.384 88H487.88ZM538.075 88V45.824L551.579 43.84V62.528C552.475 60.3093 553.883 58.5813 555.803 57.344C557.723 56.1067 560.027 55.488 562.715 55.488C566.896 55.488 570.139 56.9387 572.443 59.84C574.747 62.6987 575.899 66.752 575.899 72V88H562.395V71.296C562.395 67.4987 560.859 65.6 557.787 65.6C555.952 65.6 554.459 66.2827 553.307 67.648C552.155 68.9707 551.579 70.7627 551.579 73.024V88H538.075Z" fill="black"/>
<line x1="354" y1="65" x2="414" y2="65" stroke="black" stroke-width="8"/>
<line x1="354" y1="87" x2="414" y2="87" stroke="black" stroke-width="8"/>
<path d="M117 39L178.871 121H194.951" stroke="black" stroke-width="8"/>
<path d="M277.884 41.2778L117 42" stroke="black" stroke-width="8"/>
<path d="M271.389 39L349.34 121H193.438" stroke="black" stroke-width="8"/>
<path d="M194.685 171H188.445V154.488H195.189C197.829 154.488 199.765 154.856 200.997 155.592C202.229 156.312 202.845 157.312 202.845 158.592C202.845 160.256 201.973 161.4 200.229 162.024C202.469 162.456 203.589 163.776 203.589 165.984C203.589 167.68 202.813 168.944 201.261 169.776C199.725 170.592 197.533 171 194.685 171ZM193.797 161.016H195.693C196.333 161.016 196.853 160.872 197.253 160.584C197.653 160.296 197.853 159.912 197.853 159.432C197.853 158.328 197.101 157.776 195.597 157.776H193.797V161.016ZM195.837 167.616C196.637 167.616 197.253 167.456 197.685 167.136C198.117 166.816 198.333 166.368 198.333 165.792C198.333 165.168 198.117 164.688 197.685 164.352C197.253 164 196.637 163.824 195.837 163.824H193.773V167.616H195.837ZM210.692 171.192C209.588 171.192 208.588 170.928 207.692 170.4C206.796 169.856 206.084 169.112 205.556 168.168C205.044 167.224 204.788 166.144 204.788 164.928C204.788 163.712 205.044 162.648 205.556 161.736C206.084 160.824 206.796 160.112 207.692 159.6C208.588 159.072 209.588 158.808 210.692 158.808C211.476 158.808 212.236 159.024 212.972 159.456C213.708 159.888 214.276 160.6 214.676 161.592V158.976H219.668V171H214.628V168.768C214.244 169.552 213.732 170.152 213.092 170.568C212.452 170.984 211.652 171.192 210.692 171.192ZM212.252 167.4C212.908 167.4 213.468 167.168 213.932 166.704C214.396 166.224 214.628 165.64 214.628 164.952C214.628 164.264 214.396 163.704 213.932 163.272C213.468 162.824 212.908 162.6 212.252 162.6C211.564 162.6 210.988 162.832 210.523 163.296C210.06 163.76 209.828 164.328 209.828 165C209.828 165.672 210.06 166.24 210.523 166.704C210.988 167.168 211.564 167.4 212.252 167.4ZM225.939 171.192C225.219 171.192 224.491 171.12 223.755 170.976C223.019 170.832 222.355 170.632 221.763 170.376L222.459 167.352C222.827 167.544 223.331 167.712 223.971 167.856C224.611 167.984 225.179 168.048 225.675 168.048C226.475 168.048 226.875 167.832 226.875 167.4C226.875 167.192 226.747 167.04 226.491 166.944C226.251 166.848 225.931 166.768 225.531 166.704C225.147 166.624 224.731 166.528 224.283 166.416C223.835 166.288 223.411 166.104 223.011 165.864C222.627 165.608 222.307 165.248 222.051 164.784C221.811 164.32 221.691 163.712 221.691 162.96C221.691 161.696 222.187 160.688 223.179 159.936C224.187 159.184 225.563 158.808 227.307 158.808C227.979 158.808 228.603 158.856 229.179 158.952C229.771 159.048 230.331 159.248 230.859 159.552L230.355 162.48C229.507 162.128 228.619 161.952 227.691 161.952C227.099 161.952 226.667 162 226.395 162.096C226.139 162.192 226.011 162.352 226.011 162.576C226.011 162.752 226.139 162.888 226.395 162.984C226.651 163.08 226.979 163.176 227.379 163.272C227.795 163.352 228.227 163.472 228.675 163.632C229.123 163.776 229.547 163.984 229.947 164.256C230.363 164.528 230.699 164.896 230.955 165.36C231.211 165.808 231.339 166.392 231.339 167.112C231.339 168.392 230.867 169.392 229.923 170.112C228.979 170.832 227.651 171.192 225.939 171.192ZM240.484 167.832C240.948 167.832 241.436 167.784 241.948 167.688C242.476 167.592 243.012 167.416 243.556 167.16L244.132 170.256C243.54 170.56 242.892 170.792 242.188 170.952C241.5 171.112 240.708 171.192 239.812 171.192C238.196 171.192 236.836 170.928 235.732 170.4C234.644 169.872 233.82 169.144 233.26 168.216C232.7 167.288 232.42 166.216 232.42 165C232.42 163.752 232.716 162.664 233.308 161.736C233.916 160.808 234.724 160.088 235.732 159.576C236.74 159.064 237.852 158.808 239.068 158.808C240.876 158.808 242.26 159.376 243.22 160.512C244.18 161.632 244.66 163.232 244.66 165.312L237.508 166.224C238.036 167.296 239.028 167.832 240.484 167.832ZM237.124 164.016L240.892 163.224C240.828 162.712 240.652 162.336 240.364 162.096C240.076 161.84 239.716 161.712 239.284 161.712C238.644 161.712 238.132 161.936 237.748 162.384C237.38 162.816 237.172 163.36 237.124 164.016ZM254.613 175.656C252.677 175.48 251.037 174.904 249.693 173.928C248.349 172.968 247.333 171.696 246.645 170.112C245.957 168.528 245.613 166.736 245.613 164.736C245.613 162.624 245.981 160.808 246.717 159.288C247.453 157.752 248.493 156.536 249.837 155.64C251.181 154.744 252.773 154.208 254.613 154.032V157.056C253.493 157.248 252.605 157.992 251.949 159.288C251.293 160.584 250.965 162.4 250.965 164.736C250.965 166.144 251.085 167.416 251.325 168.552C251.565 169.672 251.949 170.584 252.477 171.288C253.021 172.008 253.733 172.448 254.613 172.608V175.656ZM265.317 171.192C264.357 171.192 263.557 170.984 262.917 170.568C262.277 170.152 261.765 169.552 261.381 168.768V171H256.341V155.184L261.429 154.44V161.448C261.813 160.536 262.357 159.872 263.061 159.456C263.781 159.024 264.533 158.808 265.317 158.808C266.437 158.808 267.437 159.072 268.317 159.6C269.213 160.112 269.917 160.824 270.429 161.736C270.957 162.648 271.221 163.712 271.221 164.928C271.221 166.144 270.957 167.224 270.429 168.168C269.917 169.112 269.213 169.856 268.317 170.4C267.437 170.928 266.437 171.192 265.317 171.192ZM263.757 167.4C264.445 167.4 265.021 167.168 265.485 166.704C265.949 166.24 266.181 165.672 266.181 165C266.181 164.328 265.949 163.76 265.485 163.296C265.021 162.832 264.445 162.6 263.757 162.6C263.101 162.6 262.541 162.824 262.077 163.272C261.613 163.704 261.381 164.264 261.381 164.952C261.381 165.64 261.613 166.224 262.077 166.704C262.541 167.168 263.101 167.4 263.757 167.4ZM271.395 175.656V172.608C272.531 172.416 273.427 171.664 274.083 170.352C274.739 169.024 275.067 167.152 275.067 164.736C275.067 162.512 274.747 160.728 274.107 159.384C273.483 158.024 272.579 157.248 271.395 157.056V154.032C273.395 154.224 275.059 154.808 276.387 155.784C277.715 156.744 278.715 157.992 279.387 159.528C280.059 161.064 280.395 162.8 280.395 164.736C280.395 166.8 280.035 168.624 279.315 170.208C278.611 171.776 277.587 173.032 276.243 173.976C274.915 174.92 273.299 175.48 271.395 175.656Z" fill="black"/>
</svg>
