<svg width="597" height="195" viewBox="0 0 597 195" fill="none" xmlns="http://www.w3.org/2000/svg">
<line x1="129" y1="143" x2="129" y2="168.191" stroke="black" stroke-width="4"/>
<line x1="363.164" y1="143" x2="363.164" y2="168.191" stroke="black" stroke-width="4"/>
<line x1="128.673" y1="155.17" x2="362" y2="155.17" stroke="black" stroke-width="4"/>
<line x1="85" y1="129" x2="110.191" y2="129" stroke="black" stroke-width="4"/>
<line x1="85" y1="40.3167" x2="110.191" y2="40.3167" stroke="black" stroke-width="4"/>
<line x1="97.1702" y1="130.367" x2="97.1702" y2="42" stroke="black" stroke-width="4"/>
<path d="M7.90638 31.256C6.43438 31.256 5.10104 30.904 3.90638 30.2C2.71171 29.4747 1.76238 28.4827 1.05838 27.224C0.375708 25.9653 0.034375 24.5253 0.034375 22.904C0.034375 21.2827 0.375708 19.864 1.05838 18.648C1.76238 17.432 2.71171 16.4827 3.90638 15.8C5.10104 15.096 6.43438 14.744 7.90638 14.744C8.95171 14.744 9.96504 15.032 10.9464 15.608C11.9277 16.184 12.685 17.1333 13.2184 18.456V14.968H19.8744V31H13.1544V28.024C12.6424 29.0693 11.9597 29.8693 11.1064 30.424C10.253 30.9787 9.18638 31.256 7.90638 31.256ZM9.98638 26.2C10.861 26.2 11.6077 25.8907 12.2264 25.272C12.845 24.632 13.1544 23.8533 13.1544 22.936C13.1544 22.0187 12.845 21.272 12.2264 20.696C11.6077 20.0987 10.861 19.8 9.98638 19.8C9.06904 19.8 8.30104 20.1093 7.68237 20.728C7.06371 21.3467 6.75438 22.104 6.75438 23C6.75438 23.896 7.06371 24.6533 7.68237 25.272C8.30104 25.8907 9.06904 26.2 9.98638 26.2ZM29.3884 31.256C27.8737 31.256 26.6364 31 25.6764 30.488C24.7377 29.976 24.055 29.2827 23.6284 28.408C23.2017 27.5333 22.9884 26.552 22.9884 25.464V9.272L29.7404 8.28V24.536C29.7404 25.0267 29.9004 25.4107 30.2204 25.688C30.5404 25.944 30.9564 26.072 31.4684 26.072C31.9804 26.072 32.4924 25.944 33.0044 25.688L33.4844 30.136C32.9724 30.4987 32.3217 30.776 31.5324 30.968C30.743 31.16 30.0284 31.256 29.3884 31.256ZM41.6199 31.256C40.1052 31.256 38.8679 31 37.9079 30.488C36.9692 29.976 36.2865 29.2827 35.8599 28.408C35.4332 27.5333 35.2199 26.552 35.2199 25.464V18.936H33.1719V14.968H35.6999L38.6759 9.912H41.9719V14.968H45.6839V18.936H41.9719V24.536C41.9719 25.0267 42.1319 25.4107 42.4519 25.688C42.7719 25.944 43.1879 26.072 43.6999 26.072C44.2119 26.072 44.7239 25.944 45.2359 25.688L45.7159 30.136C45.2039 30.4987 44.5532 30.776 43.7639 30.968C42.9745 31.16 42.2599 31.256 41.6199 31.256ZM56.5019 31.256C53.7925 31.256 51.6699 30.5733 50.1339 29.208C48.6192 27.8213 47.8619 25.912 47.8619 23.48V14.968H54.4539V23.768C54.4539 24.6213 54.6352 25.2507 54.9979 25.656C55.3819 26.0613 55.8939 26.264 56.5339 26.264C57.1525 26.264 57.6325 26.0613 57.9739 25.656C58.3365 25.2507 58.5179 24.6213 58.5179 23.768V14.968H64.9819V23.48C64.9819 25.9333 64.2352 27.8427 62.7419 29.208C61.2699 30.5733 59.1899 31.256 56.5019 31.256ZM68.0219 31V14.968H74.6779V18.968C75.1045 17.5173 75.7659 16.4507 76.6619 15.768C77.5792 15.0853 78.6672 14.744 79.9259 14.744L80.7259 20.408C80.2139 20.344 79.7125 20.312 79.2219 20.312C76.2565 20.312 74.7739 21.528 74.7739 23.96V31H68.0219ZM88.9376 31.256C87.4656 31.256 86.1323 30.904 84.9376 30.2C83.743 29.4747 82.7936 28.4827 82.0896 27.224C81.407 25.9653 81.0656 24.5253 81.0656 22.904C81.0656 21.2827 81.407 19.864 82.0896 18.648C82.7936 17.432 83.743 16.4827 84.9376 15.8C86.1323 15.096 87.4656 14.744 88.9376 14.744C89.983 14.744 90.9963 15.032 91.9776 15.608C92.959 16.184 93.7163 17.1333 94.2496 18.456V14.968H100.906V31H94.1856V28.024C93.6736 29.0693 92.991 29.8693 92.1376 30.424C91.2843 30.9787 90.2176 31.256 88.9376 31.256ZM91.0176 26.2C91.8923 26.2 92.639 25.8907 93.2576 25.272C93.8763 24.632 94.1856 23.8533 94.1856 22.936C94.1856 22.0187 93.8763 21.272 93.2576 20.696C92.639 20.0987 91.8923 19.8 91.0176 19.8C90.1003 19.8 89.3323 20.1093 88.7136 20.728C88.095 21.3467 87.7856 22.104 87.7856 23C87.7856 23.896 88.095 24.6533 88.7136 25.272C89.3323 25.8907 90.1003 26.2 91.0176 26.2ZM115.156 37.208C112.574 36.9733 110.388 36.2053 108.596 34.904C106.804 33.624 105.449 31.928 104.532 29.816C103.614 27.704 103.156 25.3147 103.156 22.648C103.156 19.832 103.646 17.4107 104.628 15.384C105.609 13.336 106.996 11.7147 108.788 10.52C110.58 9.32533 112.702 8.61067 115.156 8.376V12.408C113.662 12.664 112.478 13.656 111.604 15.384C110.729 17.112 110.292 19.5333 110.292 22.648C110.292 24.5253 110.452 26.2213 110.772 27.736C111.092 29.2293 111.604 30.4453 112.308 31.384C113.033 32.344 113.982 32.9307 115.156 33.144V37.208ZM117.459 31V9.912L124.211 8.92V18.264C124.659 17.1547 125.363 16.2907 126.323 15.672C127.283 15.0533 128.435 14.744 129.779 14.744C131.87 14.744 133.491 15.4693 134.643 16.92C135.795 18.3493 136.371 20.376 136.371 23V31H129.619V22.648C129.619 20.7493 128.851 19.8 127.315 19.8C126.398 19.8 125.651 20.1413 125.075 20.824C124.499 21.4853 124.211 22.3813 124.211 23.512V31H117.459ZM138.126 37.208V33.144C139.641 32.888 140.835 31.8853 141.71 30.136C142.585 28.3653 143.022 25.8693 143.022 22.648C143.022 19.6827 142.595 17.304 141.742 15.512C140.91 13.6987 139.705 12.664 138.126 12.408V8.376C140.793 8.632 143.011 9.41067 144.782 10.712C146.553 11.992 147.886 13.656 148.782 15.704C149.678 17.752 150.126 20.0667 150.126 22.648C150.126 25.4 149.646 27.832 148.686 29.944C147.747 32.0347 146.382 33.7093 144.59 34.968C142.819 36.2267 140.665 36.9733 138.126 37.208Z" fill="black"/>
<path d="M476.386 88.512C473.826 88.512 471.693 87.9573 469.986 86.848C468.279 85.7387 466.914 84.1387 465.89 82.048V88H452.45V45.824L466.018 43.84V62.528C467.042 60.096 468.493 58.3253 470.37 57.216C472.29 56.064 474.295 55.488 476.386 55.488C479.373 55.488 482.039 56.192 484.386 57.6C486.775 58.9653 488.653 60.864 490.018 63.296C491.426 65.728 492.13 68.5653 492.13 71.808C492.13 75.0507 491.426 77.9307 490.018 80.448C488.653 82.9653 486.775 84.9493 484.386 86.4C482.039 87.808 479.373 88.512 476.386 88.512ZM472.226 78.4C474.061 78.4 475.597 77.7813 476.834 76.544C478.071 75.3067 478.69 73.792 478.69 72C478.69 70.208 478.071 68.6933 476.834 67.456C475.597 66.2187 474.061 65.6 472.226 65.6C470.477 65.6 468.983 66.1973 467.746 67.392C466.509 68.544 465.89 70.0373 465.89 71.872C465.89 73.7067 466.509 75.264 467.746 76.544C468.983 77.7813 470.477 78.4 472.226 78.4ZM505.88 88L515.608 71.36L506.52 55.936H520.024L523.608 63.488L527.32 55.936H540.44L531.48 71.36L541.08 88H527.96L523.608 79.808L519.384 88H505.88ZM556.075 88V45.824L569.579 43.84V62.528C570.475 60.3093 571.883 58.5813 573.803 57.344C575.723 56.1067 578.027 55.488 580.715 55.488C584.896 55.488 588.139 56.9387 590.443 59.84C592.747 62.6987 593.899 66.752 593.899 72V88H580.395V71.296C580.395 67.4987 578.859 65.6 575.787 65.6C573.952 65.6 572.459 66.2827 571.307 67.648C570.155 68.9707 569.579 70.7627 569.579 73.024V88H556.075Z" fill="black"/>
<line x1="372" y1="65" x2="432" y2="65" stroke="black" stroke-width="8"/>
<line x1="372" y1="87" x2="432" y2="87" stroke="black" stroke-width="8"/>
<path d="M200.08 187H191.76V164.984H200.752C204.272 164.984 206.853 165.475 208.496 166.456C210.139 167.416 210.96 168.749 210.96 170.456C210.96 172.675 209.797 174.2 207.472 175.032C210.459 175.608 211.952 177.368 211.952 180.312C211.952 182.573 210.917 184.259 208.848 185.368C206.8 186.456 203.877 187 200.08 187ZM198.896 173.688H201.424C202.277 173.688 202.971 173.496 203.504 173.112C204.037 172.728 204.304 172.216 204.304 171.576C204.304 170.104 203.301 169.368 201.296 169.368H198.896V173.688ZM201.616 182.488C202.683 182.488 203.504 182.275 204.08 181.848C204.656 181.421 204.944 180.824 204.944 180.056C204.944 179.224 204.656 178.584 204.08 178.136C203.504 177.667 202.683 177.432 201.616 177.432H198.864V182.488H201.616ZM221.422 187.256C219.95 187.256 218.617 186.904 217.422 186.2C216.227 185.475 215.278 184.483 214.574 183.224C213.891 181.965 213.55 180.525 213.55 178.904C213.55 177.283 213.891 175.864 214.574 174.648C215.278 173.432 216.227 172.483 217.422 171.8C218.617 171.096 219.95 170.744 221.422 170.744C222.467 170.744 223.481 171.032 224.462 171.608C225.443 172.184 226.201 173.133 226.734 174.456V170.968H233.39V187H226.67V184.024C226.158 185.069 225.475 185.869 224.622 186.424C223.769 186.979 222.702 187.256 221.422 187.256ZM223.502 182.2C224.377 182.2 225.123 181.891 225.742 181.272C226.361 180.632 226.67 179.853 226.67 178.936C226.67 178.019 226.361 177.272 225.742 176.696C225.123 176.099 224.377 175.8 223.502 175.8C222.585 175.8 221.817 176.109 221.198 176.728C220.579 177.347 220.27 178.104 220.27 179C220.27 179.896 220.579 180.653 221.198 181.272C221.817 181.891 222.585 182.2 223.502 182.2ZM241.752 187.256C240.792 187.256 239.821 187.16 238.84 186.968C237.859 186.776 236.973 186.509 236.184 186.168L237.112 182.136C237.603 182.392 238.275 182.616 239.128 182.808C239.981 182.979 240.739 183.064 241.4 183.064C242.467 183.064 243 182.776 243 182.2C243 181.923 242.829 181.72 242.488 181.592C242.168 181.464 241.741 181.357 241.208 181.272C240.696 181.165 240.141 181.037 239.544 180.888C238.947 180.717 238.381 180.472 237.848 180.152C237.336 179.811 236.909 179.331 236.568 178.712C236.248 178.093 236.088 177.283 236.088 176.28C236.088 174.595 236.749 173.251 238.072 172.248C239.416 171.245 241.251 170.744 243.576 170.744C244.472 170.744 245.304 170.808 246.072 170.936C246.861 171.064 247.608 171.331 248.312 171.736L247.64 175.64C246.509 175.171 245.325 174.936 244.088 174.936C243.299 174.936 242.723 175 242.36 175.128C242.019 175.256 241.848 175.469 241.848 175.768C241.848 176.003 242.019 176.184 242.36 176.312C242.701 176.44 243.139 176.568 243.672 176.696C244.227 176.803 244.803 176.963 245.4 177.176C245.997 177.368 246.563 177.645 247.096 178.008C247.651 178.371 248.099 178.861 248.44 179.48C248.781 180.077 248.952 180.856 248.952 181.816C248.952 183.523 248.323 184.856 247.064 185.816C245.805 186.776 244.035 187.256 241.752 187.256ZM261.146 182.776C261.764 182.776 262.415 182.712 263.098 182.584C263.802 182.456 264.516 182.221 265.242 181.88L266.01 186.008C265.22 186.413 264.356 186.723 263.418 186.936C262.5 187.149 261.444 187.256 260.25 187.256C258.095 187.256 256.282 186.904 254.81 186.2C253.359 185.496 252.26 184.525 251.514 183.288C250.767 182.051 250.394 180.621 250.394 179C250.394 177.336 250.788 175.885 251.578 174.648C252.388 173.411 253.466 172.451 254.81 171.768C256.154 171.085 257.636 170.744 259.258 170.744C261.668 170.744 263.514 171.501 264.794 173.016C266.074 174.509 266.714 176.643 266.714 179.416L257.178 180.632C257.882 182.061 259.204 182.776 261.146 182.776ZM256.666 177.688L261.69 176.632C261.604 175.949 261.37 175.448 260.986 175.128C260.602 174.787 260.122 174.616 259.546 174.616C258.692 174.616 258.01 174.915 257.498 175.512C257.007 176.088 256.73 176.813 256.666 177.688ZM279.984 193.208C277.402 192.973 275.216 192.205 273.424 190.904C271.632 189.624 270.277 187.928 269.36 185.816C268.442 183.704 267.984 181.315 267.984 178.648C267.984 175.832 268.474 173.411 269.456 171.384C270.437 169.336 271.824 167.715 273.616 166.52C275.408 165.325 277.53 164.611 279.984 164.376V168.408C278.49 168.664 277.306 169.656 276.432 171.384C275.557 173.112 275.12 175.533 275.12 178.648C275.12 180.525 275.28 182.221 275.6 183.736C275.92 185.229 276.432 186.445 277.136 187.384C277.861 188.344 278.81 188.931 279.984 189.144V193.208ZM294.256 187.256C292.976 187.256 291.909 186.979 291.056 186.424C290.202 185.869 289.52 185.069 289.008 184.024V187H282.288V165.912L289.072 164.92V174.264C289.584 173.048 290.309 172.163 291.248 171.608C292.208 171.032 293.21 170.744 294.256 170.744C295.749 170.744 297.082 171.096 298.256 171.8C299.45 172.483 300.389 173.432 301.072 174.648C301.776 175.864 302.128 177.283 302.128 178.904C302.128 180.525 301.776 181.965 301.072 183.224C300.389 184.483 299.45 185.475 298.256 186.2C297.082 186.904 295.749 187.256 294.256 187.256ZM292.176 182.2C293.093 182.2 293.861 181.891 294.48 181.272C295.098 180.653 295.408 179.896 295.408 179C295.408 178.104 295.098 177.347 294.48 176.728C293.861 176.109 293.093 175.8 292.176 175.8C291.301 175.8 290.554 176.099 289.936 176.696C289.317 177.272 289.008 178.019 289.008 178.936C289.008 179.853 289.317 180.632 289.936 181.272C290.554 181.891 291.301 182.2 292.176 182.2ZM302.36 193.208V189.144C303.875 188.888 305.07 187.885 305.944 186.136C306.819 184.365 307.256 181.869 307.256 178.648C307.256 175.683 306.83 173.304 305.976 171.512C305.144 169.699 303.939 168.664 302.36 168.408V164.376C305.027 164.632 307.246 165.411 309.016 166.712C310.787 167.992 312.12 169.656 313.016 171.704C313.912 173.752 314.36 176.067 314.36 178.648C314.36 181.4 313.88 183.832 312.92 185.944C311.982 188.035 310.616 189.709 308.824 190.968C307.054 192.227 304.899 192.973 302.36 193.208Z" fill="black"/>
<rect x="131" y="41" width="227" height="86" stroke="black" stroke-width="8"/>
</svg>
