<svg width="384" height="221" viewBox="0 0 384 221" fill="none" xmlns="http://www.w3.org/2000/svg">
<path d="M0.197656 18V4.22H4.85766C7.12432 4.22 8.83099 4.59333 9.97766 5.34C11.1377 6.07333 11.7177 7.16 11.7177 8.6C11.7177 9.6 11.4643 10.4533 10.9577 11.16C10.4643 11.8533 9.76432 12.3867 8.85766 12.76C7.95099 13.12 6.88432 13.3 5.65766 13.3H4.61766V18H0.197656ZM5.47766 10.52C6.18432 10.52 6.73099 10.3733 7.11766 10.08C7.50432 9.78667 7.69766 9.34667 7.69766 8.76C7.69766 8.21333 7.51099 7.80667 7.13766 7.54C6.76432 7.26 6.22432 7.12 5.51766 7.12H4.61766V10.52H5.47766ZM13.0469 18V7.98H17.2069V10.48C17.4735 9.57333 17.8869 8.90667 18.4469 8.48C19.0202 8.05333 19.7002 7.84 20.4869 7.84L20.9869 11.38C20.6669 11.34 20.3535 11.32 20.0469 11.32C18.1935 11.32 17.2669 12.08 17.2669 13.6V18H13.0469ZM25.6922 18.16C24.7989 18.16 24.0722 18 23.5122 17.68C22.9655 17.36 22.5655 16.9267 22.3122 16.38C22.0589 15.8333 21.9322 15.22 21.9322 14.54V7.98H26.1522V13.96C26.1522 14.2667 26.2389 14.5067 26.4122 14.68C26.5989 14.84 26.8189 14.92 27.0722 14.92C27.3389 14.92 27.6122 14.84 27.8922 14.68L28.1122 17.46C27.8189 17.6867 27.4389 17.86 26.9722 17.98C26.5055 18.1 26.0789 18.16 25.6922 18.16ZM24.0522 6.88C23.4389 6.88 22.9122 6.68667 22.4722 6.3C22.0322 5.9 21.8122 5.41333 21.8122 4.84C21.8122 4.44 21.9189 4.09333 22.1322 3.8C22.3455 3.49333 22.6255 3.25333 22.9722 3.08C23.3189 2.90667 23.6789 2.82 24.0522 2.82C24.4655 2.82 24.8389 2.91333 25.1722 3.1C25.5189 3.28667 25.7922 3.53333 25.9922 3.84C26.2055 4.14667 26.3122 4.48 26.3122 4.84C26.3122 5.24 26.1989 5.59333 25.9722 5.9C25.7589 6.20667 25.4789 6.44667 25.1322 6.62C24.7989 6.79333 24.4389 6.88 24.0522 6.88ZM29.1406 18V7.98H33.3006V10.16C33.594 9.41333 34.014 8.84 34.5606 8.44C35.1206 8.04 35.8206 7.84 36.6606 7.84C37.4873 7.84 38.1873 8.04667 38.7606 8.46C39.3473 8.86 39.7606 9.38 40.0006 10.02C40.454 9.34 40.9873 8.80667 41.6006 8.42C42.2273 8.03333 42.9806 7.84 43.8606 7.84C45.1006 7.84 46.0606 8.29333 46.7406 9.2C47.4206 10.0933 47.7606 11.36 47.7606 13V18H43.5406V12.78C43.5406 11.5933 43.1206 11 42.2806 11C41.7606 11 41.3406 11.2133 41.0206 11.64C40.714 12.0533 40.5606 12.6133 40.5606 13.32V18H36.3406V12.78C36.3406 12.1533 36.234 11.7 36.0206 11.42C35.8073 11.14 35.494 11 35.0806 11C34.5606 11 34.1406 11.2067 33.8206 11.62C33.514 12.02 33.3606 12.5867 33.3606 13.32V18H29.1406ZM55.888 15.36C56.2746 15.36 56.6813 15.32 57.108 15.24C57.548 15.16 57.9946 15.0133 58.448 14.8L58.928 17.38C58.4346 17.6333 57.8946 17.8267 57.308 17.96C56.7346 18.0933 56.0746 18.16 55.328 18.16C53.9813 18.16 52.848 17.94 51.928 17.5C51.0213 17.06 50.3346 16.4533 49.868 15.68C49.4013 14.9067 49.168 14.0133 49.168 13C49.168 11.96 49.4146 11.0533 49.908 10.28C50.4146 9.50667 51.088 8.90667 51.928 8.48C52.768 8.05333 53.6946 7.84 54.708 7.84C56.2146 7.84 57.368 8.31333 58.168 9.26C58.968 10.1933 59.368 11.5267 59.368 13.26L53.408 14.02C53.848 14.9133 54.6746 15.36 55.888 15.36ZM53.088 12.18L56.228 11.52C56.1746 11.0933 56.028 10.78 55.788 10.58C55.548 10.3667 55.248 10.26 54.888 10.26C54.3546 10.26 53.928 10.4467 53.608 10.82C53.3013 11.18 53.128 11.6333 53.088 12.18ZM64.4617 18.16C63.5684 18.16 62.8417 18 62.2817 17.68C61.7351 17.36 61.3351 16.9267 61.0817 16.38C60.8284 15.8333 60.7017 15.22 60.7017 14.54V7.98H64.9217V13.96C64.9217 14.2667 65.0084 14.5067 65.1817 14.68C65.3684 14.84 65.5884 14.92 65.8417 14.92C66.1084 14.92 66.3817 14.84 66.6617 14.68L66.8817 17.46C66.5884 17.6867 66.2084 17.86 65.7417 17.98C65.2751 18.1 64.8484 18.16 64.4617 18.16ZM62.8217 6.88C62.2084 6.88 61.6817 6.68667 61.2417 6.3C60.8017 5.9 60.5817 5.41333 60.5817 4.84C60.5817 4.44 60.6884 4.09333 60.9017 3.8C61.1151 3.49333 61.3951 3.25333 61.7417 3.08C62.0884 2.90667 62.4484 2.82 62.8217 2.82C63.2351 2.82 63.6084 2.91333 63.9417 3.1C64.2884 3.28667 64.5617 3.53333 64.7617 3.84C64.9751 4.14667 65.0817 4.48 65.0817 4.84C65.0817 5.24 64.9684 5.59333 64.7417 5.9C64.5284 6.20667 64.2484 6.44667 63.9017 6.62C63.5684 6.79333 63.2084 6.88 62.8217 6.88ZM67.9102 18V7.98H72.0702V10.48C72.3368 9.57333 72.7502 8.90667 73.3102 8.48C73.8835 8.05333 74.5635 7.84 75.3502 7.84L75.8502 11.38C75.5302 11.34 75.2168 11.32 74.9102 11.32C73.0568 11.32 72.1302 12.08 72.1302 13.6V18H67.9102ZM81.8225 18.16C80.6892 18.16 79.6892 17.94 78.8225 17.5C77.9558 17.06 77.2758 16.4533 76.7825 15.68C76.3025 14.8933 76.0625 13.9933 76.0625 12.98C76.0625 11.94 76.3092 11.04 76.8025 10.28C77.3092 9.50667 77.9958 8.90667 78.8625 8.48C79.7292 8.05333 80.7225 7.84 81.8425 7.84C82.9892 7.84 83.9958 8.06 84.8625 8.5C85.7292 8.92667 86.4025 9.52667 86.8825 10.3C87.3625 11.06 87.6025 11.9533 87.6025 12.98C87.6025 14.0067 87.3558 14.9133 86.8625 15.7C86.3825 16.4733 85.7092 17.08 84.8425 17.52C83.9758 17.9467 82.9692 18.16 81.8225 18.16ZM81.8625 15.16C82.4092 15.16 82.8558 14.96 83.2025 14.56C83.5625 14.1467 83.7425 13.62 83.7425 12.98C83.7425 12.34 83.5692 11.82 83.2225 11.42C82.8758 11.0067 82.4358 10.8 81.9025 10.8C81.3292 10.8 80.8625 11.0067 80.5025 11.42C80.1558 11.82 79.9825 12.34 79.9825 12.98C79.9825 13.62 80.1558 14.1467 80.5025 14.56C80.8625 14.96 81.3158 15.16 81.8625 15.16ZM89.4039 21.38L88.7039 19.62C89.8772 19.22 90.4639 18.72 90.4639 18.12C89.9306 18.12 89.4839 17.9267 89.1239 17.54C88.7772 17.1533 88.6039 16.6667 88.6039 16.08C88.6039 15.4933 88.8039 15.0133 89.2039 14.64C89.6172 14.2533 90.1506 14.06 90.8039 14.06C91.5239 14.06 92.0839 14.3133 92.4839 14.82C92.8972 15.3133 93.1039 15.9933 93.1039 16.86C93.1039 17.9933 92.7839 18.9533 92.1439 19.74C91.5039 20.5267 90.5906 21.0733 89.4039 21.38ZM103.378 18.16C102.258 18.16 101.291 17.94 100.478 17.5C99.6642 17.06 99.0375 16.46 98.5975 15.7C98.1575 14.9267 97.9375 14.04 97.9375 13.04C97.9375 12.0533 98.1642 11.1667 98.6175 10.38C99.0708 9.59333 99.7042 8.97333 100.518 8.52C101.344 8.06667 102.298 7.84 103.378 7.84C104.671 7.84 105.691 8.10667 106.438 8.64L105.998 11.36C105.664 11.2133 105.351 11.1133 105.058 11.06C104.764 10.9933 104.484 10.96 104.218 10.96C103.564 10.96 103.044 11.1467 102.658 11.52C102.284 11.88 102.098 12.3733 102.098 13C102.098 13.6133 102.284 14.1133 102.658 14.5C103.031 14.8733 103.524 15.06 104.138 15.06C104.671 15.06 105.298 14.9467 106.018 14.72L106.398 17.52C105.958 17.7333 105.498 17.8933 105.018 18C104.551 18.1067 104.004 18.16 103.378 18.16ZM112.233 18.16C111.313 18.16 110.479 17.94 109.733 17.5C108.986 17.0467 108.393 16.4267 107.953 15.64C107.526 14.8533 107.313 13.9533 107.313 12.94C107.313 11.9267 107.526 11.04 107.953 10.28C108.393 9.52 108.986 8.92667 109.733 8.5C110.479 8.06 111.313 7.84 112.233 7.84C112.886 7.84 113.519 8.02 114.133 8.38C114.746 8.74 115.219 9.33333 115.553 10.16V7.98H119.713V18H115.513V16.14C115.193 16.7933 114.766 17.2933 114.233 17.64C113.699 17.9867 113.033 18.16 112.233 18.16ZM113.533 15C114.079 15 114.546 14.8067 114.933 14.42C115.319 14.02 115.513 13.5333 115.513 12.96C115.513 12.3867 115.319 11.92 114.933 11.56C114.546 11.1867 114.079 11 113.533 11C112.959 11 112.479 11.1933 112.092 11.58C111.706 11.9667 111.513 12.44 111.513 13C111.513 13.56 111.706 14.0333 112.092 14.42C112.479 14.8067 112.959 15 113.533 15ZM125.659 18.16C124.712 18.16 123.939 18 123.339 17.68C122.752 17.36 122.325 16.9267 122.059 16.38C121.792 15.8333 121.659 15.22 121.659 14.54V4.42L125.879 3.8V13.96C125.879 14.2667 125.979 14.5067 126.179 14.68C126.379 14.84 126.639 14.92 126.959 14.92C127.279 14.92 127.599 14.84 127.919 14.68L128.219 17.46C127.899 17.6867 127.492 17.86 126.999 17.98C126.505 18.1 126.059 18.16 125.659 18.16ZM134.061 18.16C132.941 18.16 131.974 17.94 131.161 17.5C130.348 17.06 129.721 16.46 129.281 15.7C128.841 14.9267 128.621 14.04 128.621 13.04C128.621 12.0533 128.848 11.1667 129.301 10.38C129.754 9.59333 130.388 8.97333 131.201 8.52C132.028 8.06667 132.981 7.84 134.061 7.84C135.354 7.84 136.374 8.10667 137.121 8.64L136.681 11.36C136.348 11.2133 136.034 11.1133 135.741 11.06C135.448 10.9933 135.168 10.96 134.901 10.96C134.248 10.96 133.728 11.1467 133.341 11.52C132.968 11.88 132.781 12.3733 132.781 13C132.781 13.6133 132.968 14.1133 133.341 14.5C133.714 14.8733 134.208 15.06 134.821 15.06C135.354 15.06 135.981 14.9467 136.701 14.72L137.081 17.52C136.641 17.7333 136.181 17.8933 135.701 18C135.234 18.1067 134.688 18.16 134.061 18.16ZM143.913 18.16C142.22 18.16 140.893 17.7333 139.933 16.88C138.987 16.0133 138.513 14.82 138.513 13.3V7.98H142.633V13.48C142.633 14.0133 142.747 14.4067 142.973 14.66C143.213 14.9133 143.533 15.04 143.933 15.04C144.32 15.04 144.62 14.9133 144.833 14.66C145.06 14.4067 145.173 14.0133 145.173 13.48V7.98H149.213V13.3C149.213 14.8333 148.747 16.0267 147.813 16.88C146.893 17.7333 145.593 18.16 143.913 18.16ZM155.053 18.16C154.107 18.16 153.333 18 152.733 17.68C152.147 17.36 151.72 16.9267 151.453 16.38C151.187 15.8333 151.053 15.22 151.053 14.54V4.42L155.273 3.8V13.96C155.273 14.2667 155.373 14.5067 155.573 14.68C155.773 14.84 156.033 14.92 156.353 14.92C156.673 14.92 156.993 14.84 157.313 14.68L157.613 17.46C157.293 17.6867 156.887 17.86 156.393 17.98C155.9 18.1 155.453 18.16 155.053 18.16ZM164.736 15.36C165.122 15.36 165.529 15.32 165.956 15.24C166.396 15.16 166.842 15.0133 167.296 14.8L167.776 17.38C167.282 17.6333 166.742 17.8267 166.156 17.96C165.582 18.0933 164.922 18.16 164.176 18.16C162.829 18.16 161.696 17.94 160.776 17.5C159.869 17.06 159.182 16.4533 158.716 15.68C158.249 14.9067 158.016 14.0133 158.016 13C158.016 11.96 158.262 11.0533 158.756 10.28C159.262 9.50667 159.936 8.90667 160.776 8.48C161.616 8.05333 162.542 7.84 163.556 7.84C165.062 7.84 166.216 8.31333 167.016 9.26C167.816 10.1933 168.216 11.5267 168.216 13.26L162.256 14.02C162.696 14.9133 163.522 15.36 164.736 15.36ZM161.936 12.18L165.076 11.52C165.022 11.0933 164.876 10.78 164.636 10.58C164.396 10.3667 164.096 10.26 163.736 10.26C163.202 10.26 162.776 10.4467 162.456 10.82C162.149 11.18 161.976 11.6333 161.936 12.18ZM177.76 18.16C176.84 18.16 176.007 17.94 175.26 17.5C174.513 17.0467 173.92 16.4267 173.48 15.64C173.053 14.8533 172.84 13.9533 172.84 12.94C172.84 11.9267 173.053 11.04 173.48 10.28C173.92 9.52 174.513 8.92667 175.26 8.5C176.007 8.06 176.84 7.84 177.76 7.84C178.413 7.84 179.047 8.02 179.66 8.38C180.273 8.74 180.747 9.33333 181.08 10.16V7.98H185.24V18H181.04V16.14C180.72 16.7933 180.293 17.2933 179.76 17.64C179.227 17.9867 178.56 18.16 177.76 18.16ZM179.06 15C179.607 15 180.073 14.8067 180.46 14.42C180.847 14.02 181.04 13.5333 181.04 12.96C181.04 12.3867 180.847 11.92 180.46 11.56C180.073 11.1867 179.607 11 179.06 11C178.487 11 178.007 11.1933 177.62 11.58C177.233 11.9667 177.04 12.44 177.04 13C177.04 13.56 177.233 14.0333 177.62 14.42C178.007 14.8067 178.487 15 179.06 15ZM195.397 18.16C194.477 18.16 193.643 17.94 192.897 17.5C192.15 17.0467 191.557 16.4267 191.117 15.64C190.69 14.8533 190.477 13.9533 190.477 12.94C190.477 11.9267 190.69 11.04 191.117 10.28C191.557 9.52 192.15 8.92667 192.897 8.5C193.643 8.06 194.477 7.84 195.397 7.84C196.05 7.84 196.683 8.02 197.297 8.38C197.91 8.74 198.383 9.33333 198.717 10.16V7.98H202.877V18H198.677V16.14C198.357 16.7933 197.93 17.2933 197.397 17.64C196.863 17.9867 196.197 18.16 195.397 18.16ZM196.697 15C197.243 15 197.71 14.8067 198.097 14.42C198.483 14.02 198.677 13.5333 198.677 12.96C198.677 12.3867 198.483 11.92 198.097 11.56C197.71 11.1867 197.243 11 196.697 11C196.123 11 195.643 11.1933 195.257 11.58C194.87 11.9667 194.677 12.44 194.677 13C194.677 13.56 194.87 14.0333 195.257 14.42C195.643 14.8067 196.123 15 196.697 15ZM194.717 6.88L193.497 4.74L199.357 0.639999L201.377 4.22L194.717 6.88ZM204.883 18V7.98H209.043V10.48C209.309 9.57333 209.723 8.90667 210.283 8.48C210.856 8.05333 211.536 7.84 212.323 7.84L212.823 11.38C212.503 11.34 212.189 11.32 211.883 11.32C210.029 11.32 209.103 12.08 209.103 13.6V18H204.883ZM219.755 15.36C220.142 15.36 220.548 15.32 220.975 15.24C221.415 15.16 221.862 15.0133 222.315 14.8L222.795 17.38C222.302 17.6333 221.762 17.8267 221.175 17.96C220.602 18.0933 219.942 18.16 219.195 18.16C217.848 18.16 216.715 17.94 215.795 17.5C214.888 17.06 214.202 16.4533 213.735 15.68C213.268 14.9067 213.035 14.0133 213.035 13C213.035 11.96 213.282 11.0533 213.775 10.28C214.282 9.50667 214.955 8.90667 215.795 8.48C216.635 8.05333 217.562 7.84 218.575 7.84C220.082 7.84 221.235 8.31333 222.035 9.26C222.835 10.1933 223.235 11.5267 223.235 13.26L217.275 14.02C217.715 14.9133 218.542 15.36 219.755 15.36ZM216.955 12.18L220.095 11.52C220.042 11.0933 219.895 10.78 219.655 10.58C219.415 10.3667 219.115 10.26 218.755 10.26C218.222 10.26 217.795 10.4467 217.475 10.82C217.168 11.18 216.995 11.6333 216.955 12.18ZM229.049 18.16C228.129 18.16 227.296 17.94 226.549 17.5C225.802 17.0467 225.209 16.4267 224.769 15.64C224.342 14.8533 224.129 13.9533 224.129 12.94C224.129 11.9267 224.342 11.04 224.769 10.28C225.209 9.52 225.802 8.92667 226.549 8.5C227.296 8.06 228.129 7.84 229.049 7.84C229.702 7.84 230.336 8.02 230.949 8.38C231.562 8.74 232.036 9.33333 232.369 10.16V7.98H236.529V18H232.329V16.14C232.009 16.7933 231.582 17.2933 231.049 17.64C230.516 17.9867 229.849 18.16 229.049 18.16ZM230.349 15C230.896 15 231.362 14.8067 231.749 14.42C232.136 14.02 232.329 13.5333 232.329 12.96C232.329 12.3867 232.136 11.92 231.749 11.56C231.362 11.1867 230.896 11 230.349 11C229.776 11 229.296 11.1933 228.909 11.58C228.522 11.9667 228.329 12.44 228.329 13C228.329 13.56 228.522 14.0333 228.909 14.42C229.296 14.8067 229.776 15 230.349 15ZM246.686 18.16C245.766 18.16 244.932 17.94 244.186 17.5C243.439 17.0467 242.846 16.4267 242.406 15.64C241.979 14.8533 241.766 13.9533 241.766 12.94C241.766 11.9267 241.979 11.04 242.406 10.28C242.846 9.52 243.439 8.92667 244.186 8.5C244.932 8.06 245.766 7.84 246.686 7.84C247.339 7.84 247.966 8.02 248.566 8.38C249.179 8.72667 249.632 9.29333 249.926 10.08V4.82L254.146 4.2V18H249.966V16.14C249.646 16.7933 249.219 17.2933 248.686 17.64C248.152 17.9867 247.486 18.16 246.686 18.16ZM247.986 15C248.532 15 248.999 14.8067 249.386 14.42C249.772 14.02 249.966 13.5333 249.966 12.96C249.966 12.3867 249.772 11.92 249.386 11.56C248.999 11.1867 248.532 11 247.986 11C247.412 11 246.932 11.1933 246.546 11.58C246.159 11.9667 245.966 12.44 245.966 13C245.966 13.56 246.159 14.0333 246.546 14.42C246.932 14.8067 247.412 15 247.986 15ZM261.412 18.16C260.279 18.16 259.279 17.94 258.412 17.5C257.546 17.06 256.866 16.4533 256.372 15.68C255.892 14.8933 255.652 13.9933 255.652 12.98C255.652 11.94 255.899 11.04 256.392 10.28C256.899 9.50667 257.586 8.90667 258.452 8.48C259.319 8.05333 260.312 7.84 261.432 7.84C262.579 7.84 263.586 8.06 264.452 8.5C265.319 8.92667 265.992 9.52667 266.472 10.3C266.952 11.06 267.192 11.9533 267.192 12.98C267.192 14.0067 266.946 14.9133 266.452 15.7C265.972 16.4733 265.299 17.08 264.432 17.52C263.566 17.9467 262.559 18.16 261.412 18.16ZM261.452 15.16C261.999 15.16 262.446 14.96 262.792 14.56C263.152 14.1467 263.332 13.62 263.332 12.98C263.332 12.34 263.159 11.82 262.812 11.42C262.466 11.0067 262.026 10.8 261.492 10.8C260.919 10.8 260.452 11.0067 260.092 11.42C259.746 11.82 259.572 12.34 259.572 12.98C259.572 13.62 259.746 14.1467 260.092 14.56C260.452 14.96 260.906 15.16 261.452 15.16ZM282.942 18.32C281.982 18.32 281.189 18.18 280.562 17.9C279.935 17.6067 279.435 17.2067 279.062 16.7C278.689 16.1933 278.409 15.6 278.222 14.92C278.035 14.24 277.909 13.5067 277.842 12.72H276.902V18H272.522V4.24H278.182C280.369 4.24 281.942 4.62667 282.902 5.4C283.875 6.16 284.362 7.19333 284.362 8.5C284.362 9.28667 284.149 9.99333 283.722 10.62C283.295 11.2333 282.609 11.7467 281.662 12.16C281.715 12.4533 281.762 12.6933 281.802 12.88C281.842 13.0667 281.902 13.2733 281.982 13.5C282.155 13.98 282.369 14.3133 282.622 14.5C282.889 14.6867 283.249 14.78 283.702 14.78C283.995 14.78 284.289 14.74 284.582 14.66L284.822 17.94C284.555 18.0467 284.269 18.1333 283.962 18.2C283.669 18.28 283.329 18.32 282.942 18.32ZM276.902 9.98H277.662C278.649 9.98 279.342 9.87333 279.742 9.66C280.155 9.43333 280.362 9.05333 280.362 8.52C280.362 8.06667 280.195 7.74 279.862 7.54C279.529 7.32667 279.002 7.22 278.282 7.22H276.902V9.98ZM292.158 15.36C292.544 15.36 292.951 15.32 293.378 15.24C293.818 15.16 294.264 15.0133 294.718 14.8L295.198 17.38C294.704 17.6333 294.164 17.8267 293.578 17.96C293.004 18.0933 292.344 18.16 291.598 18.16C290.251 18.16 289.118 17.94 288.198 17.5C287.291 17.06 286.604 16.4533 286.138 15.68C285.671 14.9067 285.438 14.0133 285.438 13C285.438 11.96 285.684 11.0533 286.178 10.28C286.684 9.50667 287.358 8.90667 288.198 8.48C289.038 8.05333 289.964 7.84 290.978 7.84C292.484 7.84 293.638 8.31333 294.438 9.26C295.238 10.1933 295.638 11.5267 295.638 13.26L289.678 14.02C290.118 14.9133 290.944 15.36 292.158 15.36ZM289.358 12.18L292.498 11.52C292.444 11.0933 292.298 10.78 292.058 10.58C291.818 10.3667 291.518 10.26 291.158 10.26C290.624 10.26 290.198 10.4467 289.878 10.82C289.571 11.18 289.398 11.6333 289.358 12.18ZM301.311 18.16C300.365 18.16 299.591 18 298.991 17.68C298.405 17.36 297.978 16.9267 297.711 16.38C297.445 15.8333 297.311 15.22 297.311 14.54V10.46H296.031V7.98H297.611L299.471 4.82H301.531V7.98H303.851V10.46H301.531V13.96C301.531 14.2667 301.631 14.5067 301.831 14.68C302.031 14.84 302.291 14.92 302.611 14.92C302.931 14.92 303.251 14.84 303.571 14.68L303.871 17.46C303.551 17.6867 303.145 17.86 302.651 17.98C302.158 18.1 301.711 18.16 301.311 18.16ZM309.537 18.16C308.617 18.16 307.784 17.94 307.037 17.5C306.291 17.0467 305.697 16.4267 305.257 15.64C304.831 14.8533 304.617 13.9533 304.617 12.94C304.617 11.9267 304.831 11.04 305.257 10.28C305.697 9.52 306.291 8.92667 307.037 8.5C307.784 8.06 308.617 7.84 309.537 7.84C310.191 7.84 310.824 8.02 311.437 8.38C312.051 8.74 312.524 9.33333 312.857 10.16V7.98H317.017V18H312.817V16.14C312.497 16.7933 312.071 17.2933 311.537 17.64C311.004 17.9867 310.337 18.16 309.537 18.16ZM310.837 15C311.384 15 311.851 14.8067 312.237 14.42C312.624 14.02 312.817 13.5333 312.817 12.96C312.817 12.3867 312.624 11.92 312.237 11.56C311.851 11.1867 311.384 11 310.837 11C310.264 11 309.784 11.1933 309.397 11.58C309.011 11.9667 308.817 12.44 308.817 13C308.817 13.56 309.011 14.0333 309.397 14.42C309.784 14.8067 310.264 15 310.837 15ZM306.757 6.68L309.217 1.7H312.917L315.377 6.68H312.057L311.297 4.56L311.057 3.8L310.857 4.56L310.077 6.68H306.757ZM319.023 18V7.98H323.183V10.16C323.49 9.41333 323.943 8.84 324.543 8.44C325.157 8.04 325.883 7.84 326.723 7.84C328.03 7.84 329.043 8.29333 329.763 9.2C330.483 10.0933 330.843 11.36 330.843 13V18H326.623V12.78C326.623 11.5933 326.143 11 325.183 11C324.61 11 324.143 11.2133 323.783 11.64C323.423 12.0533 323.243 12.6133 323.243 13.32V18H319.023ZM338.694 21.9C338.188 21.9 337.714 21.8667 337.274 21.8C336.834 21.7333 336.488 21.6533 336.234 21.56L336.554 18.66C336.794 18.7133 337.054 18.7533 337.334 18.78C337.614 18.82 337.888 18.84 338.154 18.84C339.048 18.84 339.688 18.6533 340.074 18.28C340.474 17.9067 340.674 17.3333 340.674 16.56V15.62C340.301 16.3533 339.841 16.8933 339.294 17.24C338.748 17.5867 338.061 17.76 337.234 17.76C336.288 17.76 335.434 17.5467 334.674 17.12C333.914 16.68 333.314 16.0867 332.874 15.34C332.448 14.58 332.234 13.7133 332.234 12.74C332.234 11.7667 332.448 10.9133 332.874 10.18C333.314 9.44667 333.914 8.87333 334.674 8.46C335.434 8.04667 336.288 7.84 337.234 7.84C337.901 7.84 338.541 8.02 339.154 8.38C339.768 8.72667 340.234 9.29333 340.554 10.08V7.98H344.754V15.66C344.754 17.7933 344.228 19.3667 343.174 20.38C342.121 21.3933 340.628 21.9 338.694 21.9ZM338.534 14.6C339.108 14.6 339.588 14.42 339.974 14.06C340.361 13.7 340.554 13.2667 340.554 12.76C340.554 12.2533 340.361 11.8333 339.974 11.5C339.588 11.1667 339.108 11 338.534 11C337.921 11 337.414 11.1733 337.014 11.52C336.628 11.8667 336.434 12.2933 336.434 12.8C336.434 13.2933 336.628 13.72 337.014 14.08C337.414 14.4267 337.921 14.6 338.534 14.6ZM352.058 18.16C350.364 18.16 349.038 17.7333 348.078 16.88C347.131 16.0133 346.658 14.82 346.658 13.3V7.98H350.778V13.48C350.778 14.0133 350.891 14.4067 351.118 14.66C351.358 14.9133 351.678 15.04 352.078 15.04C352.464 15.04 352.764 14.9133 352.978 14.66C353.204 14.4067 353.318 14.0133 353.318 13.48V7.98H357.358V13.3C357.358 14.8333 356.891 16.0267 355.958 16.88C355.038 17.7333 353.738 18.16 352.058 18.16ZM363.198 18.16C362.251 18.16 361.478 18 360.878 17.68C360.291 17.36 359.864 16.9267 359.598 16.38C359.331 15.8333 359.198 15.22 359.198 14.54V4.42L363.418 3.8V13.96C363.418 14.2667 363.518 14.5067 363.718 14.68C363.918 14.84 364.178 14.92 364.498 14.92C364.818 14.92 365.138 14.84 365.458 14.68L365.758 17.46C365.438 17.6867 365.031 17.86 364.538 17.98C364.044 18.1 363.598 18.16 363.198 18.16ZM371.92 18.16C370.787 18.16 369.787 17.94 368.92 17.5C368.053 17.06 367.373 16.4533 366.88 15.68C366.4 14.8933 366.16 13.9933 366.16 12.98C366.16 11.94 366.407 11.04 366.9 10.28C367.407 9.50667 368.093 8.90667 368.96 8.48C369.827 8.05333 370.82 7.84 371.94 7.84C373.087 7.84 374.093 8.06 374.96 8.5C375.827 8.92667 376.5 9.52667 376.98 10.3C377.46 11.06 377.7 11.9533 377.7 12.98C377.7 14.0067 377.453 14.9133 376.96 15.7C376.48 16.4733 375.807 17.08 374.94 17.52C374.073 17.9467 373.067 18.16 371.92 18.16ZM371.96 15.16C372.507 15.16 372.953 14.96 373.3 14.56C373.66 14.1467 373.84 13.62 373.84 12.98C373.84 12.34 373.667 11.82 373.32 11.42C372.973 11.0067 372.533 10.8 372 10.8C371.427 10.8 370.96 11.0067 370.6 11.42C370.253 11.82 370.08 12.34 370.08 12.98C370.08 13.62 370.253 14.1467 370.6 14.56C370.96 14.96 371.413 15.16 371.96 15.16ZM381.059 18.12C380.326 18.12 379.766 17.9267 379.379 17.54C378.993 17.14 378.799 16.6533 378.799 16.08C378.799 15.4933 379.006 15.0133 379.419 14.64C379.833 14.2533 380.379 14.06 381.059 14.06C381.739 14.06 382.279 14.26 382.679 14.66C383.093 15.06 383.299 15.5333 383.299 16.08C383.299 16.6933 383.106 17.1867 382.719 17.56C382.346 17.9333 381.793 18.12 381.059 18.12ZM381.059 11.84C380.326 11.84 379.766 11.6467 379.379 11.26C378.993 10.86 378.799 10.3733 378.799 9.8C378.799 9.21333 379.006 8.73333 379.419 8.36C379.833 7.97333 380.379 7.78 381.059 7.78C381.739 7.78 382.279 7.98 382.679 8.38C383.093 8.78 383.299 9.25333 383.299 9.8C383.299 10.4133 383.106 10.9067 382.719 11.28C382.346 11.6533 381.793 11.84 381.059 11.84Z" fill="black"/>
<path d="M33.5414 112V98.24H38.3214C40.3214 98.24 41.9481 98.5267 43.2014 99.1C44.4681 99.6733 45.3947 100.467 45.9814 101.48C46.5814 102.493 46.8814 103.673 46.8814 105.02C46.8814 107.22 46.1547 108.933 44.7014 110.16C43.2614 111.387 41.0681 112 38.1214 112H33.5414ZM37.9614 108.5H39.2414C40.3081 108.5 41.1014 108.18 41.6214 107.54C42.1414 106.887 42.4014 106.033 42.4014 104.98C42.4014 104.007 42.1481 103.227 41.6414 102.64C41.1481 102.04 40.3481 101.74 39.2414 101.74H37.9614V108.5ZM54.6223 109.36C55.009 109.36 55.4157 109.32 55.8423 109.24C56.2823 109.16 56.729 109.013 57.1823 108.8L57.6623 111.38C57.169 111.633 56.629 111.827 56.0423 111.96C55.469 112.093 54.809 112.16 54.0623 112.16C52.7157 112.16 51.5823 111.94 50.6623 111.5C49.7557 111.06 49.069 110.453 48.6023 109.68C48.1357 108.907 47.9023 108.013 47.9023 107C47.9023 105.96 48.149 105.053 48.6423 104.28C49.149 103.507 49.8223 102.907 50.6623 102.48C51.5023 102.053 52.429 101.84 53.4423 101.84C54.949 101.84 56.1023 102.313 56.9023 103.26C57.7023 104.193 58.1023 105.527 58.1023 107.26L52.1423 108.02C52.5823 108.913 53.409 109.36 54.6223 109.36ZM51.8223 106.18L54.9623 105.52C54.909 105.093 54.7623 104.78 54.5223 104.58C54.2823 104.367 53.9823 104.26 53.6223 104.26C53.089 104.26 52.6623 104.447 52.3423 104.82C52.0357 105.18 51.8623 105.633 51.8223 106.18ZM63.7161 115.16L59.4961 115.78V101.98H63.6561V104.16C64.0028 103.333 64.4761 102.74 65.0761 102.38C65.6894 102.02 66.3228 101.84 66.9761 101.84C67.9094 101.84 68.7428 102.06 69.4761 102.5C70.2228 102.927 70.8094 103.52 71.2361 104.28C71.6761 105.04 71.8961 105.927 71.8961 106.94C71.8961 107.953 71.6761 108.853 71.2361 109.64C70.8094 110.427 70.2228 111.047 69.4761 111.5C68.7428 111.94 67.9094 112.16 66.9761 112.16C66.1761 112.16 65.5094 111.987 64.9761 111.64C64.4428 111.293 64.0228 110.793 63.7161 110.14V115.16ZM65.6761 109C66.2494 109 66.7294 108.807 67.1161 108.42C67.5028 108.033 67.6961 107.56 67.6961 107C67.6961 106.44 67.5028 105.967 67.1161 105.58C66.7294 105.193 66.2494 105 65.6761 105C65.1294 105 64.6628 105.187 64.2761 105.56C63.8894 105.92 63.6961 106.387 63.6961 106.96C63.6961 107.533 63.8894 108.02 64.2761 108.42C64.6628 108.807 65.1294 109 65.6761 109ZM78.6623 112.16C77.529 112.16 76.529 111.94 75.6623 111.5C74.7957 111.06 74.1157 110.453 73.6223 109.68C73.1423 108.893 72.9023 107.993 72.9023 106.98C72.9023 105.94 73.149 105.04 73.6423 104.28C74.149 103.507 74.8357 102.907 75.7023 102.48C76.569 102.053 77.5623 101.84 78.6823 101.84C79.829 101.84 80.8357 102.06 81.7023 102.5C82.569 102.927 83.2423 103.527 83.7223 104.3C84.2023 105.06 84.4423 105.953 84.4423 106.98C84.4423 108.007 84.1957 108.913 83.7023 109.7C83.2223 110.473 82.549 111.08 81.6823 111.52C80.8157 111.947 79.809 112.16 78.6623 112.16ZM78.7023 109.16C79.249 109.16 79.6957 108.96 80.0423 108.56C80.4023 108.147 80.5823 107.62 80.5823 106.98C80.5823 106.34 80.409 105.82 80.0623 105.42C79.7157 105.007 79.2757 104.8 78.7423 104.8C78.169 104.8 77.7023 105.007 77.3423 105.42C76.9957 105.82 76.8223 106.34 76.8223 106.98C76.8223 107.62 76.9957 108.147 77.3423 108.56C77.7023 108.96 78.1557 109.16 78.7023 109.16ZM89.6414 112.16C88.7481 112.16 88.0214 112 87.4614 111.68C86.9147 111.36 86.5147 110.927 86.2614 110.38C86.0081 109.833 85.8814 109.22 85.8814 108.54V101.98H90.1014V107.96C90.1014 108.267 90.1881 108.507 90.3614 108.68C90.5481 108.84 90.7681 108.92 91.0214 108.92C91.2881 108.92 91.5614 108.84 91.8414 108.68L92.0614 111.46C91.7681 111.687 91.3881 111.86 90.9214 111.98C90.4547 112.1 90.0281 112.16 89.6414 112.16ZM88.0014 100.88C87.3881 100.88 86.8614 100.687 86.4214 100.3C85.9814 99.9 85.7614 99.4133 85.7614 98.84C85.7614 98.44 85.8681 98.0933 86.0814 97.8C86.2947 97.4933 86.5747 97.2533 86.9214 97.08C87.2681 96.9067 87.6281 96.82 88.0014 96.82C88.4147 96.82 88.7881 96.9133 89.1214 97.1C89.4681 97.2867 89.7414 97.5333 89.9414 97.84C90.1547 98.1467 90.2614 98.48 90.2614 98.84C90.2614 99.24 90.1481 99.5933 89.9214 99.9C89.7081 100.207 89.4281 100.447 89.0814 100.62C88.7481 100.793 88.3881 100.88 88.0014 100.88ZM96.3098 112.16C95.7098 112.16 95.1032 112.1 94.4898 111.98C93.8765 111.86 93.3232 111.693 92.8298 111.48L93.4098 108.96C93.7165 109.12 94.1365 109.26 94.6698 109.38C95.2032 109.487 95.6765 109.54 96.0898 109.54C96.7565 109.54 97.0898 109.36 97.0898 109C97.0898 108.827 96.9832 108.7 96.7698 108.62C96.5698 108.54 96.3032 108.473 95.9698 108.42C95.6498 108.353 95.3032 108.273 94.9298 108.18C94.5565 108.073 94.2032 107.92 93.8698 107.72C93.5498 107.507 93.2832 107.207 93.0698 106.82C92.8698 106.433 92.7698 105.927 92.7698 105.3C92.7698 104.247 93.1832 103.407 94.0098 102.78C94.8498 102.153 95.9965 101.84 97.4498 101.84C98.0098 101.84 98.5298 101.88 99.0098 101.96C99.5032 102.04 99.9698 102.207 100.41 102.46L99.9898 104.9C99.2832 104.607 98.5432 104.46 97.7698 104.46C97.2765 104.46 96.9165 104.5 96.6898 104.58C96.4765 104.66 96.3698 104.793 96.3698 104.98C96.3698 105.127 96.4765 105.24 96.6898 105.32C96.9032 105.4 97.1765 105.48 97.5098 105.56C97.8565 105.627 98.2165 105.727 98.5898 105.86C98.9632 105.98 99.3165 106.153 99.6498 106.38C99.9965 106.607 100.277 106.913 100.49 107.3C100.703 107.673 100.81 108.16 100.81 108.76C100.81 109.827 100.417 110.66 99.6298 111.26C98.8432 111.86 97.7365 112.16 96.3098 112.16ZM102.611 115.38L101.911 113.62C103.084 113.22 103.671 112.72 103.671 112.12C103.138 112.12 102.691 111.927 102.331 111.54C101.984 111.153 101.811 110.667 101.811 110.08C101.811 109.493 102.011 109.013 102.411 108.64C102.824 108.253 103.358 108.06 104.011 108.06C104.731 108.06 105.291 108.313 105.691 108.82C106.104 109.313 106.311 109.993 106.311 110.86C106.311 111.993 105.991 112.953 105.351 113.74C104.711 114.527 103.798 115.073 102.611 115.38ZM116.585 112.16C115.465 112.16 114.498 111.94 113.685 111.5C112.871 111.06 112.245 110.46 111.805 109.7C111.365 108.927 111.145 108.04 111.145 107.04C111.145 106.053 111.371 105.167 111.825 104.38C112.278 103.593 112.911 102.973 113.725 102.52C114.551 102.067 115.505 101.84 116.585 101.84C117.878 101.84 118.898 102.107 119.645 102.64L119.205 105.36C118.871 105.213 118.558 105.113 118.265 105.06C117.971 104.993 117.691 104.96 117.425 104.96C116.771 104.96 116.251 105.147 115.865 105.52C115.491 105.88 115.305 106.373 115.305 107C115.305 107.613 115.491 108.113 115.865 108.5C116.238 108.873 116.731 109.06 117.345 109.06C117.878 109.06 118.505 108.947 119.225 108.72L119.605 111.52C119.165 111.733 118.705 111.893 118.225 112C117.758 112.107 117.211 112.16 116.585 112.16ZM125.44 112.16C124.52 112.16 123.686 111.94 122.94 111.5C122.193 111.047 121.6 110.427 121.16 109.64C120.733 108.853 120.52 107.953 120.52 106.94C120.52 105.927 120.733 105.04 121.16 104.28C121.6 103.52 122.193 102.927 122.94 102.5C123.686 102.06 124.52 101.84 125.44 101.84C126.093 101.84 126.726 102.02 127.34 102.38C127.953 102.74 128.426 103.333 128.76 104.16V101.98H132.92V112H128.72V110.14C128.4 110.793 127.973 111.293 127.44 111.64C126.906 111.987 126.24 112.16 125.44 112.16ZM126.74 109C127.286 109 127.753 108.807 128.14 108.42C128.526 108.02 128.72 107.533 128.72 106.96C128.72 106.387 128.526 105.92 128.14 105.56C127.753 105.187 127.286 105 126.74 105C126.166 105 125.686 105.193 125.3 105.58C124.913 105.967 124.72 106.44 124.72 107C124.72 107.56 124.913 108.033 125.3 108.42C125.686 108.807 126.166 109 126.74 109ZM138.866 112.16C137.919 112.16 137.146 112 136.546 111.68C135.959 111.36 135.532 110.927 135.266 110.38C134.999 109.833 134.866 109.22 134.866 108.54V98.42L139.086 97.8V107.96C139.086 108.267 139.186 108.507 139.386 108.68C139.586 108.84 139.846 108.92 140.166 108.92C140.486 108.92 140.806 108.84 141.126 108.68L141.426 111.46C141.106 111.687 140.699 111.86 140.206 111.98C139.712 112.1 139.266 112.16 138.866 112.16ZM147.268 112.16C146.148 112.16 145.181 111.94 144.368 111.5C143.555 111.06 142.928 110.46 142.488 109.7C142.048 108.927 141.828 108.04 141.828 107.04C141.828 106.053 142.055 105.167 142.508 104.38C142.961 103.593 143.595 102.973 144.408 102.52C145.235 102.067 146.188 101.84 147.268 101.84C148.561 101.84 149.581 102.107 150.328 102.64L149.888 105.36C149.555 105.213 149.241 105.113 148.948 105.06C148.655 104.993 148.375 104.96 148.108 104.96C147.455 104.96 146.935 105.147 146.548 105.52C146.175 105.88 145.988 106.373 145.988 107C145.988 107.613 146.175 108.113 146.548 108.5C146.921 108.873 147.415 109.06 148.028 109.06C148.561 109.06 149.188 108.947 149.908 108.72L150.288 111.52C149.848 111.733 149.388 111.893 148.908 112C148.441 112.107 147.895 112.16 147.268 112.16ZM157.12 112.16C155.427 112.16 154.1 111.733 153.14 110.88C152.194 110.013 151.72 108.82 151.72 107.3V101.98H155.84V107.48C155.84 108.013 155.954 108.407 156.18 108.66C156.42 108.913 156.74 109.04 157.14 109.04C157.527 109.04 157.827 108.913 158.04 108.66C158.267 108.407 158.38 108.013 158.38 107.48V101.98H162.42V107.3C162.42 108.833 161.954 110.027 161.02 110.88C160.1 111.733 158.8 112.16 157.12 112.16ZM168.26 112.16C167.314 112.16 166.54 112 165.94 111.68C165.354 111.36 164.927 110.927 164.66 110.38C164.394 109.833 164.26 109.22 164.26 108.54V98.42L168.48 97.8V107.96C168.48 108.267 168.58 108.507 168.78 108.68C168.98 108.84 169.24 108.92 169.56 108.92C169.88 108.92 170.2 108.84 170.52 108.68L170.82 111.46C170.5 111.687 170.094 111.86 169.6 111.98C169.107 112.1 168.66 112.16 168.26 112.16ZM177.943 109.36C178.329 109.36 178.736 109.32 179.163 109.24C179.603 109.16 180.049 109.013 180.503 108.8L180.983 111.38C180.489 111.633 179.949 111.827 179.363 111.96C178.789 112.093 178.129 112.16 177.383 112.16C176.036 112.16 174.903 111.94 173.983 111.5C173.076 111.06 172.389 110.453 171.923 109.68C171.456 108.907 171.223 108.013 171.223 107C171.223 105.96 171.469 105.053 171.963 104.28C172.469 103.507 173.143 102.907 173.983 102.48C174.823 102.053 175.749 101.84 176.763 101.84C178.269 101.84 179.423 102.313 180.223 103.26C181.023 104.193 181.423 105.527 181.423 107.26L175.463 108.02C175.903 108.913 176.729 109.36 177.943 109.36ZM175.143 106.18L178.283 105.52C178.229 105.093 178.083 104.78 177.843 104.58C177.603 104.367 177.303 104.26 176.943 104.26C176.409 104.26 175.983 104.447 175.663 104.82C175.356 105.18 175.183 105.633 175.143 106.18ZM190.967 112.16C190.047 112.16 189.214 111.94 188.467 111.5C187.72 111.047 187.127 110.427 186.687 109.64C186.26 108.853 186.047 107.953 186.047 106.94C186.047 105.927 186.26 105.04 186.687 104.28C187.127 103.52 187.72 102.927 188.467 102.5C189.214 102.06 190.047 101.84 190.967 101.84C191.62 101.84 192.254 102.02 192.867 102.38C193.48 102.74 193.954 103.333 194.287 104.16V101.98H198.447V112H194.247V110.14C193.927 110.793 193.5 111.293 192.967 111.64C192.434 111.987 191.767 112.16 190.967 112.16ZM192.267 109C192.814 109 193.28 108.807 193.667 108.42C194.054 108.02 194.247 107.533 194.247 106.96C194.247 106.387 194.054 105.92 193.667 105.56C193.28 105.187 192.814 105 192.267 105C191.694 105 191.214 105.193 190.827 105.58C190.44 105.967 190.247 106.44 190.247 107C190.247 107.56 190.44 108.033 190.827 108.42C191.214 108.807 191.694 109 192.267 109ZM208.604 112.16C207.684 112.16 206.85 111.94 206.104 111.5C205.357 111.047 204.764 110.427 204.324 109.64C203.897 108.853 203.684 107.953 203.684 106.94C203.684 105.927 203.897 105.04 204.324 104.28C204.764 103.52 205.357 102.927 206.104 102.5C206.85 102.06 207.684 101.84 208.604 101.84C209.257 101.84 209.89 102.02 210.504 102.38C211.117 102.74 211.59 103.333 211.924 104.16V101.98H216.084V112H211.884V110.14C211.564 110.793 211.137 111.293 210.604 111.64C210.07 111.987 209.404 112.16 208.604 112.16ZM209.904 109C210.45 109 210.917 108.807 211.304 108.42C211.69 108.02 211.884 107.533 211.884 106.96C211.884 106.387 211.69 105.92 211.304 105.56C210.917 105.187 210.45 105 209.904 105C209.33 105 208.85 105.193 208.464 105.58C208.077 105.967 207.884 106.44 207.884 107C207.884 107.56 208.077 108.033 208.464 108.42C208.85 108.807 209.33 109 209.904 109ZM207.924 100.88L206.704 98.74L212.564 94.64L214.584 98.22L207.924 100.88ZM218.09 112V101.98H222.25V104.48C222.517 103.573 222.93 102.907 223.49 102.48C224.063 102.053 224.743 101.84 225.53 101.84L226.03 105.38C225.71 105.34 225.397 105.32 225.09 105.32C223.237 105.32 222.31 106.08 222.31 107.6V112H218.09ZM232.962 109.36C233.349 109.36 233.756 109.32 234.182 109.24C234.622 109.16 235.069 109.013 235.522 108.8L236.002 111.38C235.509 111.633 234.969 111.827 234.382 111.96C233.809 112.093 233.149 112.16 232.402 112.16C231.056 112.16 229.922 111.94 229.002 111.5C228.096 111.06 227.409 110.453 226.942 109.68C226.476 108.907 226.242 108.013 226.242 107C226.242 105.96 226.489 105.053 226.982 104.28C227.489 103.507 228.162 102.907 229.002 102.48C229.842 102.053 230.769 101.84 231.782 101.84C233.289 101.84 234.442 102.313 235.242 103.26C236.042 104.193 236.442 105.527 236.442 107.26L230.482 108.02C230.922 108.913 231.749 109.36 232.962 109.36ZM230.162 106.18L233.302 105.52C233.249 105.093 233.102 104.78 232.862 104.58C232.622 104.367 232.322 104.26 231.962 104.26C231.429 104.26 231.002 104.447 230.682 104.82C230.376 105.18 230.202 105.633 230.162 106.18ZM242.256 112.16C241.336 112.16 240.503 111.94 239.756 111.5C239.009 111.047 238.416 110.427 237.976 109.64C237.549 108.853 237.336 107.953 237.336 106.94C237.336 105.927 237.549 105.04 237.976 104.28C238.416 103.52 239.009 102.927 239.756 102.5C240.503 102.06 241.336 101.84 242.256 101.84C242.909 101.84 243.543 102.02 244.156 102.38C244.769 102.74 245.243 103.333 245.576 104.16V101.98H249.736V112H245.536V110.14C245.216 110.793 244.789 111.293 244.256 111.64C243.723 111.987 243.056 112.16 242.256 112.16ZM243.556 109C244.103 109 244.569 108.807 244.956 108.42C245.343 108.02 245.536 107.533 245.536 106.96C245.536 106.387 245.343 105.92 244.956 105.56C244.569 105.187 244.103 105 243.556 105C242.983 105 242.503 105.193 242.116 105.58C241.729 105.967 241.536 106.44 241.536 107C241.536 107.56 241.729 108.033 242.116 108.42C242.503 108.807 242.983 109 243.556 109ZM259.893 112.16C258.973 112.16 258.139 111.94 257.393 111.5C256.646 111.047 256.053 110.427 255.613 109.64C255.186 108.853 254.973 107.953 254.973 106.94C254.973 105.927 255.186 105.04 255.613 104.28C256.053 103.52 256.646 102.927 257.393 102.5C258.139 102.06 258.973 101.84 259.893 101.84C260.546 101.84 261.173 102.02 261.773 102.38C262.386 102.727 262.839 103.293 263.133 104.08V98.82L267.353 98.2V112H263.173V110.14C262.853 110.793 262.426 111.293 261.893 111.64C261.359 111.987 260.693 112.16 259.893 112.16ZM261.193 109C261.739 109 262.206 108.807 262.593 108.42C262.979 108.02 263.173 107.533 263.173 106.96C263.173 106.387 262.979 105.92 262.593 105.56C262.206 105.187 261.739 105 261.193 105C260.619 105 260.139 105.193 259.753 105.58C259.366 105.967 259.173 106.44 259.173 107C259.173 107.56 259.366 108.033 259.753 108.42C260.139 108.807 260.619 109 261.193 109ZM274.619 112.16C273.486 112.16 272.486 111.94 271.619 111.5C270.753 111.06 270.073 110.453 269.579 109.68C269.099 108.893 268.859 107.993 268.859 106.98C268.859 105.94 269.106 105.04 269.599 104.28C270.106 103.507 270.793 102.907 271.659 102.48C272.526 102.053 273.519 101.84 274.639 101.84C275.786 101.84 276.793 102.06 277.659 102.5C278.526 102.927 279.199 103.527 279.679 104.3C280.159 105.06 280.399 105.953 280.399 106.98C280.399 108.007 280.153 108.913 279.659 109.7C279.179 110.473 278.506 111.08 277.639 111.52C276.773 111.947 275.766 112.16 274.619 112.16ZM274.659 109.16C275.206 109.16 275.653 108.96 275.999 108.56C276.359 108.147 276.539 107.62 276.539 106.98C276.539 106.34 276.366 105.82 276.019 105.42C275.673 105.007 275.233 104.8 274.699 104.8C274.126 104.8 273.659 105.007 273.299 105.42C272.953 105.82 272.779 106.34 272.779 106.98C272.779 107.62 272.953 108.147 273.299 108.56C273.659 108.96 274.113 109.16 274.659 109.16ZM290.569 112.16C289.449 112.16 288.482 111.94 287.669 111.5C286.856 111.06 286.229 110.46 285.789 109.7C285.349 108.927 285.129 108.04 285.129 107.04C285.129 106.053 285.356 105.167 285.809 104.38C286.262 103.593 286.896 102.973 287.709 102.52C288.536 102.067 289.489 101.84 290.569 101.84C291.862 101.84 292.882 102.107 293.629 102.64L293.189 105.36C292.856 105.213 292.542 105.113 292.249 105.06C291.956 104.993 291.676 104.96 291.409 104.96C290.756 104.96 290.236 105.147 289.849 105.52C289.476 105.88 289.289 106.373 289.289 107C289.289 107.613 289.476 108.113 289.849 108.5C290.222 108.873 290.716 109.06 291.329 109.06C291.862 109.06 292.489 108.947 293.209 108.72L293.589 111.52C293.149 111.733 292.689 111.893 292.209 112C291.742 112.107 291.196 112.16 290.569 112.16ZM298.821 112.16C297.928 112.16 297.201 112 296.641 111.68C296.094 111.36 295.694 110.927 295.441 110.38C295.188 109.833 295.061 109.22 295.061 108.54V101.98H299.281V107.96C299.281 108.267 299.368 108.507 299.541 108.68C299.728 108.84 299.948 108.92 300.201 108.92C300.468 108.92 300.741 108.84 301.021 108.68L301.241 111.46C300.948 111.687 300.568 111.86 300.101 111.98C299.634 112.1 299.208 112.16 298.821 112.16ZM294.961 100.88L293.741 98.74L299.601 94.64L301.621 98.22L294.961 100.88ZM302.27 112V101.98H306.43V104.48C306.696 103.573 307.11 102.907 307.67 102.48C308.243 102.053 308.923 101.84 309.71 101.84L310.21 105.38C309.89 105.34 309.576 105.32 309.27 105.32C307.416 105.32 306.49 106.08 306.49 107.6V112H302.27ZM315.862 112.16C314.742 112.16 313.775 111.94 312.962 111.5C312.149 111.06 311.522 110.46 311.082 109.7C310.642 108.927 310.422 108.04 310.422 107.04C310.422 106.053 310.649 105.167 311.102 104.38C311.555 103.593 312.189 102.973 313.002 102.52C313.829 102.067 314.782 101.84 315.862 101.84C317.155 101.84 318.175 102.107 318.922 102.64L318.482 105.36C318.149 105.213 317.835 105.113 317.542 105.06C317.249 104.993 316.969 104.96 316.702 104.96C316.049 104.96 315.529 105.147 315.142 105.52C314.769 105.88 314.582 106.373 314.582 107C314.582 107.613 314.769 108.113 315.142 108.5C315.515 108.873 316.009 109.06 316.622 109.06C317.155 109.06 317.782 108.947 318.502 108.72L318.882 111.52C318.442 111.733 317.982 111.893 317.502 112C317.035 112.107 316.489 112.16 315.862 112.16ZM325.714 112.16C324.021 112.16 322.694 111.733 321.734 110.88C320.787 110.013 320.314 108.82 320.314 107.3V101.98H324.434V107.48C324.434 108.013 324.547 108.407 324.774 108.66C325.014 108.913 325.334 109.04 325.734 109.04C326.121 109.04 326.421 108.913 326.634 108.66C326.861 108.407 326.974 108.013 326.974 107.48V101.98H331.014V107.3C331.014 108.833 330.547 110.027 329.614 110.88C328.694 111.733 327.394 112.16 325.714 112.16ZM336.854 112.16C335.907 112.16 335.134 112 334.534 111.68C333.947 111.36 333.521 110.927 333.254 110.38C332.987 109.833 332.854 109.22 332.854 108.54V98.42L337.074 97.8V107.96C337.074 108.267 337.174 108.507 337.374 108.68C337.574 108.84 337.834 108.92 338.154 108.92C338.474 108.92 338.794 108.84 339.114 108.68L339.414 111.46C339.094 111.687 338.687 111.86 338.194 111.98C337.701 112.1 337.254 112.16 336.854 112.16ZM345.576 112.16C344.443 112.16 343.443 111.94 342.576 111.5C341.71 111.06 341.03 110.453 340.536 109.68C340.056 108.893 339.816 107.993 339.816 106.98C339.816 105.94 340.063 105.04 340.556 104.28C341.063 103.507 341.75 102.907 342.616 102.48C343.483 102.053 344.476 101.84 345.596 101.84C346.743 101.84 347.75 102.06 348.616 102.5C349.483 102.927 350.156 103.527 350.636 104.3C351.116 105.06 351.356 105.953 351.356 106.98C351.356 108.007 351.11 108.913 350.616 109.7C350.136 110.473 349.463 111.08 348.596 111.52C347.73 111.947 346.723 112.16 345.576 112.16ZM345.616 109.16C346.163 109.16 346.61 108.96 346.956 108.56C347.316 108.147 347.496 107.62 347.496 106.98C347.496 106.34 347.323 105.82 346.976 105.42C346.63 105.007 346.19 104.8 345.656 104.8C345.083 104.8 344.616 105.007 344.256 105.42C343.91 105.82 343.736 106.34 343.736 106.98C343.736 107.62 343.91 108.147 344.256 108.56C344.616 108.96 345.07 109.16 345.616 109.16ZM354.715 112.12C353.982 112.12 353.422 111.927 353.035 111.54C352.649 111.14 352.455 110.653 352.455 110.08C352.455 109.493 352.662 109.013 353.075 108.64C353.489 108.253 354.035 108.06 354.715 108.06C355.395 108.06 355.935 108.26 356.335 108.66C356.749 109.06 356.955 109.533 356.955 110.08C356.955 110.693 356.762 111.187 356.375 111.56C356.002 111.933 355.449 112.12 354.715 112.12ZM354.715 105.84C353.982 105.84 353.422 105.647 353.035 105.26C352.649 104.86 352.455 104.373 352.455 103.8C352.455 103.213 352.662 102.733 353.075 102.36C353.489 101.973 354.035 101.78 354.715 101.78C355.395 101.78 355.935 101.98 356.335 102.38C356.749 102.78 356.955 103.253 356.955 103.8C356.955 104.413 356.762 104.907 356.375 105.28C356.002 105.653 355.449 105.84 354.715 105.84Z" fill="black"/>
<line x1="141.559" y1="61.6228" x2="141.559" y2="69.4183" stroke="black" stroke-width="2"/>
<line x1="214.021" y1="61.6228" x2="214.021" y2="69.4183" stroke="black" stroke-width="2"/>
<line x1="141.076" y1="65.0077" x2="213.279" y2="65.0077" stroke="black" stroke-width="2"/>
<line x1="127.562" y1="56.9094" x2="135.357" y2="56.9094" stroke="black" stroke-width="2"/>
<line x1="127.562" y1="29.4662" x2="135.357" y2="29.4662" stroke="black" stroke-width="2"/>
<line x1="130.947" y1="57.7134" x2="130.947" y2="30.3684" stroke="black" stroke-width="2"/>
<path d="M247.246 45.128C246.606 45.128 246.072 44.9893 245.646 44.712C245.219 44.4347 244.878 44.0347 244.622 43.512V45H241.262V34.456L244.654 33.96V38.632C244.91 38.024 245.272 37.5813 245.742 37.304C246.222 37.016 246.723 36.872 247.246 36.872C247.992 36.872 248.659 37.048 249.246 37.4C249.843 37.7413 250.312 38.216 250.654 38.824C251.006 39.432 251.182 40.1413 251.182 40.952C251.182 41.7627 251.006 42.4827 250.654 43.112C250.312 43.7413 249.843 44.2373 249.246 44.6C248.659 44.952 247.992 45.128 247.246 45.128ZM246.206 42.6C246.664 42.6 247.048 42.4453 247.358 42.136C247.667 41.8267 247.822 41.448 247.822 41C247.822 40.552 247.667 40.1733 247.358 39.864C247.048 39.5547 246.664 39.4 246.206 39.4C245.768 39.4 245.395 39.5493 245.086 39.848C244.776 40.136 244.622 40.5093 244.622 40.968C244.622 41.4267 244.776 41.816 245.086 42.136C245.395 42.4453 245.768 42.6 246.206 42.6ZM254.619 45L257.051 40.84L254.779 36.984H258.155L259.051 38.872L259.979 36.984H263.259L261.019 40.84L263.419 45H260.139L259.051 42.952L257.995 45H254.619ZM267.168 45V34.456L270.544 33.96V38.632C270.768 38.0773 271.12 37.6453 271.6 37.336C272.08 37.0267 272.656 36.872 273.328 36.872C274.373 36.872 275.184 37.2347 275.76 37.96C276.336 38.6747 276.624 39.688 276.624 41V45H273.248V40.824C273.248 39.8747 272.864 39.4 272.096 39.4C271.637 39.4 271.264 39.5707 270.976 39.912C270.688 40.2427 270.544 40.6907 270.544 41.256V45H267.168Z" fill="black"/>
<line x1="216.374" y1="37.7235" x2="234.941" y2="37.7235" stroke="black" stroke-width="2"/>
<line x1="216.374" y1="44.5315" x2="234.941" y2="44.5315" stroke="black" stroke-width="2"/>
<path d="M164.129 77H161.529V70.12H164.339C165.439 70.12 166.246 70.2733 166.759 70.58C167.273 70.88 167.529 71.2967 167.529 71.83C167.529 72.5233 167.166 73 166.439 73.26C167.373 73.44 167.839 73.99 167.839 74.91C167.839 75.6167 167.516 76.1433 166.869 76.49C166.229 76.83 165.316 77 164.129 77ZM163.759 72.84H164.549C164.816 72.84 165.033 72.78 165.199 72.66C165.366 72.54 165.449 72.38 165.449 72.18C165.449 71.72 165.136 71.49 164.509 71.49H163.759V72.84ZM164.609 75.59C164.943 75.59 165.199 75.5233 165.379 75.39C165.559 75.2567 165.649 75.07 165.649 74.83C165.649 74.57 165.559 74.37 165.379 74.23C165.199 74.0833 164.943 74.01 164.609 74.01H163.749V75.59H164.609ZM170.799 77.08C170.339 77.08 169.922 76.97 169.549 76.75C169.176 76.5233 168.879 76.2133 168.659 75.82C168.446 75.4267 168.339 74.9767 168.339 74.47C168.339 73.9633 168.446 73.52 168.659 73.14C168.879 72.76 169.176 72.4633 169.549 72.25C169.922 72.03 170.339 71.92 170.799 71.92C171.126 71.92 171.442 72.01 171.749 72.19C172.056 72.37 172.292 72.6667 172.459 73.08V71.99H174.539V77H172.439V76.07C172.279 76.3967 172.066 76.6467 171.799 76.82C171.532 76.9933 171.199 77.08 170.799 77.08ZM171.449 75.5C171.722 75.5 171.956 75.4033 172.149 75.21C172.342 75.01 172.439 74.7667 172.439 74.48C172.439 74.1933 172.342 73.96 172.149 73.78C171.956 73.5933 171.722 73.5 171.449 73.5C171.162 73.5 170.922 73.5967 170.729 73.79C170.536 73.9833 170.439 74.22 170.439 74.5C170.439 74.78 170.536 75.0167 170.729 75.21C170.922 75.4033 171.162 75.5 171.449 75.5ZM177.152 77.08C176.852 77.08 176.549 77.05 176.242 76.99C175.935 76.93 175.659 76.8467 175.412 76.74L175.702 75.48C175.855 75.56 176.065 75.63 176.332 75.69C176.599 75.7433 176.835 75.77 177.042 75.77C177.375 75.77 177.542 75.68 177.542 75.5C177.542 75.4133 177.489 75.35 177.382 75.31C177.282 75.27 177.149 75.2367 176.982 75.21C176.822 75.1767 176.649 75.1367 176.462 75.09C176.275 75.0367 176.099 74.96 175.932 74.86C175.772 74.7533 175.639 74.6033 175.532 74.41C175.432 74.2167 175.382 73.9633 175.382 73.65C175.382 73.1233 175.589 72.7033 176.002 72.39C176.422 72.0767 176.995 71.92 177.722 71.92C178.002 71.92 178.262 71.94 178.502 71.98C178.749 72.02 178.982 72.1033 179.202 72.23L178.992 73.45C178.639 73.3033 178.269 73.23 177.882 73.23C177.635 73.23 177.455 73.25 177.342 73.29C177.235 73.33 177.182 73.3967 177.182 73.49C177.182 73.5633 177.235 73.62 177.342 73.66C177.449 73.7 177.585 73.74 177.752 73.78C177.925 73.8133 178.105 73.8633 178.292 73.93C178.479 73.99 178.655 74.0767 178.822 74.19C178.995 74.3033 179.135 74.4567 179.242 74.65C179.349 74.8367 179.402 75.08 179.402 75.38C179.402 75.9133 179.205 76.33 178.812 76.63C178.419 76.93 177.865 77.08 177.152 77.08ZM183.213 75.68C183.406 75.68 183.609 75.66 183.823 75.62C184.043 75.58 184.266 75.5067 184.493 75.4L184.733 76.69C184.486 76.8167 184.216 76.9133 183.923 76.98C183.636 77.0467 183.306 77.08 182.933 77.08C182.259 77.08 181.693 76.97 181.233 76.75C180.779 76.53 180.436 76.2267 180.203 75.84C179.969 75.4533 179.853 75.0067 179.853 74.5C179.853 73.98 179.976 73.5267 180.223 73.14C180.476 72.7533 180.813 72.4533 181.233 72.24C181.653 72.0267 182.116 71.92 182.623 71.92C183.376 71.92 183.953 72.1567 184.353 72.63C184.753 73.0967 184.953 73.7633 184.953 74.63L181.973 75.01C182.193 75.4567 182.606 75.68 183.213 75.68ZM181.813 74.09L183.383 73.76C183.356 73.5467 183.283 73.39 183.163 73.29C183.043 73.1833 182.893 73.13 182.713 73.13C182.446 73.13 182.233 73.2233 182.073 73.41C181.919 73.59 181.833 73.8167 181.813 74.09ZM189.889 79.328C188.921 79.24 188.101 78.952 187.429 78.464C186.757 77.984 186.249 77.348 185.905 76.556C185.561 75.764 185.389 74.868 185.389 73.868C185.389 72.812 185.573 71.904 185.941 71.144C186.309 70.376 186.829 69.768 187.501 69.32C188.173 68.872 188.969 68.604 189.889 68.516V70.028C189.329 70.124 188.885 70.496 188.557 71.144C188.229 71.792 188.065 72.7 188.065 73.868C188.065 74.572 188.125 75.208 188.245 75.776C188.365 76.336 188.557 76.792 188.821 77.144C189.093 77.504 189.449 77.724 189.889 77.804V79.328ZM195.241 77.096C194.761 77.096 194.361 76.992 194.041 76.784C193.721 76.576 193.465 76.276 193.273 75.884V77H190.753V69.092L193.297 68.72V72.224C193.489 71.768 193.761 71.436 194.113 71.228C194.473 71.012 194.849 70.904 195.241 70.904C195.801 70.904 196.301 71.036 196.741 71.3C197.189 71.556 197.541 71.912 197.797 72.368C198.061 72.824 198.193 73.356 198.193 73.964C198.193 74.572 198.061 75.112 197.797 75.584C197.541 76.056 197.189 76.428 196.741 76.7C196.301 76.964 195.801 77.096 195.241 77.096ZM194.461 75.2C194.805 75.2 195.093 75.084 195.325 74.852C195.557 74.62 195.673 74.336 195.673 74C195.673 73.664 195.557 73.38 195.325 73.148C195.093 72.916 194.805 72.8 194.461 72.8C194.133 72.8 193.853 72.912 193.621 73.136C193.389 73.352 193.273 73.632 193.273 73.976C193.273 74.32 193.389 74.612 193.621 74.852C193.853 75.084 194.133 75.2 194.461 75.2ZM198.281 79.328V77.804C198.849 77.708 199.297 77.332 199.625 76.676C199.953 76.012 200.117 75.076 200.117 73.868C200.117 72.756 199.957 71.864 199.637 71.192C199.325 70.512 198.873 70.124 198.281 70.028V68.516C199.281 68.612 200.113 68.904 200.777 69.392C201.441 69.872 201.941 70.496 202.277 71.264C202.613 72.032 202.781 72.9 202.781 73.868C202.781 74.9 202.601 75.812 202.241 76.604C201.889 77.388 201.377 78.016 200.705 78.488C200.041 78.96 199.233 79.24 198.281 79.328Z" fill="black"/>
<rect x="142" y="30" width="70" height="26" stroke="black" stroke-width="2"/>
<rect x="228" y="184" width="36" height="22" stroke="black" stroke-width="2"/>
<path d="M77.0254 45.08C76.5654 45.08 76.1488 44.97 75.7754 44.75C75.4021 44.5233 75.1054 44.2133 74.8854 43.82C74.6721 43.4267 74.5654 42.9767 74.5654 42.47C74.5654 41.9633 74.6721 41.52 74.8854 41.14C75.1054 40.76 75.4021 40.4633 75.7754 40.25C76.1488 40.03 76.5654 39.92 77.0254 39.92C77.3521 39.92 77.6688 40.01 77.9754 40.19C78.2821 40.37 78.5188 40.6667 78.6854 41.08V39.99H80.7654V45H78.6654V44.07C78.5054 44.3967 78.2921 44.6467 78.0254 44.82C77.7588 44.9933 77.4254 45.08 77.0254 45.08ZM77.6754 43.5C77.9488 43.5 78.1821 43.4033 78.3754 43.21C78.5688 43.01 78.6654 42.7667 78.6654 42.48C78.6654 42.1933 78.5688 41.96 78.3754 41.78C78.1821 41.5933 77.9488 41.5 77.6754 41.5C77.3888 41.5 77.1488 41.5967 76.9554 41.79C76.7621 41.9833 76.6654 42.22 76.6654 42.5C76.6654 42.78 76.7621 43.0167 76.9554 43.21C77.1488 43.4033 77.3888 43.5 77.6754 43.5ZM83.7386 45.08C83.2652 45.08 82.8786 45 82.5786 44.84C82.2852 44.68 82.0719 44.4633 81.9386 44.19C81.8052 43.9167 81.7386 43.61 81.7386 43.27V38.21L83.8486 37.9V42.98C83.8486 43.1333 83.8986 43.2533 83.9986 43.34C84.0986 43.42 84.2286 43.46 84.3886 43.46C84.5486 43.46 84.7086 43.42 84.8686 43.34L85.0186 44.73C84.8586 44.8433 84.6552 44.93 84.4086 44.99C84.1619 45.05 83.9386 45.08 83.7386 45.08ZM87.5609 45.08C87.0876 45.08 86.7009 45 86.4009 44.84C86.1076 44.68 85.8942 44.4633 85.7609 44.19C85.6276 43.9167 85.5609 43.61 85.5609 43.27V41.23H84.9209V39.99H85.7109L86.6409 38.41H87.6709V39.99H88.8309V41.23H87.6709V42.98C87.6709 43.1333 87.7209 43.2533 87.8209 43.34C87.9209 43.42 88.0509 43.46 88.2109 43.46C88.3709 43.46 88.5309 43.42 88.6909 43.34L88.8409 44.73C88.6809 44.8433 88.4776 44.93 88.2309 44.99C87.9842 45.05 87.7609 45.08 87.5609 45.08ZM92.2115 45.08C91.3649 45.08 90.7015 44.8667 90.2215 44.44C89.7482 44.0067 89.5115 43.41 89.5115 42.65V39.99H91.5715V42.74C91.5715 43.0067 91.6282 43.2033 91.7415 43.33C91.8615 43.4567 92.0215 43.52 92.2215 43.52C92.4149 43.52 92.5649 43.4567 92.6715 43.33C92.7849 43.2033 92.8415 43.0067 92.8415 42.74V39.99H94.8615V42.65C94.8615 43.4167 94.6282 44.0133 94.1615 44.44C93.7015 44.8667 93.0515 45.08 92.2115 45.08ZM95.8115 45V39.99H97.8915V41.24C98.0249 40.7867 98.2315 40.4533 98.5115 40.24C98.7982 40.0267 99.1382 39.92 99.5315 39.92L99.7815 41.69C99.6215 41.67 99.4649 41.66 99.3115 41.66C98.3849 41.66 97.9215 42.04 97.9215 42.8V45H95.8115ZM102.348 45.08C101.888 45.08 101.471 44.97 101.098 44.75C100.724 44.5233 100.428 44.2133 100.208 43.82C99.9944 43.4267 99.8877 42.9767 99.8877 42.47C99.8877 41.9633 99.9944 41.52 100.208 41.14C100.428 40.76 100.724 40.4633 101.098 40.25C101.471 40.03 101.888 39.92 102.348 39.92C102.674 39.92 102.991 40.01 103.298 40.19C103.604 40.37 103.841 40.6667 104.008 41.08V39.99H106.088V45H103.988V44.07C103.828 44.3967 103.614 44.6467 103.348 44.82C103.081 44.9933 102.748 45.08 102.348 45.08ZM102.998 43.5C103.271 43.5 103.504 43.4033 103.698 43.21C103.891 43.01 103.988 42.7667 103.988 42.48C103.988 42.1933 103.891 41.96 103.698 41.78C103.504 41.5933 103.271 41.5 102.998 41.5C102.711 41.5 102.471 41.5967 102.278 41.79C102.084 41.9833 101.988 42.22 101.988 42.5C101.988 42.78 102.084 43.0167 102.278 43.21C102.471 43.4033 102.711 43.5 102.998 43.5ZM111.331 47.328C110.363 47.24 109.543 46.952 108.871 46.464C108.199 45.984 107.691 45.348 107.347 44.556C107.003 43.764 106.831 42.868 106.831 41.868C106.831 40.812 107.015 39.904 107.383 39.144C107.751 38.376 108.271 37.768 108.943 37.32C109.615 36.872 110.411 36.604 111.331 36.516V38.028C110.771 38.124 110.327 38.496 109.999 39.144C109.671 39.792 109.507 40.7 109.507 41.868C109.507 42.572 109.567 43.208 109.687 43.776C109.807 44.336 109.999 44.792 110.263 45.144C110.535 45.504 110.891 45.724 111.331 45.804V47.328ZM112.195 45V37.092L114.727 36.72V40.224C114.895 39.808 115.159 39.484 115.519 39.252C115.879 39.02 116.311 38.904 116.815 38.904C117.599 38.904 118.207 39.176 118.639 39.72C119.071 40.256 119.287 41.016 119.287 42V45H116.755V41.868C116.755 41.156 116.467 40.8 115.891 40.8C115.547 40.8 115.267 40.928 115.051 41.184C114.835 41.432 114.727 41.768 114.727 42.192V45H112.195ZM119.945 47.328V45.804C120.513 45.708 120.961 45.332 121.289 44.676C121.617 44.012 121.781 43.076 121.781 41.868C121.781 40.756 121.621 39.864 121.301 39.192C120.989 38.512 120.537 38.124 119.945 38.028V36.516C120.945 36.612 121.777 36.904 122.441 37.392C123.105 37.872 123.605 38.496 123.941 39.264C124.277 40.032 124.445 40.9 124.445 41.868C124.445 42.9 124.265 43.812 123.905 44.604C123.553 45.388 123.041 46.016 122.369 46.488C121.705 46.96 120.897 47.24 119.945 47.328Z" fill="black"/>
<path d="M215.587 148.256C214.829 148.256 214.136 148.069 213.507 147.696L213.667 145.472C213.891 145.6 214.109 145.664 214.323 145.664C214.803 145.664 215.043 145.424 215.043 144.944V139.984H223.635V147.984H220.259V142.944H218.435V145.312C218.435 146.315 218.179 147.056 217.667 147.536C217.165 148.016 216.472 148.256 215.587 148.256ZM227.461 148L229.893 143.84L227.621 139.984H230.997L231.893 141.872L232.821 139.984H236.101L233.861 143.84L236.261 148H232.981L231.893 145.952L230.837 148H227.461ZM240.009 148V139.984H243.337V141.984C243.551 141.259 243.881 140.725 244.329 140.384C244.788 140.043 245.332 139.872 245.961 139.872L246.361 142.704C246.105 142.672 245.855 142.656 245.609 142.656C244.127 142.656 243.385 143.264 243.385 144.48V148H240.009ZM249.606 142.88V141.648C250.289 141.04 250.822 140.507 251.206 140.048C251.59 139.589 251.782 139.205 251.782 138.896C251.782 138.693 251.723 138.544 251.606 138.448C251.489 138.352 251.329 138.304 251.126 138.304C250.71 138.304 250.315 138.421 249.942 138.656L249.494 137.296C249.771 137.136 250.081 137.013 250.422 136.928C250.763 136.843 251.099 136.8 251.43 136.8C252.123 136.8 252.662 136.981 253.046 137.344C253.43 137.707 253.622 138.165 253.622 138.72C253.622 139.275 253.435 139.787 253.062 140.256C252.689 140.725 252.134 141.173 251.398 141.6H253.59V142.88H249.606Z" fill="black"/>
<line x1="176.543" y1="141.032" x2="204.273" y2="141.032" stroke="black" stroke-width="2"/>
<line x1="176.543" y1="151.2" x2="204.273" y2="151.2" stroke="black" stroke-width="2"/>
<circle cx="143" cy="146" r="26" stroke="black" stroke-width="2"/>
<circle cx="340.5" cy="194.5" r="14.5" stroke="black" stroke-width="2"/>
<path d="M131.896 150V142.485H135.016V144.36C135.216 143.68 135.526 143.18 135.946 142.86C136.376 142.54 136.886 142.38 137.476 142.38L137.851 145.035C137.611 145.005 137.376 144.99 137.146 144.99C135.756 144.99 135.061 145.56 135.061 146.7V150H131.896Z" fill="#371218"/>
<line x1="144.037" y1="142.239" x2="144.037" y2="150.347" stroke="#F43F5E" stroke-width="2"/>
<line x1="170.386" y1="142.239" x2="170.386" y2="150.347" stroke="#F43F5E" stroke-width="2"/>
<line x1="143.225" y1="145.799" x2="169.48" y2="145.799" stroke="#F43F5E" stroke-width="2"/>
<path d="M12.8691 202L16.6691 188.24H23.1491L27.1291 202H22.2291L21.7091 199.36H18.1491L17.5691 202H12.8691ZM18.5691 196.9H21.2291L19.9291 190.88L18.5691 196.9ZM18.6891 187.34L17.4691 185.2L23.3291 181.1L25.3491 184.68L18.6891 187.34ZM28.1055 202V191.98H32.2655V194.48C32.5321 193.573 32.9455 192.907 33.5055 192.48C34.0788 192.053 34.7588 191.84 35.5455 191.84L36.0455 195.38C35.7255 195.34 35.4121 195.32 35.1055 195.32C33.2521 195.32 32.3255 196.08 32.3255 197.6V202H28.1055ZM42.9778 199.36C43.3645 199.36 43.7711 199.32 44.1978 199.24C44.6378 199.16 45.0845 199.013 45.5378 198.8L46.0178 201.38C45.5245 201.633 44.9845 201.827 44.3978 201.96C43.8245 202.093 43.1645 202.16 42.4178 202.16C41.0711 202.16 39.9378 201.94 39.0178 201.5C38.1111 201.06 37.4245 200.453 36.9578 199.68C36.4911 198.907 36.2578 198.013 36.2578 197C36.2578 195.96 36.5045 195.053 36.9978 194.28C37.5045 193.507 38.1778 192.907 39.0178 192.48C39.8578 192.053 40.7845 191.84 41.7978 191.84C43.3045 191.84 44.4578 192.313 45.2578 193.26C46.0578 194.193 46.4578 195.527 46.4578 197.26L40.4978 198.02C40.9378 198.913 41.7645 199.36 42.9778 199.36ZM40.1778 196.18L43.3178 195.52C43.2645 195.093 43.1178 194.78 42.8778 194.58C42.6378 194.367 42.3378 194.26 41.9778 194.26C41.4445 194.26 41.0178 194.447 40.6978 194.82C40.3911 195.18 40.2178 195.633 40.1778 196.18ZM52.2716 202.16C51.3516 202.16 50.5182 201.94 49.7716 201.5C49.0249 201.047 48.4316 200.427 47.9916 199.64C47.5649 198.853 47.3516 197.953 47.3516 196.94C47.3516 195.927 47.5649 195.04 47.9916 194.28C48.4316 193.52 49.0249 192.927 49.7716 192.5C50.5182 192.06 51.3516 191.84 52.2716 191.84C52.9249 191.84 53.5582 192.02 54.1716 192.38C54.7849 192.74 55.2582 193.333 55.5916 194.16V191.98H59.7516V202H55.5516V200.14C55.2316 200.793 54.8049 201.293 54.2716 201.64C53.7382 201.987 53.0716 202.16 52.2716 202.16ZM53.5716 199C54.1182 199 54.5849 198.807 54.9716 198.42C55.3582 198.02 55.5516 197.533 55.5516 196.96C55.5516 196.387 55.3582 195.92 54.9716 195.56C54.5849 195.187 54.1182 195 53.5716 195C52.9982 195 52.5182 195.193 52.1316 195.58C51.7449 195.967 51.5516 196.44 51.5516 197C51.5516 197.56 51.7449 198.033 52.1316 198.42C52.5182 198.807 52.9982 199 53.5716 199ZM65.4883 202V191.98H69.6483V194.16C69.9416 193.413 70.3616 192.84 70.9083 192.44C71.4683 192.04 72.1683 191.84 73.0083 191.84C73.8349 191.84 74.5349 192.047 75.1083 192.46C75.6949 192.86 76.1083 193.38 76.3483 194.02C76.8016 193.34 77.3349 192.807 77.9483 192.42C78.5749 192.033 79.3283 191.84 80.2083 191.84C81.4483 191.84 82.4083 192.293 83.0883 193.2C83.7683 194.093 84.1083 195.36 84.1083 197V202H79.8883V196.78C79.8883 195.593 79.4683 195 78.6283 195C78.1083 195 77.6883 195.213 77.3683 195.64C77.0616 196.053 76.9083 196.613 76.9083 197.32V202H72.6883V196.78C72.6883 196.153 72.5816 195.7 72.3683 195.42C72.1549 195.14 71.8416 195 71.4283 195C70.9083 195 70.4883 195.207 70.1683 195.62C69.8616 196.02 69.7083 196.587 69.7083 197.32V202H65.4883ZM90.4356 202.16C89.5156 202.16 88.6823 201.94 87.9356 201.5C87.189 201.047 86.5956 200.427 86.1556 199.64C85.729 198.853 85.5156 197.953 85.5156 196.94C85.5156 195.927 85.729 195.04 86.1556 194.28C86.5956 193.52 87.189 192.927 87.9356 192.5C88.6823 192.06 89.5156 191.84 90.4356 191.84C91.089 191.84 91.7223 192.02 92.3356 192.38C92.949 192.74 93.4223 193.333 93.7556 194.16V191.98H97.9156V202H93.7156V200.14C93.3956 200.793 92.969 201.293 92.4356 201.64C91.9023 201.987 91.2356 202.16 90.4356 202.16ZM91.7356 199C92.2823 199 92.749 198.807 93.1356 198.42C93.5223 198.02 93.7156 197.533 93.7156 196.96C93.7156 196.387 93.5223 195.92 93.1356 195.56C92.749 195.187 92.2823 195 91.7356 195C91.1623 195 90.6823 195.193 90.2956 195.58C89.909 195.967 89.7156 196.44 89.7156 197C89.7156 197.56 89.909 198.033 90.2956 198.42C90.6823 198.807 91.1623 199 91.7356 199ZM99.9219 202V191.98H104.082V194.48C104.349 193.573 104.762 192.907 105.322 192.48C105.895 192.053 106.575 191.84 107.362 191.84L107.862 195.38C107.542 195.34 107.229 195.32 106.922 195.32C105.069 195.32 104.142 196.08 104.142 197.6V202H99.9219ZM113.514 202.16C112.394 202.16 111.428 201.94 110.614 201.5C109.801 201.06 109.174 200.46 108.734 199.7C108.294 198.927 108.074 198.04 108.074 197.04C108.074 196.053 108.301 195.167 108.754 194.38C109.208 193.593 109.841 192.973 110.654 192.52C111.481 192.067 112.434 191.84 113.514 191.84C114.808 191.84 115.828 192.107 116.574 192.64L116.134 195.36C115.801 195.213 115.488 195.113 115.194 195.06C114.901 194.993 114.621 194.96 114.354 194.96C113.701 194.96 113.181 195.147 112.794 195.52C112.421 195.88 112.234 196.373 112.234 197C112.234 197.613 112.421 198.113 112.794 198.5C113.168 198.873 113.661 199.06 114.274 199.06C114.808 199.06 115.434 198.947 116.154 198.72L116.534 201.52C116.094 201.733 115.634 201.893 115.154 202C114.688 202.107 114.141 202.16 113.514 202.16ZM122.369 202.16C121.449 202.16 120.616 201.94 119.869 201.5C119.123 201.047 118.529 200.427 118.089 199.64C117.663 198.853 117.449 197.953 117.449 196.94C117.449 195.927 117.663 195.04 118.089 194.28C118.529 193.52 119.123 192.927 119.869 192.5C120.616 192.06 121.449 191.84 122.369 191.84C123.023 191.84 123.656 192.02 124.269 192.38C124.883 192.74 125.356 193.333 125.689 194.16V191.98H129.849V202H125.649V200.14C125.329 200.793 124.903 201.293 124.369 201.64C123.836 201.987 123.169 202.16 122.369 202.16ZM123.669 199C124.216 199 124.683 198.807 125.069 198.42C125.456 198.02 125.649 197.533 125.649 196.96C125.649 196.387 125.456 195.92 125.069 195.56C124.683 195.187 124.216 195 123.669 195C123.096 195 122.616 195.193 122.229 195.58C121.843 195.967 121.649 196.44 121.649 197C121.649 197.56 121.843 198.033 122.229 198.42C122.616 198.807 123.096 199 123.669 199ZM136.275 202.16C135.355 202.16 134.522 201.94 133.775 201.5C133.029 201.047 132.435 200.427 131.995 199.64C131.569 198.853 131.355 197.953 131.355 196.94C131.355 195.927 131.569 195.04 131.995 194.28C132.435 193.52 133.029 192.927 133.775 192.5C134.522 192.06 135.355 191.84 136.275 191.84C136.929 191.84 137.555 192.02 138.155 192.38C138.769 192.727 139.222 193.293 139.515 194.08V188.82L143.735 188.2V202H139.555V200.14C139.235 200.793 138.809 201.293 138.275 201.64C137.742 201.987 137.075 202.16 136.275 202.16ZM137.575 199C138.122 199 138.589 198.807 138.975 198.42C139.362 198.02 139.555 197.533 139.555 196.96C139.555 196.387 139.362 195.92 138.975 195.56C138.589 195.187 138.122 195 137.575 195C137.002 195 136.522 195.193 136.135 195.58C135.749 195.967 135.555 196.44 135.555 197C135.555 197.56 135.749 198.033 136.135 198.42C136.522 198.807 137.002 199 137.575 199ZM150.162 202.16C149.242 202.16 148.409 201.94 147.662 201.5C146.916 201.047 146.322 200.427 145.882 199.64C145.456 198.853 145.242 197.953 145.242 196.94C145.242 195.927 145.456 195.04 145.882 194.28C146.322 193.52 146.916 192.927 147.662 192.5C148.409 192.06 149.242 191.84 150.162 191.84C150.816 191.84 151.449 192.02 152.062 192.38C152.676 192.74 153.149 193.333 153.482 194.16V191.98H157.642V202H153.442V200.14C153.122 200.793 152.696 201.293 152.162 201.64C151.629 201.987 150.962 202.16 150.162 202.16ZM151.462 199C152.009 199 152.476 198.807 152.862 198.42C153.249 198.02 153.442 197.533 153.442 196.96C153.442 196.387 153.249 195.92 152.862 195.56C152.476 195.187 152.009 195 151.462 195C150.889 195 150.409 195.193 150.022 195.58C149.636 195.967 149.442 196.44 149.442 197C149.442 197.56 149.636 198.033 150.022 198.42C150.409 198.807 150.889 199 151.462 199Z" fill="#F87C92"/>
<path d="M163.579 196.46V193.78H173.179V196.46H163.579ZM163.579 200.2V197.52H173.179V200.2H163.579ZM183.522 202.16C182.602 202.16 181.768 201.94 181.022 201.5C180.275 201.047 179.682 200.427 179.242 199.64C178.815 198.853 178.602 197.953 178.602 196.94C178.602 195.927 178.815 195.04 179.242 194.28C179.682 193.52 180.275 192.927 181.022 192.5C181.768 192.06 182.602 191.84 183.522 191.84C184.175 191.84 184.808 192.02 185.422 192.38C186.035 192.74 186.508 193.333 186.842 194.16V191.98H191.002V202H186.802V200.14C186.482 200.793 186.055 201.293 185.522 201.64C184.988 201.987 184.322 202.16 183.522 202.16ZM184.822 199C185.368 199 185.835 198.807 186.222 198.42C186.608 198.02 186.802 197.533 186.802 196.96C186.802 196.387 186.608 195.92 186.222 195.56C185.835 195.187 185.368 195 184.822 195C184.248 195 183.768 195.193 183.382 195.58C182.995 195.967 182.802 196.44 182.802 197C182.802 197.56 182.995 198.033 183.382 198.42C183.768 198.807 184.248 199 184.822 199ZM182.842 190.88L181.622 188.74L187.482 184.64L189.502 188.22L182.842 190.88ZM193.008 202V191.98H197.168V194.48C197.434 193.573 197.848 192.907 198.408 192.48C198.981 192.053 199.661 191.84 200.448 191.84L200.948 195.38C200.628 195.34 200.314 195.32 200.008 195.32C198.154 195.32 197.228 196.08 197.228 197.6V202H193.008ZM207.88 199.36C208.267 199.36 208.673 199.32 209.1 199.24C209.54 199.16 209.987 199.013 210.44 198.8L210.92 201.38C210.427 201.633 209.887 201.827 209.3 201.96C208.727 202.093 208.067 202.16 207.32 202.16C205.973 202.16 204.84 201.94 203.92 201.5C203.013 201.06 202.327 200.453 201.86 199.68C201.393 198.907 201.16 198.013 201.16 197C201.16 195.96 201.407 195.053 201.9 194.28C202.407 193.507 203.08 192.907 203.92 192.48C204.76 192.053 205.687 191.84 206.7 191.84C208.207 191.84 209.36 192.313 210.16 193.26C210.96 194.193 211.36 195.527 211.36 197.26L205.4 198.02C205.84 198.913 206.667 199.36 207.88 199.36ZM205.08 196.18L208.22 195.52C208.167 195.093 208.02 194.78 207.78 194.58C207.54 194.367 207.24 194.26 206.88 194.26C206.347 194.26 205.92 194.447 205.6 194.82C205.293 195.18 205.12 195.633 205.08 196.18ZM217.174 202.16C216.254 202.16 215.421 201.94 214.674 201.5C213.927 201.047 213.334 200.427 212.894 199.64C212.467 198.853 212.254 197.953 212.254 196.94C212.254 195.927 212.467 195.04 212.894 194.28C213.334 193.52 213.927 192.927 214.674 192.5C215.421 192.06 216.254 191.84 217.174 191.84C217.827 191.84 218.461 192.02 219.074 192.38C219.687 192.74 220.161 193.333 220.494 194.16V191.98H224.654V202H220.454V200.14C220.134 200.793 219.707 201.293 219.174 201.64C218.641 201.987 217.974 202.16 217.174 202.16ZM218.474 199C219.021 199 219.487 198.807 219.874 198.42C220.261 198.02 220.454 197.533 220.454 196.96C220.454 196.387 220.261 195.92 219.874 195.56C219.487 195.187 219.021 195 218.474 195C217.901 195 217.421 195.193 217.034 195.58C216.647 195.967 216.454 196.44 216.454 197C216.454 197.56 216.647 198.033 217.034 198.42C217.421 198.807 217.901 199 218.474 199ZM267.615 198.54V195.42H272.995V198.54H267.615ZM283.072 202.16C282.152 202.16 281.319 201.94 280.572 201.5C279.826 201.047 279.232 200.427 278.792 199.64C278.366 198.853 278.152 197.953 278.152 196.94C278.152 195.927 278.366 195.04 278.792 194.28C279.232 193.52 279.826 192.927 280.572 192.5C281.319 192.06 282.152 191.84 283.072 191.84C283.726 191.84 284.359 192.02 284.972 192.38C285.586 192.74 286.059 193.333 286.392 194.16V191.98H290.552V202H286.352V200.14C286.032 200.793 285.606 201.293 285.072 201.64C284.539 201.987 283.872 202.16 283.072 202.16ZM284.372 199C284.919 199 285.386 198.807 285.772 198.42C286.159 198.02 286.352 197.533 286.352 196.96C286.352 196.387 286.159 195.92 285.772 195.56C285.386 195.187 284.919 195 284.372 195C283.799 195 283.319 195.193 282.932 195.58C282.546 195.967 282.352 196.44 282.352 197C282.352 197.56 282.546 198.033 282.932 198.42C283.319 198.807 283.799 199 284.372 199ZM282.392 190.88L281.172 188.74L287.032 184.64L289.052 188.22L282.392 190.88ZM292.559 202V191.98H296.719V194.48C296.985 193.573 297.399 192.907 297.959 192.48C298.532 192.053 299.212 191.84 299.999 191.84L300.499 195.38C300.179 195.34 299.865 195.32 299.559 195.32C297.705 195.32 296.779 196.08 296.779 197.6V202H292.559ZM307.431 199.36C307.818 199.36 308.224 199.32 308.651 199.24C309.091 199.16 309.538 199.013 309.991 198.8L310.471 201.38C309.978 201.633 309.438 201.827 308.851 201.96C308.278 202.093 307.618 202.16 306.871 202.16C305.524 202.16 304.391 201.94 303.471 201.5C302.564 201.06 301.878 200.453 301.411 199.68C300.944 198.907 300.711 198.013 300.711 197C300.711 195.96 300.958 195.053 301.451 194.28C301.958 193.507 302.631 192.907 303.471 192.48C304.311 192.053 305.238 191.84 306.251 191.84C307.758 191.84 308.911 192.313 309.711 193.26C310.511 194.193 310.911 195.527 310.911 197.26L304.951 198.02C305.391 198.913 306.218 199.36 307.431 199.36ZM304.631 196.18L307.771 195.52C307.718 195.093 307.571 194.78 307.331 194.58C307.091 194.367 306.791 194.26 306.431 194.26C305.898 194.26 305.471 194.447 305.151 194.82C304.844 195.18 304.671 195.633 304.631 196.18ZM316.725 202.16C315.805 202.16 314.971 201.94 314.225 201.5C313.478 201.047 312.885 200.427 312.445 199.64C312.018 198.853 311.805 197.953 311.805 196.94C311.805 195.927 312.018 195.04 312.445 194.28C312.885 193.52 313.478 192.927 314.225 192.5C314.971 192.06 315.805 191.84 316.725 191.84C317.378 191.84 318.011 192.02 318.625 192.38C319.238 192.74 319.711 193.333 320.045 194.16V191.98H324.205V202H320.005V200.14C319.685 200.793 319.258 201.293 318.725 201.64C318.191 201.987 317.525 202.16 316.725 202.16ZM318.025 199C318.571 199 319.038 198.807 319.425 198.42C319.811 198.02 320.005 197.533 320.005 196.96C320.005 196.387 319.811 195.92 319.425 195.56C319.038 195.187 318.571 195 318.025 195C317.451 195 316.971 195.193 316.585 195.58C316.198 195.967 316.005 196.44 316.005 197C316.005 197.56 316.198 198.033 316.585 198.42C316.971 198.807 317.451 199 318.025 199Z" fill="black"/>
</svg>
