<svg width="618" height="252" viewBox="0 0 618 252" fill="none" xmlns="http://www.w3.org/2000/svg">
<line x1="327.712" y1="108.218" x2="388.399" y2="108.218" stroke="black" stroke-width="8"/>
<line x1="327.712" y1="133.67" x2="388.399" y2="133.67" stroke="black" stroke-width="8"/>
<line x1="436.949" y1="135.827" x2="582.599" y2="135.827" stroke="black" stroke-width="6"/>
<path d="M421.953 133.47C418.081 133.118 414.801 131.966 412.113 130.014C409.425 128.094 407.393 125.55 406.017 122.382C404.641 119.214 403.953 115.63 403.953 111.63C403.953 107.406 404.689 103.774 406.161 100.734C407.633 97.6624 409.713 95.2304 412.401 93.4384C415.089 91.6464 418.273 90.5744 421.953 90.2224V96.2704C419.713 96.6544 417.937 98.1424 416.625 100.734C415.313 103.326 414.657 106.958 414.657 111.63C414.657 114.446 414.897 116.99 415.377 119.262C415.857 121.502 416.625 123.326 417.681 124.734C418.769 126.174 420.193 127.054 421.953 127.374V133.47ZM440.05 124.158H427.57V91.1344H441.058C446.338 91.1344 450.21 91.8704 452.674 93.3424C455.138 94.7824 456.37 96.7824 456.37 99.3424C456.37 102.67 454.626 104.958 451.138 106.206C455.618 107.07 457.858 109.71 457.858 114.126C457.858 117.518 456.306 120.046 453.202 121.71C450.13 123.342 445.746 124.158 440.05 124.158ZM438.274 104.19H442.066C443.346 104.19 444.386 103.902 445.186 103.326C445.986 102.75 446.386 101.982 446.386 101.022C446.386 98.8144 444.882 97.7104 441.874 97.7104H438.274V104.19ZM442.354 117.39C443.954 117.39 445.186 117.07 446.05 116.43C446.914 115.79 447.346 114.894 447.346 113.742C447.346 112.494 446.914 111.534 446.05 110.862C445.186 110.158 443.954 109.806 442.354 109.806H438.226V117.39H442.354ZM469.567 124.158V115.854H461.935V108.414H469.567V100.11H477.343V108.414H484.975V115.854H477.343V124.158H469.567ZM508.189 124.542C506.269 124.542 504.669 124.126 503.389 123.294C502.109 122.462 501.085 121.262 500.317 119.694V124.158H490.237V92.5264L500.413 91.0384V105.054C501.181 103.23 502.269 101.902 503.677 101.07C505.117 100.206 506.621 99.7744 508.189 99.7744C510.429 99.7744 512.429 100.302 514.189 101.358C515.981 102.382 517.389 103.806 518.413 105.63C519.469 107.454 519.997 109.582 519.997 112.014C519.997 114.446 519.469 116.606 518.413 118.494C517.389 120.382 515.981 121.87 514.189 122.958C512.429 124.014 510.429 124.542 508.189 124.542ZM505.069 116.958C506.445 116.958 507.597 116.494 508.525 115.566C509.453 114.638 509.917 113.502 509.917 112.158C509.917 110.814 509.453 109.678 508.525 108.75C507.597 107.822 506.445 107.358 505.069 107.358C503.757 107.358 502.637 107.806 501.709 108.702C500.781 109.566 500.317 110.686 500.317 112.062C500.317 113.438 500.781 114.606 501.709 115.566C502.637 116.494 503.757 116.958 505.069 116.958ZM520.346 133.47V127.374C522.618 126.99 524.41 125.486 525.722 122.862C527.034 120.206 527.69 116.462 527.69 111.63C527.69 107.182 527.05 103.614 525.77 100.926C524.522 98.2064 522.714 96.6544 520.346 96.2704V90.2224C524.346 90.6064 527.674 91.7744 530.33 93.7264C532.986 95.6464 534.986 98.1424 536.33 101.214C537.674 104.286 538.346 107.758 538.346 111.63C538.346 115.758 537.626 119.406 536.186 122.574C534.778 125.71 532.73 128.222 530.042 130.11C527.386 131.998 524.154 133.118 520.346 133.47ZM548.403 124.158L555.699 111.678L548.883 100.11H559.011L561.699 105.774L564.483 100.11H574.323L567.603 111.678L574.803 124.158H564.963L561.699 118.014L558.531 124.158H548.403ZM586.049 124.158V92.5264L596.177 91.0384V105.054C596.849 103.39 597.905 102.094 599.345 101.166C600.785 100.238 602.513 99.7744 604.529 99.7744C607.665 99.7744 610.097 100.862 611.825 103.038C613.553 105.182 614.417 108.222 614.417 112.158V124.158H604.289V111.63C604.289 108.782 603.137 107.358 600.833 107.358C599.457 107.358 598.337 107.87 597.473 108.894C596.609 109.886 596.177 111.23 596.177 112.926V124.158H586.049ZM499.297 191.158V184.39C502.881 180.998 505.681 178.038 507.697 175.51C509.713 172.95 510.721 170.822 510.721 169.126C510.721 168.006 510.401 167.174 509.761 166.63C509.121 166.054 508.289 165.766 507.265 165.766C505.121 165.766 503.057 166.422 501.073 167.734L498.721 160.246C500.193 159.318 501.809 158.614 503.569 158.134C505.361 157.654 507.121 157.414 508.849 157.414C511.473 157.414 513.633 157.878 515.329 158.806C517.025 159.734 518.289 160.998 519.121 162.598C519.985 164.198 520.417 166.022 520.417 168.07C520.417 171.174 519.425 174.038 517.441 176.662C515.489 179.286 512.561 181.782 508.657 184.15H520.225V191.158H499.297Z" fill="black"/>
<line x1="96" y1="39" x2="96" y2="68.1438" stroke="black" stroke-width="4"/>
<line x1="342.925" y1="39" x2="342.925" y2="68.1438" stroke="black" stroke-width="4"/>
<line x1="95.7639" y1="53.3934" x2="341.807" y2="53.3934" stroke="black" stroke-width="4"/>
<line x1="61" y1="188.535" x2="86.4801" y2="188.535" stroke="black" stroke-width="4"/>
<line x1="61" y1="71.418" x2="86.4801" y2="71.418" stroke="black" stroke-width="4"/>
<line x1="73.3325" y1="189.699" x2="73.3325" y2="73" stroke="black" stroke-width="4"/>
<line y1="-2" x2="25.4801" y2="-2" transform="matrix(1 -3.19758e-08 -5.97541e-08 -1 154.753 68.2566)" stroke="#7C0000" stroke-width="4"/>
<line y1="-2" x2="25.4801" y2="-2" transform="matrix(1 -2.18317e-08 -8.75188e-08 -1 154.753 179.61)" stroke="#7C0000" stroke-width="4"/>
<line y1="-2" x2="110.955" y2="-2" transform="matrix(0 1 1 0 169.085 69.0519)" stroke="#7C0000" stroke-width="4"/>
<path d="M117.643 39H109.323V16.984H118.315C121.835 16.984 124.416 17.4747 126.059 18.456C127.701 19.416 128.523 20.7493 128.523 22.456C128.523 24.6747 127.36 26.2 125.035 27.032C128.021 27.608 129.515 29.368 129.515 32.312C129.515 34.5733 128.48 36.2587 126.411 37.368C124.363 38.456 121.44 39 117.643 39ZM116.459 25.688H118.987C119.84 25.688 120.533 25.496 121.067 25.112C121.6 24.728 121.867 24.216 121.867 23.576C121.867 22.104 120.864 21.368 118.859 21.368H116.459V25.688ZM119.179 34.488C120.245 34.488 121.067 34.2747 121.643 33.848C122.219 33.4213 122.507 32.824 122.507 32.056C122.507 31.224 122.219 30.584 121.643 30.136C121.067 29.6667 120.245 29.432 119.179 29.432H116.427V34.488H119.179ZM138.985 39.256C137.513 39.256 136.179 38.904 134.985 38.2C133.79 37.4747 132.841 36.4827 132.137 35.224C131.454 33.9653 131.113 32.5253 131.113 30.904C131.113 29.2827 131.454 27.864 132.137 26.648C132.841 25.432 133.79 24.4827 134.985 23.8C136.179 23.096 137.513 22.744 138.985 22.744C140.03 22.744 141.043 23.032 142.025 23.608C143.006 24.184 143.763 25.1333 144.297 26.456V22.968H150.953V39H144.233V36.024C143.721 37.0693 143.038 37.8693 142.185 38.424C141.331 38.9787 140.265 39.256 138.985 39.256ZM141.065 34.2C141.939 34.2 142.686 33.8907 143.305 33.272C143.923 32.632 144.233 31.8533 144.233 30.936C144.233 30.0187 143.923 29.272 143.305 28.696C142.686 28.0987 141.939 27.8 141.065 27.8C140.147 27.8 139.379 28.1093 138.76 28.728C138.142 29.3467 137.833 30.104 137.833 31C137.833 31.896 138.142 32.6533 138.76 33.272C139.379 33.8907 140.147 34.2 141.065 34.2ZM159.315 39.256C158.355 39.256 157.384 39.16 156.403 38.968C155.421 38.776 154.536 38.5093 153.747 38.168L154.674 34.136C155.165 34.392 155.837 34.616 156.691 34.808C157.544 34.9787 158.301 35.064 158.963 35.064C160.029 35.064 160.562 34.776 160.562 34.2C160.562 33.9227 160.392 33.72 160.051 33.592C159.731 33.464 159.304 33.3573 158.771 33.272C158.259 33.1653 157.704 33.0373 157.107 32.888C156.509 32.7173 155.944 32.472 155.411 32.152C154.899 31.8107 154.472 31.3307 154.131 30.712C153.811 30.0933 153.651 29.2827 153.651 28.28C153.651 26.5947 154.312 25.2507 155.635 24.248C156.979 23.2453 158.813 22.744 161.139 22.744C162.035 22.744 162.867 22.808 163.635 22.936C164.424 23.064 165.171 23.3307 165.875 23.736L165.203 27.64C164.072 27.1707 162.888 26.936 161.651 26.936C160.861 26.936 160.285 27 159.923 27.128C159.581 27.256 159.411 27.4693 159.411 27.768C159.411 28.0027 159.581 28.184 159.923 28.312C160.264 28.44 160.701 28.568 161.235 28.696C161.789 28.8027 162.365 28.9627 162.963 29.176C163.56 29.368 164.125 29.6453 164.659 30.008C165.213 30.3707 165.661 30.8613 166.003 31.48C166.344 32.0773 166.515 32.856 166.515 33.816C166.515 35.5227 165.885 36.856 164.627 37.816C163.368 38.776 161.597 39.256 159.315 39.256ZM178.708 34.776C179.327 34.776 179.978 34.712 180.66 34.584C181.364 34.456 182.079 34.2213 182.804 33.88L183.572 38.008C182.783 38.4133 181.919 38.7227 180.98 38.936C180.063 39.1493 179.007 39.256 177.812 39.256C175.658 39.256 173.844 38.904 172.372 38.2C170.922 37.496 169.823 36.5253 169.076 35.288C168.33 34.0507 167.956 32.6213 167.956 31C167.956 29.336 168.351 27.8853 169.14 26.648C169.951 25.4107 171.028 24.4507 172.372 23.768C173.716 23.0853 175.199 22.744 176.82 22.744C179.231 22.744 181.076 23.5013 182.356 25.016C183.636 26.5093 184.276 28.6427 184.276 31.416L174.74 32.632C175.444 34.0613 176.767 34.776 178.708 34.776ZM174.228 29.688L179.252 28.632C179.167 27.9493 178.932 27.448 178.548 27.128C178.164 26.7867 177.684 26.616 177.108 26.616C176.255 26.616 175.572 26.9147 175.06 27.512C174.57 28.088 174.292 28.8133 174.228 29.688ZM192.475 39V22.968H199.131V26.456C199.6 25.2613 200.272 24.344 201.147 23.704C202.043 23.064 203.163 22.744 204.507 22.744C205.83 22.744 206.95 23.0747 207.867 23.736C208.806 24.376 209.467 25.208 209.851 26.232C210.576 25.144 211.43 24.2907 212.411 23.672C213.414 23.0533 214.619 22.744 216.027 22.744C218.011 22.744 219.547 23.4693 220.635 24.92C221.723 26.3493 222.267 28.376 222.267 31V39H215.515V30.648C215.515 28.7493 214.843 27.8 213.499 27.8C212.667 27.8 211.995 28.1413 211.483 28.824C210.992 29.4853 210.747 30.3813 210.747 31.512V39H203.995V30.648C203.995 29.6453 203.824 28.92 203.483 28.472C203.142 28.024 202.64 27.8 201.979 27.8C201.147 27.8 200.475 28.1307 199.963 28.792C199.472 29.432 199.227 30.3387 199.227 31.512V39H192.475ZM232.391 39.256C230.919 39.256 229.585 38.904 228.391 38.2C227.196 37.4747 226.247 36.4827 225.543 35.224C224.86 33.9653 224.519 32.5253 224.519 30.904C224.519 29.2827 224.86 27.864 225.543 26.648C226.247 25.432 227.196 24.4827 228.391 23.8C229.585 23.096 230.919 22.744 232.391 22.744C233.436 22.744 234.449 23.032 235.431 23.608C236.412 24.184 237.169 25.1333 237.703 26.456V22.968H244.359V39H237.639V36.024C237.127 37.0693 236.444 37.8693 235.591 38.424C234.737 38.9787 233.671 39.256 232.391 39.256ZM234.471 34.2C235.345 34.2 236.092 33.8907 236.711 33.272C237.329 32.632 237.639 31.8533 237.639 30.936C237.639 30.0187 237.329 29.272 236.711 28.696C236.092 28.0987 235.345 27.8 234.471 27.8C233.553 27.8 232.785 28.1093 232.167 28.728C231.548 29.3467 231.239 30.104 231.239 31C231.239 31.896 231.548 32.6533 232.167 33.272C232.785 33.8907 233.553 34.2 234.471 34.2ZM253.489 39.256C252.059 39.256 250.897 39 250.001 38.488C249.126 37.976 248.486 37.2827 248.081 36.408C247.675 35.5333 247.473 34.552 247.473 33.464V22.968H254.225V32.536C254.225 33.0267 254.363 33.4107 254.641 33.688C254.939 33.944 255.291 34.072 255.697 34.072C256.123 34.072 256.561 33.944 257.009 33.688L257.361 38.136C256.891 38.4987 256.283 38.776 255.537 38.968C254.79 39.16 254.107 39.256 253.489 39.256ZM250.865 21.208C249.883 21.208 249.041 20.8987 248.337 20.28C247.633 19.64 247.281 18.8613 247.281 17.944C247.281 17.304 247.451 16.7493 247.793 16.28C248.134 15.7893 248.582 15.4053 249.137 15.128C249.691 14.8507 250.267 14.712 250.865 14.712C251.526 14.712 252.123 14.8613 252.657 15.16C253.211 15.4587 253.649 15.8533 253.969 16.344C254.31 16.8347 254.481 17.368 254.481 17.944C254.481 18.584 254.299 19.1493 253.937 19.64C253.595 20.1307 253.147 20.5147 252.593 20.792C252.059 21.0693 251.483 21.208 250.865 21.208ZM267.266 39.256C265.453 39.256 263.853 38.904 262.466 38.2C261.079 37.496 259.991 36.5253 259.202 35.288C258.434 34.0293 258.05 32.5893 258.05 30.968C258.05 29.304 258.445 27.864 259.234 26.648C260.045 25.4107 261.143 24.4507 262.53 23.768C263.917 23.0853 265.506 22.744 267.298 22.744C269.133 22.744 270.743 23.096 272.13 23.8C273.517 24.4827 274.594 25.4427 275.362 26.68C276.13 27.896 276.514 29.3253 276.514 30.968C276.514 32.6107 276.119 34.0613 275.33 35.32C274.562 36.5573 273.485 37.528 272.098 38.232C270.711 38.9147 269.101 39.256 267.266 39.256ZM267.33 34.456C268.205 34.456 268.919 34.136 269.474 33.496C270.05 32.8347 270.338 31.992 270.338 30.968C270.338 29.944 270.061 29.112 269.506 28.472C268.951 27.8107 268.247 27.48 267.394 27.48C266.477 27.48 265.73 27.8107 265.154 28.472C264.599 29.112 264.322 29.944 264.322 30.968C264.322 31.992 264.599 32.8347 265.154 33.496C265.73 34.136 266.455 34.456 267.33 34.456ZM278.913 39V22.968H285.569V26.968C285.995 25.5173 286.657 24.4507 287.553 23.768C288.47 23.0853 289.558 22.744 290.817 22.744L291.617 28.408C291.105 28.344 290.603 28.312 290.113 28.312C287.147 28.312 285.665 29.528 285.665 31.96V39H278.913ZM304.265 45.208C301.684 44.9733 299.497 44.2053 297.705 42.904C295.913 41.624 294.558 39.928 293.641 37.816C292.724 35.704 292.265 33.3147 292.265 30.648C292.265 27.832 292.756 25.4107 293.737 23.384C294.718 21.336 296.105 19.7147 297.897 18.52C299.689 17.3253 301.812 16.6107 304.265 16.376V20.408C302.772 20.664 301.588 21.656 300.713 23.384C299.838 25.112 299.401 27.5333 299.401 30.648C299.401 32.5253 299.561 34.2213 299.881 35.736C300.201 37.2293 300.713 38.4453 301.417 39.384C302.142 40.344 303.092 40.9307 304.265 41.144V45.208ZM316.33 39H308.01V16.984H317.002C320.522 16.984 323.103 17.4747 324.746 18.456C326.389 19.416 327.21 20.7493 327.21 22.456C327.21 24.6747 326.047 26.2 323.722 27.032C326.709 27.608 328.202 29.368 328.202 32.312C328.202 34.5733 327.167 36.2587 325.098 37.368C323.05 38.456 320.127 39 316.33 39ZM315.146 25.688H317.674C318.527 25.688 319.221 25.496 319.754 25.112C320.287 24.728 320.554 24.216 320.554 23.576C320.554 22.104 319.551 21.368 317.546 21.368H315.146V25.688ZM317.866 34.488C318.933 34.488 319.754 34.2747 320.33 33.848C320.906 33.4213 321.194 32.824 321.194 32.056C321.194 31.224 320.906 30.584 320.33 30.136C319.754 29.6667 318.933 29.432 317.866 29.432H315.114V34.488H317.866ZM328.798 45.208V41.144C330.312 40.888 331.507 39.8853 332.382 38.136C333.256 36.3653 333.694 33.8693 333.694 30.648C333.694 27.6827 333.267 25.304 332.414 23.512C331.582 21.6987 330.376 20.664 328.798 20.408V16.376C331.464 16.632 333.683 17.4107 335.454 18.712C337.224 19.992 338.558 21.656 339.454 23.704C340.35 25.752 340.798 28.0667 340.798 30.648C340.798 33.4 340.318 35.832 339.358 37.944C338.419 40.0347 337.054 41.7093 335.262 42.968C333.491 44.2267 331.336 44.9733 328.798 45.208Z" fill="black"/>
<path d="M9.56648 67.16C8.64648 67.16 7.81315 66.94 7.06648 66.5C6.31982 66.0467 5.72648 65.4267 5.28648 64.64C4.85982 63.8533 4.64648 62.9533 4.64648 61.94C4.64648 60.9267 4.85982 60.04 5.28648 59.28C5.72648 58.52 6.31982 57.9267 7.06648 57.5C7.81315 57.06 8.64648 56.84 9.56648 56.84C10.2198 56.84 10.8532 57.02 11.4665 57.38C12.0798 57.74 12.5532 58.3333 12.8865 59.16V56.98H17.0465V67H12.8465V65.14C12.5265 65.7933 12.0998 66.2933 11.5665 66.64C11.0332 66.9867 10.3665 67.16 9.56648 67.16ZM10.8665 64C11.4132 64 11.8798 63.8067 12.2665 63.42C12.6532 63.02 12.8465 62.5333 12.8465 61.96C12.8465 61.3867 12.6532 60.92 12.2665 60.56C11.8798 60.1867 11.4132 60 10.8665 60C10.2932 60 9.81315 60.1933 9.42648 60.58C9.03982 60.9667 8.84648 61.44 8.84648 62C8.84648 62.56 9.03982 63.0333 9.42648 63.42C9.81315 63.8067 10.2932 64 10.8665 64ZM22.9927 67.16C22.0461 67.16 21.2727 67 20.6727 66.68C20.0861 66.36 19.6594 65.9267 19.3927 65.38C19.1261 64.8333 18.9927 64.22 18.9927 63.54V53.42L23.2127 52.8V62.96C23.2127 63.2667 23.3127 63.5067 23.5127 63.68C23.7127 63.84 23.9727 63.92 24.2927 63.92C24.6127 63.92 24.9327 63.84 25.2527 63.68L25.5527 66.46C25.2327 66.6867 24.8261 66.86 24.3327 66.98C23.8394 67.1 23.3927 67.16 22.9927 67.16ZM30.6374 67.16C29.6908 67.16 28.9174 67 28.3174 66.68C27.7308 66.36 27.3041 65.9267 27.0374 65.38C26.7708 64.8333 26.6374 64.22 26.6374 63.54V59.46H25.3574V56.98H26.9374L28.7974 53.82H30.8574V56.98H33.1774V59.46H30.8574V62.96C30.8574 63.2667 30.9574 63.5067 31.1574 63.68C31.3574 63.84 31.6174 63.92 31.9374 63.92C32.2574 63.92 32.5774 63.84 32.8974 63.68L33.1974 66.46C32.8774 66.6867 32.4708 66.86 31.9774 66.98C31.4841 67.1 31.0374 67.16 30.6374 67.16ZM39.9387 67.16C38.2453 67.16 36.9187 66.7333 35.9587 65.88C35.012 65.0133 34.5387 63.82 34.5387 62.3V56.98H38.6587V62.48C38.6587 63.0133 38.772 63.4067 38.9987 63.66C39.2387 63.9133 39.5587 64.04 39.9587 64.04C40.3453 64.04 40.6453 63.9133 40.8587 63.66C41.0853 63.4067 41.1987 63.0133 41.1987 62.48V56.98H45.2387V62.3C45.2387 63.8333 44.772 65.0267 43.8387 65.88C42.9187 66.7333 41.6187 67.16 39.9387 67.16ZM47.1387 67V56.98H51.2987V59.48C51.5653 58.5733 51.9787 57.9067 52.5387 57.48C53.112 57.0533 53.792 56.84 54.5787 56.84L55.0787 60.38C54.7587 60.34 54.4453 60.32 54.1387 60.32C52.2853 60.32 51.3587 61.08 51.3587 62.6V67H47.1387ZM60.211 67.16C59.291 67.16 58.4577 66.94 57.711 66.5C56.9643 66.0467 56.371 65.4267 55.931 64.64C55.5043 63.8533 55.291 62.9533 55.291 61.94C55.291 60.9267 55.5043 60.04 55.931 59.28C56.371 58.52 56.9643 57.9267 57.711 57.5C58.4577 57.06 59.291 56.84 60.211 56.84C60.8643 56.84 61.4977 57.02 62.111 57.38C62.7243 57.74 63.1977 58.3333 63.531 59.16V56.98H67.691V67H63.491V65.14C63.171 65.7933 62.7443 66.2933 62.211 66.64C61.6777 66.9867 61.011 67.16 60.211 67.16ZM61.511 64C62.0577 64 62.5243 63.8067 62.911 63.42C63.2977 63.02 63.491 62.5333 63.491 61.96C63.491 61.3867 63.2977 60.92 62.911 60.56C62.5243 60.1867 62.0577 60 61.511 60C60.9377 60 60.4577 60.1933 60.071 60.58C59.6843 60.9667 59.491 61.44 59.491 62C59.491 62.56 59.6843 63.0333 60.071 63.42C60.4577 63.8067 60.9377 64 61.511 64ZM76.5973 70.88C74.9839 70.7333 73.6173 70.2533 72.4973 69.44C71.3773 68.64 70.5306 67.58 69.9573 66.26C69.3839 64.94 69.0973 63.4467 69.0973 61.78C69.0973 60.02 69.4039 58.5067 70.0173 57.24C70.6306 55.96 71.4973 54.9467 72.6173 54.2C73.7373 53.4533 75.0639 53.0067 76.5973 52.86V55.38C75.6639 55.54 74.9239 56.16 74.3773 57.24C73.8306 58.32 73.5573 59.8333 73.5573 61.78C73.5573 62.9533 73.6573 64.0133 73.8573 64.96C74.0573 65.8933 74.3773 66.6533 74.8173 67.24C75.2706 67.84 75.8639 68.2067 76.5973 68.34V70.88ZM78.0371 67V53.82L82.2571 53.2V59.04C82.5371 58.3467 82.9771 57.8067 83.5771 57.42C84.1771 57.0333 84.8971 56.84 85.7371 56.84C87.0438 56.84 88.0571 57.2933 88.7771 58.2C89.4971 59.0933 89.8571 60.36 89.8571 62V67H85.6371V61.78C85.6371 60.5933 85.1571 60 84.1971 60C83.6238 60 83.1571 60.2133 82.7971 60.64C82.4371 61.0533 82.2571 61.6133 82.2571 62.32V67H78.0371ZM90.9537 70.88V68.34C91.9003 68.18 92.647 67.5533 93.1937 66.46C93.7403 65.3533 94.0137 63.7933 94.0137 61.78C94.0137 59.9267 93.747 58.44 93.2137 57.32C92.6937 56.1867 91.9403 55.54 90.9537 55.38V52.86C92.6203 53.02 94.007 53.5067 95.1137 54.32C96.2203 55.12 97.0537 56.16 97.6137 57.44C98.1737 58.72 98.4537 60.1667 98.4537 61.78C98.4537 63.5 98.1537 65.02 97.5537 66.34C96.967 67.6467 96.1137 68.6933 94.9937 69.48C93.887 70.2667 92.5403 70.7333 90.9537 70.88Z" fill="black"/>
<path d="M156.357 183.478L99.1228 71.2596H213.592" stroke="black" stroke-width="8"/>
<path d="M275.59 180.361L151.588 180.361" stroke="black" stroke-width="8"/>
<path d="M270.821 183.478L328.055 71.2596H213.586" stroke="black" stroke-width="8"/>
<line x1="147" y1="190" x2="147" y2="219.144" stroke="black" stroke-width="4"/>
<line x1="278.022" y1="190" x2="278.022" y2="219.144" stroke="black" stroke-width="4"/>
<line x1="145.936" y1="204.393" x2="276.49" y2="204.393" stroke="black" stroke-width="4"/>
<path d="M105.143 241H96.8225V218.984H105.815C109.335 218.984 111.916 219.475 113.559 220.456C115.201 221.416 116.023 222.749 116.023 224.456C116.023 226.675 114.86 228.2 112.535 229.032C115.521 229.608 117.015 231.368 117.015 234.312C117.015 236.573 115.98 238.259 113.911 239.368C111.863 240.456 108.94 241 105.143 241ZM103.959 227.688H106.487C107.34 227.688 108.033 227.496 108.567 227.112C109.1 226.728 109.367 226.216 109.367 225.576C109.367 224.104 108.364 223.368 106.359 223.368H103.959V227.688ZM106.679 236.488C107.745 236.488 108.567 236.275 109.143 235.848C109.719 235.421 110.007 234.824 110.007 234.056C110.007 233.224 109.719 232.584 109.143 232.136C108.567 231.667 107.745 231.432 106.679 231.432H103.927V236.488H106.679ZM126.485 241.256C125.013 241.256 123.679 240.904 122.485 240.2C121.29 239.475 120.341 238.483 119.637 237.224C118.954 235.965 118.613 234.525 118.613 232.904C118.613 231.283 118.954 229.864 119.637 228.648C120.341 227.432 121.29 226.483 122.485 225.8C123.679 225.096 125.013 224.744 126.485 224.744C127.53 224.744 128.543 225.032 129.525 225.608C130.506 226.184 131.263 227.133 131.797 228.456V224.968H138.453V241H131.733V238.024C131.221 239.069 130.538 239.869 129.685 240.424C128.831 240.979 127.765 241.256 126.485 241.256ZM128.565 236.2C129.439 236.2 130.186 235.891 130.805 235.272C131.423 234.632 131.733 233.853 131.733 232.936C131.733 232.019 131.423 231.272 130.805 230.696C130.186 230.099 129.439 229.8 128.565 229.8C127.647 229.8 126.879 230.109 126.26 230.728C125.642 231.347 125.333 232.104 125.333 233C125.333 233.896 125.642 234.653 126.26 235.272C126.879 235.891 127.647 236.2 128.565 236.2ZM146.815 241.256C145.855 241.256 144.884 241.16 143.903 240.968C142.921 240.776 142.036 240.509 141.247 240.168L142.174 236.136C142.665 236.392 143.337 236.616 144.191 236.808C145.044 236.979 145.801 237.064 146.463 237.064C147.529 237.064 148.062 236.776 148.062 236.2C148.062 235.923 147.892 235.72 147.551 235.592C147.231 235.464 146.804 235.357 146.271 235.272C145.759 235.165 145.204 235.037 144.607 234.888C144.009 234.717 143.444 234.472 142.911 234.152C142.399 233.811 141.972 233.331 141.631 232.712C141.311 232.093 141.151 231.283 141.151 230.28C141.151 228.595 141.812 227.251 143.135 226.248C144.479 225.245 146.313 224.744 148.639 224.744C149.535 224.744 150.367 224.808 151.135 224.936C151.924 225.064 152.671 225.331 153.375 225.736L152.703 229.64C151.572 229.171 150.388 228.936 149.151 228.936C148.361 228.936 147.785 229 147.423 229.128C147.081 229.256 146.911 229.469 146.911 229.768C146.911 230.003 147.081 230.184 147.423 230.312C147.764 230.44 148.201 230.568 148.735 230.696C149.289 230.803 149.865 230.963 150.463 231.176C151.06 231.368 151.625 231.645 152.159 232.008C152.713 232.371 153.161 232.861 153.503 233.48C153.844 234.077 154.015 234.856 154.015 235.816C154.015 237.523 153.385 238.856 152.127 239.816C150.868 240.776 149.097 241.256 146.815 241.256ZM166.208 236.776C166.827 236.776 167.478 236.712 168.16 236.584C168.864 236.456 169.579 236.221 170.304 235.88L171.072 240.008C170.283 240.413 169.419 240.723 168.48 240.936C167.563 241.149 166.507 241.256 165.312 241.256C163.158 241.256 161.344 240.904 159.872 240.2C158.422 239.496 157.323 238.525 156.576 237.288C155.83 236.051 155.456 234.621 155.456 233C155.456 231.336 155.851 229.885 156.64 228.648C157.451 227.411 158.528 226.451 159.872 225.768C161.216 225.085 162.699 224.744 164.32 224.744C166.731 224.744 168.576 225.501 169.856 227.016C171.136 228.509 171.776 230.643 171.776 233.416L162.24 234.632C162.944 236.061 164.267 236.776 166.208 236.776ZM161.728 231.688L166.752 230.632C166.667 229.949 166.432 229.448 166.048 229.128C165.664 228.787 165.184 228.616 164.608 228.616C163.755 228.616 163.072 228.915 162.56 229.512C162.07 230.088 161.792 230.813 161.728 231.688ZM179.975 241V224.968H186.631V228.456C187.1 227.261 187.772 226.344 188.647 225.704C189.543 225.064 190.663 224.744 192.007 224.744C193.33 224.744 194.45 225.075 195.367 225.736C196.306 226.376 196.967 227.208 197.351 228.232C198.076 227.144 198.93 226.291 199.911 225.672C200.914 225.053 202.119 224.744 203.527 224.744C205.511 224.744 207.047 225.469 208.135 226.92C209.223 228.349 209.767 230.376 209.767 233V241H203.015V232.648C203.015 230.749 202.343 229.8 200.999 229.8C200.167 229.8 199.495 230.141 198.983 230.824C198.492 231.485 198.247 232.381 198.247 233.512V241H191.495V232.648C191.495 231.645 191.324 230.92 190.983 230.472C190.642 230.024 190.14 229.8 189.479 229.8C188.647 229.8 187.975 230.131 187.463 230.792C186.972 231.432 186.727 232.339 186.727 233.512V241H179.975ZM222.771 236.776C223.389 236.776 224.04 236.712 224.723 236.584C225.427 236.456 226.141 236.221 226.867 235.88L227.635 240.008C226.845 240.413 225.981 240.723 225.043 240.936C224.125 241.149 223.069 241.256 221.875 241.256C219.72 241.256 217.907 240.904 216.435 240.2C214.984 239.496 213.885 238.525 213.139 237.288C212.392 236.051 212.019 234.621 212.019 233C212.019 231.336 212.413 229.885 213.203 228.648C214.013 227.411 215.091 226.451 216.435 225.768C217.779 225.085 219.261 224.744 220.883 224.744C223.293 224.744 225.139 225.501 226.419 227.016C227.699 228.509 228.339 230.643 228.339 233.416L218.803 234.632C219.507 236.061 220.829 236.776 222.771 236.776ZM218.291 231.688L223.315 230.632C223.229 229.949 222.995 229.448 222.611 229.128C222.227 228.787 221.747 228.616 221.171 228.616C220.317 228.616 219.635 228.915 219.123 229.512C218.632 230.088 218.355 230.813 218.291 231.688ZM230.569 241V224.968H237.225V228.456C237.715 227.261 238.441 226.344 239.401 225.704C240.382 225.064 241.545 224.744 242.889 224.744C244.979 224.744 246.601 225.469 247.753 226.92C248.905 228.349 249.481 230.376 249.481 233V241H242.729V232.648C242.729 230.749 241.961 229.8 240.425 229.8C239.507 229.8 238.761 230.141 238.185 230.824C237.609 231.485 237.321 232.381 237.321 233.512V241H230.569ZM260.922 241.256C259.109 241.256 257.509 240.904 256.122 240.2C254.736 239.496 253.648 238.525 252.858 237.288C252.09 236.029 251.706 234.589 251.706 232.968C251.706 231.304 252.101 229.864 252.89 228.648C253.701 227.411 254.8 226.451 256.186 225.768C257.573 225.085 259.162 224.744 260.954 224.744C262.789 224.744 264.4 225.096 265.786 225.8C267.173 226.483 268.25 227.443 269.018 228.68C269.786 229.896 270.17 231.325 270.17 232.968C270.17 234.611 269.776 236.061 268.986 237.32C268.218 238.557 267.141 239.528 265.754 240.232C264.368 240.915 262.757 241.256 260.922 241.256ZM260.986 236.456C261.861 236.456 262.576 236.136 263.13 235.496C263.706 234.835 263.994 233.992 263.994 232.968C263.994 231.944 263.717 231.112 263.162 230.472C262.608 229.811 261.904 229.48 261.05 229.48C260.133 229.48 259.386 229.811 258.81 230.472C258.256 231.112 257.978 231.944 257.978 232.968C257.978 233.992 258.256 234.835 258.81 235.496C259.386 236.136 260.112 236.456 260.986 236.456ZM272.569 241V224.968H279.225V228.968C279.651 227.517 280.313 226.451 281.209 225.768C282.126 225.085 283.214 224.744 284.473 224.744L285.273 230.408C284.761 230.344 284.259 230.312 283.769 230.312C280.803 230.312 279.321 231.528 279.321 233.96V241H272.569ZM297.921 247.208C295.34 246.973 293.153 246.205 291.361 244.904C289.569 243.624 288.215 241.928 287.297 239.816C286.38 237.704 285.921 235.315 285.921 232.648C285.921 229.832 286.412 227.411 287.393 225.384C288.375 223.336 289.761 221.715 291.553 220.52C293.345 219.325 295.468 218.611 297.921 218.376V222.408C296.428 222.664 295.244 223.656 294.369 225.384C293.495 227.112 293.057 229.533 293.057 232.648C293.057 234.525 293.217 236.221 293.537 237.736C293.857 239.229 294.369 240.445 295.073 241.384C295.799 242.344 296.748 242.931 297.921 243.144V247.208ZM312.193 241.256C310.913 241.256 309.846 240.979 308.993 240.424C308.14 239.869 307.457 239.069 306.945 238.024V241H300.225V219.912L307.009 218.92V228.264C307.521 227.048 308.246 226.163 309.185 225.608C310.145 225.032 311.148 224.744 312.193 224.744C313.686 224.744 315.02 225.096 316.193 225.8C317.388 226.483 318.326 227.432 319.009 228.648C319.713 229.864 320.065 231.283 320.065 232.904C320.065 234.525 319.713 235.965 319.009 237.224C318.326 238.483 317.388 239.475 316.193 240.2C315.02 240.904 313.686 241.256 312.193 241.256ZM310.113 236.2C311.03 236.2 311.798 235.891 312.417 235.272C313.036 234.653 313.345 233.896 313.345 233C313.345 232.104 313.036 231.347 312.417 230.728C311.798 230.109 311.03 229.8 310.113 229.8C309.238 229.8 308.492 230.099 307.873 230.696C307.254 231.272 306.945 232.019 306.945 232.936C306.945 233.853 307.254 234.632 307.873 235.272C308.492 235.891 309.238 236.2 310.113 236.2ZM320.298 247.208V243.144C321.812 242.888 323.007 241.885 323.882 240.136C324.756 238.365 325.194 235.869 325.194 232.648C325.194 229.683 324.767 227.304 323.914 225.512C323.082 223.699 321.876 222.664 320.298 222.408V218.376C322.964 218.632 325.183 219.411 326.954 220.712C328.724 221.992 330.058 223.656 330.954 225.704C331.85 227.752 332.298 230.067 332.298 232.648C332.298 235.4 331.818 237.832 330.858 239.944C329.919 242.035 328.554 243.709 326.762 244.968C324.991 246.227 322.836 246.973 320.298 247.208Z" fill="black"/>
</svg>
