<svg width="668" height="256" viewBox="0 0 668 256" fill="none" xmlns="http://www.w3.org/2000/svg">
<line x1="361.65" y1="119.84" x2="428.622" y2="119.84" stroke="black" stroke-width="8"/>
<line x1="361.65" y1="147.927" x2="428.622" y2="147.927" stroke="black" stroke-width="8"/>
<line x1="482.2" y1="150.204" x2="642.933" y2="150.204" stroke="black" stroke-width="6"/>
<path d="M474.745 147.7C470.873 147.348 467.593 146.196 464.905 144.244C462.217 142.324 460.185 139.78 458.809 136.612C457.433 133.444 456.745 129.86 456.745 125.86C456.745 121.636 457.481 118.004 458.953 114.964C460.425 111.892 462.505 109.46 465.193 107.668C467.881 105.876 471.065 104.804 474.745 104.452V110.5C472.505 110.884 470.729 112.372 469.417 114.964C468.105 117.556 467.449 121.188 467.449 125.86C467.449 128.676 467.689 131.22 468.169 133.492C468.649 135.732 469.417 137.556 470.473 138.964C471.561 140.404 472.985 141.284 474.745 141.604V147.7ZM492.843 138.388H480.363V105.364H493.851C499.131 105.364 503.003 106.1 505.467 107.572C507.931 109.012 509.163 111.012 509.163 113.572C509.163 116.9 507.419 119.188 503.931 120.436C508.411 121.3 510.651 123.94 510.651 128.356C510.651 131.748 509.099 134.276 505.995 135.94C502.923 137.572 498.539 138.388 492.843 138.388ZM491.067 118.42H494.859C496.139 118.42 497.179 118.132 497.979 117.556C498.779 116.98 499.179 116.212 499.179 115.252C499.179 113.044 497.675 111.94 494.667 111.94H491.067V118.42ZM495.147 131.62C496.747 131.62 497.979 131.3 498.843 130.66C499.707 130.02 500.139 129.124 500.139 127.972C500.139 126.724 499.707 125.764 498.843 125.092C497.979 124.388 496.747 124.036 495.147 124.036H491.019V131.62H495.147ZM522.36 138.388V130.084H514.728V122.644H522.36V114.34H530.136V122.644H537.768V130.084H530.136V138.388H522.36ZM560.981 138.772C559.061 138.772 557.461 138.356 556.181 137.524C554.901 136.692 553.877 135.492 553.109 133.924V138.388H543.029V106.756L553.205 105.268V119.284C553.973 117.46 555.061 116.132 556.469 115.3C557.909 114.436 559.413 114.004 560.981 114.004C563.221 114.004 565.221 114.532 566.981 115.588C568.773 116.612 570.181 118.036 571.205 119.86C572.261 121.684 572.789 123.812 572.789 126.244C572.789 128.676 572.261 130.836 571.205 132.724C570.181 134.612 568.773 136.1 566.981 137.188C565.221 138.244 563.221 138.772 560.981 138.772ZM557.861 131.188C559.237 131.188 560.389 130.724 561.317 129.796C562.245 128.868 562.709 127.732 562.709 126.388C562.709 125.044 562.245 123.908 561.317 122.98C560.389 122.052 559.237 121.588 557.861 121.588C556.549 121.588 555.429 122.036 554.501 122.932C553.573 123.796 553.109 124.916 553.109 126.292C553.109 127.668 553.573 128.836 554.501 129.796C555.429 130.724 556.549 131.188 557.861 131.188ZM573.138 147.7V141.604C575.41 141.22 577.202 139.716 578.514 137.092C579.826 134.436 580.482 130.692 580.482 125.86C580.482 121.412 579.842 117.844 578.562 115.156C577.314 112.436 575.506 110.884 573.138 110.5V104.452C577.138 104.836 580.466 106.004 583.122 107.956C585.778 109.876 587.778 112.372 589.122 115.444C590.466 118.516 591.138 121.988 591.138 125.86C591.138 129.988 590.418 133.636 588.978 136.804C587.57 139.94 585.522 142.452 582.834 144.34C580.178 146.228 576.946 147.348 573.138 147.7ZM601.195 138.388L608.491 125.908L601.675 114.34H611.803L614.491 120.004L617.275 114.34H627.115L620.395 125.908L627.595 138.388H617.755L614.491 132.244L611.323 138.388H601.195ZM638.841 138.388V106.756L648.969 105.268V119.284C649.641 117.62 650.697 116.324 652.137 115.396C653.577 114.468 655.305 114.004 657.321 114.004C660.457 114.004 662.889 115.092 664.617 117.268C666.345 119.412 667.209 122.452 667.209 126.388V138.388H657.081V125.86C657.081 123.012 655.929 121.588 653.625 121.588C652.249 121.588 651.129 122.1 650.265 123.124C649.401 124.116 648.969 125.46 648.969 127.156V138.388H638.841ZM552.089 205.388V198.62C555.673 195.228 558.473 192.268 560.489 189.74C562.505 187.18 563.513 185.052 563.513 183.356C563.513 182.236 563.193 181.404 562.553 180.86C561.913 180.284 561.081 179.996 560.057 179.996C557.913 179.996 555.849 180.652 553.865 181.964L551.513 174.476C552.985 173.548 554.601 172.844 556.361 172.364C558.153 171.884 559.913 171.644 561.641 171.644C564.265 171.644 566.425 172.108 568.121 173.036C569.817 173.964 571.081 175.228 571.913 176.828C572.777 178.428 573.209 180.252 573.209 182.3C573.209 185.404 572.217 188.268 570.233 190.892C568.281 193.516 565.353 196.012 561.449 198.38H573.017V205.388H552.089Z" fill="black"/>
<line x1="100.226" y1="209.379" x2="100.226" y2="241.541" stroke="black" stroke-width="4"/>
<line x1="372.723" y1="209.379" x2="372.723" y2="241.541" stroke="black" stroke-width="4"/>
<line x1="100.172" y1="225.47" x2="371.696" y2="225.47" stroke="black" stroke-width="4"/>
<line x1="162.733" y1="43.4078" x2="162.733" y2="75.5697" stroke="black" stroke-width="4"/>
<line x1="307.323" y1="43.4078" x2="307.323" y2="75.5697" stroke="black" stroke-width="4"/>
<line x1="161.766" y1="59.4989" x2="305.84" y2="59.4989" stroke="black" stroke-width="4"/>
<line x1="47.3318" y1="206.862" x2="75.4506" y2="206.862" stroke="black" stroke-width="4"/>
<line x1="47.3318" y1="77.6167" x2="75.4506" y2="77.6167" stroke="black" stroke-width="4"/>
<line x1="61.1487" y1="207.939" x2="61.1487" y2="79.1553" stroke="black" stroke-width="4"/>
<line x1="170.779" y1="200.479" x2="198.898" y2="200.479" stroke="#7C0000" stroke-width="4"/>
<line x1="170.779" y1="77.5941" x2="198.898" y2="77.5941" stroke="#7C0000" stroke-width="4"/>
<line x1="184.596" y1="201.601" x2="184.596" y2="79.1553" stroke="#7C0000" stroke-width="4"/>
<path d="M159.857 251H153.617V234.488H160.361C163.001 234.488 164.937 234.856 166.169 235.592C167.401 236.312 168.017 237.312 168.017 238.592C168.017 240.256 167.145 241.4 165.401 242.024C167.641 242.456 168.761 243.776 168.761 245.984C168.761 247.68 167.985 248.944 166.433 249.776C164.897 250.592 162.705 251 159.857 251ZM158.969 241.016H160.865C161.505 241.016 162.025 240.872 162.425 240.584C162.825 240.296 163.025 239.912 163.025 239.432C163.025 238.328 162.273 237.776 160.769 237.776H158.969V241.016ZM161.009 247.616C161.809 247.616 162.425 247.456 162.857 247.136C163.289 246.816 163.505 246.368 163.505 245.792C163.505 245.168 163.289 244.688 162.857 244.352C162.425 244 161.809 243.824 161.009 243.824H158.945V247.616H161.009ZM175.863 251.192C174.759 251.192 173.759 250.928 172.863 250.4C171.967 249.856 171.255 249.112 170.727 248.168C170.215 247.224 169.959 246.144 169.959 244.928C169.959 243.712 170.215 242.648 170.727 241.736C171.255 240.824 171.967 240.112 172.863 239.6C173.759 239.072 174.759 238.808 175.863 238.808C176.647 238.808 177.407 239.024 178.143 239.456C178.879 239.888 179.447 240.6 179.847 241.592V238.976H184.839V251H179.799V248.768C179.415 249.552 178.903 250.152 178.263 250.568C177.623 250.984 176.823 251.192 175.863 251.192ZM177.423 247.4C178.079 247.4 178.639 247.168 179.103 246.704C179.567 246.224 179.799 245.64 179.799 244.952C179.799 244.264 179.567 243.704 179.103 243.272C178.639 242.824 178.079 242.6 177.423 242.6C176.735 242.6 176.159 242.832 175.695 243.296C175.231 243.76 174.999 244.328 174.999 245C174.999 245.672 175.231 246.24 175.695 246.704C176.159 247.168 176.735 247.4 177.423 247.4ZM191.111 251.192C190.391 251.192 189.663 251.12 188.927 250.976C188.191 250.832 187.527 250.632 186.935 250.376L187.631 247.352C187.999 247.544 188.503 247.712 189.143 247.856C189.783 247.984 190.351 248.048 190.847 248.048C191.647 248.048 192.047 247.832 192.047 247.4C192.047 247.192 191.919 247.04 191.663 246.944C191.423 246.848 191.103 246.768 190.703 246.704C190.319 246.624 189.903 246.528 189.455 246.416C189.007 246.288 188.583 246.104 188.183 245.864C187.799 245.608 187.479 245.248 187.223 244.784C186.983 244.32 186.863 243.712 186.863 242.96C186.863 241.696 187.359 240.688 188.351 239.936C189.359 239.184 190.735 238.808 192.479 238.808C193.151 238.808 193.775 238.856 194.351 238.952C194.943 239.048 195.503 239.248 196.031 239.552L195.527 242.48C194.679 242.128 193.791 241.952 192.863 241.952C192.271 241.952 191.839 242 191.567 242.096C191.311 242.192 191.183 242.352 191.183 242.576C191.183 242.752 191.311 242.888 191.567 242.984C191.823 243.08 192.151 243.176 192.551 243.272C192.967 243.352 193.399 243.472 193.847 243.632C194.295 243.776 194.719 243.984 195.119 244.256C195.535 244.528 195.871 244.896 196.127 245.36C196.383 245.808 196.511 246.392 196.511 247.112C196.511 248.392 196.039 249.392 195.095 250.112C194.151 250.832 192.823 251.192 191.111 251.192ZM205.656 247.832C206.12 247.832 206.608 247.784 207.12 247.688C207.648 247.592 208.184 247.416 208.728 247.16L209.304 250.256C208.712 250.56 208.064 250.792 207.36 250.952C206.672 251.112 205.88 251.192 204.984 251.192C203.368 251.192 202.008 250.928 200.904 250.4C199.816 249.872 198.992 249.144 198.432 248.216C197.872 247.288 197.592 246.216 197.592 245C197.592 243.752 197.888 242.664 198.48 241.736C199.088 240.808 199.896 240.088 200.904 239.576C201.912 239.064 203.024 238.808 204.24 238.808C206.048 238.808 207.432 239.376 208.392 240.512C209.352 241.632 209.832 243.232 209.832 245.312L202.68 246.224C203.208 247.296 204.2 247.832 205.656 247.832ZM202.296 244.016L206.064 243.224C206 242.712 205.824 242.336 205.536 242.096C205.248 241.84 204.888 241.712 204.456 241.712C203.816 241.712 203.304 241.936 202.92 242.384C202.552 242.816 202.344 243.36 202.296 244.016ZM215.981 251V238.976H220.973V241.592C221.325 240.696 221.829 240.008 222.485 239.528C223.157 239.048 223.997 238.808 225.005 238.808C225.997 238.808 226.837 239.056 227.525 239.552C228.229 240.032 228.725 240.656 229.013 241.424C229.557 240.608 230.197 239.968 230.933 239.504C231.685 239.04 232.589 238.808 233.645 238.808C235.133 238.808 236.285 239.352 237.101 240.44C237.917 241.512 238.325 243.032 238.325 245V251H233.261V244.736C233.261 243.312 232.757 242.6 231.749 242.6C231.125 242.6 230.621 242.856 230.237 243.368C229.869 243.864 229.685 244.536 229.685 245.384V251H224.621V244.736C224.621 243.984 224.493 243.44 224.237 243.104C223.981 242.768 223.605 242.6 223.109 242.6C222.485 242.6 221.981 242.848 221.597 243.344C221.229 243.824 221.045 244.504 221.045 245.384V251H215.981ZM245.918 251.192C244.814 251.192 243.814 250.928 242.918 250.4C242.022 249.856 241.31 249.112 240.782 248.168C240.27 247.224 240.014 246.144 240.014 244.928C240.014 243.712 240.27 242.648 240.782 241.736C241.31 240.824 242.022 240.112 242.918 239.6C243.814 239.072 244.814 238.808 245.918 238.808C246.702 238.808 247.462 239.024 248.198 239.456C248.934 239.888 249.502 240.6 249.902 241.592V238.976H254.894V251H249.854V248.768C249.47 249.552 248.958 250.152 248.318 250.568C247.678 250.984 246.878 251.192 245.918 251.192ZM247.478 247.4C248.134 247.4 248.694 247.168 249.158 246.704C249.622 246.224 249.854 245.64 249.854 244.952C249.854 244.264 249.622 243.704 249.158 243.272C248.694 242.824 248.134 242.6 247.478 242.6C246.79 242.6 246.214 242.832 245.75 243.296C245.286 243.76 245.054 244.328 245.054 245C245.054 245.672 245.286 246.24 245.75 246.704C246.214 247.168 246.79 247.4 247.478 247.4ZM261.742 251.192C260.67 251.192 259.798 251 259.126 250.616C258.47 250.232 257.99 249.712 257.686 249.056C257.382 248.4 257.23 247.664 257.23 246.848V238.976H262.294V246.152C262.294 246.52 262.398 246.808 262.606 247.016C262.83 247.208 263.094 247.304 263.398 247.304C263.718 247.304 264.046 247.208 264.382 247.016L264.646 250.352C264.294 250.624 263.838 250.832 263.278 250.976C262.718 251.12 262.206 251.192 261.742 251.192ZM259.774 237.656C259.038 237.656 258.406 237.424 257.878 236.96C257.35 236.48 257.086 235.896 257.086 235.208C257.086 234.728 257.214 234.312 257.47 233.96C257.726 233.592 258.062 233.304 258.478 233.096C258.894 232.888 259.326 232.784 259.774 232.784C260.27 232.784 260.718 232.896 261.118 233.12C261.534 233.344 261.862 233.64 262.102 234.008C262.358 234.376 262.486 234.776 262.486 235.208C262.486 235.688 262.35 236.112 262.078 236.48C261.822 236.848 261.486 237.136 261.07 237.344C260.67 237.552 260.238 237.656 259.774 237.656ZM272.075 251.192C270.715 251.192 269.515 250.928 268.475 250.4C267.435 249.872 266.619 249.144 266.027 248.216C265.451 247.272 265.163 246.192 265.163 244.976C265.163 243.728 265.459 242.648 266.051 241.736C266.659 240.808 267.483 240.088 268.523 239.576C269.563 239.064 270.755 238.808 272.099 238.808C273.475 238.808 274.683 239.072 275.723 239.6C276.763 240.112 277.571 240.832 278.147 241.76C278.723 242.672 279.011 243.744 279.011 244.976C279.011 246.208 278.715 247.296 278.122 248.24C277.547 249.168 276.739 249.896 275.699 250.424C274.659 250.936 273.451 251.192 272.075 251.192ZM272.123 247.592C272.779 247.592 273.315 247.352 273.731 246.872C274.163 246.376 274.379 245.744 274.379 244.976C274.379 244.208 274.171 243.584 273.755 243.104C273.339 242.608 272.811 242.36 272.171 242.36C271.483 242.36 270.923 242.608 270.491 243.104C270.075 243.584 269.867 244.208 269.867 244.976C269.867 245.744 270.075 246.376 270.491 246.872C270.923 247.352 271.467 247.592 272.123 247.592ZM280.809 251V238.976H285.801V241.976C286.121 240.888 286.617 240.088 287.289 239.576C287.977 239.064 288.793 238.808 289.737 238.808L290.337 243.056C289.953 243.008 289.577 242.984 289.209 242.984C286.985 242.984 285.873 243.896 285.873 245.72V251H280.809ZM299.824 255.656C297.888 255.48 296.248 254.904 294.904 253.928C293.56 252.968 292.544 251.696 291.856 250.112C291.168 248.528 290.824 246.736 290.824 244.736C290.824 242.624 291.192 240.808 291.928 239.288C292.664 237.752 293.704 236.536 295.048 235.64C296.392 234.744 297.984 234.208 299.824 234.032V237.056C298.704 237.248 297.816 237.992 297.16 239.288C296.504 240.584 296.176 242.4 296.176 244.736C296.176 246.144 296.296 247.416 296.536 248.552C296.776 249.672 297.16 250.584 297.688 251.288C298.232 252.008 298.944 252.448 299.824 252.608V255.656ZM308.873 251H302.633V234.488H309.377C312.017 234.488 313.953 234.856 315.185 235.592C316.417 236.312 317.033 237.312 317.033 238.592C317.033 240.256 316.161 241.4 314.417 242.024C316.657 242.456 317.777 243.776 317.777 245.984C317.777 247.68 317.001 248.944 315.449 249.776C313.913 250.592 311.721 251 308.873 251ZM307.985 241.016H309.881C310.521 241.016 311.041 240.872 311.441 240.584C311.841 240.296 312.041 239.912 312.041 239.432C312.041 238.328 311.289 237.776 309.785 237.776H307.985V241.016ZM310.025 247.616C310.825 247.616 311.441 247.456 311.873 247.136C312.305 246.816 312.521 246.368 312.521 245.792C312.521 245.168 312.305 244.688 311.873 244.352C311.441 244 310.825 243.824 310.025 243.824H307.961V247.616H310.025ZM318.223 255.656V252.608C319.359 252.416 320.255 251.664 320.911 250.352C321.567 249.024 321.895 247.152 321.895 244.736C321.895 242.512 321.575 240.728 320.935 239.384C320.311 238.024 319.407 237.248 318.223 237.056V234.032C320.223 234.224 321.887 234.808 323.215 235.784C324.543 236.744 325.543 237.992 326.215 239.528C326.887 241.064 327.223 242.8 327.223 244.736C327.223 246.8 326.863 248.624 326.143 250.208C325.439 251.776 324.415 253.032 323.071 253.976C321.743 254.92 320.127 255.48 318.223 255.656Z" fill="black"/>
<path d="M156.357 31H150.117V14.488H156.861C159.501 14.488 161.437 14.856 162.669 15.592C163.901 16.312 164.517 17.312 164.517 18.592C164.517 20.256 163.645 21.4 161.901 22.024C164.141 22.456 165.261 23.776 165.261 25.984C165.261 27.68 164.485 28.944 162.933 29.776C161.397 30.592 159.205 31 156.357 31ZM155.469 21.016H157.365C158.005 21.016 158.525 20.872 158.925 20.584C159.325 20.296 159.525 19.912 159.525 19.432C159.525 18.328 158.773 17.776 157.269 17.776H155.469V21.016ZM157.509 27.616C158.309 27.616 158.925 27.456 159.357 27.136C159.789 26.816 160.005 26.368 160.005 25.792C160.005 25.168 159.789 24.688 159.357 24.352C158.925 24 158.309 23.824 157.509 23.824H155.445V27.616H157.509ZM172.363 31.192C171.259 31.192 170.259 30.928 169.363 30.4C168.467 29.856 167.755 29.112 167.227 28.168C166.715 27.224 166.459 26.144 166.459 24.928C166.459 23.712 166.715 22.648 167.227 21.736C167.755 20.824 168.467 20.112 169.363 19.6C170.259 19.072 171.259 18.808 172.363 18.808C173.147 18.808 173.907 19.024 174.643 19.456C175.379 19.888 175.947 20.6 176.347 21.592V18.976H181.339V31H176.299V28.768C175.915 29.552 175.403 30.152 174.763 30.568C174.123 30.984 173.323 31.192 172.363 31.192ZM173.923 27.4C174.579 27.4 175.139 27.168 175.603 26.704C176.067 26.224 176.299 25.64 176.299 24.952C176.299 24.264 176.067 23.704 175.603 23.272C175.139 22.824 174.579 22.6 173.923 22.6C173.235 22.6 172.659 22.832 172.195 23.296C171.731 23.76 171.499 24.328 171.499 25C171.499 25.672 171.731 26.24 172.195 26.704C172.659 27.168 173.235 27.4 173.923 27.4ZM187.611 31.192C186.891 31.192 186.163 31.12 185.427 30.976C184.691 30.832 184.027 30.632 183.435 30.376L184.131 27.352C184.499 27.544 185.003 27.712 185.643 27.856C186.283 27.984 186.851 28.048 187.347 28.048C188.147 28.048 188.547 27.832 188.547 27.4C188.547 27.192 188.419 27.04 188.163 26.944C187.923 26.848 187.603 26.768 187.203 26.704C186.819 26.624 186.403 26.528 185.955 26.416C185.507 26.288 185.083 26.104 184.683 25.864C184.299 25.608 183.979 25.248 183.723 24.784C183.483 24.32 183.363 23.712 183.363 22.96C183.363 21.696 183.859 20.688 184.851 19.936C185.859 19.184 187.235 18.808 188.979 18.808C189.651 18.808 190.275 18.856 190.851 18.952C191.443 19.048 192.003 19.248 192.531 19.552L192.027 22.48C191.179 22.128 190.291 21.952 189.363 21.952C188.771 21.952 188.339 22 188.067 22.096C187.811 22.192 187.683 22.352 187.683 22.576C187.683 22.752 187.811 22.888 188.067 22.984C188.323 23.08 188.651 23.176 189.051 23.272C189.467 23.352 189.899 23.472 190.347 23.632C190.795 23.776 191.219 23.984 191.619 24.256C192.035 24.528 192.371 24.896 192.627 25.36C192.883 25.808 193.011 26.392 193.011 27.112C193.011 28.392 192.539 29.392 191.595 30.112C190.651 30.832 189.323 31.192 187.611 31.192ZM202.156 27.832C202.62 27.832 203.108 27.784 203.62 27.688C204.148 27.592 204.684 27.416 205.228 27.16L205.804 30.256C205.212 30.56 204.564 30.792 203.86 30.952C203.172 31.112 202.38 31.192 201.484 31.192C199.868 31.192 198.508 30.928 197.404 30.4C196.316 29.872 195.492 29.144 194.932 28.216C194.372 27.288 194.092 26.216 194.092 25C194.092 23.752 194.388 22.664 194.98 21.736C195.588 20.808 196.396 20.088 197.404 19.576C198.412 19.064 199.524 18.808 200.74 18.808C202.548 18.808 203.932 19.376 204.892 20.512C205.852 21.632 206.332 23.232 206.332 25.312L199.18 26.224C199.708 27.296 200.7 27.832 202.156 27.832ZM198.796 24.016L202.564 23.224C202.5 22.712 202.324 22.336 202.036 22.096C201.748 21.84 201.388 21.712 200.956 21.712C200.316 21.712 199.804 21.936 199.42 22.384C199.052 22.816 198.844 23.36 198.796 24.016ZM212.481 31V18.976H217.473V21.592C217.825 20.696 218.329 20.008 218.985 19.528C219.657 19.048 220.497 18.808 221.505 18.808C222.497 18.808 223.337 19.056 224.025 19.552C224.729 20.032 225.225 20.656 225.513 21.424C226.057 20.608 226.697 19.968 227.433 19.504C228.185 19.04 229.089 18.808 230.145 18.808C231.633 18.808 232.785 19.352 233.601 20.44C234.417 21.512 234.825 23.032 234.825 25V31H229.761V24.736C229.761 23.312 229.257 22.6 228.249 22.6C227.625 22.6 227.121 22.856 226.737 23.368C226.369 23.864 226.185 24.536 226.185 25.384V31H221.121V24.736C221.121 23.984 220.993 23.44 220.737 23.104C220.481 22.768 220.105 22.6 219.609 22.6C218.985 22.6 218.481 22.848 218.097 23.344C217.729 23.824 217.545 24.504 217.545 25.384V31H212.481ZM244.578 27.832C245.042 27.832 245.53 27.784 246.042 27.688C246.57 27.592 247.106 27.416 247.65 27.16L248.226 30.256C247.634 30.56 246.986 30.792 246.282 30.952C245.594 31.112 244.802 31.192 243.906 31.192C242.29 31.192 240.93 30.928 239.826 30.4C238.738 29.872 237.914 29.144 237.354 28.216C236.794 27.288 236.514 26.216 236.514 25C236.514 23.752 236.81 22.664 237.402 21.736C238.01 20.808 238.818 20.088 239.826 19.576C240.834 19.064 241.946 18.808 243.162 18.808C244.97 18.808 246.354 19.376 247.314 20.512C248.274 21.632 248.754 23.232 248.754 25.312L241.602 26.224C242.13 27.296 243.122 27.832 244.578 27.832ZM241.218 24.016L244.986 23.224C244.922 22.712 244.746 22.336 244.458 22.096C244.17 21.84 243.81 21.712 243.378 21.712C242.738 21.712 242.226 21.936 241.842 22.384C241.474 22.816 241.266 23.36 241.218 24.016ZM250.427 31V18.976H255.419V21.592C255.787 20.696 256.331 20.008 257.051 19.528C257.787 19.048 258.659 18.808 259.667 18.808C261.235 18.808 262.451 19.352 263.315 20.44C264.179 21.512 264.611 23.032 264.611 25V31H259.547V24.736C259.547 23.312 258.971 22.6 257.819 22.6C257.131 22.6 256.571 22.856 256.139 23.368C255.707 23.864 255.491 24.536 255.491 25.384V31H250.427ZM273.192 31.192C271.832 31.192 270.632 30.928 269.592 30.4C268.552 29.872 267.736 29.144 267.144 28.216C266.568 27.272 266.28 26.192 266.28 24.976C266.28 23.728 266.576 22.648 267.168 21.736C267.776 20.808 268.6 20.088 269.64 19.576C270.68 19.064 271.872 18.808 273.216 18.808C274.592 18.808 275.8 19.072 276.84 19.6C277.88 20.112 278.688 20.832 279.264 21.76C279.84 22.672 280.128 23.744 280.128 24.976C280.128 26.208 279.832 27.296 279.24 28.24C278.664 29.168 277.856 29.896 276.816 30.424C275.776 30.936 274.568 31.192 273.192 31.192ZM273.24 27.592C273.896 27.592 274.432 27.352 274.848 26.872C275.28 26.376 275.496 25.744 275.496 24.976C275.496 24.208 275.288 23.584 274.872 23.104C274.456 22.608 273.928 22.36 273.288 22.36C272.6 22.36 272.04 22.608 271.608 23.104C271.192 23.584 270.984 24.208 270.984 24.976C270.984 25.744 271.192 26.376 271.608 26.872C272.04 27.352 272.584 27.592 273.24 27.592ZM281.927 31V18.976H286.919V21.976C287.239 20.888 287.735 20.088 288.407 19.576C289.095 19.064 289.911 18.808 290.855 18.808L291.455 23.056C291.071 23.008 290.695 22.984 290.327 22.984C288.103 22.984 286.991 23.896 286.991 25.72V31H281.927ZM300.941 35.656C299.005 35.48 297.365 34.904 296.021 33.928C294.677 32.968 293.661 31.696 292.973 30.112C292.285 28.528 291.941 26.736 291.941 24.736C291.941 22.624 292.309 20.808 293.045 19.288C293.781 17.752 294.821 16.536 296.165 15.64C297.509 14.744 299.101 14.208 300.941 14.032V17.056C299.821 17.248 298.933 17.992 298.277 19.288C297.621 20.584 297.293 22.4 297.293 24.736C297.293 26.144 297.413 27.416 297.653 28.552C297.893 29.672 298.277 30.584 298.805 31.288C299.349 32.008 300.061 32.448 300.941 32.608V35.656ZM311.645 31.192C310.685 31.192 309.885 30.984 309.245 30.568C308.605 30.152 308.093 29.552 307.709 28.768V31H302.669V15.184L307.757 14.44V21.448C308.141 20.536 308.685 19.872 309.389 19.456C310.109 19.024 310.861 18.808 311.645 18.808C312.765 18.808 313.765 19.072 314.645 19.6C315.541 20.112 316.245 20.824 316.757 21.736C317.285 22.648 317.549 23.712 317.549 24.928C317.549 26.144 317.285 27.224 316.757 28.168C316.245 29.112 315.541 29.856 314.645 30.4C313.765 30.928 312.765 31.192 311.645 31.192ZM310.085 27.4C310.773 27.4 311.349 27.168 311.813 26.704C312.277 26.24 312.509 25.672 312.509 25C312.509 24.328 312.277 23.76 311.813 23.296C311.349 22.832 310.773 22.6 310.085 22.6C309.429 22.6 308.869 22.824 308.405 23.272C307.941 23.704 307.709 24.264 307.709 24.952C307.709 25.64 307.941 26.224 308.405 26.704C308.869 27.168 309.429 27.4 310.085 27.4ZM317.723 35.656V32.608C318.859 32.416 319.755 31.664 320.411 30.352C321.067 29.024 321.395 27.152 321.395 24.736C321.395 22.512 321.075 20.728 320.435 19.384C319.811 18.024 318.907 17.248 317.723 17.056V14.032C319.723 14.224 321.387 14.808 322.715 15.784C324.043 16.744 325.043 17.992 325.715 19.528C326.387 21.064 326.723 22.8 326.723 24.736C326.723 26.8 326.363 28.624 325.643 30.208C324.939 31.776 323.915 33.032 322.571 33.976C321.243 34.92 319.627 35.48 317.723 35.656Z" fill="black"/>
<path d="M13.1798 57.192C12.0758 57.192 11.0758 56.928 10.1798 56.4C9.28378 55.856 8.57178 55.112 8.04378 54.168C7.53178 53.224 7.27578 52.144 7.27578 50.928C7.27578 49.712 7.53178 48.648 8.04378 47.736C8.57178 46.824 9.28378 46.112 10.1798 45.6C11.0758 45.072 12.0758 44.808 13.1798 44.808C13.9638 44.808 14.7238 45.024 15.4598 45.456C16.1958 45.888 16.7638 46.6 17.1638 47.592V44.976H22.1558V57H17.1158V54.768C16.7318 55.552 16.2198 56.152 15.5798 56.568C14.9398 56.984 14.1398 57.192 13.1798 57.192ZM14.7398 53.4C15.3958 53.4 15.9558 53.168 16.4198 52.704C16.8838 52.224 17.1158 51.64 17.1158 50.952C17.1158 50.264 16.8838 49.704 16.4198 49.272C15.9558 48.824 15.3958 48.6 14.7398 48.6C14.0518 48.6 13.4758 48.832 13.0118 49.296C12.5478 49.76 12.3158 50.328 12.3158 51C12.3158 51.672 12.5478 52.24 13.0118 52.704C13.4758 53.168 14.0518 53.4 14.7398 53.4ZM29.2913 57.192C28.1553 57.192 27.2273 57 26.5073 56.616C25.8033 56.232 25.2913 55.712 24.9713 55.056C24.6513 54.4 24.4913 53.664 24.4913 52.848V40.704L29.5553 39.96V52.152C29.5553 52.52 29.6753 52.808 29.9153 53.016C30.1553 53.208 30.4673 53.304 30.8513 53.304C31.2353 53.304 31.6193 53.208 32.0033 53.016L32.3633 56.352C31.9793 56.624 31.4913 56.832 30.8993 56.976C30.3073 57.12 29.7713 57.192 29.2913 57.192ZM38.4649 57.192C37.3289 57.192 36.4009 57 35.6809 56.616C34.9769 56.232 34.4649 55.712 34.1449 55.056C33.8249 54.4 33.6649 53.664 33.6649 52.848V47.952H32.1289V44.976H34.0249L36.2569 41.184H38.7289V44.976H41.5129V47.952H38.7289V52.152C38.7289 52.52 38.8489 52.808 39.0889 53.016C39.3289 53.208 39.6409 53.304 40.0249 53.304C40.4089 53.304 40.7929 53.208 41.1769 53.016L41.5369 56.352C41.1529 56.624 40.6649 56.832 40.0729 56.976C39.4809 57.12 38.9449 57.192 38.4649 57.192ZM49.6264 57.192C47.5944 57.192 46.0024 56.68 44.8504 55.656C43.7144 54.616 43.1464 53.184 43.1464 51.36V44.976H48.0904V51.576C48.0904 52.216 48.2264 52.688 48.4984 52.992C48.7864 53.296 49.1704 53.448 49.6504 53.448C50.1144 53.448 50.4744 53.296 50.7304 52.992C51.0024 52.688 51.1384 52.216 51.1384 51.576V44.976H55.9864V51.36C55.9864 53.2 55.4264 54.632 54.3064 55.656C53.2024 56.68 51.6424 57.192 49.6264 57.192ZM58.2664 57V44.976H63.2584V47.976C63.5784 46.888 64.0744 46.088 64.7464 45.576C65.4344 45.064 66.2504 44.808 67.1944 44.808L67.7944 49.056C67.4104 49.008 67.0344 48.984 66.6664 48.984C64.4424 48.984 63.3304 49.896 63.3304 51.72V57H58.2664ZM73.9532 57.192C72.8492 57.192 71.8492 56.928 70.9532 56.4C70.0572 55.856 69.3452 55.112 68.8172 54.168C68.3052 53.224 68.0492 52.144 68.0492 50.928C68.0492 49.712 68.3052 48.648 68.8172 47.736C69.3452 46.824 70.0572 46.112 70.9532 45.6C71.8492 45.072 72.8492 44.808 73.9532 44.808C74.7372 44.808 75.4972 45.024 76.2332 45.456C76.9692 45.888 77.5372 46.6 77.9372 47.592V44.976H82.9292V57H77.8892V54.768C77.5052 55.552 76.9932 56.152 76.3532 56.568C75.7132 56.984 74.9132 57.192 73.9532 57.192ZM75.5132 53.4C76.1692 53.4 76.7292 53.168 77.1932 52.704C77.6572 52.224 77.8892 51.64 77.8892 50.952C77.8892 50.264 77.6572 49.704 77.1932 49.272C76.7292 48.824 76.1692 48.6 75.5132 48.6C74.8252 48.6 74.2492 48.832 73.7852 49.296C73.3212 49.76 73.0892 50.328 73.0892 51C73.0892 51.672 73.3212 52.24 73.7852 52.704C74.2492 53.168 74.8252 53.4 75.5132 53.4ZM93.6167 61.656C91.6807 61.48 90.0407 60.904 88.6967 59.928C87.3527 58.968 86.3367 57.696 85.6487 56.112C84.9607 54.528 84.6167 52.736 84.6167 50.736C84.6167 48.624 84.9847 46.808 85.7207 45.288C86.4567 43.752 87.4967 42.536 88.8407 41.64C90.1847 40.744 91.7767 40.208 93.6167 40.032V43.056C92.4967 43.248 91.6087 43.992 90.9527 45.288C90.2967 46.584 89.9687 48.4 89.9687 50.736C89.9687 52.144 90.0887 53.416 90.3287 54.552C90.5687 55.672 90.9527 56.584 91.4807 57.288C92.0247 58.008 92.7367 58.448 93.6167 58.608V61.656ZM95.3445 57V41.184L100.409 40.44V47.448C100.745 46.616 101.273 45.968 101.993 45.504C102.713 45.04 103.577 44.808 104.585 44.808C106.153 44.808 107.369 45.352 108.233 46.44C109.097 47.512 109.529 49.032 109.529 51V57H104.465V50.736C104.465 49.312 103.889 48.6 102.737 48.6C102.049 48.6 101.489 48.856 101.057 49.368C100.625 49.864 100.409 50.536 100.409 51.384V57H95.3445ZM110.844 61.656V58.608C111.98 58.416 112.876 57.664 113.532 56.352C114.188 55.024 114.516 53.152 114.516 50.736C114.516 48.512 114.196 46.728 113.556 45.384C112.932 44.024 112.028 43.248 110.844 43.056V40.032C112.844 40.224 114.508 40.808 115.836 41.784C117.164 42.744 118.164 43.992 118.836 45.528C119.508 47.064 119.844 48.8 119.844 50.736C119.844 52.8 119.484 54.624 118.764 56.208C118.06 57.776 117.036 59.032 115.692 59.976C114.364 60.92 112.748 61.48 110.844 61.656Z" fill="black"/>
<path d="M172.55 75.3253L109.388 199.165H235.712" stroke="black" stroke-width="8"/>
<path d="M304.13 78.7653L167.287 78.7653" stroke="black" stroke-width="8"/>
<path d="M298.867 75.3253L362.029 199.165H235.705" stroke="black" stroke-width="8"/>
</svg>
