<svg width="692" height="253" viewBox="0 0 692 253" fill="none" xmlns="http://www.w3.org/2000/svg">
<line x1="384.712" y1="113.218" x2="445.399" y2="113.218" stroke="black" stroke-width="8"/>
<line x1="384.712" y1="138.67" x2="445.399" y2="138.67" stroke="black" stroke-width="8"/>
<line x1="493.949" y1="140.827" x2="639.599" y2="140.827" stroke="black" stroke-width="6"/>
<path d="M478.953 138.47C475.081 138.118 471.801 136.966 469.113 135.014C466.425 133.094 464.393 130.55 463.017 127.382C461.641 124.214 460.953 120.63 460.953 116.63C460.953 112.406 461.689 108.774 463.161 105.734C464.633 102.662 466.713 100.23 469.401 98.4384C472.089 96.6464 475.273 95.5744 478.953 95.2224V101.27C476.713 101.654 474.937 103.142 473.625 105.734C472.313 108.326 471.657 111.958 471.657 116.63C471.657 119.446 471.897 121.99 472.377 124.262C472.857 126.502 473.625 128.326 474.681 129.734C475.769 131.174 477.193 132.054 478.953 132.374V138.47ZM497.05 129.158H484.57V96.1344H498.058C503.338 96.1344 507.21 96.8704 509.674 98.3424C512.138 99.7824 513.37 101.782 513.37 104.342C513.37 107.67 511.626 109.958 508.138 111.206C512.618 112.07 514.858 114.71 514.858 119.126C514.858 122.518 513.306 125.046 510.202 126.71C507.13 128.342 502.746 129.158 497.05 129.158ZM495.274 109.19H499.066C500.346 109.19 501.386 108.902 502.186 108.326C502.986 107.75 503.386 106.982 503.386 106.022C503.386 103.814 501.882 102.71 498.874 102.71H495.274V109.19ZM499.354 122.39C500.954 122.39 502.186 122.07 503.05 121.43C503.914 120.79 504.346 119.894 504.346 118.742C504.346 117.494 503.914 116.534 503.05 115.862C502.186 115.158 500.954 114.806 499.354 114.806H495.226V122.39H499.354ZM526.567 129.158V120.854H518.935V113.414H526.567V105.11H534.343V113.414H541.975V120.854H534.343V129.158H526.567ZM565.189 129.542C563.269 129.542 561.669 129.126 560.389 128.294C559.109 127.462 558.085 126.262 557.317 124.694V129.158H547.237V97.5264L557.413 96.0384V110.054C558.181 108.23 559.269 106.902 560.677 106.07C562.117 105.206 563.621 104.774 565.189 104.774C567.429 104.774 569.429 105.302 571.189 106.358C572.981 107.382 574.389 108.806 575.413 110.63C576.469 112.454 576.997 114.582 576.997 117.014C576.997 119.446 576.469 121.606 575.413 123.494C574.389 125.382 572.981 126.87 571.189 127.958C569.429 129.014 567.429 129.542 565.189 129.542ZM562.069 121.958C563.445 121.958 564.597 121.494 565.525 120.566C566.453 119.638 566.917 118.502 566.917 117.158C566.917 115.814 566.453 114.678 565.525 113.75C564.597 112.822 563.445 112.358 562.069 112.358C560.757 112.358 559.637 112.806 558.709 113.702C557.781 114.566 557.317 115.686 557.317 117.062C557.317 118.438 557.781 119.606 558.709 120.566C559.637 121.494 560.757 121.958 562.069 121.958ZM577.346 138.47V132.374C579.618 131.99 581.41 130.486 582.722 127.862C584.034 125.206 584.69 121.462 584.69 116.63C584.69 112.182 584.05 108.614 582.77 105.926C581.522 103.206 579.714 101.654 577.346 101.27V95.2224C581.346 95.6064 584.674 96.7744 587.33 98.7264C589.986 100.646 591.986 103.142 593.33 106.214C594.674 109.286 595.346 112.758 595.346 116.63C595.346 120.758 594.626 124.406 593.186 127.574C591.778 130.71 589.73 133.222 587.042 135.11C584.386 136.998 581.154 138.118 577.346 138.47ZM605.403 129.158L612.699 116.678L605.883 105.11H616.011L618.699 110.774L621.483 105.11H631.323L624.603 116.678L631.803 129.158H621.963L618.699 123.014L615.531 129.158H605.403ZM643.049 129.158V97.5264L653.177 96.0384V110.054C653.849 108.39 654.905 107.094 656.345 106.166C657.785 105.238 659.513 104.774 661.529 104.774C664.665 104.774 667.097 105.862 668.825 108.038C670.553 110.182 671.417 113.222 671.417 117.158V129.158H661.289V116.63C661.289 113.782 660.137 112.358 657.833 112.358C656.457 112.358 655.337 112.87 654.473 113.894C653.609 114.886 653.177 116.23 653.177 117.926V129.158H643.049ZM556.297 196.158V189.39C559.881 185.998 562.681 183.038 564.697 180.51C566.713 177.95 567.721 175.822 567.721 174.126C567.721 173.006 567.401 172.174 566.761 171.63C566.121 171.054 565.289 170.766 564.265 170.766C562.121 170.766 560.057 171.422 558.073 172.734L555.721 165.246C557.193 164.318 558.809 163.614 560.569 163.134C562.361 162.654 564.121 162.414 565.849 162.414C568.473 162.414 570.633 162.878 572.329 163.806C574.025 164.734 575.289 165.998 576.121 167.598C576.985 169.198 577.417 171.022 577.417 173.07C577.417 176.174 576.425 179.038 574.441 181.662C572.489 184.286 569.561 186.782 565.657 189.15H577.225V196.158H556.297Z" fill="black"/>
<line x1="153" y1="44" x2="153" y2="73.1438" stroke="black" stroke-width="4"/>
<line x1="399.925" y1="44" x2="399.925" y2="73.1438" stroke="black" stroke-width="4"/>
<line x1="152.764" y1="58.3934" x2="398.807" y2="58.3934" stroke="black" stroke-width="4"/>
<line x1="118" y1="193.535" x2="143.48" y2="193.535" stroke="black" stroke-width="4"/>
<line x1="118" y1="76.418" x2="143.48" y2="76.418" stroke="black" stroke-width="4"/>
<line x1="130.333" y1="194.699" x2="130.333" y2="78" stroke="black" stroke-width="4"/>
<line y1="-2" x2="25.4801" y2="-2" transform="matrix(1 -3.19758e-08 -5.97541e-08 -1 211.753 73.2566)" stroke="#7C0000" stroke-width="4"/>
<line y1="-2" x2="25.4801" y2="-2" transform="matrix(1 -2.18317e-08 -8.75188e-08 -1 211.753 184.61)" stroke="#7C0000" stroke-width="4"/>
<line y1="-2" x2="110.955" y2="-2" transform="matrix(0 1 1 0 226.085 74.0519)" stroke="#7C0000" stroke-width="4"/>
<path d="M174.643 44H166.323V21.984H175.315C178.835 21.984 181.416 22.4747 183.059 23.456C184.701 24.416 185.523 25.7493 185.523 27.456C185.523 29.6747 184.36 31.2 182.035 32.032C185.021 32.608 186.515 34.368 186.515 37.312C186.515 39.5733 185.48 41.2587 183.411 42.368C181.363 43.456 178.44 44 174.643 44ZM173.459 30.688H175.987C176.84 30.688 177.533 30.496 178.067 30.112C178.6 29.728 178.867 29.216 178.867 28.576C178.867 27.104 177.864 26.368 175.859 26.368H173.459V30.688ZM176.179 39.488C177.245 39.488 178.067 39.2747 178.643 38.848C179.219 38.4213 179.507 37.824 179.507 37.056C179.507 36.224 179.219 35.584 178.643 35.136C178.067 34.6667 177.245 34.432 176.179 34.432H173.427V39.488H176.179ZM195.985 44.256C194.513 44.256 193.179 43.904 191.985 43.2C190.79 42.4747 189.841 41.4827 189.137 40.224C188.454 38.9653 188.113 37.5253 188.113 35.904C188.113 34.2827 188.454 32.864 189.137 31.648C189.841 30.432 190.79 29.4827 191.985 28.8C193.179 28.096 194.513 27.744 195.985 27.744C197.03 27.744 198.043 28.032 199.025 28.608C200.006 29.184 200.763 30.1333 201.297 31.456V27.968H207.953V44H201.233V41.024C200.721 42.0693 200.038 42.8693 199.185 43.424C198.331 43.9787 197.265 44.256 195.985 44.256ZM198.065 39.2C198.939 39.2 199.686 38.8907 200.305 38.272C200.923 37.632 201.233 36.8533 201.233 35.936C201.233 35.0187 200.923 34.272 200.305 33.696C199.686 33.0987 198.939 32.8 198.065 32.8C197.147 32.8 196.379 33.1093 195.76 33.728C195.142 34.3467 194.833 35.104 194.833 36C194.833 36.896 195.142 37.6533 195.76 38.272C196.379 38.8907 197.147 39.2 198.065 39.2ZM216.315 44.256C215.355 44.256 214.384 44.16 213.403 43.968C212.421 43.776 211.536 43.5093 210.747 43.168L211.674 39.136C212.165 39.392 212.837 39.616 213.691 39.808C214.544 39.9787 215.301 40.064 215.963 40.064C217.029 40.064 217.562 39.776 217.562 39.2C217.562 38.9227 217.392 38.72 217.051 38.592C216.731 38.464 216.304 38.3573 215.771 38.272C215.259 38.1653 214.704 38.0373 214.107 37.888C213.509 37.7173 212.944 37.472 212.411 37.152C211.899 36.8107 211.472 36.3307 211.131 35.712C210.811 35.0933 210.651 34.2827 210.651 33.28C210.651 31.5947 211.312 30.2507 212.635 29.248C213.979 28.2453 215.813 27.744 218.139 27.744C219.035 27.744 219.867 27.808 220.635 27.936C221.424 28.064 222.171 28.3307 222.875 28.736L222.203 32.64C221.072 32.1707 219.888 31.936 218.651 31.936C217.861 31.936 217.285 32 216.923 32.128C216.581 32.256 216.411 32.4693 216.411 32.768C216.411 33.0027 216.581 33.184 216.923 33.312C217.264 33.44 217.701 33.568 218.235 33.696C218.789 33.8027 219.365 33.9627 219.963 34.176C220.56 34.368 221.125 34.6453 221.659 35.008C222.213 35.3707 222.661 35.8613 223.003 36.48C223.344 37.0773 223.515 37.856 223.515 38.816C223.515 40.5227 222.885 41.856 221.627 42.816C220.368 43.776 218.597 44.256 216.315 44.256ZM235.708 39.776C236.327 39.776 236.978 39.712 237.66 39.584C238.364 39.456 239.079 39.2213 239.804 38.88L240.572 43.008C239.783 43.4133 238.919 43.7227 237.98 43.936C237.063 44.1493 236.007 44.256 234.812 44.256C232.658 44.256 230.844 43.904 229.372 43.2C227.922 42.496 226.823 41.5253 226.076 40.288C225.33 39.0507 224.956 37.6213 224.956 36C224.956 34.336 225.351 32.8853 226.14 31.648C226.951 30.4107 228.028 29.4507 229.372 28.768C230.716 28.0853 232.199 27.744 233.82 27.744C236.231 27.744 238.076 28.5013 239.356 30.016C240.636 31.5093 241.276 33.6427 241.276 36.416L231.74 37.632C232.444 39.0613 233.767 39.776 235.708 39.776ZM231.228 34.688L236.252 33.632C236.167 32.9493 235.932 32.448 235.548 32.128C235.164 31.7867 234.684 31.616 234.108 31.616C233.255 31.616 232.572 31.9147 232.06 32.512C231.57 33.088 231.292 33.8133 231.228 34.688ZM249.475 44V27.968H256.131V31.456C256.6 30.2613 257.272 29.344 258.147 28.704C259.043 28.064 260.163 27.744 261.507 27.744C262.83 27.744 263.95 28.0747 264.867 28.736C265.806 29.376 266.467 30.208 266.851 31.232C267.576 30.144 268.43 29.2907 269.411 28.672C270.414 28.0533 271.619 27.744 273.027 27.744C275.011 27.744 276.547 28.4693 277.635 29.92C278.723 31.3493 279.267 33.376 279.267 36V44H272.515V35.648C272.515 33.7493 271.843 32.8 270.499 32.8C269.667 32.8 268.995 33.1413 268.483 33.824C267.992 34.4853 267.747 35.3813 267.747 36.512V44H260.995V35.648C260.995 34.6453 260.824 33.92 260.483 33.472C260.142 33.024 259.64 32.8 258.979 32.8C258.147 32.8 257.475 33.1307 256.963 33.792C256.472 34.432 256.227 35.3387 256.227 36.512V44H249.475ZM289.391 44.256C287.919 44.256 286.585 43.904 285.391 43.2C284.196 42.4747 283.247 41.4827 282.543 40.224C281.86 38.9653 281.519 37.5253 281.519 35.904C281.519 34.2827 281.86 32.864 282.543 31.648C283.247 30.432 284.196 29.4827 285.391 28.8C286.585 28.096 287.919 27.744 289.391 27.744C290.436 27.744 291.449 28.032 292.431 28.608C293.412 29.184 294.169 30.1333 294.703 31.456V27.968H301.359V44H294.639V41.024C294.127 42.0693 293.444 42.8693 292.591 43.424C291.737 43.9787 290.671 44.256 289.391 44.256ZM291.471 39.2C292.345 39.2 293.092 38.8907 293.711 38.272C294.329 37.632 294.639 36.8533 294.639 35.936C294.639 35.0187 294.329 34.272 293.711 33.696C293.092 33.0987 292.345 32.8 291.471 32.8C290.553 32.8 289.785 33.1093 289.167 33.728C288.548 34.3467 288.239 35.104 288.239 36C288.239 36.896 288.548 37.6533 289.167 38.272C289.785 38.8907 290.553 39.2 291.471 39.2ZM310.489 44.256C309.059 44.256 307.897 44 307.001 43.488C306.126 42.976 305.486 42.2827 305.081 41.408C304.675 40.5333 304.473 39.552 304.473 38.464V27.968H311.225V37.536C311.225 38.0267 311.363 38.4107 311.641 38.688C311.939 38.944 312.291 39.072 312.697 39.072C313.123 39.072 313.561 38.944 314.009 38.688L314.361 43.136C313.891 43.4987 313.283 43.776 312.537 43.968C311.79 44.16 311.107 44.256 310.489 44.256ZM307.865 26.208C306.883 26.208 306.041 25.8987 305.337 25.28C304.633 24.64 304.281 23.8613 304.281 22.944C304.281 22.304 304.451 21.7493 304.793 21.28C305.134 20.7893 305.582 20.4053 306.137 20.128C306.691 19.8507 307.267 19.712 307.865 19.712C308.526 19.712 309.123 19.8613 309.657 20.16C310.211 20.4587 310.649 20.8533 310.969 21.344C311.31 21.8347 311.481 22.368 311.481 22.944C311.481 23.584 311.299 24.1493 310.937 24.64C310.595 25.1307 310.147 25.5147 309.593 25.792C309.059 26.0693 308.483 26.208 307.865 26.208ZM324.266 44.256C322.453 44.256 320.853 43.904 319.466 43.2C318.079 42.496 316.991 41.5253 316.202 40.288C315.434 39.0293 315.05 37.5893 315.05 35.968C315.05 34.304 315.445 32.864 316.234 31.648C317.045 30.4107 318.143 29.4507 319.53 28.768C320.917 28.0853 322.506 27.744 324.298 27.744C326.133 27.744 327.743 28.096 329.13 28.8C330.517 29.4827 331.594 30.4427 332.362 31.68C333.13 32.896 333.514 34.3253 333.514 35.968C333.514 37.6107 333.119 39.0613 332.33 40.32C331.562 41.5573 330.485 42.528 329.098 43.232C327.711 43.9147 326.101 44.256 324.266 44.256ZM324.33 39.456C325.205 39.456 325.919 39.136 326.474 38.496C327.05 37.8347 327.338 36.992 327.338 35.968C327.338 34.944 327.061 34.112 326.506 33.472C325.951 32.8107 325.247 32.48 324.394 32.48C323.477 32.48 322.73 32.8107 322.154 33.472C321.599 34.112 321.322 34.944 321.322 35.968C321.322 36.992 321.599 37.8347 322.154 38.496C322.73 39.136 323.455 39.456 324.33 39.456ZM335.913 44V27.968H342.569V31.968C342.995 30.5173 343.657 29.4507 344.553 28.768C345.47 28.0853 346.558 27.744 347.817 27.744L348.617 33.408C348.105 33.344 347.603 33.312 347.113 33.312C344.147 33.312 342.665 34.528 342.665 36.96V44H335.913ZM361.265 50.208C358.684 49.9733 356.497 49.2053 354.705 47.904C352.913 46.624 351.558 44.928 350.641 42.816C349.724 40.704 349.265 38.3147 349.265 35.648C349.265 32.832 349.756 30.4107 350.737 28.384C351.718 26.336 353.105 24.7147 354.897 23.52C356.689 22.3253 358.812 21.6107 361.265 21.376V25.408C359.772 25.664 358.588 26.656 357.713 28.384C356.838 30.112 356.401 32.5333 356.401 35.648C356.401 37.5253 356.561 39.2213 356.881 40.736C357.201 42.2293 357.713 43.4453 358.417 44.384C359.142 45.344 360.092 45.9307 361.265 46.144V50.208ZM373.33 44H365.01V21.984H374.002C377.522 21.984 380.103 22.4747 381.746 23.456C383.389 24.416 384.21 25.7493 384.21 27.456C384.21 29.6747 383.047 31.2 380.722 32.032C383.709 32.608 385.202 34.368 385.202 37.312C385.202 39.5733 384.167 41.2587 382.098 42.368C380.05 43.456 377.127 44 373.33 44ZM372.146 30.688H374.674C375.527 30.688 376.221 30.496 376.754 30.112C377.287 29.728 377.554 29.216 377.554 28.576C377.554 27.104 376.551 26.368 374.546 26.368H372.146V30.688ZM374.866 39.488C375.933 39.488 376.754 39.2747 377.33 38.848C377.906 38.4213 378.194 37.824 378.194 37.056C378.194 36.224 377.906 35.584 377.33 35.136C376.754 34.6667 375.933 34.432 374.866 34.432H372.114V39.488H374.866ZM385.798 50.208V46.144C387.312 45.888 388.507 44.8853 389.382 43.136C390.256 41.3653 390.694 38.8693 390.694 35.648C390.694 32.6827 390.267 30.304 389.414 28.512C388.582 26.6987 387.376 25.664 385.798 25.408V21.376C388.464 21.632 390.683 22.4107 392.454 23.712C394.224 24.992 395.558 26.656 396.454 28.704C397.35 30.752 397.798 33.0667 397.798 35.648C397.798 38.4 397.318 40.832 396.358 42.944C395.419 45.0347 394.054 46.7093 392.262 47.968C390.491 49.2267 388.336 49.9733 385.798 50.208Z" fill="black"/>
<path d="M8.90638 72.256C7.43438 72.256 6.10104 71.904 4.90638 71.2C3.71171 70.4747 2.76238 69.4827 2.05838 68.224C1.37571 66.9653 1.03438 65.5253 1.03438 63.904C1.03438 62.2827 1.37571 60.864 2.05838 59.648C2.76238 58.432 3.71171 57.4827 4.90638 56.8C6.10104 56.096 7.43438 55.744 8.90638 55.744C9.95171 55.744 10.965 56.032 11.9464 56.608C12.9277 57.184 13.685 58.1333 14.2184 59.456V55.968H20.8744V72H14.1544V69.024C13.6424 70.0693 12.9597 70.8693 12.1064 71.424C11.253 71.9787 10.1864 72.256 8.90638 72.256ZM10.9864 67.2C11.861 67.2 12.6077 66.8907 13.2264 66.272C13.845 65.632 14.1544 64.8533 14.1544 63.936C14.1544 63.0187 13.845 62.272 13.2264 61.696C12.6077 61.0987 11.861 60.8 10.9864 60.8C10.069 60.8 9.30104 61.1093 8.68237 61.728C8.06371 62.3467 7.75438 63.104 7.75438 64C7.75438 64.896 8.06371 65.6533 8.68237 66.272C9.30104 66.8907 10.069 67.2 10.9864 67.2ZM30.3884 72.256C28.8737 72.256 27.6364 72 26.6764 71.488C25.7377 70.976 25.055 70.2827 24.6284 69.408C24.2017 68.5333 23.9884 67.552 23.9884 66.464V50.272L30.7404 49.28V65.536C30.7404 66.0267 30.9004 66.4107 31.2204 66.688C31.5404 66.944 31.9564 67.072 32.4684 67.072C32.9804 67.072 33.4924 66.944 34.0044 66.688L34.4844 71.136C33.9724 71.4987 33.3217 71.776 32.5324 71.968C31.743 72.16 31.0284 72.256 30.3884 72.256ZM42.6199 72.256C41.1052 72.256 39.8679 72 38.9079 71.488C37.9692 70.976 37.2865 70.2827 36.8599 69.408C36.4332 68.5333 36.2199 67.552 36.2199 66.464V59.936H34.1719V55.968H36.6999L39.6759 50.912H42.9719V55.968H46.6839V59.936H42.9719V65.536C42.9719 66.0267 43.1319 66.4107 43.4519 66.688C43.7719 66.944 44.1879 67.072 44.6999 67.072C45.2119 67.072 45.7239 66.944 46.2359 66.688L46.7159 71.136C46.2039 71.4987 45.5532 71.776 44.7639 71.968C43.9745 72.16 43.2599 72.256 42.6199 72.256ZM57.5019 72.256C54.7925 72.256 52.6699 71.5733 51.1339 70.208C49.6192 68.8213 48.8619 66.912 48.8619 64.48V55.968H55.4539V64.768C55.4539 65.6213 55.6352 66.2507 55.9979 66.656C56.3819 67.0613 56.8939 67.264 57.5339 67.264C58.1525 67.264 58.6325 67.0613 58.9739 66.656C59.3365 66.2507 59.5179 65.6213 59.5179 64.768V55.968H65.9819V64.48C65.9819 66.9333 65.2352 68.8427 63.7419 70.208C62.2699 71.5733 60.1899 72.256 57.5019 72.256ZM69.0219 72V55.968H75.6779V59.968C76.1045 58.5173 76.7659 57.4507 77.6619 56.768C78.5792 56.0853 79.6672 55.744 80.9259 55.744L81.7259 61.408C81.2139 61.344 80.7125 61.312 80.2219 61.312C77.2565 61.312 75.7739 62.528 75.7739 64.96V72H69.0219ZM89.9376 72.256C88.4656 72.256 87.1323 71.904 85.9376 71.2C84.743 70.4747 83.7936 69.4827 83.0896 68.224C82.407 66.9653 82.0656 65.5253 82.0656 63.904C82.0656 62.2827 82.407 60.864 83.0896 59.648C83.7936 58.432 84.743 57.4827 85.9376 56.8C87.1323 56.096 88.4656 55.744 89.9376 55.744C90.983 55.744 91.9963 56.032 92.9776 56.608C93.959 57.184 94.7163 58.1333 95.2496 59.456V55.968H101.906V72H95.1856V69.024C94.6736 70.0693 93.991 70.8693 93.1376 71.424C92.2843 71.9787 91.2176 72.256 89.9376 72.256ZM92.0176 67.2C92.8923 67.2 93.639 66.8907 94.2576 66.272C94.8763 65.632 95.1856 64.8533 95.1856 63.936C95.1856 63.0187 94.8763 62.272 94.2576 61.696C93.639 61.0987 92.8923 60.8 92.0176 60.8C91.1003 60.8 90.3323 61.1093 89.7136 61.728C89.095 62.3467 88.7856 63.104 88.7856 64C88.7856 64.896 89.095 65.6533 89.7136 66.272C90.3323 66.8907 91.1003 67.2 92.0176 67.2ZM116.156 78.208C113.574 77.9733 111.388 77.2053 109.596 75.904C107.804 74.624 106.449 72.928 105.532 70.816C104.614 68.704 104.156 66.3147 104.156 63.648C104.156 60.832 104.646 58.4107 105.628 56.384C106.609 54.336 107.996 52.7147 109.788 51.52C111.58 50.3253 113.702 49.6107 116.156 49.376V53.408C114.662 53.664 113.478 54.656 112.604 56.384C111.729 58.112 111.292 60.5333 111.292 63.648C111.292 65.5253 111.452 67.2213 111.772 68.736C112.092 70.2293 112.604 71.4453 113.308 72.384C114.033 73.344 114.982 73.9307 116.156 74.144V78.208ZM118.459 72V50.912L125.211 49.92V59.264C125.659 58.1547 126.363 57.2907 127.323 56.672C128.283 56.0533 129.435 55.744 130.779 55.744C132.87 55.744 134.491 56.4693 135.643 57.92C136.795 59.3493 137.371 61.376 137.371 64V72H130.619V63.648C130.619 61.7493 129.851 60.8 128.315 60.8C127.398 60.8 126.651 61.1413 126.075 61.824C125.499 62.4853 125.211 63.3813 125.211 64.512V72H118.459ZM139.126 78.208V74.144C140.641 73.888 141.835 72.8853 142.71 71.136C143.585 69.3653 144.022 66.8693 144.022 63.648C144.022 60.6827 143.595 58.304 142.742 56.512C141.91 54.6987 140.705 53.664 139.126 53.408V49.376C141.793 49.632 144.011 50.4107 145.782 51.712C147.553 52.992 148.886 54.656 149.782 56.704C150.678 58.752 151.126 61.0667 151.126 63.648C151.126 66.4 150.646 68.832 149.686 70.944C148.747 73.0347 147.382 74.7093 145.59 75.968C143.819 77.2267 141.665 77.9733 139.126 78.208Z" fill="black"/>
<path d="M213.357 188.478L156.123 76.2596H270.592" stroke="black" stroke-width="8"/>
<path d="M332.59 185.361L208.588 185.361" stroke="black" stroke-width="8"/>
<path d="M327.821 188.478L385.055 76.2596H270.586" stroke="black" stroke-width="8"/>
<line x1="204" y1="195" x2="204" y2="224.144" stroke="black" stroke-width="4"/>
<line x1="335.022" y1="195" x2="335.022" y2="224.144" stroke="black" stroke-width="4"/>
<line x1="202.936" y1="209.393" x2="333.49" y2="209.393" stroke="black" stroke-width="4"/>
<path d="M162.143 246H153.823V223.984H162.815C166.335 223.984 168.916 224.475 170.559 225.456C172.201 226.416 173.023 227.749 173.023 229.456C173.023 231.675 171.86 233.2 169.535 234.032C172.521 234.608 174.015 236.368 174.015 239.312C174.015 241.573 172.98 243.259 170.911 244.368C168.863 245.456 165.94 246 162.143 246ZM160.959 232.688H163.487C164.34 232.688 165.033 232.496 165.567 232.112C166.1 231.728 166.367 231.216 166.367 230.576C166.367 229.104 165.364 228.368 163.359 228.368H160.959V232.688ZM163.679 241.488C164.745 241.488 165.567 241.275 166.143 240.848C166.719 240.421 167.007 239.824 167.007 239.056C167.007 238.224 166.719 237.584 166.143 237.136C165.567 236.667 164.745 236.432 163.679 236.432H160.927V241.488H163.679ZM183.485 246.256C182.013 246.256 180.679 245.904 179.485 245.2C178.29 244.475 177.341 243.483 176.637 242.224C175.954 240.965 175.613 239.525 175.613 237.904C175.613 236.283 175.954 234.864 176.637 233.648C177.341 232.432 178.29 231.483 179.485 230.8C180.679 230.096 182.013 229.744 183.485 229.744C184.53 229.744 185.543 230.032 186.525 230.608C187.506 231.184 188.263 232.133 188.797 233.456V229.968H195.453V246H188.733V243.024C188.221 244.069 187.538 244.869 186.685 245.424C185.831 245.979 184.765 246.256 183.485 246.256ZM185.565 241.2C186.439 241.2 187.186 240.891 187.805 240.272C188.423 239.632 188.733 238.853 188.733 237.936C188.733 237.019 188.423 236.272 187.805 235.696C187.186 235.099 186.439 234.8 185.565 234.8C184.647 234.8 183.879 235.109 183.26 235.728C182.642 236.347 182.333 237.104 182.333 238C182.333 238.896 182.642 239.653 183.26 240.272C183.879 240.891 184.647 241.2 185.565 241.2ZM203.815 246.256C202.855 246.256 201.884 246.16 200.903 245.968C199.921 245.776 199.036 245.509 198.247 245.168L199.174 241.136C199.665 241.392 200.337 241.616 201.191 241.808C202.044 241.979 202.801 242.064 203.463 242.064C204.529 242.064 205.062 241.776 205.062 241.2C205.062 240.923 204.892 240.72 204.551 240.592C204.231 240.464 203.804 240.357 203.271 240.272C202.759 240.165 202.204 240.037 201.607 239.888C201.009 239.717 200.444 239.472 199.911 239.152C199.399 238.811 198.972 238.331 198.631 237.712C198.311 237.093 198.151 236.283 198.151 235.28C198.151 233.595 198.812 232.251 200.135 231.248C201.479 230.245 203.313 229.744 205.639 229.744C206.535 229.744 207.367 229.808 208.135 229.936C208.924 230.064 209.671 230.331 210.375 230.736L209.703 234.64C208.572 234.171 207.388 233.936 206.151 233.936C205.361 233.936 204.785 234 204.423 234.128C204.081 234.256 203.911 234.469 203.911 234.768C203.911 235.003 204.081 235.184 204.423 235.312C204.764 235.44 205.201 235.568 205.735 235.696C206.289 235.803 206.865 235.963 207.463 236.176C208.06 236.368 208.625 236.645 209.159 237.008C209.713 237.371 210.161 237.861 210.503 238.48C210.844 239.077 211.015 239.856 211.015 240.816C211.015 242.523 210.385 243.856 209.127 244.816C207.868 245.776 206.097 246.256 203.815 246.256ZM223.208 241.776C223.827 241.776 224.478 241.712 225.16 241.584C225.864 241.456 226.579 241.221 227.304 240.88L228.072 245.008C227.283 245.413 226.419 245.723 225.48 245.936C224.563 246.149 223.507 246.256 222.312 246.256C220.158 246.256 218.344 245.904 216.872 245.2C215.422 244.496 214.323 243.525 213.576 242.288C212.83 241.051 212.456 239.621 212.456 238C212.456 236.336 212.851 234.885 213.64 233.648C214.451 232.411 215.528 231.451 216.872 230.768C218.216 230.085 219.699 229.744 221.32 229.744C223.731 229.744 225.576 230.501 226.856 232.016C228.136 233.509 228.776 235.643 228.776 238.416L219.24 239.632C219.944 241.061 221.267 241.776 223.208 241.776ZM218.728 236.688L223.752 235.632C223.667 234.949 223.432 234.448 223.048 234.128C222.664 233.787 222.184 233.616 221.608 233.616C220.755 233.616 220.072 233.915 219.56 234.512C219.07 235.088 218.792 235.813 218.728 236.688ZM236.975 246V229.968H243.631V233.456C244.1 232.261 244.772 231.344 245.647 230.704C246.543 230.064 247.663 229.744 249.007 229.744C250.33 229.744 251.45 230.075 252.367 230.736C253.306 231.376 253.967 232.208 254.351 233.232C255.076 232.144 255.93 231.291 256.911 230.672C257.914 230.053 259.119 229.744 260.527 229.744C262.511 229.744 264.047 230.469 265.135 231.92C266.223 233.349 266.767 235.376 266.767 238V246H260.015V237.648C260.015 235.749 259.343 234.8 257.999 234.8C257.167 234.8 256.495 235.141 255.983 235.824C255.492 236.485 255.247 237.381 255.247 238.512V246H248.495V237.648C248.495 236.645 248.324 235.92 247.983 235.472C247.642 235.024 247.14 234.8 246.479 234.8C245.647 234.8 244.975 235.131 244.463 235.792C243.972 236.432 243.727 237.339 243.727 238.512V246H236.975ZM279.771 241.776C280.389 241.776 281.04 241.712 281.723 241.584C282.427 241.456 283.141 241.221 283.867 240.88L284.635 245.008C283.845 245.413 282.981 245.723 282.043 245.936C281.125 246.149 280.069 246.256 278.875 246.256C276.72 246.256 274.907 245.904 273.435 245.2C271.984 244.496 270.885 243.525 270.139 242.288C269.392 241.051 269.019 239.621 269.019 238C269.019 236.336 269.413 234.885 270.203 233.648C271.013 232.411 272.091 231.451 273.435 230.768C274.779 230.085 276.261 229.744 277.883 229.744C280.293 229.744 282.139 230.501 283.419 232.016C284.699 233.509 285.339 235.643 285.339 238.416L275.803 239.632C276.507 241.061 277.829 241.776 279.771 241.776ZM275.291 236.688L280.315 235.632C280.229 234.949 279.995 234.448 279.611 234.128C279.227 233.787 278.747 233.616 278.171 233.616C277.317 233.616 276.635 233.915 276.123 234.512C275.632 235.088 275.355 235.813 275.291 236.688ZM287.569 246V229.968H294.225V233.456C294.715 232.261 295.441 231.344 296.401 230.704C297.382 230.064 298.545 229.744 299.889 229.744C301.979 229.744 303.601 230.469 304.753 231.92C305.905 233.349 306.481 235.376 306.481 238V246H299.729V237.648C299.729 235.749 298.961 234.8 297.425 234.8C296.507 234.8 295.761 235.141 295.185 235.824C294.609 236.485 294.321 237.381 294.321 238.512V246H287.569ZM317.922 246.256C316.109 246.256 314.509 245.904 313.122 245.2C311.736 244.496 310.648 243.525 309.858 242.288C309.09 241.029 308.706 239.589 308.706 237.968C308.706 236.304 309.101 234.864 309.89 233.648C310.701 232.411 311.8 231.451 313.186 230.768C314.573 230.085 316.162 229.744 317.954 229.744C319.789 229.744 321.4 230.096 322.786 230.8C324.173 231.483 325.25 232.443 326.018 233.68C326.786 234.896 327.17 236.325 327.17 237.968C327.17 239.611 326.776 241.061 325.986 242.32C325.218 243.557 324.141 244.528 322.754 245.232C321.368 245.915 319.757 246.256 317.922 246.256ZM317.986 241.456C318.861 241.456 319.576 241.136 320.13 240.496C320.706 239.835 320.994 238.992 320.994 237.968C320.994 236.944 320.717 236.112 320.162 235.472C319.608 234.811 318.904 234.48 318.05 234.48C317.133 234.48 316.386 234.811 315.81 235.472C315.256 236.112 314.978 236.944 314.978 237.968C314.978 238.992 315.256 239.835 315.81 240.496C316.386 241.136 317.112 241.456 317.986 241.456ZM329.569 246V229.968H336.225V233.968C336.651 232.517 337.313 231.451 338.209 230.768C339.126 230.085 340.214 229.744 341.473 229.744L342.273 235.408C341.761 235.344 341.259 235.312 340.769 235.312C337.803 235.312 336.321 236.528 336.321 238.96V246H329.569ZM354.921 252.208C352.34 251.973 350.153 251.205 348.361 249.904C346.569 248.624 345.215 246.928 344.297 244.816C343.38 242.704 342.921 240.315 342.921 237.648C342.921 234.832 343.412 232.411 344.393 230.384C345.375 228.336 346.761 226.715 348.553 225.52C350.345 224.325 352.468 223.611 354.921 223.376V227.408C353.428 227.664 352.244 228.656 351.369 230.384C350.495 232.112 350.057 234.533 350.057 237.648C350.057 239.525 350.217 241.221 350.537 242.736C350.857 244.229 351.369 245.445 352.073 246.384C352.799 247.344 353.748 247.931 354.921 248.144V252.208ZM369.193 246.256C367.913 246.256 366.846 245.979 365.993 245.424C365.14 244.869 364.457 244.069 363.945 243.024V246H357.225V224.912L364.009 223.92V233.264C364.521 232.048 365.246 231.163 366.185 230.608C367.145 230.032 368.148 229.744 369.193 229.744C370.686 229.744 372.02 230.096 373.193 230.8C374.388 231.483 375.326 232.432 376.009 233.648C376.713 234.864 377.065 236.283 377.065 237.904C377.065 239.525 376.713 240.965 376.009 242.224C375.326 243.483 374.388 244.475 373.193 245.2C372.02 245.904 370.686 246.256 369.193 246.256ZM367.113 241.2C368.03 241.2 368.798 240.891 369.417 240.272C370.036 239.653 370.345 238.896 370.345 238C370.345 237.104 370.036 236.347 369.417 235.728C368.798 235.109 368.03 234.8 367.113 234.8C366.238 234.8 365.492 235.099 364.873 235.696C364.254 236.272 363.945 237.019 363.945 237.936C363.945 238.853 364.254 239.632 364.873 240.272C365.492 240.891 366.238 241.2 367.113 241.2ZM377.298 252.208V248.144C378.812 247.888 380.007 246.885 380.882 245.136C381.756 243.365 382.194 240.869 382.194 237.648C382.194 234.683 381.767 232.304 380.914 230.512C380.082 228.699 378.876 227.664 377.298 227.408V223.376C379.964 223.632 382.183 224.411 383.954 225.712C385.724 226.992 387.058 228.656 387.954 230.704C388.85 232.752 389.298 235.067 389.298 237.648C389.298 240.4 388.818 242.832 387.858 244.944C386.919 247.035 385.554 248.709 383.762 249.968C381.991 251.227 379.836 251.973 377.298 252.208Z" fill="black"/>
</svg>
