<svg width="514" height="256" viewBox="0 0 514 256" fill="none" xmlns="http://www.w3.org/2000/svg">
<line x1="80" y1="197" x2="80" y2="222.191" stroke="black" stroke-width="4"/>
<line x1="241.424" y1="197" x2="241.424" y2="222.191" stroke="black" stroke-width="4"/>
<line x1="79.1531" y1="209.17" x2="240" y2="209.17" stroke="black" stroke-width="4"/>
<line x1="77.7841" y1="46.1083" x2="52.5929" y2="46" stroke="black" stroke-width="4"/>
<line x1="77.185" y1="185.45" x2="51.9937" y2="185.341" stroke="black" stroke-width="4"/>
<path d="M65.6184 45.0513L65.0213 183.895" stroke="black" stroke-width="4"/>
<line x1="176.185" y1="183.479" x2="150.993" y2="183.37" stroke="black" stroke-width="4"/>
<path d="M164.584 51.135L164.021 181.895" stroke="#950505" stroke-width="4"/>
<path d="M238.411 181.75H88.5889L163.5 51.999L238.411 181.75Z" stroke="black" stroke-width="8"/>
<path d="M111.08 247H102.76V224.984H111.752C115.272 224.984 117.853 225.475 119.496 226.456C121.139 227.416 121.96 228.749 121.96 230.456C121.96 232.675 120.797 234.2 118.472 235.032C121.459 235.608 122.952 237.368 122.952 240.312C122.952 242.573 121.917 244.259 119.848 245.368C117.8 246.456 114.877 247 111.08 247ZM109.896 233.688H112.424C113.277 233.688 113.971 233.496 114.504 233.112C115.037 232.728 115.304 232.216 115.304 231.576C115.304 230.104 114.301 229.368 112.296 229.368H109.896V233.688ZM112.616 242.488C113.683 242.488 114.504 242.275 115.08 241.848C115.656 241.421 115.944 240.824 115.944 240.056C115.944 239.224 115.656 238.584 115.08 238.136C114.504 237.667 113.683 237.432 112.616 237.432H109.864V242.488H112.616ZM132.422 247.256C130.95 247.256 129.617 246.904 128.422 246.2C127.227 245.475 126.278 244.483 125.574 243.224C124.891 241.965 124.55 240.525 124.55 238.904C124.55 237.283 124.891 235.864 125.574 234.648C126.278 233.432 127.227 232.483 128.422 231.8C129.617 231.096 130.95 230.744 132.422 230.744C133.467 230.744 134.481 231.032 135.462 231.608C136.443 232.184 137.201 233.133 137.734 234.456V230.968H144.39V247H137.67V244.024C137.158 245.069 136.475 245.869 135.622 246.424C134.769 246.979 133.702 247.256 132.422 247.256ZM134.502 242.2C135.377 242.2 136.123 241.891 136.742 241.272C137.361 240.632 137.67 239.853 137.67 238.936C137.67 238.019 137.361 237.272 136.742 236.696C136.123 236.099 135.377 235.8 134.502 235.8C133.585 235.8 132.817 236.109 132.198 236.728C131.579 237.347 131.27 238.104 131.27 239C131.27 239.896 131.579 240.653 132.198 241.272C132.817 241.891 133.585 242.2 134.502 242.2ZM152.752 247.256C151.792 247.256 150.821 247.16 149.84 246.968C148.859 246.776 147.973 246.509 147.184 246.168L148.112 242.136C148.603 242.392 149.275 242.616 150.128 242.808C150.981 242.979 151.739 243.064 152.4 243.064C153.467 243.064 154 242.776 154 242.2C154 241.923 153.829 241.72 153.488 241.592C153.168 241.464 152.741 241.357 152.208 241.272C151.696 241.165 151.141 241.037 150.544 240.888C149.947 240.717 149.381 240.472 148.848 240.152C148.336 239.811 147.909 239.331 147.568 238.712C147.248 238.093 147.088 237.283 147.088 236.28C147.088 234.595 147.749 233.251 149.072 232.248C150.416 231.245 152.251 230.744 154.576 230.744C155.472 230.744 156.304 230.808 157.072 230.936C157.861 231.064 158.608 231.331 159.312 231.736L158.64 235.64C157.509 235.171 156.325 234.936 155.088 234.936C154.299 234.936 153.723 235 153.36 235.128C153.019 235.256 152.848 235.469 152.848 235.768C152.848 236.003 153.019 236.184 153.36 236.312C153.701 236.44 154.139 236.568 154.672 236.696C155.227 236.803 155.803 236.963 156.4 237.176C156.997 237.368 157.563 237.645 158.096 238.008C158.651 238.371 159.099 238.861 159.44 239.48C159.781 240.077 159.952 240.856 159.952 241.816C159.952 243.523 159.323 244.856 158.064 245.816C156.805 246.776 155.035 247.256 152.752 247.256ZM172.146 242.776C172.764 242.776 173.415 242.712 174.098 242.584C174.802 242.456 175.516 242.221 176.242 241.88L177.01 246.008C176.22 246.413 175.356 246.723 174.418 246.936C173.5 247.149 172.444 247.256 171.25 247.256C169.095 247.256 167.282 246.904 165.81 246.2C164.359 245.496 163.26 244.525 162.514 243.288C161.767 242.051 161.394 240.621 161.394 239C161.394 237.336 161.788 235.885 162.578 234.648C163.388 233.411 164.466 232.451 165.81 231.768C167.154 231.085 168.636 230.744 170.258 230.744C172.668 230.744 174.514 231.501 175.794 233.016C177.074 234.509 177.714 236.643 177.714 239.416L168.178 240.632C168.882 242.061 170.204 242.776 172.146 242.776ZM167.666 237.688L172.69 236.632C172.604 235.949 172.37 235.448 171.986 235.128C171.602 234.787 171.122 234.616 170.546 234.616C169.692 234.616 169.01 234.915 168.498 235.512C168.007 236.088 167.73 236.813 167.666 237.688ZM190.984 253.208C188.402 252.973 186.216 252.205 184.424 250.904C182.632 249.624 181.277 247.928 180.36 245.816C179.442 243.704 178.984 241.315 178.984 238.648C178.984 235.832 179.474 233.411 180.456 231.384C181.437 229.336 182.824 227.715 184.616 226.52C186.408 225.325 188.53 224.611 190.984 224.376V228.408C189.49 228.664 188.306 229.656 187.432 231.384C186.557 233.112 186.12 235.533 186.12 238.648C186.12 240.525 186.28 242.221 186.6 243.736C186.92 245.229 187.432 246.445 188.136 247.384C188.861 248.344 189.81 248.931 190.984 249.144V253.208ZM205.256 247.256C203.976 247.256 202.909 246.979 202.056 246.424C201.202 245.869 200.52 245.069 200.008 244.024V247H193.288V225.912L200.072 224.92V234.264C200.584 233.048 201.309 232.163 202.248 231.608C203.208 231.032 204.21 230.744 205.256 230.744C206.749 230.744 208.082 231.096 209.256 231.8C210.45 232.483 211.389 233.432 212.072 234.648C212.776 235.864 213.128 237.283 213.128 238.904C213.128 240.525 212.776 241.965 212.072 243.224C211.389 244.483 210.45 245.475 209.256 246.2C208.082 246.904 206.749 247.256 205.256 247.256ZM203.176 242.2C204.093 242.2 204.861 241.891 205.48 241.272C206.098 240.653 206.408 239.896 206.408 239C206.408 238.104 206.098 237.347 205.48 236.728C204.861 236.109 204.093 235.8 203.176 235.8C202.301 235.8 201.554 236.099 200.936 236.696C200.317 237.272 200.008 238.019 200.008 238.936C200.008 239.853 200.317 240.632 200.936 241.272C201.554 241.891 202.301 242.2 203.176 242.2ZM213.36 253.208V249.144C214.875 248.888 216.07 247.885 216.944 246.136C217.819 244.365 218.256 241.869 218.256 238.648C218.256 235.683 217.83 233.304 216.976 231.512C216.144 229.699 214.939 228.664 213.36 228.408V224.376C216.027 224.632 218.246 225.411 220.016 226.712C221.787 227.992 223.12 229.656 224.016 231.704C224.912 233.752 225.36 236.067 225.36 238.648C225.36 241.4 224.88 243.832 223.92 245.944C222.982 248.035 221.616 249.709 219.824 250.968C218.054 252.227 215.899 252.973 213.36 253.208Z" fill="black"/>
<path d="M111.08 247H102.76V224.984H111.752C115.272 224.984 117.853 225.475 119.496 226.456C121.139 227.416 121.96 228.749 121.96 230.456C121.96 232.675 120.797 234.2 118.472 235.032C121.459 235.608 122.952 237.368 122.952 240.312C122.952 242.573 121.917 244.259 119.848 245.368C117.8 246.456 114.877 247 111.08 247ZM109.896 233.688H112.424C113.277 233.688 113.971 233.496 114.504 233.112C115.037 232.728 115.304 232.216 115.304 231.576C115.304 230.104 114.301 229.368 112.296 229.368H109.896V233.688ZM112.616 242.488C113.683 242.488 114.504 242.275 115.08 241.848C115.656 241.421 115.944 240.824 115.944 240.056C115.944 239.224 115.656 238.584 115.08 238.136C114.504 237.667 113.683 237.432 112.616 237.432H109.864V242.488H112.616ZM132.422 247.256C130.95 247.256 129.617 246.904 128.422 246.2C127.227 245.475 126.278 244.483 125.574 243.224C124.891 241.965 124.55 240.525 124.55 238.904C124.55 237.283 124.891 235.864 125.574 234.648C126.278 233.432 127.227 232.483 128.422 231.8C129.617 231.096 130.95 230.744 132.422 230.744C133.467 230.744 134.481 231.032 135.462 231.608C136.443 232.184 137.201 233.133 137.734 234.456V230.968H144.39V247H137.67V244.024C137.158 245.069 136.475 245.869 135.622 246.424C134.769 246.979 133.702 247.256 132.422 247.256ZM134.502 242.2C135.377 242.2 136.123 241.891 136.742 241.272C137.361 240.632 137.67 239.853 137.67 238.936C137.67 238.019 137.361 237.272 136.742 236.696C136.123 236.099 135.377 235.8 134.502 235.8C133.585 235.8 132.817 236.109 132.198 236.728C131.579 237.347 131.27 238.104 131.27 239C131.27 239.896 131.579 240.653 132.198 241.272C132.817 241.891 133.585 242.2 134.502 242.2ZM152.752 247.256C151.792 247.256 150.821 247.16 149.84 246.968C148.859 246.776 147.973 246.509 147.184 246.168L148.112 242.136C148.603 242.392 149.275 242.616 150.128 242.808C150.981 242.979 151.739 243.064 152.4 243.064C153.467 243.064 154 242.776 154 242.2C154 241.923 153.829 241.72 153.488 241.592C153.168 241.464 152.741 241.357 152.208 241.272C151.696 241.165 151.141 241.037 150.544 240.888C149.947 240.717 149.381 240.472 148.848 240.152C148.336 239.811 147.909 239.331 147.568 238.712C147.248 238.093 147.088 237.283 147.088 236.28C147.088 234.595 147.749 233.251 149.072 232.248C150.416 231.245 152.251 230.744 154.576 230.744C155.472 230.744 156.304 230.808 157.072 230.936C157.861 231.064 158.608 231.331 159.312 231.736L158.64 235.64C157.509 235.171 156.325 234.936 155.088 234.936C154.299 234.936 153.723 235 153.36 235.128C153.019 235.256 152.848 235.469 152.848 235.768C152.848 236.003 153.019 236.184 153.36 236.312C153.701 236.44 154.139 236.568 154.672 236.696C155.227 236.803 155.803 236.963 156.4 237.176C156.997 237.368 157.563 237.645 158.096 238.008C158.651 238.371 159.099 238.861 159.44 239.48C159.781 240.077 159.952 240.856 159.952 241.816C159.952 243.523 159.323 244.856 158.064 245.816C156.805 246.776 155.035 247.256 152.752 247.256ZM172.146 242.776C172.764 242.776 173.415 242.712 174.098 242.584C174.802 242.456 175.516 242.221 176.242 241.88L177.01 246.008C176.22 246.413 175.356 246.723 174.418 246.936C173.5 247.149 172.444 247.256 171.25 247.256C169.095 247.256 167.282 246.904 165.81 246.2C164.359 245.496 163.26 244.525 162.514 243.288C161.767 242.051 161.394 240.621 161.394 239C161.394 237.336 161.788 235.885 162.578 234.648C163.388 233.411 164.466 232.451 165.81 231.768C167.154 231.085 168.636 230.744 170.258 230.744C172.668 230.744 174.514 231.501 175.794 233.016C177.074 234.509 177.714 236.643 177.714 239.416L168.178 240.632C168.882 242.061 170.204 242.776 172.146 242.776ZM167.666 237.688L172.69 236.632C172.604 235.949 172.37 235.448 171.986 235.128C171.602 234.787 171.122 234.616 170.546 234.616C169.692 234.616 169.01 234.915 168.498 235.512C168.007 236.088 167.73 236.813 167.666 237.688ZM190.984 253.208C188.402 252.973 186.216 252.205 184.424 250.904C182.632 249.624 181.277 247.928 180.36 245.816C179.442 243.704 178.984 241.315 178.984 238.648C178.984 235.832 179.474 233.411 180.456 231.384C181.437 229.336 182.824 227.715 184.616 226.52C186.408 225.325 188.53 224.611 190.984 224.376V228.408C189.49 228.664 188.306 229.656 187.432 231.384C186.557 233.112 186.12 235.533 186.12 238.648C186.12 240.525 186.28 242.221 186.6 243.736C186.92 245.229 187.432 246.445 188.136 247.384C188.861 248.344 189.81 248.931 190.984 249.144V253.208ZM205.256 247.256C203.976 247.256 202.909 246.979 202.056 246.424C201.202 245.869 200.52 245.069 200.008 244.024V247H193.288V225.912L200.072 224.92V234.264C200.584 233.048 201.309 232.163 202.248 231.608C203.208 231.032 204.21 230.744 205.256 230.744C206.749 230.744 208.082 231.096 209.256 231.8C210.45 232.483 211.389 233.432 212.072 234.648C212.776 235.864 213.128 237.283 213.128 238.904C213.128 240.525 212.776 241.965 212.072 243.224C211.389 244.483 210.45 245.475 209.256 246.2C208.082 246.904 206.749 247.256 205.256 247.256ZM203.176 242.2C204.093 242.2 204.861 241.891 205.48 241.272C206.098 240.653 206.408 239.896 206.408 239C206.408 238.104 206.098 237.347 205.48 236.728C204.861 236.109 204.093 235.8 203.176 235.8C202.301 235.8 201.554 236.099 200.936 236.696C200.317 237.272 200.008 238.019 200.008 238.936C200.008 239.853 200.317 240.632 200.936 241.272C201.554 241.891 202.301 242.2 203.176 242.2ZM213.36 253.208V249.144C214.875 248.888 216.07 247.885 216.944 246.136C217.819 244.365 218.256 241.869 218.256 238.648C218.256 235.683 217.83 233.304 216.976 231.512C216.144 229.699 214.939 228.664 213.36 228.408V224.376C216.027 224.632 218.246 225.411 220.016 226.712C221.787 227.992 223.12 229.656 224.016 231.704C224.912 233.752 225.36 236.067 225.36 238.648C225.36 241.4 224.88 243.832 223.92 245.944C222.982 248.035 221.616 249.709 219.824 250.968C218.054 252.227 215.899 252.973 213.36 253.208Z" fill="black"/>
<path d="M0.612375 36L6.69238 13.984H17.0604L23.4284 36H15.5884L14.7564 31.776H9.06038L8.13238 36H0.612375ZM9.73238 27.84H13.9884L11.9084 18.208L9.73238 27.84ZM31.1384 36.256C29.6237 36.256 28.3864 36 27.4264 35.488C26.4877 34.976 25.805 34.2827 25.3784 33.408C24.9517 32.5333 24.7384 31.552 24.7384 30.464V14.272L31.4904 13.28V29.536C31.4904 30.0267 31.6504 30.4107 31.9704 30.688C32.2904 30.944 32.7064 31.072 33.2184 31.072C33.7304 31.072 34.2424 30.944 34.7544 30.688L35.2344 35.136C34.7224 35.4987 34.0717 35.776 33.2824 35.968C32.493 36.16 31.7784 36.256 31.1384 36.256ZM43.3699 36.256C41.8552 36.256 40.6179 36 39.6579 35.488C38.7192 34.976 38.0365 34.2827 37.6099 33.408C37.1832 32.5333 36.9699 31.552 36.9699 30.464V23.936H34.9219V19.968H37.4499L40.4259 14.912H43.7219V19.968H47.4339V23.936H43.7219V29.536C43.7219 30.0267 43.8819 30.4107 44.2019 30.688C44.5219 30.944 44.9379 31.072 45.4499 31.072C45.9619 31.072 46.4739 30.944 46.9859 30.688L47.4659 35.136C46.9539 35.4987 46.3032 35.776 45.5139 35.968C44.7245 36.16 44.0099 36.256 43.3699 36.256ZM58.2519 36.256C55.5425 36.256 53.4199 35.5733 51.8839 34.208C50.3692 32.8213 49.6119 30.912 49.6119 28.48V19.968H56.2039V28.768C56.2039 29.6213 56.3852 30.2507 56.7479 30.656C57.1319 31.0613 57.6439 31.264 58.2839 31.264C58.9025 31.264 59.3825 31.0613 59.7239 30.656C60.0865 30.2507 60.2679 29.6213 60.2679 28.768V19.968H66.7319V28.48C66.7319 30.9333 65.9852 32.8427 64.4919 34.208C63.0199 35.5733 60.9399 36.256 58.2519 36.256ZM69.7719 36V19.968H76.4279V23.968C76.8545 22.5173 77.5159 21.4507 78.4119 20.768C79.3292 20.0853 80.4172 19.744 81.6759 19.744L82.4759 25.408C81.9639 25.344 81.4625 25.312 80.9719 25.312C78.0065 25.312 76.5239 26.528 76.5239 28.96V36H69.7719ZM90.6876 36.256C89.2156 36.256 87.8823 35.904 86.6876 35.2C85.493 34.4747 84.5436 33.4827 83.8396 32.224C83.157 30.9653 82.8156 29.5253 82.8156 27.904C82.8156 26.2827 83.157 24.864 83.8396 23.648C84.5436 22.432 85.493 21.4827 86.6876 20.8C87.8823 20.096 89.2156 19.744 90.6876 19.744C91.733 19.744 92.7463 20.032 93.7276 20.608C94.709 21.184 95.4663 22.1333 95.9996 23.456V19.968H102.656V36H95.9356V33.024C95.4236 34.0693 94.741 34.8693 93.8876 35.424C93.0343 35.9787 91.9676 36.256 90.6876 36.256ZM92.7676 31.2C93.6423 31.2 94.389 30.8907 95.0076 30.272C95.6263 29.632 95.9356 28.8533 95.9356 27.936C95.9356 27.0187 95.6263 26.272 95.0076 25.696C94.389 25.0987 93.6423 24.8 92.7676 24.8C91.8503 24.8 91.0823 25.1093 90.4636 25.728C89.845 26.3467 89.5356 27.104 89.5356 28C89.5356 28.896 89.845 29.6533 90.4636 30.272C91.0823 30.8907 91.8503 31.2 92.7676 31.2ZM116.906 42.208C114.324 41.9733 112.138 41.2053 110.346 39.904C108.554 38.624 107.199 36.928 106.282 34.816C105.364 32.704 104.906 30.3147 104.906 27.648C104.906 24.832 105.396 22.4107 106.378 20.384C107.359 18.336 108.746 16.7147 110.538 15.52C112.33 14.3253 114.452 13.6107 116.906 13.376V17.408C115.412 17.664 114.228 18.656 113.354 20.384C112.479 22.112 112.042 24.5333 112.042 27.648C112.042 29.5253 112.202 31.2213 112.522 32.736C112.842 34.2293 113.354 35.4453 114.058 36.384C114.783 37.344 115.732 37.9307 116.906 38.144V42.208ZM119.209 36V14.912L125.961 13.92V23.264C126.409 22.1547 127.113 21.2907 128.073 20.672C129.033 20.0533 130.185 19.744 131.529 19.744C133.62 19.744 135.241 20.4693 136.393 21.92C137.545 23.3493 138.121 25.376 138.121 28V36H131.369V27.648C131.369 25.7493 130.601 24.8 129.065 24.8C128.148 24.8 127.401 25.1413 126.825 25.824C126.249 26.4853 125.961 27.3813 125.961 28.512V36H119.209ZM139.876 42.208V38.144C141.391 37.888 142.585 36.8853 143.46 35.136C144.335 33.3653 144.772 30.8693 144.772 27.648C144.772 24.6827 144.345 22.304 143.492 20.512C142.66 18.6987 141.455 17.664 139.876 17.408V13.376C142.543 13.632 144.761 14.4107 146.532 15.712C148.303 16.992 149.636 18.656 150.532 20.704C151.428 22.752 151.876 25.0667 151.876 27.648C151.876 30.4 151.396 32.832 150.436 34.944C149.497 37.0347 148.132 38.7093 146.34 39.968C144.569 41.2267 142.415 41.9733 139.876 42.208Z" fill="black"/>
<line x1="263" y1="108" x2="323" y2="108" stroke="black" stroke-width="8"/>
<line x1="263" y1="130" x2="323" y2="130" stroke="black" stroke-width="8"/>
<line x1="368" y1="119" x2="512" y2="119" stroke="black" stroke-width="6"/>
<path d="M393.386 103.512C390.826 103.512 388.693 102.957 386.986 101.848C385.279 100.739 383.914 99.1387 382.89 97.048V103H369.45V60.824L383.018 58.84V77.528C384.042 75.096 385.493 73.3253 387.37 72.216C389.29 71.064 391.295 70.488 393.386 70.488C396.373 70.488 399.039 71.192 401.386 72.6C403.775 73.9653 405.653 75.864 407.018 78.296C408.426 80.728 409.13 83.5653 409.13 86.808C409.13 90.0507 408.426 92.9307 407.018 95.448C405.653 97.9653 403.775 99.9493 401.386 101.4C399.039 102.808 396.373 103.512 393.386 103.512ZM389.226 93.4C391.061 93.4 392.597 92.7813 393.834 91.544C395.071 90.3067 395.69 88.792 395.69 87C395.69 85.208 395.071 83.6933 393.834 82.456C392.597 81.2187 391.061 80.6 389.226 80.6C387.477 80.6 385.983 81.1973 384.746 82.392C383.509 83.544 382.89 85.0373 382.89 86.872C382.89 88.7067 383.509 90.264 384.746 91.544C385.983 92.7813 387.477 93.4 389.226 93.4ZM422.88 103L432.608 86.36L423.52 70.936H437.024L440.608 78.488L444.32 70.936H457.44L448.48 86.36L458.08 103H444.96L440.608 94.808L436.384 103H422.88ZM473.075 103V60.824L486.579 58.84V77.528C487.475 75.3093 488.883 73.5813 490.803 72.344C492.723 71.1067 495.027 70.488 497.715 70.488C501.896 70.488 505.139 71.9387 507.443 74.84C509.747 77.6987 510.899 81.752 510.899 87V103H497.395V86.296C497.395 82.4987 495.859 80.6 492.787 80.6C490.952 80.6 489.459 81.2827 488.307 82.648C487.155 83.9707 486.579 85.7627 486.579 88.024V103H473.075ZM426.03 192V182.976C430.809 178.453 434.542 174.507 437.23 171.136C439.918 167.723 441.262 164.885 441.262 162.624C441.262 161.131 440.836 160.021 439.982 159.296C439.129 158.528 438.02 158.144 436.654 158.144C433.796 158.144 431.044 159.019 428.398 160.768L425.262 150.784C427.225 149.547 429.38 148.608 431.726 147.968C434.116 147.328 436.462 147.008 438.766 147.008C442.265 147.008 445.145 147.627 447.406 148.864C449.668 150.101 451.353 151.787 452.462 153.92C453.614 156.053 454.19 158.485 454.19 161.216C454.19 165.355 452.868 169.173 450.222 172.672C447.62 176.171 443.716 179.499 438.51 182.656H453.934V192H426.03Z" fill="black"/>
</svg>
